<?xml version="1.0" encoding="utf-8" ?>
<svg baseProfile="full" height="98mm" version="1.1" viewBox="0,0,200,98" width="200mm" xmlns="http://www.w3.org/2000/svg" xmlns:ev="http://www.w3.org/2001/xml-events" xmlns:xlink="http://www.w3.org/1999/xlink"><defs /><rect fill="#222222" height="98" width="200" x="0" y="0" /><text fill="#FFFFFF" style="font-size:12px; font-family:Arial; font-weight:bold;" x="10" y="20">2025 Workouts</text><text fill="#FFFFFF" style="font-size:4px; font-family:Arial" x="10" y="78">ATHLETE</text><text fill="#FFFFFF" style="font-size:9px; font-family:Arial" x="10" y="88">yangjie</text><text fill="#FFFFFF" style="font-size:4px; font-family:Arial" x="120" y="78">STATISTICS</text><text fill="#FFFFFF" style="font-size:3px; font-family:Arial" x="120" y="83">Number: 167</text><text fill="#FFFFFF" style="font-size:3px; font-family:Arial" x="120" y="88">Weekly: 4.4</text><text fill="#FFFFFF" style="font-size:3px; font-family:Arial" x="141" y="83">Total: 5709.4 km</text><text fill="#FFFFFF" style="font-size:3px; font-family:Arial" x="141" y="88">Avg: 34.2 km</text><text fill="#FFFFFF" style="font-size:3px; font-family:Arial" x="167" y="83">Min: 1.0 km</text><text fill="#FFFFFF" style="font-size:3px; font-family:Arial" x="167" y="88">Max: 300.4 km</text><text dominant-baseline="hanging" fill="#FFFFFF" style="font-size:10.0px; font-family:Arial;" x="10" y="30">2025</text><text dominant-baseline="hanging" fill="#FFFFFF" style="font-size:4.125px; font-family:Arial;" x="175" y="35">5709.4 km</text><text fill="#FFFFFF" style="font-size:2.5px; font-family:Arial" x="10.0" y="44">Jan</text><text fill="#FFFFFF" style="font-size:2.5px; font-family:Arial" x="25.5" y="44">Feb</text><text fill="#FFFFFF" style="font-size:2.5px; font-family:Arial" x="41.0" y="44">Mar</text><text fill="#FFFFFF" style="font-size:2.5px; font-family:Arial" x="56.5" y="44">Apr</text><text fill="#FFFFFF" style="font-size:2.5px; font-family:Arial" x="72.0" y="44">May</text><text fill="#FFFFFF" style="font-size:2.5px; font-family:Arial" x="87.5" y="44">Jun</text><text fill="#FFFFFF" style="font-size:2.5px; font-family:Arial" x="103.0" y="44">Jul</text><text fill="#FFFFFF" style="font-size:2.5px; font-family:Arial" x="118.5" y="44">Aug</text><text fill="#FFFFFF" style="font-size:2.5px; font-family:Arial" x="134.0" y="44">Sep</text><text fill="#FFFFFF" style="font-size:2.5px; font-family:Arial" x="149.5" y="44">Oct</text><text fill="#FFFFFF" style="font-size:2.5px; font-family:Arial" x="165.0" y="44">Nov</text><text fill="#FFFFFF" style="font-size:2.5px; font-family:Arial" x="180.5" y="44">Dec</text><rect fill="#444444" height="2.6" width="2.6" x="10.0" y="45.5"><title>2024-12-30</title></rect><rect fill="#444444" height="2.6" width="2.6" x="10.0" y="49.0"><title>2024-12-31</title></rect><rect fill="#444444" height="2.6" width="2.6" x="10.0" y="52.5"><title>2025-01-01</title></rect><rect fill="#444444" height="2.6" width="2.6" x="10.0" y="56.0"><title>2025-01-02</title></rect><rect fill="#4dd2ff" height="2.6" width="2.6" x="10.0" y="59.5"><title>2025-01-03 7.3 km</title></rect><rect fill="#444444" height="2.6" width="2.6" x="10.0" y="63.0"><title>2025-01-04</title></rect><rect fill="red" height="2.6" width="2.6" x="10.0" y="66.5"><title>2025-01-05 41.7 km</title></rect><rect fill="#444444" height="2.6" width="2.6" x="13.5" y="45.5"><title>2025-01-06</title></rect><rect fill="#444444" height="2.6" width="2.6" x="13.5" y="49.0"><title>2025-01-07</title></rect><rect fill="#444444" height="2.6" width="2.6" x="13.5" y="52.5"><title>2025-01-08</title></rect><rect fill="#444444" height="2.6" width="2.6" x="13.5" y="56.0"><title>2025-01-09</title></rect><rect fill="red" height="2.6" width="2.6" x="13.5" y="59.5"><title>2025-01-10 45.5 km</title></rect><rect fill="red" height="2.6" width="2.6" x="13.5" y="63.0"><title>2025-01-11 56.1 km</title></rect><rect fill="red" height="2.6" width="2.6" x="13.5" y="66.5"><title>2025-01-12 54.2 km</title></rect><rect fill="#444444" height="2.6" width="2.6" x="17.0" y="45.5"><title>2025-01-13</title></rect><rect fill="#444444" height="2.6" width="2.6" x="17.0" y="49.0"><title>2025-01-14</title></rect><rect fill="#444444" height="2.6" width="2.6" x="17.0" y="52.5"><title>2025-01-15</title></rect><rect fill="#444444" height="2.6" width="2.6" x="17.0" y="56.0"><title>2025-01-16</title></rect><rect fill="red" height="2.6" width="2.6" x="17.0" y="59.5"><title>2025-01-17 73.7 km</title></rect><rect fill="#444444" height="2.6" width="2.6" x="17.0" y="63.0"><title>2025-01-18</title></rect><rect fill="#444444" height="2.6" width="2.6" x="17.0" y="66.5"><title>2025-01-19</title></rect><rect fill="#444444" height="2.6" width="2.6" x="20.5" y="45.5"><title>2025-01-20</title></rect><rect fill="#444444" height="2.6" width="2.6" x="20.5" y="49.0"><title>2025-01-21</title></rect><rect fill="red" height="2.6" width="2.6" x="20.5" y="52.5"><title>2025-01-22 54.2 km</title></rect><rect fill="#444444" height="2.6" width="2.6" x="20.5" y="56.0"><title>2025-01-23</title></rect><rect fill="#444444" height="2.6" width="2.6" x="20.5" y="59.5"><title>2025-01-24</title></rect><rect fill="#444444" height="2.6" width="2.6" x="20.5" y="63.0"><title>2025-01-25</title></rect><rect fill="#444444" height="2.6" width="2.6" x="20.5" y="66.5"><title>2025-01-26</title></rect><rect fill="#444444" height="2.6" width="2.6" x="24.0" y="45.5"><title>2025-01-27</title></rect><rect fill="#444444" height="2.6" width="2.6" x="24.0" y="49.0"><title>2025-01-28</title></rect><rect fill="#444444" height="2.6" width="2.6" x="24.0" y="52.5"><title>2025-01-29</title></rect><rect fill="#444444" height="2.6" width="2.6" x="24.0" y="56.0"><title>2025-01-30</title></rect><rect fill="#444444" height="2.6" width="2.6" x="24.0" y="59.5"><title>2025-01-31</title></rect><rect fill="#444444" height="2.6" width="2.6" x="24.0" y="63.0"><title>2025-02-01</title></rect><rect fill="#444444" height="2.6" width="2.6" x="24.0" y="66.5"><title>2025-02-02</title></rect><rect fill="#444444" height="2.6" width="2.6" x="27.5" y="45.5"><title>2025-02-03</title></rect><rect fill="#444444" height="2.6" width="2.6" x="27.5" y="49.0"><title>2025-02-04</title></rect><rect fill="#444444" height="2.6" width="2.6" x="27.5" y="52.5"><title>2025-02-05</title></rect><rect fill="#444444" height="2.6" width="2.6" x="27.5" y="56.0"><title>2025-02-06</title></rect><rect fill="#444444" height="2.6" width="2.6" x="27.5" y="59.5"><title>2025-02-07</title></rect><rect fill="#444444" height="2.6" width="2.6" x="27.5" y="63.0"><title>2025-02-08</title></rect><rect fill="#444444" height="2.6" width="2.6" x="27.5" y="66.5"><title>2025-02-09</title></rect><rect fill="#444444" height="2.6" width="2.6" x="31.0" y="45.5"><title>2025-02-10</title></rect><rect fill="#444444" height="2.6" width="2.6" x="31.0" y="49.0"><title>2025-02-11</title></rect><rect fill="#4dd2ff" height="2.6" width="2.6" x="31.0" y="52.5"><title>2025-02-12 7.1 km</title></rect><rect fill="#fff000" height="2.6" width="2.6" x="31.0" y="56.0"><title>2025-02-13 20.0 km</title></rect><rect fill="#444444" height="2.6" width="2.6" x="31.0" y="59.5"><title>2025-02-14</title></rect><rect fill="red" height="2.6" width="2.6" x="31.0" y="63.0"><title>2025-02-15 27.5 km</title></rect><rect fill="#444444" height="2.6" width="2.6" x="31.0" y="66.5"><title>2025-02-16</title></rect><rect fill="#444444" height="2.6" width="2.6" x="34.5" y="45.5"><title>2025-02-17</title></rect><rect fill="#444444" height="2.6" width="2.6" x="34.5" y="49.0"><title>2025-02-18</title></rect><rect fill="#444444" height="2.6" width="2.6" x="34.5" y="52.5"><title>2025-02-19</title></rect><rect fill="#444444" height="2.6" width="2.6" x="34.5" y="56.0"><title>2025-02-20</title></rect><rect fill="#fff500" height="2.6" width="2.6" x="34.5" y="59.5"><title>2025-02-21 13.5 km</title></rect><rect fill="red" height="2.6" width="2.6" x="34.5" y="63.0"><title>2025-02-22 29.3 km</title></rect><rect fill="#444444" height="2.6" width="2.6" x="34.5" y="66.5"><title>2025-02-23</title></rect><rect fill="#444444" height="2.6" width="2.6" x="38.0" y="45.5"><title>2025-02-24</title></rect><rect fill="#444444" height="2.6" width="2.6" x="38.0" y="49.0"><title>2025-02-25</title></rect><rect fill="#444444" height="2.6" width="2.6" x="38.0" y="52.5"><title>2025-02-26</title></rect><rect fill="#444444" height="2.6" width="2.6" x="38.0" y="56.0"><title>2025-02-27</title></rect><rect fill="#fff600" height="2.6" width="2.6" x="38.0" y="59.5"><title>2025-02-28 12.8 km</title></rect><rect fill="red" height="2.6" width="2.6" x="38.0" y="63.0"><title>2025-03-01 66.9 km</title></rect><rect fill="#444444" height="2.6" width="2.6" x="38.0" y="66.5"><title>2025-03-02</title></rect><rect fill="#444444" height="2.6" width="2.6" x="41.5" y="45.5"><title>2025-03-03</title></rect><rect fill="#444444" height="2.6" width="2.6" x="41.5" y="49.0"><title>2025-03-04</title></rect><rect fill="#444444" height="2.6" width="2.6" x="41.5" y="52.5"><title>2025-03-05</title></rect><rect fill="#444444" height="2.6" width="2.6" x="41.5" y="56.0"><title>2025-03-06</title></rect><rect fill="red" height="2.6" width="2.6" x="41.5" y="59.5"><title>2025-03-07 60.2 km</title></rect><rect fill="#444444" height="2.6" width="2.6" x="41.5" y="63.0"><title>2025-03-08</title></rect><rect fill="#444444" height="2.6" width="2.6" x="41.5" y="66.5"><title>2025-03-09</title></rect><rect fill="#444444" height="2.6" width="2.6" x="45.0" y="45.5"><title>2025-03-10</title></rect><rect fill="#444444" height="2.6" width="2.6" x="45.0" y="49.0"><title>2025-03-11</title></rect><rect fill="#444444" height="2.6" width="2.6" x="45.0" y="52.5"><title>2025-03-12</title></rect><rect fill="#444444" height="2.6" width="2.6" x="45.0" y="56.0"><title>2025-03-13</title></rect><rect fill="#444444" height="2.6" width="2.6" x="45.0" y="59.5"><title>2025-03-14</title></rect><rect fill="#444444" height="2.6" width="2.6" x="45.0" y="63.0"><title>2025-03-15</title></rect><rect fill="red" height="2.6" width="2.6" x="45.0" y="66.5"><title>2025-03-16 30.2 km</title></rect><rect fill="#444444" height="2.6" width="2.6" x="48.5" y="45.5"><title>2025-03-17</title></rect><rect fill="#444444" height="2.6" width="2.6" x="48.5" y="49.0"><title>2025-03-18</title></rect><rect fill="red" height="2.6" width="2.6" x="48.5" y="52.5"><title>2025-03-19 65.1 km</title></rect><rect fill="#444444" height="2.6" width="2.6" x="48.5" y="56.0"><title>2025-03-20</title></rect><rect fill="#444444" height="2.6" width="2.6" x="48.5" y="59.5"><title>2025-03-21</title></rect><rect fill="red" height="2.6" width="2.6" x="48.5" y="63.0"><title>2025-03-22 27.5 km</title></rect><rect fill="#444444" height="2.6" width="2.6" x="48.5" y="66.5"><title>2025-03-23</title></rect><rect fill="red" height="2.6" width="2.6" x="52.0" y="45.5"><title>2025-03-24 32.5 km</title></rect><rect fill="#444444" height="2.6" width="2.6" x="52.0" y="49.0"><title>2025-03-25</title></rect><rect fill="#fff700" height="2.6" width="2.6" x="52.0" y="52.5"><title>2025-03-26 11.0 km</title></rect><rect fill="#444444" height="2.6" width="2.6" x="52.0" y="56.0"><title>2025-03-27</title></rect><rect fill="#444444" height="2.6" width="2.6" x="52.0" y="59.5"><title>2025-03-28</title></rect><rect fill="#444444" height="2.6" width="2.6" x="52.0" y="63.0"><title>2025-03-29</title></rect><rect fill="red" height="2.6" width="2.6" x="52.0" y="66.5"><title>2025-03-30 58.9 km</title></rect><rect fill="#444444" height="2.6" width="2.6" x="55.5" y="45.5"><title>2025-03-31</title></rect><rect fill="#444444" height="2.6" width="2.6" x="55.5" y="49.0"><title>2025-04-01</title></rect><rect fill="#444444" height="2.6" width="2.6" x="55.5" y="52.5"><title>2025-04-02</title></rect><rect fill="#fff200" height="2.6" width="2.6" x="55.5" y="56.0"><title>2025-04-03 17.4 km</title></rect><rect fill="#444444" height="2.6" width="2.6" x="55.5" y="59.5"><title>2025-04-04</title></rect><rect fill="red" height="2.6" width="2.6" x="55.5" y="63.0"><title>2025-04-05 100.1 km</title></rect><rect fill="#444444" height="2.6" width="2.6" x="55.5" y="66.5"><title>2025-04-06</title></rect><rect fill="#444444" height="2.6" width="2.6" x="59.0" y="45.5"><title>2025-04-07</title></rect><rect fill="#444444" height="2.6" width="2.6" x="59.0" y="49.0"><title>2025-04-08</title></rect><rect fill="#444444" height="2.6" width="2.6" x="59.0" y="52.5"><title>2025-04-09</title></rect><rect fill="#444444" height="2.6" width="2.6" x="59.0" y="56.0"><title>2025-04-10</title></rect><rect fill="red" height="2.6" width="2.6" x="59.0" y="59.5"><title>2025-04-11 43.1 km</title></rect><rect fill="red" height="2.6" width="2.6" x="59.0" y="63.0"><title>2025-04-12 35.3 km</title></rect><rect fill="red" height="2.6" width="2.6" x="59.0" y="66.5"><title>2025-04-13 40.3 km</title></rect><rect fill="red" height="2.6" width="2.6" x="62.5" y="45.5"><title>2025-04-14 66.7 km</title></rect><rect fill="#444444" height="2.6" width="2.6" x="62.5" y="49.0"><title>2025-04-15</title></rect><rect fill="#444444" height="2.6" width="2.6" x="62.5" y="52.5"><title>2025-04-16</title></rect><rect fill="red" height="2.6" width="2.6" x="62.5" y="56.0"><title>2025-04-17 51.1 km</title></rect><rect fill="red" height="2.6" width="2.6" x="62.5" y="59.5"><title>2025-04-18 36.5 km</title></rect><rect fill="#fff200" height="2.6" width="2.6" x="62.5" y="63.0"><title>2025-04-19 17.8 km</title></rect><rect fill="red" height="2.6" width="2.6" x="62.5" y="66.5"><title>2025-04-20 50.2 km</title></rect><rect fill="#444444" height="2.6" width="2.6" x="66.0" y="45.5"><title>2025-04-21</title></rect><rect fill="#444444" height="2.6" width="2.6" x="66.0" y="49.0"><title>2025-04-22</title></rect><rect fill="#444444" height="2.6" width="2.6" x="66.0" y="52.5"><title>2025-04-23</title></rect><rect fill="#444444" height="2.6" width="2.6" x="66.0" y="56.0"><title>2025-04-24</title></rect><rect fill="red" height="2.6" width="2.6" x="66.0" y="59.5"><title>2025-04-25 43.8 km</title></rect><rect fill="#444444" height="2.6" width="2.6" x="66.0" y="63.0"><title>2025-04-26</title></rect><rect fill="red" height="2.6" width="2.6" x="66.0" y="66.5"><title>2025-04-27 47.1 km</title></rect><rect fill="red" height="2.6" width="2.6" x="69.5" y="45.5"><title>2025-04-28 63.2 km</title></rect><rect fill="#444444" height="2.6" width="2.6" x="69.5" y="49.0"><title>2025-04-29</title></rect><rect fill="#444444" height="2.6" width="2.6" x="69.5" y="52.5"><title>2025-04-30</title></rect><rect fill="#444444" height="2.6" width="2.6" x="69.5" y="56.0"><title>2025-05-01</title></rect><rect fill="red" height="2.6" width="2.6" x="69.5" y="59.5"><title>2025-05-02 90.7 km</title></rect><rect fill="#444444" height="2.6" width="2.6" x="69.5" y="63.0"><title>2025-05-03</title></rect><rect fill="red" height="2.6" width="2.6" x="69.5" y="66.5"><title>2025-05-04 31.9 km</title></rect><rect fill="#444444" height="2.6" width="2.6" x="73.0" y="45.5"><title>2025-05-05</title></rect><rect fill="#444444" height="2.6" width="2.6" x="73.0" y="49.0"><title>2025-05-06</title></rect><rect fill="#444444" height="2.6" width="2.6" x="73.0" y="52.5"><title>2025-05-07</title></rect><rect fill="#444444" height="2.6" width="2.6" x="73.0" y="56.0"><title>2025-05-08</title></rect><rect fill="#444444" height="2.6" width="2.6" x="73.0" y="59.5"><title>2025-05-09</title></rect><rect fill="red" height="2.6" width="2.6" x="73.0" y="63.0"><title>2025-05-10 51.5 km</title></rect><rect fill="#444444" height="2.6" width="2.6" x="73.0" y="66.5"><title>2025-05-11</title></rect><rect fill="#444444" height="2.6" width="2.6" x="76.5" y="45.5"><title>2025-05-12</title></rect><rect fill="#444444" height="2.6" width="2.6" x="76.5" y="49.0"><title>2025-05-13</title></rect><rect fill="#444444" height="2.6" width="2.6" x="76.5" y="52.5"><title>2025-05-14</title></rect><rect fill="#444444" height="2.6" width="2.6" x="76.5" y="56.0"><title>2025-05-15</title></rect><rect fill="#444444" height="2.6" width="2.6" x="76.5" y="59.5"><title>2025-05-16</title></rect><rect fill="#444444" height="2.6" width="2.6" x="76.5" y="63.0"><title>2025-05-17</title></rect><rect fill="#4dd2ff" height="2.6" width="2.6" x="76.5" y="66.5"><title>2025-05-18 4.9 km</title></rect><rect fill="#444444" height="2.6" width="2.6" x="80.0" y="45.5"><title>2025-05-19</title></rect><rect fill="#444444" height="2.6" width="2.6" x="80.0" y="49.0"><title>2025-05-20</title></rect><rect fill="#444444" height="2.6" width="2.6" x="80.0" y="52.5"><title>2025-05-21</title></rect><rect fill="#444444" height="2.6" width="2.6" x="80.0" y="56.0"><title>2025-05-22</title></rect><rect fill="red" height="2.6" width="2.6" x="80.0" y="59.5"><title>2025-05-23 100.2 km</title></rect><rect fill="red" height="2.6" width="2.6" x="80.0" y="63.0"><title>2025-05-24 22.5 km</title></rect><rect fill="#444444" height="2.6" width="2.6" x="80.0" y="66.5"><title>2025-05-25</title></rect><rect fill="#444444" height="2.6" width="2.6" x="83.5" y="45.5"><title>2025-05-26</title></rect><rect fill="#444444" height="2.6" width="2.6" x="83.5" y="49.0"><title>2025-05-27</title></rect><rect fill="#444444" height="2.6" width="2.6" x="83.5" y="52.5"><title>2025-05-28</title></rect><rect fill="#444444" height="2.6" width="2.6" x="83.5" y="56.0"><title>2025-05-29</title></rect><rect fill="red" height="2.6" width="2.6" x="83.5" y="59.5"><title>2025-05-30 35.4 km</title></rect><rect fill="red" height="2.6" width="2.6" x="83.5" y="63.0"><title>2025-05-31 82.3 km</title></rect><rect fill="#444444" height="2.6" width="2.6" x="83.5" y="66.5"><title>2025-06-01</title></rect><rect fill="#444444" height="2.6" width="2.6" x="87.0" y="45.5"><title>2025-06-02</title></rect><rect fill="red" height="2.6" width="2.6" x="87.0" y="49.0"><title>2025-06-03 44.2 km</title></rect><rect fill="red" height="2.6" width="2.6" x="87.0" y="52.5"><title>2025-06-04 30.5 km</title></rect><rect fill="#444444" height="2.6" width="2.6" x="87.0" y="56.0"><title>2025-06-05</title></rect><rect fill="red" height="2.6" width="2.6" x="87.0" y="59.5"><title>2025-06-06 40.9 km</title></rect><rect fill="red" height="2.6" width="2.6" x="87.0" y="63.0"><title>2025-06-07 60.7 km</title></rect><rect fill="#444444" height="2.6" width="2.6" x="87.0" y="66.5"><title>2025-06-08</title></rect><rect fill="#444444" height="2.6" width="2.6" x="90.5" y="45.5"><title>2025-06-09</title></rect><rect fill="#444444" height="2.6" width="2.6" x="90.5" y="49.0"><title>2025-06-10</title></rect><rect fill="red" height="2.6" width="2.6" x="90.5" y="52.5"><title>2025-06-11 30.0 km</title></rect><rect fill="#444444" height="2.6" width="2.6" x="90.5" y="56.0"><title>2025-06-12</title></rect><rect fill="#444444" height="2.6" width="2.6" x="90.5" y="59.5"><title>2025-06-13</title></rect><rect fill="#444444" height="2.6" width="2.6" x="90.5" y="63.0"><title>2025-06-14</title></rect><rect fill="#444444" height="2.6" width="2.6" x="90.5" y="66.5"><title>2025-06-15</title></rect><rect fill="#444444" height="2.6" width="2.6" x="94.0" y="45.5"><title>2025-06-16</title></rect><rect fill="#444444" height="2.6" width="2.6" x="94.0" y="49.0"><title>2025-06-17</title></rect><rect fill="red" height="2.6" width="2.6" x="94.0" y="52.5"><title>2025-06-18 32.9 km</title></rect><rect fill="#444444" height="2.6" width="2.6" x="94.0" y="56.0"><title>2025-06-19</title></rect><rect fill="red" height="2.6" width="2.6" x="94.0" y="59.5"><title>2025-06-20 36.7 km</title></rect><rect fill="red" height="2.6" width="2.6" x="94.0" y="63.0"><title>2025-06-21 72.5 km</title></rect><rect fill="#444444" height="2.6" width="2.6" x="94.0" y="66.5"><title>2025-06-22</title></rect><rect fill="#444444" height="2.6" width="2.6" x="97.5" y="45.5"><title>2025-06-23</title></rect><rect fill="#444444" height="2.6" width="2.6" x="97.5" y="49.0"><title>2025-06-24</title></rect><rect fill="#444444" height="2.6" width="2.6" x="97.5" y="52.5"><title>2025-06-25</title></rect><rect fill="#444444" height="2.6" width="2.6" x="97.5" y="56.0"><title>2025-06-26</title></rect><rect fill="#444444" height="2.6" width="2.6" x="97.5" y="59.5"><title>2025-06-27</title></rect><rect fill="red" height="2.6" width="2.6" x="97.5" y="63.0"><title>2025-06-28 150.9 km</title></rect><rect fill="#444444" height="2.6" width="2.6" x="97.5" y="66.5"><title>2025-06-29</title></rect><rect fill="red" height="2.6" width="2.6" x="101.0" y="45.5"><title>2025-06-30 51.8 km</title></rect><rect fill="red" height="2.6" width="2.6" x="101.0" y="49.0"><title>2025-07-01 32.4 km</title></rect><rect fill="red" height="2.6" width="2.6" x="101.0" y="52.5"><title>2025-07-02 52.9 km</title></rect><rect fill="#444444" height="2.6" width="2.6" x="101.0" y="56.0"><title>2025-07-03</title></rect><rect fill="red" height="2.6" width="2.6" x="101.0" y="59.5"><title>2025-07-04 40.9 km</title></rect><rect fill="red" height="2.6" width="2.6" x="101.0" y="63.0"><title>2025-07-05 96.5 km</title></rect><rect fill="red" height="2.6" width="2.6" x="101.0" y="66.5"><title>2025-07-06 40.1 km</title></rect><rect fill="red" height="2.6" width="2.6" x="104.5" y="45.5"><title>2025-07-07 81.1 km</title></rect><rect fill="#444444" height="2.6" width="2.6" x="104.5" y="49.0"><title>2025-07-08</title></rect><rect fill="red" height="2.6" width="2.6" x="104.5" y="52.5"><title>2025-07-09 29.5 km</title></rect><rect fill="#444444" height="2.6" width="2.6" x="104.5" y="56.0"><title>2025-07-10</title></rect><rect fill="#444444" height="2.6" width="2.6" x="104.5" y="59.5"><title>2025-07-11</title></rect><rect fill="red" height="2.6" width="2.6" x="104.5" y="63.0"><title>2025-07-12 26.1 km</title></rect><rect fill="#444444" height="2.6" width="2.6" x="104.5" y="66.5"><title>2025-07-13</title></rect><rect fill="red" height="2.6" width="2.6" x="108.0" y="45.5"><title>2025-07-14 55.1 km</title></rect><rect fill="#fff800" height="2.6" width="2.6" x="108.0" y="49.0"><title>2025-07-15 10.5 km</title></rect><rect fill="red" height="2.6" width="2.6" x="108.0" y="52.5"><title>2025-07-16 26.7 km</title></rect><rect fill="red" height="2.6" width="2.6" x="108.0" y="56.0"><title>2025-07-17 71.8 km</title></rect><rect fill="red" height="2.6" width="2.6" x="108.0" y="59.5"><title>2025-07-18 63.1 km</title></rect><rect fill="red" height="2.6" width="2.6" x="108.0" y="63.0"><title>2025-07-19 48.4 km</title></rect><rect fill="red" height="2.6" width="2.6" x="108.0" y="66.5"><title>2025-07-20 23.2 km</title></rect><rect fill="#4dd2ff" height="2.6" width="2.6" x="111.5" y="45.5"><title>2025-07-21 6.5 km</title></rect><rect fill="red" height="2.6" width="2.6" x="111.5" y="49.0"><title>2025-07-22 124.7 km</title></rect><rect fill="red" height="2.6" width="2.6" x="111.5" y="52.5"><title>2025-07-23 98.4 km</title></rect><rect fill="#4dd2ff" height="2.6" width="2.6" x="111.5" y="56.0"><title>2025-07-24 7.1 km</title></rect><rect fill="#4dd2ff" height="2.6" width="2.6" x="111.5" y="59.5"><title>2025-07-25 4.0 km</title></rect><rect fill="red" height="2.6" width="2.6" x="111.5" y="63.0"><title>2025-07-26 121.9 km</title></rect><rect fill="#444444" height="2.6" width="2.6" x="111.5" y="66.5"><title>2025-07-27</title></rect><rect fill="red" height="2.6" width="2.6" x="115.0" y="45.5"><title>2025-07-28 53.6 km</title></rect><rect fill="red" height="2.6" width="2.6" x="115.0" y="49.0"><title>2025-07-29 55.2 km</title></rect><rect fill="red" height="2.6" width="2.6" x="115.0" y="52.5"><title>2025-07-30 66.0 km</title></rect><rect fill="#444444" height="2.6" width="2.6" x="115.0" y="56.0"><title>2025-07-31</title></rect><rect fill="red" height="2.6" width="2.6" x="115.0" y="59.5"><title>2025-08-01 40.6 km</title></rect><rect fill="red" height="2.6" width="2.6" x="115.0" y="63.0"><title>2025-08-02 35.5 km</title></rect><rect fill="red" height="2.6" width="2.6" x="115.0" y="66.5"><title>2025-08-03 49.4 km</title></rect><rect fill="red" height="2.6" width="2.6" x="118.5" y="45.5"><title>2025-08-04 51.7 km</title></rect><rect fill="#4dd2ff" height="2.6" width="2.6" x="118.5" y="49.0"><title>2025-08-05 4.3 km</title></rect><rect fill="#fff700" height="2.6" width="2.6" x="118.5" y="52.5"><title>2025-08-06 11.7 km</title></rect><rect fill="red" height="2.6" width="2.6" x="118.5" y="56.0"><title>2025-08-07 72.1 km</title></rect><rect fill="red" height="2.6" width="2.6" x="118.5" y="59.5"><title>2025-08-08 80.7 km</title></rect><rect fill="red" height="2.6" width="2.6" x="118.5" y="63.0"><title>2025-08-09 40.5 km</title></rect><rect fill="red" height="2.6" width="2.6" x="118.5" y="66.5"><title>2025-08-10 90.3 km</title></rect><rect fill="#444444" height="2.6" width="2.6" x="122.0" y="45.5"><title>2025-08-11</title></rect><rect fill="#444444" height="2.6" width="2.6" x="122.0" y="49.0"><title>2025-08-12</title></rect><rect fill="red" height="2.6" width="2.6" x="122.0" y="52.5"><title>2025-08-13 22.7 km</title></rect><rect fill="#444444" height="2.6" width="2.6" x="122.0" y="56.0"><title>2025-08-14</title></rect><rect fill="red" height="2.6" width="2.6" x="122.0" y="59.5"><title>2025-08-15 36.4 km</title></rect><rect fill="#444444" height="2.6" width="2.6" x="122.0" y="63.0"><title>2025-08-16</title></rect><rect fill="red" height="2.6" width="2.6" x="122.0" y="66.5"><title>2025-08-17 50.1 km</title></rect><rect fill="#fff600" height="2.6" width="2.6" x="125.5" y="45.5"><title>2025-08-18 12.8 km</title></rect><rect fill="red" height="2.6" width="2.6" x="125.5" y="49.0"><title>2025-08-19 300.4 km</title></rect><rect fill="#444444" height="2.6" width="2.6" x="125.5" y="52.5"><title>2025-08-20</title></rect><rect fill="#444444" height="2.6" width="2.6" x="125.5" y="56.0"><title>2025-08-21</title></rect><rect fill="#4dd2ff" height="2.6" width="2.6" x="125.5" y="59.5"><title>2025-08-22 8.9 km</title></rect><rect fill="red" height="2.6" width="2.6" x="125.5" y="63.0"><title>2025-08-23 240.0 km</title></rect><rect fill="red" height="2.6" width="2.6" x="125.5" y="66.5"><title>2025-08-24 28.9 km</title></rect><rect fill="#444444" height="2.6" width="2.6" x="129.0" y="45.5"><title>2025-08-25</title></rect><rect fill="#444444" height="2.6" width="2.6" x="129.0" y="49.0"><title>2025-08-26</title></rect><rect fill="red" height="2.6" width="2.6" x="129.0" y="52.5"><title>2025-08-27 83.0 km</title></rect><rect fill="#444444" height="2.6" width="2.6" x="129.0" y="56.0"><title>2025-08-28</title></rect><rect fill="red" height="2.6" width="2.6" x="129.0" y="59.5"><title>2025-08-29 48.3 km</title></rect><rect fill="#444444" height="2.6" width="2.6" x="129.0" y="63.0"><title>2025-08-30</title></rect><rect fill="#444444" height="2.6" width="2.6" x="129.0" y="66.5"><title>2025-08-31</title></rect><rect fill="#4dd2ff" height="2.6" width="2.6" x="132.5" y="45.5"><title>2025-09-01 2.1 km</title></rect><rect fill="red" height="2.6" width="2.6" x="132.5" y="49.0"><title>2025-09-02 30.2 km</title></rect><rect fill="#444444" height="2.6" width="2.6" x="132.5" y="52.5"><title>2025-09-03</title></rect><rect fill="#444444" height="2.6" width="2.6" x="132.5" y="56.0"><title>2025-09-04</title></rect><rect fill="red" height="2.6" width="2.6" x="132.5" y="59.5"><title>2025-09-05 40.3 km</title></rect><rect fill="#4dd2ff" height="2.6" width="2.6" x="132.5" y="63.0"><title>2025-09-06 4.0 km</title></rect><rect fill="red" height="2.6" width="2.6" x="132.5" y="66.5"><title>2025-09-07 50.7 km</title></rect><rect fill="red" height="2.6" width="2.6" x="136.0" y="45.5"><title>2025-09-08 29.7 km</title></rect><rect fill="#444444" height="2.6" width="2.6" x="136.0" y="49.0"><title>2025-09-09</title></rect><rect fill="#444444" height="2.6" width="2.6" x="136.0" y="52.5"><title>2025-09-10</title></rect><rect fill="red" height="2.6" width="2.6" x="136.0" y="56.0"><title>2025-09-11 50.7 km</title></rect><rect fill="red" height="2.6" width="2.6" x="136.0" y="59.5"><title>2025-09-12 80.8 km</title></rect><rect fill="#444444" height="2.6" width="2.6" x="136.0" y="63.0"><title>2025-09-13</title></rect><rect fill="red" height="2.6" width="2.6" x="136.0" y="66.5"><title>2025-09-14 32.9 km</title></rect><rect fill="#4dd2ff" height="2.6" width="2.6" x="139.5" y="45.5"><title>2025-09-15 5.1 km</title></rect><rect fill="#444444" height="2.6" width="2.6" x="139.5" y="49.0"><title>2025-09-16</title></rect><rect fill="red" height="2.6" width="2.6" x="139.5" y="52.5"><title>2025-09-17 23.7 km</title></rect><rect fill="#444444" height="2.6" width="2.6" x="139.5" y="56.0"><title>2025-09-18</title></rect><rect fill="red" height="2.6" width="2.6" x="139.5" y="59.5"><title>2025-09-19 100.1 km</title></rect><rect fill="#4dd2ff" height="2.6" width="2.6" x="139.5" y="63.0"><title>2025-09-20 7.0 km</title></rect><rect fill="red" height="2.6" width="2.6" x="139.5" y="66.5"><title>2025-09-21 29.6 km</title></rect><rect fill="#fff800" height="2.6" width="2.6" x="143.0" y="45.5"><title>2025-09-22 10.3 km</title></rect><rect fill="red" height="2.6" width="2.6" x="143.0" y="49.0"><title>2025-09-23 56.6 km</title></rect><rect fill="#4dd2ff" height="2.6" width="2.6" x="143.0" y="52.5"><title>2025-09-24 5.1 km</title></rect><rect fill="#4dd2ff" height="2.6" width="2.6" x="143.0" y="56.0"><title>2025-09-25 4.2 km</title></rect><rect fill="#444444" height="2.6" width="2.6" x="143.0" y="59.5"><title>2025-09-26</title></rect><rect fill="red" height="2.6" width="2.6" x="143.0" y="63.0"><title>2025-09-27 58.4 km</title></rect><rect fill="#444444" height="2.6" width="2.6" x="143.0" y="66.5"><title>2025-09-28</title></rect><rect fill="#fff600" height="2.6" width="2.6" x="146.5" y="45.5"><title>2025-09-29 12.0 km</title></rect><rect fill="red" height="2.6" width="2.6" x="146.5" y="49.0"><title>2025-09-30 60.4 km</title></rect><rect fill="red" height="2.6" width="2.6" x="146.5" y="52.5"><title>2025-10-01 51.7 km</title></rect><rect fill="red" height="2.6" width="2.6" x="146.5" y="56.0"><title>2025-10-02 30.5 km</title></rect><rect fill="#fff700" height="2.6" width="2.6" x="146.5" y="59.5"><title>2025-10-03 11.2 km</title></rect><rect fill="#444444" height="2.6" width="2.6" x="146.5" y="63.0"><title>2025-10-04</title></rect><rect fill="#444444" height="2.6" width="2.6" x="146.5" y="66.5"><title>2025-10-05</title></rect><rect fill="#444444" height="2.6" width="2.6" x="150.0" y="45.5"><title>2025-10-06</title></rect><rect fill="#444444" height="2.6" width="2.6" x="150.0" y="49.0"><title>2025-10-07</title></rect><rect fill="#444444" height="2.6" width="2.6" x="150.0" y="52.5"><title>2025-10-08</title></rect><rect fill="#444444" height="2.6" width="2.6" x="150.0" y="56.0"><title>2025-10-09</title></rect><rect fill="#444444" height="2.6" width="2.6" x="150.0" y="59.5"><title>2025-10-10</title></rect><rect fill="#444444" height="2.6" width="2.6" x="150.0" y="63.0"><title>2025-10-11</title></rect><rect fill="#444444" height="2.6" width="2.6" x="150.0" y="66.5"><title>2025-10-12</title></rect><rect fill="#444444" height="2.6" width="2.6" x="153.5" y="45.5"><title>2025-10-13</title></rect><rect fill="#444444" height="2.6" width="2.6" x="153.5" y="49.0"><title>2025-10-14</title></rect><rect fill="#444444" height="2.6" width="2.6" x="153.5" y="52.5"><title>2025-10-15</title></rect><rect fill="#444444" height="2.6" width="2.6" x="153.5" y="56.0"><title>2025-10-16</title></rect><rect fill="#444444" height="2.6" width="2.6" x="153.5" y="59.5"><title>2025-10-17</title></rect><rect fill="#444444" height="2.6" width="2.6" x="153.5" y="63.0"><title>2025-10-18</title></rect><rect fill="#444444" height="2.6" width="2.6" x="153.5" y="66.5"><title>2025-10-19</title></rect><rect fill="#444444" height="2.6" width="2.6" x="157.0" y="45.5"><title>2025-10-20</title></rect><rect fill="#444444" height="2.6" width="2.6" x="157.0" y="49.0"><title>2025-10-21</title></rect><rect fill="#444444" height="2.6" width="2.6" x="157.0" y="52.5"><title>2025-10-22</title></rect><rect fill="#444444" height="2.6" width="2.6" x="157.0" y="56.0"><title>2025-10-23</title></rect><rect fill="#444444" height="2.6" width="2.6" x="157.0" y="59.5"><title>2025-10-24</title></rect><rect fill="#444444" height="2.6" width="2.6" x="157.0" y="63.0"><title>2025-10-25</title></rect><rect fill="#444444" height="2.6" width="2.6" x="157.0" y="66.5"><title>2025-10-26</title></rect><rect fill="#444444" height="2.6" width="2.6" x="160.5" y="45.5"><title>2025-10-27</title></rect><rect fill="#444444" height="2.6" width="2.6" x="160.5" y="49.0"><title>2025-10-28</title></rect><rect fill="#444444" height="2.6" width="2.6" x="160.5" y="52.5"><title>2025-10-29</title></rect><rect fill="#444444" height="2.6" width="2.6" x="160.5" y="56.0"><title>2025-10-30</title></rect><rect fill="#444444" height="2.6" width="2.6" x="160.5" y="59.5"><title>2025-10-31</title></rect><rect fill="#444444" height="2.6" width="2.6" x="160.5" y="63.0"><title>2025-11-01</title></rect><rect fill="#444444" height="2.6" width="2.6" x="160.5" y="66.5"><title>2025-11-02</title></rect><rect fill="#444444" height="2.6" width="2.6" x="164.0" y="45.5"><title>2025-11-03</title></rect><rect fill="#444444" height="2.6" width="2.6" x="164.0" y="49.0"><title>2025-11-04</title></rect><rect fill="#444444" height="2.6" width="2.6" x="164.0" y="52.5"><title>2025-11-05</title></rect><rect fill="#444444" height="2.6" width="2.6" x="164.0" y="56.0"><title>2025-11-06</title></rect><rect fill="#444444" height="2.6" width="2.6" x="164.0" y="59.5"><title>2025-11-07</title></rect><rect fill="#444444" height="2.6" width="2.6" x="164.0" y="63.0"><title>2025-11-08</title></rect><rect fill="#444444" height="2.6" width="2.6" x="164.0" y="66.5"><title>2025-11-09</title></rect><rect fill="#444444" height="2.6" width="2.6" x="167.5" y="45.5"><title>2025-11-10</title></rect><rect fill="#444444" height="2.6" width="2.6" x="167.5" y="49.0"><title>2025-11-11</title></rect><rect fill="#444444" height="2.6" width="2.6" x="167.5" y="52.5"><title>2025-11-12</title></rect><rect fill="#444444" height="2.6" width="2.6" x="167.5" y="56.0"><title>2025-11-13</title></rect><rect fill="#444444" height="2.6" width="2.6" x="167.5" y="59.5"><title>2025-11-14</title></rect><rect fill="#444444" height="2.6" width="2.6" x="167.5" y="63.0"><title>2025-11-15</title></rect><rect fill="#444444" height="2.6" width="2.6" x="167.5" y="66.5"><title>2025-11-16</title></rect><rect fill="#444444" height="2.6" width="2.6" x="171.0" y="45.5"><title>2025-11-17</title></rect><rect fill="#444444" height="2.6" width="2.6" x="171.0" y="49.0"><title>2025-11-18</title></rect><rect fill="#444444" height="2.6" width="2.6" x="171.0" y="52.5"><title>2025-11-19</title></rect><rect fill="#444444" height="2.6" width="2.6" x="171.0" y="56.0"><title>2025-11-20</title></rect><rect fill="#444444" height="2.6" width="2.6" x="171.0" y="59.5"><title>2025-11-21</title></rect><rect fill="#444444" height="2.6" width="2.6" x="171.0" y="63.0"><title>2025-11-22</title></rect><rect fill="#444444" height="2.6" width="2.6" x="171.0" y="66.5"><title>2025-11-23</title></rect><rect fill="#444444" height="2.6" width="2.6" x="174.5" y="45.5"><title>2025-11-24</title></rect><rect fill="#444444" height="2.6" width="2.6" x="174.5" y="49.0"><title>2025-11-25</title></rect><rect fill="#444444" height="2.6" width="2.6" x="174.5" y="52.5"><title>2025-11-26</title></rect><rect fill="#444444" height="2.6" width="2.6" x="174.5" y="56.0"><title>2025-11-27</title></rect><rect fill="#444444" height="2.6" width="2.6" x="174.5" y="59.5"><title>2025-11-28</title></rect><rect fill="#444444" height="2.6" width="2.6" x="174.5" y="63.0"><title>2025-11-29</title></rect><rect fill="#444444" height="2.6" width="2.6" x="174.5" y="66.5"><title>2025-11-30</title></rect><rect fill="#444444" height="2.6" width="2.6" x="178.0" y="45.5"><title>2025-12-01</title></rect><rect fill="#444444" height="2.6" width="2.6" x="178.0" y="49.0"><title>2025-12-02</title></rect><rect fill="#444444" height="2.6" width="2.6" x="178.0" y="52.5"><title>2025-12-03</title></rect><rect fill="#444444" height="2.6" width="2.6" x="178.0" y="56.0"><title>2025-12-04</title></rect><rect fill="#444444" height="2.6" width="2.6" x="178.0" y="59.5"><title>2025-12-05</title></rect><rect fill="#444444" height="2.6" width="2.6" x="178.0" y="63.0"><title>2025-12-06</title></rect><rect fill="#444444" height="2.6" width="2.6" x="178.0" y="66.5"><title>2025-12-07</title></rect><rect fill="#444444" height="2.6" width="2.6" x="181.5" y="45.5"><title>2025-12-08</title></rect><rect fill="#444444" height="2.6" width="2.6" x="181.5" y="49.0"><title>2025-12-09</title></rect><rect fill="#444444" height="2.6" width="2.6" x="181.5" y="52.5"><title>2025-12-10</title></rect><rect fill="#444444" height="2.6" width="2.6" x="181.5" y="56.0"><title>2025-12-11</title></rect><rect fill="#444444" height="2.6" width="2.6" x="181.5" y="59.5"><title>2025-12-12</title></rect><rect fill="#444444" height="2.6" width="2.6" x="181.5" y="63.0"><title>2025-12-13</title></rect><rect fill="#444444" height="2.6" width="2.6" x="181.5" y="66.5"><title>2025-12-14</title></rect><rect fill="#444444" height="2.6" width="2.6" x="185.0" y="45.5"><title>2025-12-15</title></rect><rect fill="#444444" height="2.6" width="2.6" x="185.0" y="49.0"><title>2025-12-16</title></rect><rect fill="#444444" height="2.6" width="2.6" x="185.0" y="52.5"><title>2025-12-17</title></rect><rect fill="#444444" height="2.6" width="2.6" x="185.0" y="56.0"><title>2025-12-18</title></rect><rect fill="#444444" height="2.6" width="2.6" x="185.0" y="59.5"><title>2025-12-19</title></rect><rect fill="#444444" height="2.6" width="2.6" x="185.0" y="63.0"><title>2025-12-20</title></rect><rect fill="#444444" height="2.6" width="2.6" x="185.0" y="66.5"><title>2025-12-21</title></rect><rect fill="#444444" height="2.6" width="2.6" x="188.5" y="45.5"><title>2025-12-22</title></rect><rect fill="#444444" height="2.6" width="2.6" x="188.5" y="49.0"><title>2025-12-23</title></rect><rect fill="#444444" height="2.6" width="2.6" x="188.5" y="52.5"><title>2025-12-24</title></rect><rect fill="#444444" height="2.6" width="2.6" x="188.5" y="56.0"><title>2025-12-25</title></rect><rect fill="#444444" height="2.6" width="2.6" x="188.5" y="59.5"><title>2025-12-26</title></rect><rect fill="#444444" height="2.6" width="2.6" x="188.5" y="63.0"><title>2025-12-27</title></rect><rect fill="#444444" height="2.6" width="2.6" x="188.5" y="66.5"><title>2025-12-28</title></rect><rect fill="#444444" height="2.6" width="2.6" x="192.0" y="45.5"><title>2025-12-29</title></rect><rect fill="#444444" height="2.6" width="2.6" x="192.0" y="49.0"><title>2025-12-30</title></rect><rect fill="#444444" height="2.6" width="2.6" x="192.0" y="52.5"><title>2025-12-31</title></rect></svg>