<?xml version="1.0" encoding="utf-8" ?>
<svg baseProfile="full" height="300mm" version="1.1" viewBox="0,0,200,300" width="200mm" xmlns="http://www.w3.org/2000/svg" xmlns:ev="http://www.w3.org/2001/xml-events" xmlns:xlink="http://www.w3.org/1999/xlink"><defs /><rect fill="#222222" height="300" width="200" x="0" y="0" /><text fill="#FFFFFF" style="font-size:12px; font-family:Arial; font-weight:bold;" x="10" y="20">Over 10km Workouts</text><text fill="#FFFFFF" style="font-size:4px; font-family:Arial" x="10" y="280">ATHLETE</text><text fill="#FFFFFF" style="font-size:9px; font-family:Arial" x="10" y="290">yangjie</text><text fill="#FFFFFF" style="font-size:4px; font-family:Arial" x="120" y="280">STATISTICS</text><text fill="#FFFFFF" style="font-size:3px; font-family:Arial" x="120" y="285">Number: 8</text><text fill="#FFFFFF" style="font-size:3px; font-family:Arial" x="120" y="290">Weekly: 2.0</text><text fill="#FFFFFF" style="font-size:3px; font-family:Arial" x="141" y="285">Total: 132.4 km</text><text fill="#FFFFFF" style="font-size:3px; font-family:Arial" x="141" y="290">Avg: 16.6 km</text><text fill="#FFFFFF" style="font-size:3px; font-family:Arial" x="167" y="285">Min: 10.4 km</text><text fill="#FFFFFF" style="font-size:3px; font-family:Arial" x="167" y="290">Max: 38.4 km</text><polyline fill="none" points="24.02517702593468,61.50355398230022 23.515342250233516,62.38609076241846 23.026750590186566,63.053954499424435 22.45318646740634,63.6741121915984 19.372934697079472,66.6556194969744 19.11801730922889,66.79873101232806 17.88591660116799,66.82258292412735 17.524783635046333,66.70332334397244 16.8237608182244,66.20243252703222 14.95436664042063,65.0098315711366 14.168371361098252,64.43738122467767 13.531077891471796,64.00804266138584 13.106215578387491,63.69796438180492 13.0,63.53099900553934 13.063729347079061,63.29247685879818 13.849724626285024,62.36223845524364 14.741935483994894,61.59896350419149 16.059008654672652,60.358637066034134 17.014948859228753,59.54765128699364 17.33359559404198,59.21371525185532 17.60975609754678,59.04674707807135 17.949645948130637,58.999041866482 18.884343036916107,59.09445228127879 22.02832415420562,58.97518925744225 25.979543666471727,58.87977880012477 28.93233674275689,58.68895778350998 31.4177812745329,58.59354722412536 32.373721479205415,58.49813663077657 33.329661683761515,58.49813663077657 38.95908733282704,58.259609998523956 40.403619197546504,58.14034660276957 41.40204563352745,58.1641992861405 42.357985837967135,58.14034660276957 43.441384736448526,58.1641992861405 44.99213217932265,58.426578663435066 47.58379228960257,58.903631417575525 51.76868607394863,59.738471691380255 53.14948859170545,60.00084952521138 54.5940204563085,60.191669606545474 56.7608182533877,60.66871921447455 57.376868607476354,60.71642412850633 58.502753737266175,61.02650586242089 63.1762391817756,61.885191865905654 64.87568843434565,62.31453383463668 65.61919748224318,62.433795370336156 66.40519276156556,62.38609076241846 66.70259638084099,62.26682920541498 66.91502753738314,62.02830593197723 67.0,61.67052062336006 66.95751376869157,51.1752720970544 67.0,47.69266686119954 66.97875688434578,46.57154457256547 67.0,45.283440825063735 66.97875688434578,42.945755222666776 67.0,40.5603406970331 67.0,38.9621010668925 66.93627065303735,38.818974664085545 66.8512981904205,38.72355701972265 66.72383949637879,38.67584818467731 66.59638080256991,38.69970260327682 66.4689221085282,38.77126584612415 66.38394964591134,38.89053787509329 66.29897718329448,39.224499273172114 66.38394964591134,40.48877793274005 66.40519276156556,41.63377986528212 66.36270653025713,42.778776898019714 66.40519276156556,45.99905478369328 66.34146341460291,48.122031600098126 66.3202202989487,51.41380504379049 66.40519276156556,54.65783200977603 66.49016522418242,55.516538447729545 66.36270653025713,57.400912362354575 66.42643587721977,63.030102251825156 66.40519276156556,67.22806509915972 66.4476789929904,75.1944726597867 66.42643587721977,77.69883324118564 66.4689221085282,78.98678098883829 66.4476789929904,80.68018433870748 66.36270653025713,80.9425416457816 66.1927616050234,81.15719743314548 65.91660110151861,81.30030119573348 65.57671125093475,81.3241518153227 56.67584579065442,79.08218427927932 53.0857592447428,78.24740433567786 49.36821400478948,77.269515948341 46.224232887499966,76.50628350538318 43.441384736448526,75.71919776950381 42.379228953504935,75.50453762162942 40.403619197546504,74.97981209127465 38.980330448481254,74.71744894026779 37.08969315502327,74.14501935482258 35.13532651460264,73.7156963624002 34.49803304485977,73.62029115943005 31.693941778154112,73.40562932848115 28.082612116471864,72.64238586879219 27.33910306857433,72.61853447562316 25.958300550817512,72.85704831179464 25.70338316296693,72.78549418327748 24.95987411495298,71.99839750688989 24.258851298247464,71.4498136061593 19.98898505116813,68.5399149863515 19.904012588551268,68.25369374113507 19.967741935513914,67.3711763083702 20.073957513901405,67.1088056996523 21.157356412382796,66.15472859083093 22.708103855256923,64.60434603551403 23.472856018925086,63.81722530111438 24.046420141588897,63.053954499424435 24.619984264369123,62.07601060369052 25.129819040186703,61.002653434086824 25.469708890654147,60.120112092001364 25.660896931542084,59.35683074648841 25.809598741238005,59.09445228127879 26.064516129088588,58.92748403301812 26.531864673481323,58.85592618052033 27.657749803271145,58.85592618052033 30.461841070093215,58.68895778350998 31.247836349299178,58.52198928230791 31.460267505957745,58.378873341251165 31.60896931553725,58.14034660276957 31.651455546845682,57.71099793771282 31.56648308422882,55.516538447729545 31.630212431191467,53.34591407573316 31.630212431191467,50.88903228039271 31.587726199883036,50.29269834558363 31.502753737266175,50.125724605692085 31.290322580724023,50.05416439950932 30.97167584579438,50.05416439950932 29.909520062967204,50.43581861117855 28.911093627102673,50.72205891262274 27.721479150350206,51.222978703444824" stroke="#4dd2ff" stroke-linecap="round" stroke-linejoin="round" stroke-width="0.5"><title>2024-06-05 10.4km</title><desc>11578256068</desc></polyline><polyline fill="none" points="187.0,60.06889173630043 185.50741573033156,61.51315728719055 185.32539325841935,61.60853283392498 184.694382022426,61.71753338590497 184.56089887639973,61.82653386016318 184.48808988759993,61.94915930085699 184.45168539322913,62.18078486491868 184.45168539322913,62.507785063877236 184.39101123594446,62.65765992131492 183.8692134831217,63.080033729216666 183.2139325842727,63.76127934792021 182.40089887636714,64.55152046312287 182.04898876399966,64.93301471220911 181.7334831460612,65.38263171243307 181.04179775278317,66.0229930364585 180.43505617970368,66.60885317534849 180.14382022467908,66.90859470400028 179.94966292130994,67.16746191504353 178.95460674155038,68.17567740195955 177.94741573027568,69.15663744151243 177.57123595505254,69.49724709462316 177.02516853931593,70.0422209615499 176.60044943814864,70.36920434952481 174.8530337078846,72.01773494962254 173.9550561797223,72.7806852452486 173.50606741569936,73.12128682695038 172.98426966293482,73.46188765016268 172.41393258422613,73.80248771479819 171.26112359546823,74.38831805170048 170.03550561796874,74.79703556255845 169.17393258429365,75.04226554477646 168.99191011232324,75.02864166718791 168.59146067412803,75.16488038846 167.99685393256368,75.23299970357039 167.8269662921084,75.20575198116421 167.66921348311007,75.26024742113077 167.3173033707426,75.30111898834002 166.2373033707263,75.28749513383082 165.6912359550479,75.26024742113077 165.14516853925306,75.21937584294938 164.5020224719192,75.13763265390298 161.84449438203592,74.55180518713314 158.83505617972696,73.856983654754 158.22831460670568,73.70711977314204 154.35730337077985,72.83518154930789 153.7991011235281,72.6853166664514 153.26516853930661,72.45370701317734 152.7919101123698,72.15397635298723 152.33078651683172,71.96323835429212 152.02741573029198,71.85424510539451 151.9667415730073,71.86786926572677 151.7483146067243,71.99048665439477 150.78966292133555,72.6035721229855 149.49123595503625,73.39376754617842 149.35775280900998,73.38014352177561 148.77528089884436,73.09403872836265 148.35056179773528,72.95779816238792 147.7802247190266,72.8079333997157 146.72449438204058,72.4945793303923 145.80224719102262,72.18122461912571 145.34112359548453,71.908741739564 144.90426966291852,71.62263419351075 144.52808988757897,71.32290190452477 143.48449438199168,70.36920434952481 142.732134831429,69.56536893418524 142.46516853931826,69.33375455580244 142.14966292132158,68.91139802156249 141.8705617976957,68.43454246803594 141.33662921347423,67.64432141974976 141.15460674156202,67.31733220533351 140.54786516848253,66.82684707266162 140.29303370788693,66.58160391633282 139.5649438202381,66.11836577017675 138.48494382022182,65.15101099865569 137.8296629213146,64.64689411467407 137.56269662920386,64.41527228638006 136.9316853932687,64.0337767455494 136.3128089887905,63.52965617814334 135.97303370787995,63.20265816459141 135.00224719103426,62.344285051804036 134.49258426972665,61.649408050012426 133.86157303367509,61.10440427016874 133.70382022467675,61.04990378537332 133.20629213482607,61.036278661107644 133.0,60.9681530216767 133.0364044943708,60.954527890178724 133.38831460668007,61.07715403022303 133.8008988763322,61.11802938836627 133.95865168538876,61.1725298489182 134.6260674156947,61.78565869144222 134.95370786514832,62.28978500890662 135.17213483148953,62.53503504888795 135.86382022470934,63.120908551936736 136.4220224719029,63.652280252907076 136.94382022472564,64.07465131331992 137.59910112357466,64.46977157166111 138.38786516856635,65.09651195615879 139.11595505615696,65.73687447840348 139.79550561797805,66.28186174668372 140.4265168539132,66.70422554366814 141.00898876402061,67.22196021940908 141.22741573036183,67.4263286878122 141.6521348314709,68.14842842213693 142.31955056177685,69.17026184224233 142.64719101117225,69.53812020200712 143.21752808982274,70.06946960392816 143.59370786510408,70.50544722149789 144.09123595507117,70.9822963176266 144.74651685392018,71.55451327032642 145.474606741569,72.04498324000451 145.9842696628766,72.30384175651125 147.61033707862953,72.8079333997157 148.21707865170902,72.95779816238792 148.8602247191011,73.14853492072143 149.4426966291503,73.42101559140428 149.57617977523478,73.43463961219823 149.75820224714698,73.35289546925924 151.76044943818124,72.0722315255116 153.10741573036648,71.25478084784118 153.70202247187262,70.85967812062881 154.29662921349518,70.35558005567873 156.3231460673851,68.52991369769734 157.3667415729724,67.67157048943045 158.11910112359328,66.96309310068318 158.8107865168713,66.22736310727487 159.27191011235118,65.72324977182143 159.41752808989258,65.46438011586724 159.55101123591885,65.08288719248958 160.0728089887416,62.834784563456196 160.15775280899834,62.38516007117869 160.1820224719122,62.08540967515728 160.13348314602626,61.7311584494455 160.1092134831124,61.25428050332994 160.15775280899834,60.872777075492195 160.2548314606538,60.586648879921995 160.67955056176288,59.796387272232096 160.78876404487528,59.48300653806655 160.84943820215994,58.89711909471953 160.89797752804589,58.52923513391579 161.0071910112165,58.2976040377398 161.56539325841004,57.64358493073087 161.94157303369138,57.08494139452523 162.2692134830868,56.68980205093976 162.7788764045108,55.55888035407406 162.9973033707356,55.02748052297102 163.0337078651064,54.79584412105032 163.00943820225075,54.56420736818109 162.94876404496608,54.346195985985105 162.7788764045108,54.100932809422375 161.84449438203592,53.07899867123342 161.17707865167176,51.97530212829588 160.75235955050448,51.32125597209961 160.41258426965214,50.694459112899494 160.38831460673828,50.51732040423667 160.4368539325078,50.340181490333634 160.55820224719355,50.17666846451175 164.65977528085932,47.80570993303263 165.31505617970834,47.45142561470857 165.99460674158763,47.029008623430855 166.6377528089797,46.64746969231055 166.97752808989026,46.48395271599293 167.36584269662853,46.23867692347267 167.8633707864792,46.020653666360886 168.4337078651297,45.7072446893726 168.7613483145833,45.63911221799208 169.1982022471493,45.59823272061476 169.56224719097372,45.59823272061476 169.8777528089704,45.69361819753249 171.1033707864699,46.19779758647201 171.6130337078357,46.48395271599293 172.09842696622945,46.8382392769563 174.3433707865188,48.90943658344622 174.98651685391087,49.468109997935244 175.0714606741094,49.48173615333508 175.16853932582308,49.44085768367222 175.5325842696475,49.05932477317401 176.39415730332257,48.35076112690149 176.61258426966378,48.187245972818346 176.68539325840538,48.15999343016301 176.7582022472052,48.187245972818346 176.87955056177452,48.28262983397872 177.13438202248653,48.70504336064914 177.1950561797712,48.759548246787745 177.2678651685128,48.78680068257381 177.3406741573126,48.77317446528468 177.65617977525108,48.65053845504008 177.81393258424941,48.66416468327225 178.29932584270136,49.03207238597679 178.80898876400897,49.18196045537479 178.97887640446424,49.34547454533458 179.282247191004,49.781511263296125 179.65842696622713,50.27205108416092 179.77977528085466,50.462816144907265 179.9011235954822,50.558198585989885 180.38651685393415,50.76258933078498 180.7626966292155,50.98060582396283 181.40584269660758,51.198622006209916 181.67280898871832,51.157743995732744 181.83056179771665,51.07598794194928 182.0247191010858,50.885223646473605 182.15820224711206,50.65358096759883 182.206741572998,50.40831186615105 182.18247191008413,50.13579018073506 182.00044943817193,49.72700674155203 182.00044943817193,49.37272687662335 181.951910112286,49.30459603926283 181.67280898871832,49.113829532958334 181.1631460673525,48.623285994966864 181.13887640449684,48.55515482352348 181.18741573032457,48.41889238949807 181.33303370780777,48.2144985106861 181.39370786515065,48.06460949250322 181.39370786515065,47.628567876527086 181.44224719097838,47.46505194983911 181.61213483143365,47.27428314757708 181.6606741573196,47.124393207370304 181.61213483143365,46.74285451437754 181.64853932580445,46.59296405299392 181.75775280897506,46.37494130124105 181.769887640432,46.23867692347267 181.70921348314732,46.143291786749614 181.47865168534918,45.96614780346863 181.24808988766745,45.870762496677344 180.7626966292155,45.77537713032507 179.45213483140105,45.82988306124753 179.01528089883504,45.870762496677344 178.3478651685291,45.666365210170625 178.0202247190755,45.44834113663819 177.668314606708,45.31207593274303 177.13438202248653,45.17581060733937 174.6346067415434,44.69888101165998 174.51325842697406,44.73976074960956 174.4161797752604,44.90327959206479 174.37977528083138,45.02591860904067 174.40404494380346,45.148557527703815 174.90157303365413,45.69361819753249 175.22921348316595,46.129665333763114 175.5689887640183,46.51120555753005 175.95730337075656,46.988129497811315 176.1150561797549,47.13801957164833 176.45483146066545,47.32878854399314 176.60044943814864,47.50593094795477 176.72179775277618,47.751204706772114 176.73393258423312,47.914720327287796 176.67325842694845,48.05098321080732 176.21213483141037,48.37801363559265 175.35056179767707,49.14108190557454 175.19280898873694,49.34547454533458 175.20494382019388,49.48173615333508 175.26561797753675,49.631623781780945 175.47191011236282,49.822389641805785 176.13932584266877,50.35380756792438 177.11011235951446,51.021483881850145 177.46202247188194,51.30762998072896 177.91101123590488,51.580149576897384 179.58561797754373,52.68384897292708 180.64134831452975,53.16075365367578 181.10247191006783,53.310637674687314 181.85483146063052,53.51502473912842 183.96629213477718,53.991926826842246 184.45168539322913,54.046429827809334" stroke="#4dd2ff" stroke-linecap="round" stroke-linejoin="round" stroke-width="0.5"><title>2024-06-02 14.5km</title><desc>11553994390</desc></polyline><polyline fill="none" points="18.965399995955522,106.20314546944792 19.03213016349764,106.23124369415018 19.05715397633321,106.282757067067 19.078007153701037,106.37641761570194 19.14056668577541,106.49817607932346 19.153078592193197,106.50285909151353 19.169761134093278,106.48412704022121 19.17393176954647,106.41856480810748 19.132225414839922,106.16099810422747 18.89866982839885,105.33677616632849 18.644261064589955,104.31116376691352 18.34814594607451,103.02326595629347 18.302268955885665,102.77504929437418 18.268903872085502,102.40974716792698 18.273074507553247,102.00697521186521 18.293927684935625,101.86178921456667 18.281415778503288,101.68381873488761 18.298098320388817,101.52458147872676 18.310610226821154,101.06560080381314 18.343975310592214,101.00939881286104 18.44824119740224,100.9016781621176 18.702649961196585,100.5972490415661 19.036300798979937,100.03522141349458 19.090519060118822,99.98370191330832 19.16559049861098,99.9509167504948 19.240661937117693,99.9462331541472 19.72862628736766,100.01648705563639 19.874598528898787,100.0211706457194 20.05393585418642,100.05863935141679 21.000670106397592,100.1523109986847 21.163324889799696,100.13826026223978 21.288443953962997,100.10547519593092 21.505316998518538,99.99775269109523 21.72219004307408,99.90408076814128 22.6689242952707,99.44040228897939 23.540587108946056,98.98608708087704 24.14949988790613,98.71443281061511 24.387226109814947,98.59734001931793 24.850166647229344,98.40062354212932 25.058698420820292,98.3256837379231 25.84277788961481,98.09617992222047 26.981361373516847,97.79641832566995 27.152357427868992,97.75894800576498 27.294159033932374,97.76363179721011 28.028190877041197,97.87604266666312 28.190845660457853,97.8807264476709 28.38686552766012,97.85262375537422 28.937389409984462,97.73552904225289 29.083361651515588,97.72147765912086 29.266869612285518,97.74489662890483 29.746492691585445,97.84325618793082 29.930000652369927,97.85262375537422 30.117679248622153,97.83388861881758 30.330381657695398,97.79173453713884 31.91105250167311,97.15941925073275 32.11958427527861,97.08447767501275 32.29058032963076,97.05169070200282 32.47408829041524,97.04232299166324 32.7159851477918,97.05169070200282 33.83788608982286,97.11726462755178 34.200731375894975,97.12663232451814 34.41343378498277,97.070426117647 34.59694174576725,97.00016827446962 36.990886506813695,96.00718070291623 37.574775472909096,95.77766675247403 37.987668384666904,95.67930332368633 38.951085178749054,95.48725990776438 40.07715675623331,95.24837565388589 40.30237107172434,95.22495557047296 40.53592665817996,95.22495557047296 43.59300245929626,95.37484392369879 43.95584774539748,95.37484392369879 44.09347871597856,95.34205588300756 44.25196286391292,95.25774368430939 44.82333992360509,94.9064413989363 45.0235304262751,94.83149660713389 45.10277250024956,94.82212850063297 45.2320621998806,94.84554876375478 45.436423338003806,94.91112544487987 46.96704655631038,95.4357359449532 47.11301879782695,95.46852392714572 47.246479132954846,95.46852392714572 47.884586360203684,95.3701599191445 48.084776862859144,95.29989980058599 48.92724522826029,94.96264992258511 49.156630179233616,94.88302116299019 49.24421352414356,94.85960091659217 49.72383660344349,94.80339228262892 49.86980884496006,94.77528794307 50.06165807668003,94.7050270283471 50.2118009536789,94.60666158974345 50.41616209183121,94.42866651805525 51.69654718178208,93.26699964797808 51.84251942332776,93.12647368676335 51.90090831993439,93.08431582502453 52.05939246786875,93.01405264690766 52.1386345418432,93.0 52.21370598033536,93.02342107609002 52.27626551242429,93.0655789867269 52.363848857348785,93.18268411639292 54.01124986886862,95.96502515458269 54.098833213793114,96.09617563823122 54.27817053908075,96.30695251487487 54.42831341609417,96.43810214437326 54.6535277315852,96.61140650944071 55.25826987504843,96.9908005549405 56.24253984648385,97.59033123531117 56.6637740291917,97.80578590145888 56.86396453184716,97.89477778817309 57.23098045340157,98.03529098641957 57.798186877625994,98.19922257580765 58.31951631164702,98.3256837379231 58.573925075441366,98.40530727633814 58.78662748452916,98.50834932331054 58.995159258149215,98.63949345426227 59.178667218919145,98.80342315736925 59.33298073138576,98.97671971563977 59.68748474653694,99.4638204921539 59.82094508163573,99.62306399678346 59.96274668769911,99.76357257043492 60.12957210656896,99.89002996529234 60.75933806288231,100.30686885139221 60.896969033477944,100.41927427676274 61.02625873310899,100.56446426179173 61.155548432740034,100.74243853454755 61.347397664474556,101.08433478742882 61.718584221511264,101.86178921456667 61.85204455661005,102.17557780188508 61.885409640395665,102.26924567358947 61.94796917247004,102.5736651030129 61.96048107887327,102.87808276811847 61.89375091133115,103.2386983347169 61.09298890065111,105.60371309605762 61.038770639526774,105.79571952264814 60.96786983650236,106.15163201847463 60.95118729460228,106.49349306670047 60.955357930084574,108.16530204708033 60.98455237838789,108.73660832781025 61.13469525538676,110.33810594020179 61.138865890854504,110.53009506801027 61.113842078033485,110.88597549876067 60.98455237838789,111.452569633253 60.38815150586015,113.68610850320329 60.300568160950206,114.04196756661622 60.1796197322401,114.5008349083655 60.15459591940453,114.54297558588951 60.05867130354454,114.95501598622286 59.816774446182535,115.83527329542994 59.4706117019814,117.16031368978656 59.345492637803545,117.78770632709711 59.23288548007258,118.51341235411019 59.1369608642126,119.04246914573014 58.970135445313645,119.71197586317794 58.778286213593674,120.60151705790122 58.711556046051555,120.80751392592356 58.64899651396263,121.20546013621424 58.64482587848033,121.46763481775997 58.661508420380414,121.67830995417899 58.79913939094695,122.27287745470312 58.83250447473256,122.4882309543973 58.83250447473256,122.73635454573014 58.803310026429244,122.99852159701913 58.744921129822615,123.27005037987692 57.72728607458703,128.9016159136736 57.64387336515938,129.22928612638134 57.54377811383165,129.51014468493304 56.826428812593804,130.99867002366227 56.768039915987174,131.20462618917009 56.7054803839128,131.485474207042 56.47609543292492,132.92245645045477 56.39268272349727,133.56370296942987 56.36348827517941,133.95687215479848 56.338464462343836,135.2674149006889 56.30509937857278,135.8290660915045 56.24671048196615,136.44219513482676 56.12159141780285,137.2752903330511 56.09656760496728,137.64035036783753 56.10073824043502,137.85096077518392 56.12576205327059,138.26281869319428 56.32595255592605,140.05997918934372 56.37182954612945,140.70113879549172 56.38017081707949,140.94917654944584 56.37182954612945,141.2065729836795 56.34263509782613,141.46864806079248 56.13410332422063,142.76028474913255 56.08405569854949,143.02235209653736 56.02149616647512,143.26569918037058 55.94642472798296,143.49968570095007 55.87552392492944,143.6728350571102 55.40007148109726,144.49645663562478 55.20405161392409,144.87082582412768 55.041396830492886,145.2498719173891 54.382436425905325,146.92980881610856 54.3574126130552,146.9719235376724 54.29902371644857,147.0 54.19892846510629,147.0 54.15722211039974,146.97660294909292 53.8611069918843,146.38699383674975 53.15626959706424,144.89890340603597 52.98527354271209,144.51985478783536 52.91854337515542,144.33734892499706 52.86015447854879,144.13612377932077 52.69332905964984,143.31249656762884 52.65162270491419,143.15338528136272 52.58906317285437,143.03171162054787 52.480626650576596,142.8959983596469 50.69976530392887,141.37037005967068 50.41616209183121,141.1129744258542 49.42772148491349,139.95233849031865 49.24421352414356,139.69961598455848 48.7520785384113,138.96952193366815 48.5852531195269,138.80103725384106 48.46430469084589,138.71679471179232 47.634348231877084,138.25345832174935 47.505058532216935,138.16921490376262 47.40913391635695,138.08029114969395 47.313209300496965,137.96796619308589 46.94202274347481,137.32677331175364 46.78353859554045,137.09275936661288 46.30808615170827,136.48899858528603 46.20382026491279,136.33922739735863 46.10789564905281,136.18009504339352 45.92438768825377,135.8243856896661 45.80343925957277,135.64653011165137 45.18201457420946,134.97722610464552 44.844193100958364,134.6402306568889 44.31035176051955,134.21898331380362 44.09764935144631,134.0177195044489 43.43868894681509,133.33435292193826 43.35110560190515,133.25010163314073 43.2218159022741,133.16585020949424 43.11337938001088,133.11436316201434 42.959065867529716,133.07691800493922 42.55868486218969,133.06287606418118 42.25422847272421,133.02543087046797 42.04986733458645,132.9458597454286 41.93726017684094,132.88501115688632 41.83299429003091,132.81480115963132 41.737069674170925,132.72118768429573 41.445125191123225,132.3654549597195 40.85289495407778,131.57440910031073 39.53080350937671,129.50078275712804 39.409855080681155,129.33226777189338 39.29724792295019,129.18715721331318 38.76757721796457,128.55053842176494 38.204541429237,127.89518750358911 38.09193427146238,127.82028973611887 37.987668384666904,127.77347857733184 37.870890591453644,127.75007298231867 37.71657707897248,127.75475410214858 36.76567219130811,127.89050639624838 36.57382295958814,127.89518750358911 36.42368008257472,127.86710085328377 36.2735372055904,127.81560862212064 35.28926723415498,127.39898780781368 35.13495372168836,127.28664005726023 34.73874335181608,126.91214582297471 34.555235391060705,126.7670285906861 32.861957389322924,125.61075763435656 32.736838325159624,125.51245002474025 32.35731049718743,125.0911296172344 32.26972715227748,125.00686513086112 32.182143807352986,124.94132599259683 32.082048556025256,124.89451227242898 31.981953304697527,124.8711053967163 31.52735403821862,124.82429161406617 31.193703200449818,124.77747778974663 31.072754771754262,124.7353453122596 30.926782530237688,124.65108025603331 30.82251664341311,124.53872663778748 30.751615840388695,124.42637277961694 30.68071503736428,124.23911581610082 30.526401524897665,123.7428816392312 30.459671357340994,123.57434821244897 30.38042928338109,123.4479477880268 30.280334032024257,123.34027311286627 30.151044332393212,123.25132430192025 29.77568713988876,123.05470008088378 29.579667272701045,122.93297995669855 29.24184579947905,122.6380415646272 28.924877503566677,122.39459910634832 27.50686144302017,121.50976991256539 27.335865388668026,121.38336452692238 27.223258230893407,121.27100392911234 27.152357427868992,121.15864309128301 27.093968531262362,121.00414654731867 27.0647740829736,120.84964954953102 27.085627260326874,120.40020115733205 27.081456624844577,120.21292986033222 27.056432812009007,120.09120315970722 26.989702644466888,119.95543073816953 26.918801841442473,119.86179438115505 26.810365319164703,119.75879419589546 26.681075619533658,119.68388484354 26.32657160439703,119.48724728596062 26.19311126928369,119.38424636713535 25.671781835262664,118.75219085712888 25.492444509945926,118.60236917803923 22.798213994901744,117.03857992284247 22.539634595625103,116.81383992037445 21.868162284605205,116.083428278067 21.701336865720805,115.88677725608068 21.609582885328564,115.73226522279583 21.542852717771893,115.55902391822383 21.217543150953134,114.38845960317121 19.616019129607594,110.6143827562264 19.41999926243443,110.18357759619175 19.332415917495382,110.01968340148596 19.249003208053182,109.89793309742163 19.023788892562152,109.68721075074063 18.052030827544513,109.0035279858239 18.039518921126728,108.95201728020038 18.043689556594472,108.78343643604967 18.056201463012258,108.74597395278761 18.156296714339987,108.6616832678119 18.577530897033284,108.2449106717686 18.831939660856733,107.94520698646011 18.869475380095537,107.8796465774285 18.87364601556328,107.76725711451218 19.007106350676622,107.47223363059675 19.090519060118822,107.24745272149448 19.098860331068863,107.18657439311937 19.048812705397722,107.07418344774123 19.04047143444768,107.00862195190348 19.073836518233293,106.74637515054201 19.069665882750996,106.54032317404926 19.044642069915426,106.33895341628158 19.019618257079856,106.30617221987632" stroke="#ff0000" stroke-linecap="round" stroke-linejoin="round" stroke-width="0.5"><title>2024-06-01 38.4km</title><desc>11545145550</desc></polyline><polyline fill="none" points="180.10000000003492,117.21993767449749 180.08965517242905,116.3950308487183 180.0689655172755,116.04647709817073 180.05862068966962,115.55850027983251 180.08965517242905,115.14023297988751 180.0689655172755,114.67548995957623 180.07931034488138,113.51362515099754 180.04827586212195,111.61976328792662 180.04827586212195,109.88854030388029 179.96551724139135,106.36792858838453 179.95517241384368,106.05420609221619 179.9034482759307,105.57781122623419 179.91379310342018,104.61339676960051 179.93448275863193,104.17185523607623 179.83103448274778,103.06799484903604 179.6241379310377,101.68525126071472 179.5413793103653,101.19722060442291 179.48965517239412,100.6975682746779 179.3448275862611,99.72149772450211 179.2931034482899,99.24507967832324 179.32413793104934,99.12887989030423 179.44827586208703,98.98944000771007 179.55172413797118,98.90810000719648 179.67586206895066,98.86161998407624 180.1931034483132,98.86161998407624 180.97931034484645,98.72217981510039 181.5275862069102,98.59435952900822 181.99310344830155,98.5130192815559 182.8620689655654,98.43167898327374 184.39310344832484,98.42005893649912 186.1931034483132,98.43167898327374 186.56551724142628,98.39681883985759 186.8758620689623,98.29223835362063 186.9586206896347,98.2225179827874 187.0,98.11793735648098 187.0,97.87391556825605 186.93793103448115,97.60665308473108 186.9172413793276,95.53825530182803 186.89655172417406,95.11992366320919 186.84482758620288,95.02696089420351 186.5965517241857,94.82941478957218 186.21379310346674,94.65510915406048 185.85172413795954,94.55052566064114 185.665517241403,94.46918288545567 185.40689655172173,94.44594208322815 185.07586206897395,94.46918288545567 184.25862068968127,94.81779442112747 183.97931034484645,95.06182194037683 183.90689655177994,95.17802536010277 183.8758620689623,95.41043188825279 183.9172413793858,96.63055935123703 183.90689655177994,97.8158150750387 183.84482758620288,97.94363612586312 183.73103448277107,98.04821689224627 183.57586206897395,98.0714570511409 183.2344827586785,98.036596811231 182.91379310347838,98.02497672919708 182.3034482758958,98.0714570511409 181.70344827591907,98.14117750293372 181.1241379310377,98.25737817288609 180.21379310346674,98.46653911733301 179.85172413795954,98.6175995903759 179.64482758624945,98.67569972560887 179.5413793103653,98.75703987136512 179.25172413798282,99.14049987377803 179.0965517241857,99.25669965140696 178.98275862069568,99.3147995013569 178.85862068965798,99.39613924766309 178.806896551745,99.45423903532355 178.7758620689856,99.52395874629292 178.78620689659147,99.6633980561528 178.86896551726386,99.97713595712412 178.9724137930898,100.68594843024039 179.2931034482899,103.0331359474585 179.39655172417406,104.2183333627836 179.52068965521175,105.124653516119 179.43793103453936,106.37954792557866 179.48965517239412,111.05043746467709 179.47931034484645,112.35174997369904 179.51034482760588,113.00240135044442 179.5,114.28045708800346 179.53103448275942,118.05645756931335 179.56206896551885,119.35770005734958 179.55172413797118,120.68216566488991 179.57241379312472,121.414101405564 179.6241379310377,121.77425875185145 179.59310344827827,122.27383019609988 179.68620689655654,122.8198712104786 179.72758620692184,123.16840683104238 179.71724137931596,124.39989188667096 179.7482758620754,125.1434243955373 179.68620689655654,125.24798331417696 179.57241379312472,125.30607156602491 179.06551724136807,125.39901271509734 175.31034482765244,126.45621361781377 174.85517241380876,126.6304766789981 174.44137931038858,126.79312199244305 171.5965517241857,128.05942498633522 168.46206896554213,129.68585113784502 166.99310344830155,130.3828847002369 166.86896551726386,130.40611908805295 166.7655172413797,130.34803311069118 166.6931034483132,130.20862665931054 166.66206896555377,129.9530477776134 166.67241379310144,129.40703666847548 166.64137931040023,128.9539618828785 166.64137931040023,127.42046629887773 166.67241379310144,126.68856431425957 166.64137931040023,126.22386250683485 166.63103448279435,125.7475414334258 166.62068965518847,124.84136482575559 166.64137931040023,124.36503869617445 166.62068965518847,123.01737484331534 166.5689655172755,122.68045670106221 166.4862068965449,122.5294241474403 166.35172413795954,122.41324514086591 166.17586206900887,122.36677350918762 165.12068965518847,122.44809885370341 164.61379310349002,122.43648095044045 164.12758620688692,122.47133465707157 163.22758620692184,122.45971675591136 162.7620689655305,122.506188354404 161.2620689655305,122.5294241474403 160.75517241383204,122.5642778291949 159.78275862074224,122.5642778291949 158.88275862071896,122.61074939037644 158.7068965517683,122.59913150165085 158.3034482758958,122.34353768712754 158.20000000006985,122.3086839462776 158.10689655179158,122.33191977454408 157.74482758622617,122.57589572105644 157.51724137936253,122.59913150165085 156.96896551729878,122.5642778291949 155.7068965517101,122.5294241474403 153.88620689656818,122.44809885370341 151.96206896554213,122.41324514086591 150.01724137930432,122.3086839462776 148.19655172416242,122.26221227732458 147.77241379313637,122.2273585146977 146.6241379310377,122.21574059176783 146.11724137933925,122.40162723443791 145.806896551745,122.61074939037644 145.49655172415078,122.9011962720324 145.42413793108426,123.04061054516205 145.41379310347838,123.26134950567211 145.51724137936253,123.72606188381906 145.55862068972783,124.34180323062174 145.67241379315965,125.60813005802629 145.72413793107262,126.11930437165574 145.78620689659147,126.58400655216974 145.7758620689856,126.804739507068 145.70344827591907,126.9906195999938 145.55862068972783,127.1648819461916 145.42413793108426,127.23458681937336 145.02068965521175,127.26943924200168 143.32413793104934,127.327526592293 142.3206896552001,127.37399645386176 142.11379310349002,127.40884883915714 141.65862068970455,127.40884883915714 138.3482758621103,127.58311062579742 136.6931034483132,127.64119783620117 133.74482758622617,127.78060703544907 133.3206896552001,127.8154593119616 133.15517241385533,127.86192899943126 133.06206896551885,127.96648573570565 133.01034482760588,128.09427718822553 133.0,128.33824234037456 133.05172413797118,128.8029366041228 133.11379310349002,129.69746839442814 133.11379310349002,130.53390814710292 133.18620689661475,132.09060116469482 133.31034482765244,132.9154085821283 133.45517241384368,133.70536008589988 133.47586206899723,133.91446409389755 133.51724137936253,134.75087676953262 133.68275862070732,136.05195248011296 133.78620689659147,136.79541848089866 133.93103448284091,137.5737299048924 134.07586206903215,138.14293979378272 134.35517241386697,139.13033880454896 134.48965517245233,139.64146005906514 134.64482758624945,140.18742827523965 134.84137931041187,140.77985928352427 135.07931034488138,141.3606713825502 135.3482758621103,141.918248562004 135.57586206903215,142.30158148880582 135.9172413793276,142.66168108976126 136.03103448281763,142.71976157736935 136.165517241403,142.73137767177104 136.2793103448348,142.65006498913863 136.5275862069102,142.32481375115458 136.71379310346674,142.18542011489626 137.28275862074224,141.88340005817008 138.1931034483132,141.3490551659561 138.29655172419734,141.3606713825502 138.48275862069568,141.1864280246955 141.10000000003492,139.69954189292912 142.98275862075388,138.65406492177863 143.43793103448115,138.5727496946347 143.61379310343182,138.5495167632689 143.8206896552001,138.56113322945748 143.91379310347838,138.5146673584386 144.20344827586086,138.56113322945748 144.75172413798282,138.828311666206 145.331034482806,139.07225671692868 145.87931034486974,139.36266689606418 146.11724137933925,139.53691269285628 147.9586206896929,141.24450916987553 148.39310344826663,141.6278440787646 149.2620689655887,142.3480460093415 150.48275862075388,143.2308687520199 152.0965517241857,144.31115686545672 152.5000000000582,144.55509165165859 152.88275862071896,144.76417824778764 153.26551724143792,144.9268009239604 153.75172413798282,145.0778075129856 155.73793103452772,145.55405791677185" stroke="#4dd2ff" stroke-linecap="round" stroke-linejoin="round" stroke-width="0.5"><title>2024-05-26 16.2km</title><desc>11499346637</desc></polyline><polyline fill="none" points="59.64520368544618,189.127708672866 58.42072663462022,190.2791465822811 57.716652330360375,190.96656892255123 55.16055648657493,193.40689844179724 54.73198951873928,193.78497490056907 52.55854275339516,195.8987523559481 52.0228340436006,196.44867440061353 51.594267075823154,196.964224893527 50.783051029604394,197.875027396527 49.57387994177407,199.06078270138823 48.15042537014233,200.3496388955973 46.895336393034086,201.44945603817177 45.533105673850514,202.73829627214582 44.52291210682597,203.5975183108385 43.39027083473047,204.4395521956758 42.76272634608904,204.83479132311186 42.10456993128173,205.19566112356551 41.415801590133924,205.5737144761515 40.89539884350961,205.79710929081193 40.20663050242001,206.07205639992026 39.471944271877874,206.32981895879493 38.01787777390564,206.72505421342794 37.74237043742323,206.74223833657743 37.359721358981915,206.62194944245857 37.1454378751223,206.6735018348263 36.977072280598804,206.81097481383767 36.74748283356894,206.82815892930375 36.594423202157486,206.89689537596132 36.11993834498571,206.9656317980989 35.446475967008155,207.0 34.75770762586035,207.0 33.41078286990523,206.93126359008602 31.773044814297464,206.75942245821352 31.20672417822061,206.62194944245857 30.686321431596298,206.41573973521008 27.426151283551008,205.67681980738416 18.900729816639796,203.68344030421576 18.410938996239565,203.51159627917514 17.82931239710888,203.15072332834825 17.27829772408586,202.78984970241436 17.155850019073114,202.63518937032495 17.109932129620574,202.42897540134436 17.171155982243363,202.3430528492172 17.660946802643593,202.0681004251528 18.25787936488632,201.69004020220018 18.885423853469547,201.22605618859234 20.67622154043056,199.6106957309239 23.997615540982224,196.72363483496883 25.52821185463108,195.1426069844165 25.83433111733757,194.74734799673024 26.03330863820156,194.3177177436155 26.752688905515242,191.31027917382016 26.875136610644404,190.58848693862092 26.875136610644404,190.34788892658253 26.798606794909574,189.69483566652343 26.798606794909574,189.127708672866 26.890442573756445,188.64650870366313 27.10472605767427,188.14812175551197 27.563904951734003,187.3575742992689 27.686352656863164,186.9794852398045 27.747576509369537,185.9998874100129 27.82410632504616,185.70772569034307 28.053695772134233,185.3640054534917 28.68124026071746,184.62500486944919 29.247560896736104,183.88600145335658 29.599598048895132,183.3532297917991 30.36489620571956,181.63460149551975 30.472037947678473,181.3080603875278 30.472037947678473,180.94714588786883 30.39550813200185,180.60341716492258 30.227142537478358,180.2940607903729 28.972053560311906,178.93632416587207 27.426151283551008,176.37550375024148 27.181255873350892,175.94583256305486 27.04350220510969,175.60209492383 26.645547163614538,175.12086119934975 26.293510011513717,174.50213036002242 26.063920564425644,173.98651981033618 25.727189375436865,173.33341113447386 25.436376075842418,172.5771772719745 24.839443513483275,170.51470620564942 24.104757282999344,167.6959600623377 23.569048573146574,164.25840898251045 23.44660086807562,163.57089140999597 23.247623347328044,161.2848778483458 23.12517564225709,160.54578495700844 22.972116010903846,158.86133010260528 22.788444453210104,155.06265848754265 22.788444453210104,154.0485208233731 22.864974268944934,153.8938213885558 23.07925775286276,153.84225488264929 23.630272425769363,153.79068836297665 28.130225587869063,153.55004442205245 29.07919530227082,153.55004442205245 30.34959024260752,153.4641000845586 34.0536333216005,153.32658906494908 36.93115439120447,153.1718890505581 37.895430068834685,153.10313344871975 39.823981423978694,153.01718891198107 40.69642132270383,153.0 41.00254058546852,153.0 41.461719479528256,153.2406446278037 41.67600296344608,153.2578335183207 42.07395800499944,153.10313344871975 42.395383230934385,153.08594454446575 44.293322659737896,153.48128895513946 44.752501553855836,153.63598872115836 45.30351622676244,153.68755528221664 45.471881821227726,153.6531775764015 46.26779190439265,153.82506604431546 52.12997578561772,154.89077112352243 52.89527394238394,154.9939035603311 53.79832576744957,155.21735698418343 57.08910784177715,155.83614972878422 57.91562985110795,156.00803624972468 61.74212063517189,157.00497504776285 62.26252338185441,157.10810635323287 62.62986649712548,157.27999173974968 62.828844017814845,157.48625400113815 62.89006787043763,157.64095055233338 62.81353805476101,157.91596633674635 62.50741879205452,158.44880830231705 62.063545861048624,159.1191557794955 61.267635777941905,160.39109073735017 60.31866606354015,161.49113582386053 59.997240837605204,161.98959168672445 59.93601698515704,162.31616551858315 59.95132294821087,163.27869569908944 59.92071102198679,166.28657153416134 59.96662891138112,167.3693953449838 60.089076616452076,168.41783800072153 60.3033601003699,169.43190006258374 60.777844957541674,171.44282091606874 61.175799999095034,173.00685596687254 62.03293393476633,176.51299832788936" stroke="#4dd2ff" stroke-linecap="round" stroke-linejoin="round" stroke-width="0.5"><title>2024-05-24 11.2km</title><desc>11485428283</desc></polyline><polyline fill="none" points="164.6075717623171,207.0 164.97818762320094,206.7110262060596 165.21060773936915,206.4925331267077 165.28598723650794,206.35861771619966 165.48699922885862,206.08373800769186 165.60635009931866,205.96391834961833 165.69429284596117,205.8370502791513 165.81992534120218,205.69608551853162 165.92043133734842,205.7031337625158 166.29104719826137,205.7736161678622 166.44180619253893,205.7806644049415 166.93805454866379,205.94982190735027 167.08881354294135,205.9921112266311 167.19560116386856,206.04144873727637 167.23957253721892,205.87229143017612 167.30238878479577,205.69608551853162 167.4405845295696,205.3789138915672 167.50968240192742,205.12517567723262 167.54109052574495,204.99125795922737 167.55993540002964,204.82914673504274 167.59762514859904,204.65293850703165 167.6918495199934,204.29347250857245 167.75466576762847,203.7436978316473 167.79235551619786,203.56748719319148 167.84260851427098,203.38422771407932 167.82376363998628,203.25030705783138 167.81748201523442,203.06704684615397 167.77979226666503,202.88378621118318 167.72325764381094,202.50316661685065 167.6227516476065,202.16483655569027 167.55365377524868,201.99567098410625 167.47199265338713,201.84060222661356 167.3714866571827,201.74897054563917 167.2961071600439,201.62209573575092 167.0071524210507,201.35424824852817 166.81870367820375,200.9877186427766 166.63653656013776,200.41677492211602 166.58628356203553,200.3180928749207 166.5360305639624,200.12777715155244 166.4103980687505,199.76829065060883 166.27220232400578,199.45814412515756 166.09003520591068,198.81670087311795 166.07119033162598,198.68277250662504 166.06490870684502,198.44311065489455 166.18425957733416,198.23164371382882 166.2156677011517,198.12591003190755 166.22823095065542,198.02017620903644 166.2470758249401,197.80165919517458 166.22823095065542,197.456260106861 166.25335744972108,197.23774153953855 166.25335744972108,197.13200653278182 166.22823095065542,197.02627138508979 166.18425957733416,196.9134870721973 166.06490870684502,196.7020160532993 165.96440271069878,196.31431772098585 165.89530483834096,195.68694731437427 165.80108046691748,195.15826053457567 165.7257009697496,194.81989914605947 165.62519497360336,193.86825000160025 165.57494197553024,193.70611604593432 165.49956247839145,193.5651297281147 165.43046460600453,193.39594581589336 165.41161973171984,193.21971219019179 165.44302785550826,193.0505275411051 165.53725222696085,192.70510776182346 165.60635009931866,192.33853818727948 165.65032147263992,192.16935165832547 165.7068560954649,191.84507646891143 165.63147659835522,191.33046312027 165.57494197553024,190.76649945083773 165.53097060217988,190.48451611201745 165.43046460600453,190.146134781804 165.35508510886575,189.82185131865845 165.3111137355445,189.67380842718558 165.2545791126904,189.5469143001974 165.21060773936915,189.29312543701235 165.17291799079976,189.18033012597152 165.14150986698223,188.96883848527796 165.08497524412815,188.84194323010888 164.8588367527409,188.4401069155574 164.8211470041715,188.29206144419004 164.78973888035398,188.02416893619375 164.75833075653645,187.9184216443973 164.6766696346749,187.5306803677886 164.6766696346749,187.22048598122637 164.75833075653645,186.73404234020563 164.8211470041715,186.22644579351618 164.8211470041715,186.03609625064564 164.77717563085025,185.5707954439713 164.72064100796706,185.42274461458874 164.6766696346749,185.26059338897903 164.67038800989394,185.0843416806165 164.66410638514208,184.68248632028553 164.70807775846333,184.26652862630726 164.74576750703272,184.11847536109417 164.76461238131742,183.94222111338604 164.7520491317846,183.7730166668698 164.60129013753613,183.23720020357723 164.4442495185067,182.84943603036663 164.3186170232948,182.65202808625327 164.24951915093698,182.56037423079397 164.19298452805378,182.475770577832 164.117605030915,182.3911668346118 164.05478878330905,182.28541202854103 164.04222553377622,182.02454957034206 164.05478878330905,181.88354247873212 164.0108174099878,181.30541078044917 164.0108174099878,180.88943536451552 163.98569091095123,180.63561878403561 163.9542827871337,180.13503370128456 163.96684603666654,179.9799221889698 164.0296622842725,179.84596200218948 164.10504178141127,179.73315324824216 164.18670290327282,179.64854657740943 164.43796789372573,179.4652318140652 164.49450251657981,179.3876754403973 164.50706576611265,179.28191662671452 164.425404644222,179.18320827329444 164.2620824004407,179.02104428291204 164.18670290327282,178.91528497997933 164.0799152823456,178.69671530670166 163.96056441191467,178.50634768074815 163.8286502918927,178.47814503058908 163.6841729223961,178.47109436650499 163.11254506913247,178.29482756000652 162.98691257392056,178.16791521658888 162.9240963263146,178.0057491486732 162.75449245775235,177.73077114467014 162.7293659587158,177.59680715603463 162.68539458539453,177.49104595242534 162.61001508822665,177.34298003020376 162.47810096829198,177.27952312171692 162.23311760259094,177.24426926171873 161.98185261213803,177.23721848782588 161.862501741678,177.27247235096002 161.27202901412966,177.540401198341 161.12755164463306,177.61090863918798 161.00820077417302,177.65321307357226 160.86372340467642,177.68141601731622 160.71296441036975,177.69551748538652 160.55592379136942,177.6673145467139 160.1790263057046,177.55450269150606 159.83353694382822,177.49104595242534 159.71418607336818,177.51219820441474 159.60111682766,177.56155343718274 159.30588046391495,177.7519233326966 159.08602359725046,177.8435827489011 158.70284448683378,177.96344490246702 158.45786112113274,178.09035757335369 158.09352688500076,178.22432072764786 157.98045763932168,178.25957415167068 157.69150290029938,178.2736755168953 157.5595887802774,178.29482756000652 157.4528011593502,178.2313714137199 157.40882978605805,178.11150966538116 157.3271686641383,177.9845970283859 157.17640966988984,177.64616233608103 157.09474854797008,177.49104595242534 156.82463868326158,177.1032536648563 156.6424715651665,176.80006928183866 156.37864332520985,176.22190049906203 156.1525048338226,175.83410200056824 156.07084371193196,175.67898206977407 156.02059071382973,175.53091276166379 156.03943558811443,175.38284317684156 156.07084371193196,175.26297711979714 156.01430908907787,175.1008051069657 155.92636634240625,174.9527347184121 155.8258603462309,174.80466405313928 155.7002278509899,174.69184812246385 155.5557504814933,174.60018506050255 155.44268123581423,174.50147087519872 155.27935899203294,174.3251952383871 155.1976978701423,174.22648071048752 155.09719187393785,173.98674491640122 155.02809400158003,173.8739278211142 154.93386963015655,173.77521273097955 154.7454208873096,173.61303767304344 154.4753110226011,173.24637979667023 154.28686227975413,173.10535708470707 154.19263790833065,173.02074333703786 154.11097678644,172.92907834177458 153.9476545426587,172.70344097850466 153.89111991980462,172.5906220558827 153.8597117960162,172.47780297261488 153.8597117960162,172.35088131190423 153.92252804362215,172.21690822722303 154.01047079026466,172.08998614858137 154.07956866265158,171.96306386656943 154.08585028737434,171.76562880149868 154.06700541311875,171.61755217982136 154.12354003594373,171.4412701264664 154.38736827592948,170.9406269560277 154.4564661483164,170.77844609558815 154.53812727020704,170.61626490315393 154.55697214449174,170.43292924230627 154.45018452353543,169.88291971399303 154.40621315021417,169.5021416496529 154.34967852736008,169.3963696403007 154.34339690260822,169.2764945256058 154.31827040354256,169.17777370670228 154.31827040354256,168.98738320854318 154.36852340164478,168.7758376738857 154.44390289878356,168.59249775353965 154.61350676734583,168.43736364330107 154.6888862644846,168.31043550898175 154.72029438827303,168.20466190832667 154.6888862644846,168.08478499018383 154.64491489113425,167.9790110881877 154.53184564542607,167.77451447716157 154.48159264735295,167.51360424144514 154.4376212740317,167.38667462683952 154.35596015211195,167.2879514526212 154.31827040354256,167.1469181331122 154.3810866511776,167.0552463408021 154.48159264735295,166.9353676830433 154.55069051973987,166.86485074079974 154.64491489113425,166.80138543907378 154.71401276349206,166.70971324681886 154.78311063587898,166.47700643612916 154.9275880054047,166.16672962499433 154.9275880054047,166.04684962242027 154.8710533825506,165.8211926547665 154.77682901112712,165.6237422806371 154.7077311387693,165.41218776212918 154.65747814066708,165.31346212676 154.51928239592235,164.91150648366602 154.34339690260822,164.50954880048812 154.24917253118474,164.32619900431018 154.13610328547657,164.030017667661 154.07956866265158,163.64921146429697 154.03559728930122,163.45175567499246 154.03559728930122,163.25429939333844 153.96021779219154,162.95811404773121 153.93509129315498,162.81002095949225 154.0041891655128,162.6619275943376 154.02931566454936,162.37279213078727 154.0607237883669,162.20354161346768 154.0418789140822,162.05544711408584 154.0041891655128,161.78041373754968 153.95393616743968,161.64642277216626 153.8974015445856,161.35023141255806 153.85343017126434,161.21623971922236 153.7340793007752,160.9341512026731 153.63357330459985,160.50396428009117 153.48281431032228,160.22187322602986 153.41999806271633,160.0737750203043 153.3697450646141,159.93272885256738 153.29436556750443,159.79168243357708 153.20014119608095,159.6788451174798 153.0807903256209,159.580112333977 152.94887620565714,159.4954841358558 152.54685222092667,159.2627561245754 152.20764448380214,159.0441322181141 152.15739148572902,158.93834624020383 152.30186885525472,158.70561659126543 152.37096672761254,158.62803988959058 152.44006459997036,158.59277772735368 152.67876634091954,158.67740689035418 153.35718181511038,158.78319321692106 153.6963895522058,158.79729804976523 154.06700541311875,158.79024563366693 154.73913926255773,158.75498354365845 154.9275880054047,158.72677386035502 155.07206537490129,158.71972143794846 155.32961199010606,158.68445931653696 155.68766460148618,158.57867285804969 156.30326382807107,158.34594215184916 156.7869489346922,158.11321076154854 157.35229516320396,157.78879616689665 157.7040661498031,157.5490106120851 157.961612765037,157.3303819732755 158.63374661447597,156.7168080523843 159.04833384868107,156.36417721032922 159.3498518372071,156.0820714057336 159.55714545436786,155.9128074404507 159.9466061895364,155.5249094882529 160.72552765990258,154.79142452893575 160.90769477799768,154.55868268870836 161.1024251455965,154.34004579119937 161.54842050361913,153.9521401320526 161.63636325029074,153.84634734963765 161.76199574550265,153.62065560791234 161.8436568673933,153.53602103886806 161.84993849217426,153.41612191112654 161.8436568673933,153.27506388126494 161.47304100650945,153.0" stroke="#4dd2ff" stroke-linecap="round" stroke-linejoin="round" stroke-width="0.5"><title>2024-05-20 12.0km</title><desc>11568200050</desc></polyline><polyline fill="none" points="39.97404138883576,213.0 39.95096706782351,213.23965689379838 40.11825589532964,213.36272364025353 40.256701821490424,213.38215521276288 40.4009163279552,213.4663586335446 40.45283355025458,213.59590216731158 40.33169336488936,213.93919141506922 40.27400756228599,214.0622569769548 40.19901601894526,214.17884521178348 40.141330216341885,214.3019103678671 40.00288429012289,214.50917752814712 39.58177793127834,214.9496182811199 39.50101780766272,215.02086579919705 39.414489103801316,215.0791591711095 39.3337289801857,215.1892687460786 38.8433996582462,215.6361823671541 38.814556756959064,215.7527680772473 38.86070539901266,215.86935360034113 38.94723410290317,215.9665080600389 39.40295194328064,216.34864767499676 39.70291811673087,216.5688628118005 39.806752561358735,216.63363184271293 39.89328126522014,216.71783149662224 40.077875833492726,216.8603229964283 40.21632175971172,216.87975363384612 40.4009163279552,217.02224481623125 40.585510896198684,217.1841662753286 40.66050243959762,217.26188844757417 40.798948365758406,217.44323985966184 40.902782810415374,217.6245908192941 41.0700716379215,218.0002449392632 41.20851756411139,218.27226912463084 41.24312904564431,218.3629436268966 41.30081484824768,218.4471412776984 41.41041787312133,218.71268707609124 41.55463237958611,219.1077656151101 41.68730972553021,219.41216892658122 42.11995324489544,220.3512774940391 42.16033330670325,220.48728531536472 42.40838225776679,221.063696591169 42.41415083804168,221.18675009182334 42.33339071445516,221.29037393083127 42.21801910927752,221.38752114577073 42.14302756590769,221.49114469862252 42.02188738051336,221.6012445617016 41.94689583714353,221.7113442580594 41.90651577533572,221.84734953513544 41.058534477400826,222.8188084015128 40.44129638976301,223.5635847425874 40.36053626614739,223.67368146754598 40.27977614253177,223.76434923352645 40.11248731505475,223.92625567729556 39.708686696976656,224.40549663804995 39.22989453555783,224.94949606334558 39.16067157246289,225.04663838959823 39.108754350134404,225.143780586106 39.010688485752326,225.49996752973675 39.027994226518786,225.62301352299255 39.120291510625975,225.85615272876748 39.114522930409294,225.96624598279595 39.004919905477436,226.1410996319173 38.91839120161603,226.19290803981858 38.82609391747974,226.2641445404006 38.58381354663288,226.5361378098678 38.46844194148434,226.74337009431474 38.399218978360295,226.82108204873657 38.24923589164973,227.07364532710926 38.174244348309,227.22259249040508 38.11078996548895,227.30677988253592 37.83389811308007,227.8378058022936 37.79928663154715,227.9219924822828 37.76467514998512,228.09684142937476 37.701220767135965,228.20693129152642 37.60892348299967,228.49186898444168 37.5512376804254,228.61490991585742 37.47624613705557,228.89984601050674 37.4185603344813,229.2106841134082 37.39548601343995,229.54094814223936 37.441634655493544,229.77407478914392 37.52239477913827,230.08490915606671 37.53970051990473,230.25327721688518 37.52816335938405,230.57058519524435 37.51085761861759,230.66772001395293 37.52239477913827,230.77133034425788 37.51662619889248,230.9655993158085 37.53393193965894,231.06920922183053 37.52239477913827,231.20519699953002 37.57431200143765,231.48364737019438 37.758906569710234,231.85275435817312 37.78774947102647,231.96931407055672 37.995418360311305,232.3448940955568 38.053104162885575,232.4938304650932 38.33576459554024,233.25793400077964 38.43383045992232,233.7241627242256 38.51459058353794,234.37817298165464 38.58381354663288,234.7861169966418 38.58958212687867,235.12283096845204 38.58958212687867,235.22643495396915 38.56073922559153,235.59552295342291 38.50305342301726,236.029360839726 38.497284842742374,236.1977151437095 38.46844194148434,236.3660690581455 38.462673361209454,236.50852206612763 38.47421052173013,236.70277571846236 38.497284842742374,236.83875296655606 38.5318963243044,236.9812050491455 38.55497064534575,237.1430820772075 38.618425028194906,237.3891344701551 38.68187941101496,237.47331009779737 38.774176695151255,237.55101059073058 38.8433996582462,237.6351860311188 38.88377972008311,237.72583639650838 38.935696942411596,237.95893681748566 38.970308423944516,238.20498645179032 38.94146552262828,238.3021110784175 38.970308423944516,238.67765841504297 38.970308423944516,238.83305674607254 38.96453984366963,238.96255510177434 38.94146552262828,239.07262852293206 38.94146552262828,239.21507623258367 38.987614164710976,239.51939540542662 39.022225646243896,239.68126678739645 39.137597251392435,240.04385737649864 39.23566311580362,240.38702180585096 39.30488607889856,240.52299216988467 39.495249227416934,240.7496088787957 39.63369515360682,240.93737647448143 39.52986070897896,241.0539216350444 39.36257188147283,241.17046660898632 39.25873743684497,241.2740619847027 39.183745893475134,241.4100306915716 39.154902992188,241.59132190557284 39.20682021451648,242.53014418263774 39.2010516342707,242.70495802791993 39.22412595528294,243.4754288614713 39.23566311580362,243.57902095661848 39.2875803381321,243.70203637810482 39.62215799311525,244.15524929504318 39.69714953645598,244.3041614947142 39.78367824034649,244.74442186857777 39.829826882400084,244.8674353206443 39.852901203441434,244.97749981207016 39.870206944207894,245.09403850398667 39.85866978368722,245.3012179400248 39.864438363933004,245.40480743694206 39.83559546267497,245.49544812581735 39.83559546267497,245.70262641948648 39.824058302125195,245.81268964816263 39.81252114160452,246.12992978804687 39.81828972187941,246.4018488076399 39.84136404292076,246.53780793657643 39.88751268500346,246.6543441307149 39.88751268500346,246.79677700356842 39.9105870059866,246.94568379996053 39.92212416653638,247.09459029178834 39.91635558626149,247.21112559468747 39.88174410472857,247.39887652367906 39.87597552445368,247.67726494099043 39.852901203441434,247.8196958126282 39.81828972187941,247.96860051689873 39.79521540083806,248.23403858222446 39.806752561358735,248.40236465883936 39.829826882400084,248.56421628856333 39.870206944207894,248.80375604031724 39.870206944207894,248.90086652598984 39.9567356480693,249.2180932098854 40.17594169790391,249.63890198442823 40.23362750047818,249.78132901879144 40.256701821490424,249.93022971136816 40.29131330305245,250.03381262230687 40.36053626614739,250.31219096526183 40.40668490820099,250.42872111840552 40.516287933132844,250.91426141591364 40.59704805671936,251.19263639299606 40.61435379751492,251.3091651371942 40.64319669880206,251.59401239354338 40.66050243959762,251.9241748646673 40.706651081651216,252.24786210869934 40.67203960008919,252.4679686128511 40.66627101984341,252.62981120619224 40.63742811852717,252.73986396422697 40.6258909580356,252.8499165559333 40.5797423159529,252.95996898136946 40.54513083441998,253.34838797705743 40.46437071080436,253.65912168207433 40.487445031816605,253.8339088085413 40.64319669880206,254.22879669798567 40.66050243959762,254.32589994940645 40.706651081651216,254.59131484266982 40.712419661897,254.73373219151836 40.75279972370481,255.04445998607116 40.827791267074645,255.34871300041414 40.885477069648914,255.84069390894 40.98354293403099,256.5139255566537 41.02969157608459,256.6822324963505 41.08737737868796,256.8570123682439 41.133526020741556,256.95411211587634 41.196980403590715,257.04473843019514 41.24312904564431,257.1806776902886 41.271971946931444,257.31661669667665 41.26620336668566,257.452555449403 41.24312904564431,257.54965440317756 41.26043478641077,257.7050124599773 41.26043478641077,258.0092543614519 41.22582330487785,258.1322454077672 41.156600341782905,258.24876304959616 41.08160879841307,258.488270950249 41.06430305764661,258.6112611878052 41.11045169970021,258.7601438291822 41.16236892202869,258.88313360776374 41.24312904564431,259.2262092610763 41.35273207054706,259.53691789253935 41.39888071262976,259.6275409937589 41.514252317807404,260.00945139605756 41.73345836758381,260.6373336382894 41.84882997276145,260.90919849744387 41.918052935856394,261.0192387472489 42.0045816397178,261.2004811493607 42.06803602256696,261.2911021813561 42.21801910927752,261.4464522596536 42.3160849736596,261.56296460100566 42.43722515908303,261.80246160646493 42.48914238141151,261.9254462492754 42.592976826039376,262.3591272804406 42.68527411017567,262.831642480538 42.6737369496841,262.94815260687756 42.6737369496841,263.0646625469308 42.65066262864275,263.1746995414869 42.598745406314265,263.2912091192993 42.558365344506456,263.5307004442366 42.500679541932186,263.614845858021 42.51221670245286,263.75724556766363 42.50644812217797,263.8931723036585 42.47183664064505,264.15855234316405 42.4487623196037,264.2750603478853 42.39684509727522,264.37215020955773 42.39684509727522,264.4757125860706 42.362233615713194,264.5792748153981 42.344927874946734,264.7346178834414 42.3160849736596,264.8964332271862 42.189176207990386,265.2006451006964 42.148796146182576,265.343041711516 42.06803602256696,265.3754045388123 41.96997015818488,265.30420629979926 41.84882997276145,265.2524257186378 41.69884688605089,265.1941725208526 41.531558058573864,265.1618096130769 41.37003781131352,265.1618096130769 41.08737737868796,265.09708375440096 40.87393990912824,265.08413857578125 40.83355984732043,265.1876999404558 40.764336884225486,265.30420629979926 40.54513083441998,265.4530752656865 40.256701821490424,265.932042918801 40.17594169790391,266.01618555979803 40.02019003094756,266.14563558701775 39.9105870059866,266.20388802423986 39.6452323141566,266.4174798957465 39.54716644974542,266.4627871819466 39.27027459733654,266.65048849617597 39.085680029093055,266.75404763501865 38.75110237413901,266.90291363928554 38.52612774405861,266.98705515937036 38.39345039811451,267.0 38.301153113978216,267.0 38.087715644418495,266.95469304776634 37.84543527360074,266.928803348128 37.59161774223321,266.9482206237153 37.31472588982433,266.98058273819333" stroke="#4dd2ff" stroke-linecap="round" stroke-linejoin="round" stroke-width="0.5"><title>2024-05-20 11.4km</title><desc>11568200045</desc></polyline><polyline fill="none" points="184.901345291466,237.26464685687097 185.25448430492543,237.29863413549174 186.05156950670062,237.23065956916253 186.56614349776646,237.26464685687097 186.81838565022917,237.19667227233003 187.0,237.52521576084837 186.97982062777737,237.80844222458109 186.7477578475373,238.34090626797843 186.42488789238269,238.91868387698923 185.99103139014915,239.53044554187363 184.52802690584213,240.94654921200708 183.93273542600218,241.42235650464863 183.76121076231357,241.4450139503606 183.60986547084758,241.3203979489699 183.43834080715897,241.36571287271363 183.47869955154601,241.61494466441218 183.4585201793816,241.8415185965423 183.25672645738814,242.06809212484222 182.03587443946162,243.29158220020327 181.63228699547471,243.5634672846645 181.44058295962168,243.59745287933038 181.2993273542961,243.77870923083537 181.2085201793816,244.0845787379876 180.75448430492543,244.4697467002843 180.1692825112259,245.09281005119556 179.94730941706803,245.2400791243781 179.46300448430702,245.7725120426403 178.635650224227,246.78072997101117 178.43385650223354,246.86002767120226 178.21188340807566,247.0639358160406 178.10089686099673,247.26784363385377 177.9091928251437,247.449094752963 177.72757847531466,247.52839203635813 177.40470852021826,247.89089327336114 176.44618834083667,248.72917342591245 175.9114349775482,249.28424778298358 175.00336322869407,250.05455103963322 174.18609865469625,250.65493122449698 173.7522421524627,250.91547268694558 173.44955156953074,251.01742354863381 172.7836322869989,251.3685870023255 172.56165919284103,251.44788184149365 172.41031390137505,251.57248791748134 172.24887892382685,251.65178262952395 171.62331838562386,251.86701088447444 170.87668161431793,252.03692767053144 169.20179372199345,252.2861385460492 168.08183856500546,252.27481078958226 167.59753363224445,252.22949975358642 166.8307174887741,252.1275498635805 163.75336322869407,251.52717663123622 162.6434977578465,251.28929211368086 161.70515695068752,251.04007928459032 160.99887892376864,250.91547268694558 160.2522421524627,250.70024282152735 158.76905829593306,250.41704507523536 157.94170403585304,250.17915848091798 157.37668161431793,249.89595957413258 157.05381165922154,249.68072798317735 156.47869955160422,249.510808048748 156.0650224215351,249.6354160228584 155.29820627806475,250.1225187500313 155.13677130045835,250.3037658001267 154.3699551569298,250.79086596713023 153.6434977578465,250.45102883810614 153.1692825112259,250.29243786705047 151.9585201793816,249.9979112532601 151.4035874439287,249.79400781329605 150.87892376683885,249.53346405312914 150.40470852016006,249.19362356367492 149.51681614352856,248.37800268326828 148.55829596408876,247.4037819974037 147.4686098654638,245.64790028288553 147.31726457399782,245.52328840101836 147.17600896861404,245.52328840101836 146.88340807176428,245.26273588972253 145.42040358739905,244.12989267647936 144.53251121076755,243.38221062630328 143.73542600899236,242.8610962940802 142.35313901345944,241.61494466441218 141.9899103139178,241.10515184074757 141.71748878923245,240.85591904957982 141.53587443946162,240.78794638536783 141.38452914799564,240.66332973994577 140.68834080715897,240.4820689466651 140.52690582961077,240.35745200142264 140.35538116592215,240.3347943618428 140.20403587445617,240.21017727221624 139.9114349776064,239.6550632978615 139.62892376683885,239.31519640290935 139.4977578475373,238.9413417689284 139.4372197309276,238.53349909609096 139.2757847533794,238.40888024060405 139.04372197308112,238.3635642628724 138.50896860990906,238.3635642628724 138.34753363224445,238.31824826897355 137.87331838568207,238.0010358594227 137.4192825112259,237.93306166866387 137.2477578475373,237.84242935779912 136.49103139014915,237.11736854443006 136.15807174891233,236.85679880440875 135.94618834083667,236.7774948644801 135.79484304931248,236.6415451380235 135.71412556053838,236.448949443351 135.77466367714806,236.2563534568544 135.9663677130011,235.973123534779 135.8150224214769,235.58792982797604 135.0885650224518,234.90817338010675 134.74551569513278,234.40968300784152 134.57399103138596,234.2963894687855 134.16031390137505,234.1264489708483 133.8778026905493,233.71859084864263 133.91816143493634,233.49200243745872 133.82735426008003,233.2654136223282 133.77690582961077,232.9935065109603 133.6457399103092,232.8462232493839 133.58520179375773,232.63096279088495 133.58520179375773,232.4043724406656 133.67600896861404,232.24575895514135 133.8878923766315,232.07581571530318 133.86771300446708,231.95119052829978 133.92825112107676,231.91720181972778 134.0392376681557,231.70193978771567 134.1300448430702,231.6566214187551 133.9686098654638,231.76991731088492 133.97869955154601,231.92853139027284 133.8878923766315,231.9965087922683 133.8071748878574,232.21177032535343 133.75672645738814,232.06448615787667 133.83744394616224,232.0078383557193 133.89798206277192,231.05615150405356 133.86771300446708,230.8182286776282 133.7264573990833,230.7049319370417 133.5650224215351,230.72759129320912 133.43385650223354,230.87487701000646 133.22197309415787,230.90886599734222 133.03026905830484,230.8182286776282 133.12107623316115,230.63695384420862 133.01008968614042,230.22908452369302 133.19170403585304,230.1611061763324 133.4742152466788,229.90052217464108 133.6558295963914,229.84387340792455 133.67600896861404,229.5153100629177 133.6558295963914,229.86653291764378 134.5336322869989,229.651267412155 135.12892376678064,229.6625971846879 135.30044843046926,229.62860786405508 135.5627802690724,229.39068236506137 135.84529147978174,229.2207353073245 136.0571748879156,228.92615986889723 136.1378923766897,228.54094480367348 136.4607623318443,228.32567705277324 137.19730941700982,228.33700694348227 137.39910313900327,228.31434716106014 137.62107623316115,228.23503789066308 137.8127802690724,228.24636778947024 137.9742152466788,228.32567705277324 138.64013452915242,228.7562121899391 140.0829596412368,229.4926504906034 140.75896860985085,230.28573311870423 140.90022421523463,230.18376562948833 140.76905829593306,229.93451142257254 140.48654708522372,229.71924603223306 140.19394618831575,229.46999091421458 140.02242152468534,229.43600154204614 139.69955156947253,229.23206511825992 139.12443946185522,228.98280904466083 138.619955156988,228.7108927704976 137.8329596412368,228.1783883815151 137.45964125561295,228.08774911436922 137.2477578475373,228.1670584766689 137.12668161431793,228.28035747982358 136.97533632285194,228.29168737457076 136.56165919278283,228.12173884711228 136.35986547084758,228.20104818823893 136.0470852017752,228.46163567471376 136.08744394622045,228.7562121899391 136.0470852017752,228.90350019146717 135.94618834083667,228.99413887680566 135.83520179369953,228.91483003067697 135.9663677130011,229.016798538054 135.82511210761731,229.1867458685083 135.47197309415787,229.39068236506137 135.3307174887741,229.52663984758692 135.11883408069843,229.62860786405508 134.89686098654056,229.5832887557117 134.6950672645471,229.60594831193885 133.9686098654638,229.75323532862967 133.7264573990833,229.68525672675605 133.35313901345944,229.85520316327165 133.05044843052747,230.13844671914558 133.0,230.38770052610926 133.02017937222263,230.69360225745186 133.26233183854492,230.85221768006886 133.46412556053838,230.82955834610766 133.66591928253183,230.682272576807 133.8071748878574,230.69360225745186 133.86771300446708,231.02216255609528 133.86771300446708,231.61130303356913 133.70627802691888,232.16645213815355 133.58520179375773,232.3363952568252 133.52466367714806,232.5969742640882 133.58520179375773,232.83489376067882 133.75672645738814,233.0048359855282 133.7970852017752,233.2654136223282 133.8878923766315,233.42402583533112 133.85762331838487,233.85454370147636 133.98878923768643,234.02448456297134 134.50336322869407,234.31904818467592 134.75560538115678,234.7042457368516 134.9170403587632,234.8628561543228 135.10874439461622,234.93083198693057 135.7343049327028,235.44064957276714 135.8957399103092,236.07508637942374 135.69394618831575,236.31299936552386 135.6535874439287,236.5395827477696 135.8150224214769,236.75483658682788 135.95627802686067,236.86812793463469 136.14798206283012,236.93610269487544 136.43049327353947,237.16268496643897 137.31838565022917,237.98970683016523 137.8127802690724,238.0576809906488 138.41816143499454,238.4428672132999 139.07399103138596,238.4315382234272 139.30605381168425,238.48818316277175 139.45739910315024,238.65811782939272 139.44730941706803,238.9073549295208 139.56838565022917,239.34918313327944 140.0728699551546,240.14220426273096 140.27466367708985,240.3347943618428 140.48654708522372,240.3687808196555 140.880044843012,240.55004177444061 141.41479820630047,240.64067215492105 141.62668161431793,240.85591904957982 141.9293721973081,241.11648059239087 142.4035874439287,241.7395603770492 143.51345291477628,242.77046749650617 143.70515695068752,242.94039643894212 144.35089686105493,243.32556786757777 146.93385650229175,245.34203453664668 147.43834080715897,245.78384037839714 148.36659192823572,247.29050003787415 149.4764573990833,248.43464319124178 150.53587443946162,249.37487193773995 151.03026905824663,249.70338395726867 151.68609865469625,249.9412714416103 151.82735426008003,250.04322308437258 152.98766816139687,250.40571715225087 153.38116591930157,250.49634050776513 154.35986547084758,250.8361775157682 154.57174887892324,250.84750540037203 156.82174887892324,249.45416802015097 156.92264573986176,249.30690382773173 157.16479820630047,249.22760765349085 157.4372197309276,249.0576871135636 157.5885650223936,248.87643828737782 157.88116591930157,248.76315763981984 158.02242152462713,248.54792413145333 158.6278026905493,248.0381591057303 158.80941704037832,247.9701902812376 158.89013452915242,247.80026806100796 160.151345291466,246.6787757123966 160.3127802690724,246.5994778991444 161.49327354267007,245.50063168211636 162.10874439461622,244.85491349575022 162.3307174887741,244.73030083666526 162.59304932731902,244.3677905885561 162.66367713006912,244.12989267647936 162.75448430492543,243.98262231735134 162.83520179375773,243.54081021648744 163.03699551569298,242.88375348334375 163.2993273542961,241.50165754695627 163.22869955154601,240.82193272203585 163.2993273542961,240.28947907067777 163.79372197308112,239.2245650774421 163.88452914793743,238.56748603549204 164.07623318390688,238.1596421631475 165.08520179375773,236.788824001771 165.6199551569298,235.58792982797604 165.64013452915242,235.406661797344 165.6199551569298,235.044124960521 165.5392376681557,234.8855147692666 164.56053811660968,233.75257907550258 163.58183856500546,232.08714527168195 163.52130044845399,231.91720181972778 163.52130044845399,231.7359285538696 163.59192825114587,231.5886438349553 163.75336322869407,231.41869971642882 164.3385650223936,231.09014044289506 164.48991031385958,230.94285497556848 165.630044843012,230.35371139938798 165.83183856500546,230.13844671914558 167.10313901345944,229.4020121608337 167.29484304937068,229.35669297166896 169.2421524663805,228.3030172682993 169.89798206277192,227.88381052685872 170.35201793722808,227.7138614539581 171.0078475336195,227.73652134346776 171.18946188339032,227.79317104959773 171.10874439461622,227.98577986154123 170.98766816145508,229.3453631718803 170.90695067262277,231.44135894536157 171.0885650224518,231.61130303356913 171.78475336323027,231.54332542555494 172.2993273542961,231.5886438349553 173.1065022421535,231.5319958206819 173.36883408069843,231.49800700000196 173.52017937216442,231.43002933140815 174.5493273542379,231.44135894536157 175.14461883407785,231.40737010042358 176.05269058293197,231.46401817025617 176.4865470851655,231.6679510124959 177.74775784747908,232.52899718328263 177.94955156947253,232.63096279088495 178.37331838568207,232.94818860249507 178.73654708522372,233.1521190632775 178.94843049324118,233.1974368989977 179.55381165916333,233.53732015202695 179.78587443946162,233.59396727250714 181.16816143499454,234.22841329688526 181.65246636769734,234.35303625097004" stroke="#4dd2ff" stroke-linecap="round" stroke-linejoin="round" stroke-width="0.5"><title>2024-05-13 18.3km</title><desc>11568200111</desc></polyline></svg>