<?xml version="1.0" encoding="utf-8" ?>
<svg baseProfile="full" height="300mm" version="1.1" viewBox="0,0,200,300" width="200mm" xmlns="http://www.w3.org/2000/svg" xmlns:ev="http://www.w3.org/2001/xml-events" xmlns:xlink="http://www.w3.org/1999/xlink"><defs /><rect fill="#222222" height="300" width="200" x="0" y="0" /><text fill="#FFFFFF" style="font-size:12px; font-family:Arial; font-weight:bold;" x="10" y="20">Over 10km Workouts</text><text fill="#FFFFFF" style="font-size:4px; font-family:Arial" x="10" y="280">ATHLETE</text><text fill="#FFFFFF" style="font-size:9px; font-family:Arial" x="10" y="290">yangjie</text><text fill="#FFFFFF" style="font-size:4px; font-family:Arial" x="120" y="280">STATISTICS</text><text fill="#FFFFFF" style="font-size:3px; font-family:Arial" x="120" y="285">Number: 7</text><text fill="#FFFFFF" style="font-size:3px; font-family:Arial" x="120" y="290">Weekly: 2.3</text><text fill="#FFFFFF" style="font-size:3px; font-family:Arial" x="141" y="285">Total: 122.0 km</text><text fill="#FFFFFF" style="font-size:3px; font-family:Arial" x="141" y="290">Avg: 17.4 km</text><text fill="#FFFFFF" style="font-size:3px; font-family:Arial" x="167" y="285">Min: 11.2 km</text><text fill="#FFFFFF" style="font-size:3px; font-family:Arial" x="167" y="290">Max: 38.4 km</text><polyline fill="none" points="67.0,60.06889173630043 65.50741573033156,61.51315728719055 65.32539325841935,61.60853283392498 64.694382022426,61.71753338590497 64.56089887639973,61.82653386016318 64.48808988759993,61.94915930085699 64.45168539322913,62.18078486491868 64.45168539322913,62.507785063877236 64.39101123594446,62.65765992131492 63.86921348312171,63.080033729216666 63.2139325842727,63.76127934792021 62.40089887636714,64.55152046312287 62.04898876399966,64.93301471220911 61.73348314606119,65.38263171243307 61.04179775278317,66.0229930364585 60.43505617970368,66.60885317534849 60.143820224679075,66.90859470400028 59.94966292130994,67.16746191504353 58.95460674155038,68.17567740195955 57.94741573027568,69.15663744151243 57.57123595505254,69.49724709462316 57.02516853931593,70.0422209615499 56.600449438148644,70.36920434952481 54.853033707884606,72.01773494962254 53.955056179722305,72.7806852452486 53.50606741569936,73.12128682695038 52.98426966293482,73.46188765016268 52.41393258422613,73.80248771479819 51.261123595468234,74.38831805170048 50.03550561796874,74.79703556255845 49.17393258429365,75.04226554477646 48.99191011232324,75.02864166718791 48.59146067412803,75.16488038846 47.99685393256368,75.23299970357039 47.82696629210841,75.20575198116421 47.66921348311007,75.26024742113077 47.31730337074259,75.30111898834002 46.237303370726295,75.28749513383082 45.69123595504789,75.26024742113077 45.14516853925306,75.21937584294938 44.50202247191919,75.13763265390298 41.84449438203592,74.55180518713314 38.83505617972696,73.856983654754 38.22831460670568,73.70711977314204 34.357303370779846,72.83518154930789 33.79910112352809,72.6853166664514 33.265168539306615,72.45370701317734 32.791910112369806,72.15397635298723 32.33078651683172,71.96323835429212 32.02741573029198,71.85424510539451 31.96674157300731,71.86786926572677 31.748314606724307,71.99048665439477 30.789662921335548,72.6035721229855 29.491235955036245,73.39376754617842 29.35775280900998,73.38014352177561 28.775280898844358,73.09403872836265 28.35056179773528,72.95779816238792 27.78022471902659,72.8079333997157 26.724494382040575,72.4945793303923 25.802247191022616,72.18122461912571 25.341123595484532,71.908741739564 24.904269662918523,71.62263419351075 24.52808988757897,71.32290190452477 23.48449438199168,70.36920434952481 22.732134831428993,69.56536893418524 22.465168539318256,69.33375455580244 22.14966292132158,68.91139802156249 21.8705617976957,68.43454246803594 21.336629213474225,67.64432141974976 21.15460674156202,67.31733220533351 20.54786516848253,66.82684707266162 20.293033707886934,66.58160391633282 19.564943820238113,66.11836577017675 18.484943820221815,65.15101099865569 17.829662921314593,64.64689411467407 17.562696629203856,64.41527228638006 16.931685393268708,64.0337767455494 16.312808988790493,63.52965617814334 15.97303370787995,63.20265816459141 15.002247191034257,62.344285051804036 14.492584269726649,61.649408050012426 13.861573033675086,61.10440427016874 13.703820224676747,61.04990378537332 13.206292134826072,61.036278661107644 13.0,60.9681530216767 13.0364044943708,60.954527890178724 13.38831460668007,61.07715403022303 13.800898876332212,61.11802938836627 13.958651685388759,61.1725298489182 14.626067415694706,61.78565869144222 14.953707865148317,62.28978500890662 15.17213483148953,62.53503504888795 15.863820224709343,63.120908551936736 16.422022471902892,63.652280252907076 16.94382022472564,64.07465131331992 17.599101123574656,64.46977157166111 18.38786516856635,65.09651195615879 19.115955056156963,65.73687447840348 19.79550561797805,66.28186174668372 20.4265168539132,66.70422554366814 21.008988764020614,67.22196021940908 21.227415730361827,67.4263286878122 21.652134831470903,68.14842842213693 22.31955056177685,69.17026184224233 22.647191011172254,69.53812020200712 23.217528089822736,70.06946960392816 23.59370786510408,70.50544722149789 24.09123595507117,70.9822963176266 24.746516853920184,71.55451327032642 25.474606741569005,72.04498324000451 25.984269662876613,72.30384175651125 27.610337078629527,72.8079333997157 28.217078651709016,72.95779816238792 28.860224719101097,73.14853492072143 29.442696629150305,73.42101559140428 29.576179775234777,73.43463961219823 29.758202247146983,73.35289546925924 31.76044943818124,72.0722315255116 33.10741573036648,71.25478084784118 33.702022471872624,70.85967812062881 34.29662921349518,70.35558005567873 36.323146067385096,68.52991369769734 37.36674157297239,67.67157048943045 38.11910112359328,66.96309310068318 38.8107865168713,66.22736310727487 39.27191011235118,65.72324977182143 39.417528089892585,65.46438011586724 39.55101123591885,65.08288719248958 40.0728089887416,62.834784563456196 40.15775280899834,62.38516007117869 40.182022471912205,62.08540967515728 40.133483146026265,61.7311584494455 40.1092134831124,61.25428050332994 40.15775280899834,60.872777075492195 40.254831460653804,60.586648879921995 40.67955056176288,59.796387272232096 40.78876404487528,59.48300653806655 40.849438202159945,58.89711909471953 40.897977528045885,58.52923513391579 41.00719101121649,58.2976040377398 41.56539325841004,57.64358493073087 41.941573033691384,57.08494139452523 42.26921348308679,56.68980205093976 42.77887640451081,55.55888035407406 42.99730337073561,55.02748052297102 43.03370786510641,54.79584412105032 43.00943820225075,54.56420736818109 42.94876404496608,54.346195985985105 42.77887640451081,54.100932809422375 41.84449438203592,53.07899867123342 41.17707865167176,51.97530212829588 40.75235955050448,51.32125597209961 40.41258426965214,50.694459112899494 40.38831460673828,50.51732040423667 40.4368539325078,50.340181490333634 40.55820224719355,50.17666846451175 44.65977528085932,47.80570993303263 45.315056179708336,47.45142561470857 45.99460674158763,47.029008623430855 46.63775280897971,46.64746969231055 46.97752808989026,46.48395271599293 47.36584269662853,46.23867692347267 47.86337078647921,46.020653666360886 48.43370786512969,45.7072446893726 48.7613483145833,45.63911221799208 49.19820224714931,45.59823272061476 49.56224719097372,45.59823272061476 49.8777528089704,45.69361819753249 51.103370786469895,46.19779758647201 51.61303370783571,46.48395271599293 52.098426966229454,46.8382392769563 54.34337078651879,48.90943658344622 54.98651685391087,49.468109997935244 55.0714606741094,49.48173615333508 55.168539325823076,49.44085768367222 55.53258426964749,49.05932477317401 56.39415730332257,48.35076112690149 56.612584269663785,48.187245972818346 56.685393258405384,48.15999343016301 56.75820224720519,48.187245972818346 56.87955056177452,48.28262983397872 57.134382022486534,48.70504336064914 57.1950561797712,48.759548246787745 57.2678651685128,48.78680068257381 57.340674157312606,48.77317446528468 57.656179775251076,48.65053845504008 57.813932584249415,48.66416468327225 58.299325842701364,49.03207238597679 58.80898876400897,49.18196045537479 58.978876404464245,49.34547454533458 59.28224719100399,49.781511263296125 59.658426966227125,50.27205108416092 59.779775280854665,50.462816144907265 59.901123595482204,50.558198585989885 60.386516853934154,50.76258933078498 60.7626966292155,50.98060582396283 61.40584269660758,51.198622006209916 61.672808988718316,51.157743995732744 61.830561797716655,51.07598794194928 62.02471910108579,50.885223646473605 62.15820224711206,50.65358096759883 62.206741572998,50.40831186615105 62.18247191008413,50.13579018073506 62.00044943817193,49.72700674155203 62.00044943817193,49.37272687662335 61.95191011228599,49.30459603926283 61.672808988718316,49.113829532958334 61.1631460673525,48.623285994966864 61.13887640449684,48.55515482352348 61.187415730324574,48.41889238949807 61.33303370780777,48.2144985106861 61.393707865150645,48.06460949250322 61.393707865150645,47.628567876527086 61.44224719097838,47.46505194983911 61.61213483143365,47.27428314757708 61.66067415731959,47.124393207370304 61.61213483143365,46.74285451437754 61.64853932580445,46.59296405299392 61.757752808975056,46.37494130124105 61.76988764043199,46.23867692347267 61.70921348314732,46.143291786749614 61.47865168534918,45.96614780346863 61.24808988766745,45.870762496677344 60.7626966292155,45.77537713032507 59.452134831401054,45.82988306124753 59.015280898835044,45.870762496677344 58.3478651685291,45.666365210170625 58.020224719075486,45.44834113663819 57.66831460670801,45.31207593274303 57.134382022486534,45.17581060733937 54.634606741543394,44.69888101165998 54.51325842697406,44.73976074960956 54.41617977526039,44.90327959206479 54.37977528083138,45.02591860904067 54.404044943803456,45.148557527703815 54.90157303365413,45.69361819753249 55.22921348316595,46.129665333763114 55.568988764018286,46.51120555753005 55.95730337075656,46.988129497811315 56.1150561797549,47.13801957164833 56.454831460665446,47.32878854399314 56.600449438148644,47.50593094795477 56.72179775277618,47.751204706772114 56.733932584233116,47.914720327287796 56.67325842694845,48.05098321080732 56.21213483141037,48.37801363559265 55.350561797677074,49.14108190557454 55.19280898873694,49.34547454533458 55.204943820193876,49.48173615333508 55.26561797753675,49.631623781780945 55.47191011236282,49.822389641805785 56.13932584266877,50.35380756792438 57.11011235951446,51.021483881850145 57.46202247188194,51.30762998072896 57.91101123590488,51.580149576897384 59.585617977543734,52.68384897292708 60.64134831452975,53.16075365367578 61.102471910067834,53.310637674687314 61.85483146063052,53.51502473912842 63.96629213477718,53.991926826842246 64.45168539322913,54.046429827809334" stroke="#4dd2ff" stroke-linecap="round" stroke-linejoin="round" stroke-width="0.5"><title>2024-06-02 14.5km</title><desc>11553994390</desc></polyline><polyline fill="none" points="138.96539999595552,46.20314546944792 139.03213016349764,46.23124369415018 139.0571539763332,46.282757067066996 139.07800715370104,46.37641761570194 139.1405666857754,46.49817607932346 139.1530785921932,46.50285909151353 139.16976113409328,46.48412704022121 139.17393176954647,46.418564808107476 139.13222541483992,46.160998104227474 138.89866982839885,45.33677616632849 138.64426106458995,44.31116376691352 138.3481459460745,43.02326595629347 138.30226895588567,42.775049294374185 138.2689038720855,42.40974716792698 138.27307450755325,42.00697521186521 138.29392768493562,41.86178921456667 138.2814157785033,41.68381873488761 138.29809832038882,41.52458147872676 138.31061022682115,41.06560080381314 138.3439753105922,41.009398812861036 138.44824119740224,40.901678162117605 138.70264996119658,40.5972490415661 139.03630079897994,40.03522141349458 139.09051906011882,39.98370191330832 139.16559049861098,39.9509167504948 139.2406619371177,39.946233154147194 139.72862628736766,40.01648705563639 139.8745985288988,40.021170645719394 140.05393585418642,40.05863935141679 141.0006701063976,40.1523109986847 141.1633248897997,40.13826026223978 141.288443953963,40.10547519593092 141.50531699851854,39.99775269109523 141.72219004307408,39.904080768141284 142.6689242952707,39.440402288979385 143.54058710894606,38.98608708087704 144.14949988790613,38.71443281061511 144.38722610981495,38.597340019317926 144.85016664722934,38.400623542129324 145.0586984208203,38.3256837379231 145.8427778896148,38.09617992222047 146.98136137351685,37.79641832566995 147.152357427869,37.75894800576498 147.29415903393237,37.76363179721011 148.0281908770412,37.876042666663125 148.19084566045785,37.880726447670895 148.38686552766012,37.852623755374225 148.93738940998446,37.73552904225289 149.0833616515156,37.721477659120865 149.26686961228552,37.744896628904826 149.74649269158544,37.84325618793082 149.93000065236993,37.852623755374225 150.11767924862215,37.83388861881758 150.3303816576954,37.79173453713884 151.9110525016731,37.15941925073275 152.1195842752786,37.08447767501275 152.29058032963076,37.051690702002816 152.47408829041524,37.04232299166324 152.7159851477918,37.051690702002816 153.83788608982286,37.117264627551776 154.20073137589497,37.12663232451814 154.41343378498277,37.070426117647 154.59694174576725,37.000168274469615 156.9908865068137,36.00718070291623 157.5747754729091,35.77766675247403 157.9876683846669,35.67930332368633 158.95108517874905,35.48725990776438 160.0771567562333,35.24837565388589 160.30237107172434,35.22495557047296 160.53592665817996,35.22495557047296 163.59300245929626,35.37484392369879 163.95584774539748,35.37484392369879 164.09347871597856,35.34205588300756 164.25196286391292,35.25774368430939 164.8233399236051,34.906441398936295 165.0235304262751,34.831496607133886 165.10277250024956,34.82212850063297 165.2320621998806,34.84554876375478 165.4364233380038,34.91112544487987 166.96704655631038,35.435735944953194 167.11301879782695,35.468523927145725 167.24647913295485,35.468523927145725 167.88458636020368,35.3701599191445 168.08477686285914,35.29989980058599 168.9272452282603,34.962649922585115 169.15663017923362,34.88302116299019 169.24421352414356,34.85960091659217 169.7238366034435,34.80339228262892 169.86980884496006,34.77528794307 170.06165807668003,34.705027028347104 170.2118009536789,34.60666158974345 170.4161620918312,34.42866651805525 171.69654718178208,33.26699964797808 171.84251942332776,33.12647368676335 171.9009083199344,33.08431582502453 172.05939246786875,33.01405264690766 172.1386345418432,33.0 172.21370598033536,33.02342107609002 172.2762655124243,33.065578986726905 172.36384885734878,33.18268411639292 174.01124986886862,35.96502515458269 174.0988332137931,36.096175638231216 174.27817053908075,36.306952514874865 174.42831341609417,36.43810214437326 174.6535277315852,36.61140650944071 175.25826987504843,36.990800554940506 176.24253984648385,37.59033123531117 176.6637740291917,37.805785901458876 176.86396453184716,37.89477778817309 177.23098045340157,38.03529098641957 177.798186877626,38.19922257580765 178.31951631164702,38.3256837379231 178.57392507544137,38.405307276338135 178.78662748452916,38.50834932331054 178.99515925814922,38.639493454262265 179.17866721891914,38.80342315736925 179.33298073138576,38.976719715639774 179.68748474653694,39.4638204921539 179.82094508163573,39.62306399678346 179.9627466876991,39.76357257043492 180.12957210656896,39.89002996529234 180.7593380628823,40.30686885139221 180.89696903347794,40.419274276762735 181.026258733109,40.56446426179173 181.15554843274003,40.742438534547546 181.34739766447456,41.084334787428816 181.71858422151126,41.86178921456667 181.85204455661005,42.17557780188508 181.88540964039566,42.26924567358947 181.94796917247004,42.5736651030129 181.96048107887327,42.878082768118475 181.89375091133115,43.2386983347169 181.0929889006511,45.60371309605762 181.03877063952677,45.79571952264814 180.96786983650236,46.15163201847463 180.95118729460228,46.493493066700466 180.95535793008457,48.16530204708033 180.9845523783879,48.736608327810245 181.13469525538676,50.338105940201785 181.1388658908545,50.53009506801027 181.11384207803349,50.88597549876067 180.9845523783879,51.452569633253006 180.38815150586015,53.686108503203286 180.3005681609502,54.04196756661622 180.1796197322401,54.500834908365505 180.15459591940453,54.54297558588951 180.05867130354454,54.95501598622286 179.81677444618254,55.83527329542994 179.4706117019814,57.16031368978656 179.34549263780355,57.78770632709711 179.23288548007258,58.51341235411019 179.1369608642126,59.04246914573014 178.97013544531364,59.71197586317794 178.77828621359367,60.60151705790122 178.71155604605156,60.80751392592356 178.64899651396263,61.20546013621424 178.64482587848033,61.46763481775997 178.66150842038041,61.678309954178985 178.79913939094695,62.27287745470312 178.83250447473256,62.488230954397295 178.83250447473256,62.73635454573014 178.80331002642924,62.998521597019135 178.74492112982261,63.27005037987692 177.72728607458703,68.9016159136736 177.64387336515938,69.22928612638134 177.54377811383165,69.51014468493304 176.8264288125938,70.99867002366227 176.76803991598717,71.20462618917009 176.7054803839128,71.48547420704199 176.47609543292492,72.92245645045477 176.39268272349727,73.56370296942987 176.3634882751794,73.95687215479848 176.33846446234384,75.26741490068889 176.30509937857278,75.8290660915045 176.24671048196615,76.44219513482676 176.12159141780285,77.27529033305109 176.09656760496728,77.64035036783753 176.10073824043502,77.85096077518392 176.1257620532706,78.26281869319428 176.32595255592605,80.05997918934372 176.37182954612945,80.70113879549172 176.3801708170795,80.94917654944584 176.37182954612945,81.20657298367951 176.34263509782613,81.46864806079248 176.13410332422063,82.76028474913255 176.0840556985495,83.02235209653736 176.02149616647512,83.26569918037058 175.94642472798296,83.49968570095007 175.87552392492944,83.6728350571102 175.40007148109726,84.49645663562478 175.2040516139241,84.87082582412768 175.04139683049289,85.2498719173891 174.38243642590533,86.92980881610856 174.3574126130552,86.97192353767241 174.29902371644857,87.0 174.1989284651063,87.0 174.15722211039974,86.97660294909292 173.8611069918843,86.38699383674975 173.15626959706424,84.89890340603597 172.9852735427121,84.51985478783536 172.91854337515542,84.33734892499706 172.8601544785488,84.13612377932077 172.69332905964984,83.31249656762884 172.6516227049142,83.15338528136272 172.58906317285437,83.03171162054787 172.4806266505766,82.89599835964691 170.69976530392887,81.37037005967068 170.4161620918312,81.11297442585419 169.4277214849135,79.95233849031865 169.24421352414356,79.69961598455848 168.7520785384113,78.96952193366815 168.5852531195269,78.80103725384106 168.4643046908459,78.71679471179232 167.63434823187708,78.25345832174935 167.50505853221694,78.16921490376262 167.40913391635695,78.08029114969395 167.31320930049696,77.96796619308589 166.9420227434748,77.32677331175364 166.78353859554045,77.09275936661288 166.30808615170827,76.48899858528603 166.2038202649128,76.33922739735863 166.1078956490528,76.18009504339352 165.92438768825377,75.82438568966609 165.80343925957277,75.64653011165137 165.18201457420946,74.97722610464552 164.84419310095836,74.64023065688889 164.31035176051955,74.21898331380362 164.0976493514463,74.0177195044489 163.4386889468151,73.33435292193826 163.35110560190515,73.25010163314073 163.2218159022741,73.16585020949424 163.11337938001088,73.11436316201434 162.95906586752972,73.07691800493922 162.5586848621897,73.06287606418118 162.2542284727242,73.02543087046797 162.04986733458645,72.9458597454286 161.93726017684094,72.88501115688632 161.8329942900309,72.81480115963132 161.73706967417093,72.72118768429573 161.44512519112322,72.3654549597195 160.85289495407778,71.57440910031073 159.5308035093767,69.50078275712804 159.40985508068115,69.33226777189338 159.2972479229502,69.18715721331318 158.76757721796457,68.55053842176494 158.204541429237,67.89518750358911 158.09193427146238,67.82028973611887 157.9876683846669,67.77347857733184 157.87089059145364,67.75007298231867 157.71657707897248,67.75475410214858 156.7656721913081,67.89050639624838 156.57382295958814,67.89518750358911 156.42368008257472,67.86710085328377 156.2735372055904,67.81560862212064 155.28926723415498,67.39898780781368 155.13495372168836,67.28664005726023 154.73874335181608,66.91214582297471 154.5552353910607,66.7670285906861 152.86195738932292,65.61075763435656 152.73683832515962,65.51245002474025 152.35731049718743,65.0911296172344 152.26972715227748,65.00686513086112 152.182143807353,64.94132599259683 152.08204855602526,64.89451227242898 151.98195330469753,64.8711053967163 151.52735403821862,64.82429161406617 151.19370320044982,64.77747778974663 151.07275477175426,64.7353453122596 150.9267825302377,64.65108025603331 150.8225166434131,64.53872663778748 150.7516158403887,64.42637277961694 150.68071503736428,64.23911581610082 150.52640152489766,63.7428816392312 150.459671357341,63.57434821244897 150.3804292833811,63.447947788026795 150.28033403202426,63.34027311286627 150.1510443323932,63.25132430192025 149.77568713988876,63.05470008088378 149.57966727270104,62.932979956698546 149.24184579947905,62.6380415646272 148.92487750356668,62.39459910634832 147.50686144302017,61.50976991256539 147.33586538866803,61.38336452692238 147.2232582308934,61.27100392911234 147.152357427869,61.15864309128301 147.09396853126236,61.00414654731867 147.0647740829736,60.84964954953102 147.08562726032687,60.40020115733205 147.08145662484458,60.212929860332224 147.056432812009,60.09120315970722 146.9897026444669,59.955430738169525 146.91880184144247,59.86179438115505 146.8103653191647,59.75879419589546 146.68107561953366,59.68388484354 146.32657160439703,59.48724728596062 146.1931112692837,59.38424636713535 145.67178183526266,58.75219085712888 145.49244450994593,58.602369178039226 142.79821399490174,57.03857992284247 142.5396345956251,56.81383992037445 141.8681622846052,56.083428278067004 141.7013368657208,55.88677725608068 141.60958288532856,55.73226522279583 141.5428527177719,55.55902391822383 141.21754315095313,54.38845960317121 139.6160191296076,50.614382756226405 139.41999926243443,50.18357759619175 139.33241591749538,50.01968340148596 139.24900320805318,49.89793309742163 139.02378889256215,49.68721075074063 138.0520308275445,49.003527985823894 138.03951892112673,48.95201728020038 138.04368955659447,48.78343643604967 138.05620146301226,48.74597395278761 138.15629671434,48.661683267811895 138.57753089703328,48.244910671768594 138.83193966085673,47.94520698646011 138.86947538009554,47.8796465774285 138.87364601556328,47.76725711451218 139.00710635067662,47.47223363059675 139.09051906011882,47.24745272149448 139.09886033106886,47.18657439311937 139.04881270539772,47.074183447741234 139.04047143444768,47.00862195190348 139.0738365182333,46.74637515054201 139.069665882751,46.54032317404926 139.04464206991543,46.33895341628158 139.01961825707986,46.306172219876316" stroke="#ff0000" stroke-linecap="round" stroke-linejoin="round" stroke-width="0.5"><title>2024-06-01 38.4km</title><desc>11545145550</desc></polyline><polyline fill="none" points="60.100000000034925,117.21993767449749 60.08965517242905,116.3950308487183 60.0689655172755,116.04647709817073 60.058620689669624,115.55850027983251 60.08965517242905,115.14023297988751 60.0689655172755,114.67548995957623 60.07931034488138,113.51362515099754 60.048275862121955,111.61976328792662 60.048275862121955,109.88854030388029 59.96551724139135,106.36792858838453 59.955172413843684,106.05420609221619 59.903448275930714,105.57781122623419 59.913793103420176,104.61339676960051 59.93448275863193,104.17185523607623 59.83103448274778,103.06799484903604 59.624137931037694,101.68525126071472 59.5413793103653,101.19722060442291 59.48965517239412,100.6975682746779 59.34482758626109,99.72149772450211 59.29310344828991,99.24507967832324 59.324137931049336,99.12887989030423 59.44827586208703,98.98944000771007 59.55172413797118,98.90810000719648 59.675862068950664,98.86161998407624 60.193103448313195,98.86161998407624 60.97931034484645,98.72217981510039 61.5275862069102,98.59435952900822 61.993103448301554,98.5130192815559 62.86206896556541,98.43167898327374 64.39310344832484,98.42005893649912 66.1931034483132,98.43167898327374 66.56551724142628,98.39681883985759 66.8758620689623,98.29223835362063 66.9586206896347,98.2225179827874 67.0,98.11793735648098 67.0,97.87391556825605 66.93793103448115,97.60665308473108 66.9172413793276,95.53825530182803 66.89655172417406,95.11992366320919 66.84482758620288,95.02696089420351 66.5965517241857,94.82941478957218 66.21379310346674,94.65510915406048 65.85172413795954,94.55052566064114 65.665517241403,94.46918288545567 65.40689655172173,94.44594208322815 65.07586206897395,94.46918288545567 64.25862068968127,94.81779442112747 63.97931034484645,95.06182194037683 63.90689655177994,95.17802536010277 63.875862068962306,95.41043188825279 63.917241379385814,96.63055935123703 63.90689655177994,97.8158150750387 63.84482758620288,97.94363612586312 63.731034482771065,98.04821689224627 63.57586206897395,98.0714570511409 63.234482758678496,98.036596811231 62.91379310347838,98.02497672919708 62.30344827589579,98.0714570511409 61.70344827591907,98.14117750293372 61.124137931037694,98.25737817288609 60.21379310346674,98.46653911733301 59.851724137959536,98.6175995903759 59.64482758624945,98.67569972560887 59.5413793103653,98.75703987136512 59.25172413798282,99.14049987377803 59.0965517241857,99.25669965140696 58.98275862069568,99.3147995013569 58.85862068965798,99.39613924766309 58.80689655174501,99.45423903532355 58.77586206898559,99.52395874629292 58.786206896591466,99.6633980561528 58.86896551726386,99.97713595712412 58.9724137930898,100.68594843024039 59.29310344828991,103.0331359474585 59.39655172417406,104.2183333627836 59.520689655211754,105.124653516119 59.43793103453936,106.37954792557866 59.48965517239412,111.05043746467709 59.47931034484645,112.35174997369904 59.51034482760588,113.00240135044442 59.5,114.28045708800346 59.531034482759424,118.05645756931335 59.56206896551885,119.35770005734958 59.55172413797118,120.68216566488991 59.572413793124724,121.414101405564 59.624137931037694,121.77425875185145 59.59310344827827,122.27383019609988 59.68620689655654,122.8198712104786 59.72758620692184,123.16840683104238 59.717241379315965,124.39989188667096 59.74827586207539,125.1434243955373 59.68620689655654,125.24798331417696 59.572413793124724,125.30607156602491 59.06551724136807,125.39901271509734 55.31034482765244,126.45621361781377 54.85517241380876,126.6304766789981 54.441379310388584,126.79312199244305 51.5965517241857,128.05942498633522 48.46206896554213,129.68585113784502 46.993103448301554,130.3828847002369 46.86896551726386,130.40611908805295 46.76551724137971,130.34803311069118 46.693103448313195,130.20862665931054 46.66206896555377,129.9530477776134 46.67241379310144,129.40703666847548 46.641379310400225,128.9539618828785 46.641379310400225,127.42046629887773 46.67241379310144,126.68856431425957 46.641379310400225,126.22386250683485 46.63103448279435,125.7475414334258 46.62068965518847,124.84136482575559 46.641379310400225,124.36503869617445 46.62068965518847,123.01737484331534 46.5689655172755,122.68045670106221 46.4862068965449,122.5294241474403 46.351724137959536,122.41324514086591 46.17586206900887,122.36677350918762 45.12068965518847,122.44809885370341 44.613793103490025,122.43648095044045 44.12758620688692,122.47133465707157 43.22758620692184,122.45971675591136 42.76206896553049,122.506188354404 41.26206896553049,122.5294241474403 40.75517241383204,122.5642778291949 39.78275862074224,122.5642778291949 38.88275862071896,122.61074939037644 38.706896551768295,122.59913150165085 38.30344827589579,122.34353768712754 38.20000000006985,122.3086839462776 38.10689655179158,122.33191977454408 37.744827586226165,122.57589572105644 37.51724137936253,122.59913150165085 36.968965517298784,122.5642778291949 35.70689655171009,122.5294241474403 33.88620689656818,122.44809885370341 31.96206896554213,122.41324514086591 30.017241379304323,122.3086839462776 28.19655172416242,122.26221227732458 27.772413793136366,122.2273585146977 26.624137931037694,122.21574059176783 26.117241379339248,122.40162723443791 25.806896551745012,122.61074939037644 25.496551724150777,122.9011962720324 25.42413793108426,123.04061054516205 25.413793103478383,123.26134950567211 25.51724137936253,123.72606188381906 25.55862068972783,124.34180323062174 25.67241379315965,125.60813005802629 25.72413793107262,126.11930437165574 25.786206896591466,126.58400655216974 25.77586206898559,126.804739507068 25.703448275919072,126.9906195999938 25.55862068972783,127.1648819461916 25.42413793108426,127.23458681937336 25.020689655211754,127.26943924200168 23.324137931049336,127.327526592293 22.320689655200113,127.37399645386176 22.113793103490025,127.40884883915714 21.65862068970455,127.40884883915714 18.348275862110313,127.58311062579742 16.693103448313195,127.64119783620117 13.744827586226165,127.78060703544907 13.320689655200113,127.8154593119616 13.155172413855325,127.86192899943126 13.062068965518847,127.96648573570565 13.010344827605877,128.09427718822553 13.0,128.33824234037456 13.051724137971178,128.8029366041228 13.113793103490025,129.69746839442814 13.113793103490025,130.53390814710292 13.186206896614749,132.09060116469482 13.310344827652443,132.9154085821283 13.455172413843684,133.70536008589988 13.47586206899723,133.91446409389755 13.517241379362531,134.75087676953262 13.682758620707318,136.05195248011296 13.786206896591466,136.79541848089866 13.931034482840914,137.5737299048924 14.075862069032155,138.14293979378272 14.355172413866967,139.13033880454896 14.48965517245233,139.64146005906514 14.644827586249448,140.18742827523965 14.841379310411867,140.77985928352427 15.079310344881378,141.3606713825502 15.348275862110313,141.918248562004 15.575862069032155,142.30158148880582 15.917241379327606,142.66168108976126 16.03103448281763,142.71976157736935 16.165517241402995,142.73137767177104 16.279310344834812,142.65006498913863 16.5275862069102,142.32481375115458 16.71379310346674,142.18542011489626 17.282758620742243,141.88340005817008 18.193103448313195,141.3490551659561 18.296551724197343,141.3606713825502 18.482758620695677,141.1864280246955 21.100000000034925,139.69954189292912 22.982758620753884,138.65406492177863 23.437931034481153,138.5727496946347 23.613793103431817,138.5495167632689 23.820689655200113,138.56113322945748 23.913793103478383,138.5146673584386 24.203448275860865,138.56113322945748 24.75172413798282,138.828311666206 25.33103448280599,139.07225671692868 25.879310344869737,139.36266689606418 26.117241379339248,139.53691269285628 27.958620689692907,141.24450916987553 28.39310344826663,141.6278440787646 29.262068965588696,142.3480460093415 30.482758620753884,143.2308687520199 32.0965517241857,144.31115686545672 32.50000000005821,144.55509165165859 32.88275862071896,144.76417824778764 33.26551724143792,144.9268009239604 33.75172413798282,145.0778075129856 35.73793103452772,145.55405791677185" stroke="#4dd2ff" stroke-linecap="round" stroke-linejoin="round" stroke-width="0.5"><title>2024-05-26 16.2km</title><desc>11499346637</desc></polyline><polyline fill="none" points="179.64520368544618,129.127708672866 178.42072663462022,130.2791465822811 177.71665233036038,130.96656892255123 175.16055648657493,133.40689844179724 174.73198951873928,133.78497490056907 172.55854275339516,135.8987523559481 172.0228340436006,136.44867440061353 171.59426707582315,136.964224893527 170.7830510296044,137.875027396527 169.57387994177407,139.06078270138823 168.15042537014233,140.3496388955973 166.89533639303409,141.44945603817177 165.5331056738505,142.73829627214582 164.52291210682597,143.5975183108385 163.39027083473047,144.4395521956758 162.76272634608904,144.83479132311186 162.10456993128173,145.19566112356551 161.41580159013392,145.5737144761515 160.8953988435096,145.79710929081193 160.20663050242,146.07205639992026 159.47194427187787,146.32981895879493 158.01787777390564,146.72505421342794 157.74237043742323,146.74223833657743 157.35972135898191,146.62194944245857 157.1454378751223,146.6735018348263 156.9770722805988,146.81097481383767 156.74748283356894,146.82815892930375 156.5944232021575,146.89689537596132 156.1199383449857,146.9656317980989 155.44647596700815,147.0 154.75770762586035,147.0 153.41078286990523,146.93126359008602 151.77304481429746,146.75942245821352 151.2067241782206,146.62194944245857 150.6863214315963,146.41573973521008 147.426151283551,145.67681980738416 138.9007298166398,143.68344030421576 138.41093899623957,143.51159627917514 137.82931239710888,143.15072332834825 137.27829772408586,142.78984970241436 137.1558500190731,142.63518937032495 137.10993212962057,142.42897540134436 137.17115598224336,142.3430528492172 137.6609468026436,142.0681004251528 138.25787936488632,141.69004020220018 138.88542385346955,141.22605618859234 140.67622154043056,139.6106957309239 143.99761554098222,136.72363483496883 145.52821185463108,135.1426069844165 145.83433111733757,134.74734799673024 146.03330863820156,134.3177177436155 146.75268890551524,131.31027917382016 146.8751366106444,130.58848693862092 146.8751366106444,130.34788892658253 146.79860679490957,129.69483566652343 146.79860679490957,129.127708672866 146.89044257375645,128.64650870366313 147.10472605767427,128.14812175551197 147.563904951734,127.35757429926889 147.68635265686316,126.97948523980449 147.74757650936954,125.99988741001289 147.82410632504616,125.70772569034307 148.05369577213423,125.3640054534917 148.68124026071746,124.62500486944919 149.2475608967361,123.88600145335658 149.59959804889513,123.3532297917991 150.36489620571956,121.63460149551975 150.47203794767847,121.3080603875278 150.47203794767847,120.94714588786883 150.39550813200185,120.60341716492258 150.22714253747836,120.2940607903729 148.9720535603119,118.93632416587207 147.426151283551,116.37550375024148 147.1812558733509,115.94583256305486 147.0435022051097,115.60209492383001 146.64554716361454,115.12086119934975 146.29351001151372,114.50213036002242 146.06392056442564,113.98651981033618 145.72718937543686,113.33341113447386 145.43637607584242,112.5771772719745 144.83944351348327,110.51470620564942 144.10475728299934,107.69596006233769 143.56904857314657,104.25840898251045 143.44660086807562,103.57089140999597 143.24762334732804,101.28487784834579 143.1251756422571,100.54578495700844 142.97211601090385,98.86133010260528 142.7884444532101,95.06265848754265 142.7884444532101,94.04852082337311 142.86497426894493,93.8938213885558 143.07925775286276,93.84225488264929 143.63027242576936,93.79068836297665 148.13022558786906,93.55004442205245 149.07919530227082,93.55004442205245 150.34959024260752,93.4641000845586 154.0536333216005,93.32658906494908 156.93115439120447,93.1718890505581 157.89543006883468,93.10313344871975 159.8239814239787,93.01718891198107 160.69642132270383,93.0 161.00254058546852,93.0 161.46171947952826,93.2406446278037 161.67600296344608,93.2578335183207 162.07395800499944,93.10313344871975 162.39538323093439,93.08594454446575 164.2933226597379,93.48128895513946 164.75250155385584,93.63598872115836 165.30351622676244,93.68755528221664 165.47188182122773,93.6531775764015 166.26779190439265,93.82506604431546 172.12997578561772,94.89077112352243 172.89527394238394,94.99390356033109 173.79832576744957,95.21735698418343 177.08910784177715,95.83614972878422 177.91562985110795,96.00803624972468 181.7421206351719,97.00497504776285 182.2625233818544,97.10810635323287 182.62986649712548,97.27999173974968 182.82884401781484,97.48625400113815 182.89006787043763,97.64095055233338 182.813538054761,97.91596633674635 182.50741879205452,98.44880830231705 182.06354586104862,99.11915577949549 181.2676357779419,100.39109073735017 180.31866606354015,101.49113582386053 179.9972408376052,101.98959168672445 179.93601698515704,102.31616551858315 179.95132294821087,103.27869569908944 179.9207110219868,106.28657153416134 179.96662891138112,107.36939534498379 180.08907661645208,108.41783800072153 180.3033601003699,109.43190006258374 180.77784495754167,111.44282091606874 181.17579999909503,113.00685596687254 182.03293393476633,116.51299832788936" stroke="#4dd2ff" stroke-linecap="round" stroke-linejoin="round" stroke-width="0.5"><title>2024-05-24 11.2km</title><desc>11485428283</desc></polyline><polyline fill="none" points="44.60757176231709,207.0 44.97818762320094,206.7110262060596 45.21060773936915,206.4925331267077 45.285987236507935,206.35861771619966 45.48699922885862,206.08373800769186 45.60635009931866,205.96391834961833 45.69429284596117,205.8370502791513 45.81992534120218,205.69608551853162 45.92043133734842,205.7031337625158 46.29104719826137,205.7736161678622 46.441806192538934,205.7806644049415 46.938054548663786,205.94982190735027 47.08881354294135,205.9921112266311 47.19560116386856,206.04144873727637 47.23957253721892,205.87229143017612 47.30238878479577,205.69608551853162 47.440584529569605,205.3789138915672 47.50968240192742,205.12517567723262 47.54109052574495,204.99125795922737 47.559935400029644,204.82914673504274 47.597625148599036,204.65293850703165 47.69184951999341,204.29347250857245 47.75466576762847,203.7436978316473 47.79235551619786,203.56748719319148 47.84260851427098,203.38422771407932 47.82376363998628,203.25030705783138 47.81748201523442,203.06704684615397 47.77979226666503,202.88378621118318 47.72325764381094,202.50316661685065 47.62275164760649,202.16483655569027 47.55365377524868,201.99567098410625 47.47199265338713,201.84060222661356 47.371486657182686,201.74897054563917 47.2961071600439,201.62209573575092 47.007152421050705,201.35424824852817 46.81870367820375,200.9877186427766 46.636536560137756,200.41677492211602 46.58628356203553,200.3180928749207 46.53603056396241,200.12777715155244 46.41039806875051,199.76829065060883 46.272202324005775,199.45814412515756 46.09003520591068,198.81670087311795 46.071190331625985,198.68277250662504 46.06490870684502,198.44311065489455 46.18425957733416,198.23164371382882 46.21566770115169,198.12591003190755 46.228230950655416,198.02017620903644 46.24707582494011,197.80165919517458 46.228230950655416,197.456260106861 46.25335744972108,197.23774153953855 46.25335744972108,197.13200653278182 46.228230950655416,197.02627138508979 46.18425957733416,196.9134870721973 46.06490870684502,196.7020160532993 45.96440271069878,196.31431772098585 45.89530483834096,195.68694731437427 45.80108046691748,195.15826053457567 45.725700969749596,194.81989914605947 45.62519497360336,193.86825000160025 45.57494197553024,193.70611604593432 45.499562478391454,193.5651297281147 45.430464606004534,193.39594581589336 45.41161973171984,193.21971219019179 45.44302785550826,193.0505275411051 45.537252226960845,192.70510776182346 45.60635009931866,192.33853818727948 45.65032147263992,192.16935165832547 45.7068560954649,191.84507646891143 45.63147659835522,191.33046312027 45.57494197553024,190.76649945083773 45.53097060217988,190.48451611201745 45.430464606004534,190.146134781804 45.35508510886575,189.82185131865845 45.311113735544495,189.67380842718558 45.25457911269041,189.5469143001974 45.21060773936915,189.29312543701235 45.17291799079976,189.18033012597152 45.14150986698223,188.96883848527796 45.084975244128145,188.84194323010888 44.8588367527409,188.4401069155574 44.82114700417151,188.29206144419004 44.78973888035398,188.02416893619375 44.75833075653645,187.9184216443973 44.67666963467491,187.5306803677886 44.67666963467491,187.22048598122637 44.75833075653645,186.73404234020563 44.82114700417151,186.22644579351618 44.82114700417151,186.03609625064564 44.77717563085025,185.5707954439713 44.72064100796706,185.42274461458874 44.67666963467491,185.26059338897903 44.67038800989394,185.0843416806165 44.66410638514208,184.68248632028553 44.70807775846333,184.26652862630726 44.745767507032724,184.11847536109417 44.76461238131742,183.94222111338604 44.75204913178459,183.7730166668698 44.601290137536125,183.23720020357723 44.444249518506695,182.84943603036663 44.31861702329479,182.65202808625327 44.249519150936976,182.56037423079397 44.192984528053785,182.475770577832 44.117605030915,182.3911668346118 44.05478878330905,182.28541202854103 44.04222553377622,182.02454957034206 44.05478878330905,181.88354247873212 44.010817409987794,181.30541078044917 44.010817409987794,180.88943536451552 43.985690910951234,180.63561878403561 43.95428278713371,180.13503370128456 43.96684603666654,179.9799221889698 44.02966228427249,179.84596200218948 44.10504178141127,179.73315324824216 44.18670290327282,179.64854657740943 44.43796789372573,179.4652318140652 44.494502516579814,179.3876754403973 44.507065766112646,179.28191662671452 44.425404644222,179.18320827329444 44.262082400440704,179.02104428291204 44.18670290327282,178.91528497997933 44.07991528234561,178.69671530670166 43.960564411914675,178.50634768074815 43.8286502918927,178.47814503058908 43.6841729223961,178.47109436650499 43.112545069132466,178.29482756000652 42.98691257392056,178.16791521658888 42.92409632631461,178.0057491486732 42.75449245775235,177.73077114467014 42.72936595871579,177.59680715603463 42.68539458539453,177.49104595242534 42.610015088226646,177.34298003020376 42.47810096829198,177.27952312171692 42.23311760259094,177.24426926171873 41.98185261213803,177.23721848782588 41.86250174167799,177.27247235096002 41.27202901412966,177.540401198341 41.12755164463306,177.61090863918798 41.00820077417302,177.65321307357226 40.86372340467642,177.68141601731622 40.71296441036975,177.69551748538652 40.55592379136942,177.6673145467139 40.17902630570461,177.55450269150606 39.83353694382822,177.49104595242534 39.71418607336818,177.51219820441474 39.60111682766001,177.56155343718274 39.305880463914946,177.7519233326966 39.08602359725046,177.8435827489011 38.70284448683378,177.96344490246702 38.45786112113274,178.09035757335369 38.093526885000756,178.22432072764786 37.980457639321685,178.25957415167068 37.69150290029938,178.2736755168953 37.55958878027741,178.29482756000652 37.4528011593502,178.2313714137199 37.40882978605805,178.11150966538116 37.3271686641383,177.9845970283859 37.176409669889836,177.64616233608103 37.094748547970084,177.49104595242534 36.82463868326158,177.1032536648563 36.64247156516649,176.80006928183866 36.37864332520985,176.22190049906203 36.152504833822604,175.83410200056824 36.07084371193196,175.67898206977407 36.02059071382973,175.53091276166379 36.03943558811443,175.38284317684156 36.07084371193196,175.26297711979714 36.01430908907787,175.1008051069657 35.926366342406254,174.9527347184121 35.82586034623091,174.80466405313928 35.700227850989904,174.69184812246385 35.555750481493305,174.60018506050255 35.442681235814234,174.50147087519872 35.27935899203294,174.3251952383871 35.19769787014229,174.22648071048752 35.097191873937845,173.98674491640122 35.02809400158003,173.8739278211142 34.93386963015655,173.77521273097955 34.74542088730959,173.61303767304344 34.47531102260109,173.24637979667023 34.28686227975413,173.10535708470707 34.19263790833065,173.02074333703786 34.110976786440006,172.92907834177458 33.94765454265871,172.70344097850466 33.89111991980462,172.5906220558827 33.8597117960162,172.47780297261488 33.8597117960162,172.35088131190423 33.92252804362215,172.21690822722303 34.01047079026466,172.08998614858137 34.07956866265158,171.96306386656943 34.08585028737434,171.76562880149868 34.06700541311875,171.61755217982136 34.12354003594373,171.4412701264664 34.387368275929475,170.9406269560277 34.456466148316395,170.77844609558815 34.53812727020704,170.61626490315393 34.55697214449174,170.43292924230627 34.45018452353543,169.88291971399303 34.40621315021417,169.5021416496529 34.34967852736008,169.3963696403007 34.34339690260822,169.2764945256058 34.318270403542556,169.17777370670228 34.318270403542556,168.98738320854318 34.36852340164478,168.7758376738857 34.44390289878356,168.59249775353965 34.613506767345825,168.43736364330107 34.68888626448461,168.31043550898175 34.72029438827303,168.20466190832667 34.68888626448461,168.08478499018383 34.64491489113425,167.9790110881877 34.531845645426074,167.77451447716157 34.481592647352954,167.51360424144514 34.4376212740317,167.38667462683952 34.35596015211195,167.2879514526212 34.318270403542556,167.1469181331122 34.38108665117761,167.0552463408021 34.481592647352954,166.9353676830433 34.550690519739874,166.86485074079974 34.64491489113425,166.80138543907378 34.714012763492065,166.70971324681886 34.783110635878984,166.47700643612916 34.92758800540469,166.16672962499433 34.92758800540469,166.04684962242027 34.8710533825506,165.8211926547665 34.77682901112712,165.6237422806371 34.707731138769304,165.41218776212918 34.65747814066708,165.31346212676 34.519282395922346,164.91150648366602 34.34339690260822,164.50954880048812 34.24917253118474,164.32619900431018 34.136103285476565,164.030017667661 34.07956866265158,163.64921146429697 34.03559728930122,163.45175567499246 34.03559728930122,163.25429939333844 33.96021779219154,162.95811404773121 33.93509129315498,162.81002095949225 34.0041891655128,162.6619275943376 34.02931566454936,162.37279213078727 34.060723788366886,162.20354161346768 34.04187891408219,162.05544711408584 34.0041891655128,161.78041373754968 33.95393616743968,161.64642277216626 33.89740154458559,161.35023141255806 33.853430171264336,161.21623971922236 33.73407930077519,160.9341512026731 33.63357330459985,160.50396428009117 33.48281431032228,160.22187322602986 33.41999806271633,160.0737750203043 33.36974506461411,159.93272885256738 33.29436556750443,159.79168243357708 33.20014119608095,159.6788451174798 33.08079032562091,159.580112333977 32.94887620565714,159.4954841358558 32.54685222092667,159.2627561245754 32.20764448380214,159.0441322181141 32.15739148572902,158.93834624020383 32.301868855254725,158.70561659126543 32.37096672761254,158.62803988959058 32.440064599970356,158.59277772735368 32.67876634091954,158.67740689035418 33.35718181511038,158.78319321692106 33.6963895522058,158.79729804976523 34.06700541311875,158.79024563366693 34.73913926255773,158.75498354365845 34.92758800540469,158.72677386035502 35.072065374901285,158.71972143794846 35.32961199010606,158.68445931653696 35.687664601486176,158.57867285804969 36.30326382807107,158.34594215184916 36.78694893469219,158.11321076154854 37.35229516320396,157.78879616689665 37.70406614980311,157.5490106120851 37.96161276503699,157.3303819732755 38.63374661447597,156.7168080523843 39.04833384868107,156.36417721032922 39.3498518372071,156.0820714057336 39.557145454367856,155.9128074404507 39.946606189536396,155.5249094882529 40.72552765990258,154.79142452893575 40.907694777997676,154.55868268870836 41.1024251455965,154.34004579119937 41.54842050361913,153.9521401320526 41.63636325029074,153.84634734963765 41.761995745502645,153.62065560791234 41.84365686739329,153.53602103886806 41.84993849217426,153.41612191112654 41.84365686739329,153.27506388126494 41.47304100650945,153.0" stroke="#4dd2ff" stroke-linecap="round" stroke-linejoin="round" stroke-width="0.5"><title>2024-05-20 12.0km</title><desc>11568200050</desc></polyline><polyline fill="none" points="159.97404138883576,153.0 159.9509670678235,153.23965689379838 160.11825589532964,153.36272364025353 160.25670182149042,153.38215521276288 160.4009163279552,153.4663586335446 160.45283355025458,153.59590216731158 160.33169336488936,153.93919141506922 160.274007562286,154.0622569769548 160.19901601894526,154.17884521178348 160.14133021634188,154.3019103678671 160.0028842901229,154.50917752814712 159.58177793127834,154.9496182811199 159.50101780766272,155.02086579919705 159.41448910380132,155.0791591711095 159.3337289801857,155.1892687460786 158.8433996582462,155.6361823671541 158.81455675695906,155.7527680772473 158.86070539901266,155.86935360034113 158.94723410290317,155.9665080600389 159.40295194328064,156.34864767499676 159.70291811673087,156.5688628118005 159.80675256135873,156.63363184271293 159.89328126522014,156.71783149662224 160.07787583349273,156.8603229964283 160.21632175971172,156.87975363384612 160.4009163279552,157.02224481623125 160.58551089619868,157.1841662753286 160.66050243959762,157.26188844757417 160.7989483657584,157.44323985966184 160.90278281041537,157.6245908192941 161.0700716379215,158.0002449392632 161.2085175641114,158.27226912463084 161.2431290456443,158.3629436268966 161.30081484824768,158.4471412776984 161.41041787312133,158.71268707609124 161.5546323795861,159.1077656151101 161.6873097255302,159.41216892658122 162.11995324489544,160.3512774940391 162.16033330670325,160.48728531536472 162.4083822577668,161.063696591169 162.41415083804168,161.18675009182334 162.33339071445516,161.29037393083127 162.21801910927752,161.38752114577073 162.1430275659077,161.49114469862252 162.02188738051336,161.6012445617016 161.94689583714353,161.7113442580594 161.90651577533572,161.84734953513544 161.05853447740083,162.8188084015128 160.441296389763,163.5635847425874 160.3605362661474,163.67368146754598 160.27977614253177,163.76434923352645 160.11248731505475,163.92625567729556 159.70868669697666,164.40549663804995 159.22989453555783,164.94949606334558 159.1606715724629,165.04663838959823 159.1087543501344,165.143780586106 159.01068848575233,165.49996752973675 159.02799422651879,165.62301352299255 159.12029151062598,165.85615272876748 159.1145229304093,165.96624598279595 159.00491990547744,166.1410996319173 158.91839120161603,166.19290803981858 158.82609391747974,166.2641445404006 158.58381354663288,166.5361378098678 158.46844194148434,166.74337009431474 158.3992189783603,166.82108204873657 158.24923589164973,167.07364532710926 158.174244348309,167.22259249040508 158.11078996548895,167.30677988253592 157.83389811308007,167.8378058022936 157.79928663154715,167.9219924822828 157.76467514998512,168.09684142937476 157.70122076713596,168.20693129152642 157.60892348299967,168.49186898444168 157.5512376804254,168.61490991585742 157.47624613705557,168.89984601050674 157.4185603344813,169.2106841134082 157.39548601343995,169.54094814223936 157.44163465549354,169.77407478914392 157.52239477913827,170.08490915606671 157.53970051990473,170.25327721688518 157.52816335938405,170.57058519524435 157.5108576186176,170.66772001395293 157.52239477913827,170.77133034425788 157.51662619889248,170.9655993158085 157.53393193965894,171.06920922183053 157.52239477913827,171.20519699953002 157.57431200143765,171.48364737019438 157.75890656971023,171.85275435817312 157.78774947102647,171.96931407055672 157.9954183603113,172.3448940955568 158.05310416288557,172.4938304650932 158.33576459554024,173.25793400077964 158.43383045992232,173.7241627242256 158.51459058353794,174.37817298165464 158.58381354663288,174.7861169966418 158.58958212687867,175.12283096845204 158.58958212687867,175.22643495396915 158.56073922559153,175.59552295342291 158.50305342301726,176.029360839726 158.49728484274237,176.1977151437095 158.46844194148434,176.3660690581455 158.46267336120945,176.50852206612763 158.47421052173013,176.70277571846236 158.49728484274237,176.83875296655606 158.5318963243044,176.9812050491455 158.55497064534575,177.1430820772075 158.6184250281949,177.3891344701551 158.68187941101496,177.47331009779737 158.77417669515125,177.55101059073058 158.8433996582462,177.6351860311188 158.8837797200831,177.72583639650838 158.9356969424116,177.95893681748566 158.97030842394452,178.20498645179032 158.94146552262828,178.3021110784175 158.97030842394452,178.67765841504297 158.97030842394452,178.83305674607254 158.96453984366963,178.96255510177434 158.94146552262828,179.07262852293206 158.94146552262828,179.21507623258367 158.98761416471098,179.51939540542662 159.0222256462439,179.68126678739645 159.13759725139244,180.04385737649864 159.23566311580362,180.38702180585096 159.30488607889856,180.52299216988467 159.49524922741693,180.7496088787957 159.63369515360682,180.93737647448143 159.52986070897896,181.0539216350444 159.36257188147283,181.17046660898632 159.25873743684497,181.2740619847027 159.18374589347513,181.4100306915716 159.154902992188,181.59132190557284 159.20682021451648,182.53014418263774 159.2010516342707,182.70495802791993 159.22412595528294,183.4754288614713 159.23566311580362,183.57902095661848 159.2875803381321,183.70203637810482 159.62215799311525,184.15524929504318 159.69714953645598,184.3041614947142 159.7836782403465,184.74442186857777 159.82982688240008,184.8674353206443 159.85290120344143,184.97749981207016 159.8702069442079,185.09403850398667 159.85866978368722,185.3012179400248 159.864438363933,185.40480743694206 159.83559546267497,185.49544812581735 159.83559546267497,185.70262641948648 159.8240583021252,185.81268964816263 159.81252114160452,186.12992978804687 159.8182897218794,186.4018488076399 159.84136404292076,186.53780793657643 159.88751268500346,186.6543441307149 159.88751268500346,186.79677700356842 159.9105870059866,186.94568379996053 159.92212416653638,187.09459029178834 159.9163555862615,187.21112559468747 159.88174410472857,187.39887652367906 159.87597552445368,187.67726494099043 159.85290120344143,187.8196958126282 159.8182897218794,187.96860051689873 159.79521540083806,188.23403858222446 159.80675256135873,188.40236465883936 159.82982688240008,188.56421628856333 159.8702069442079,188.80375604031724 159.8702069442079,188.90086652598984 159.9567356480693,189.2180932098854 160.1759416979039,189.63890198442823 160.23362750047818,189.78132901879144 160.25670182149042,189.93022971136816 160.29131330305245,190.03381262230687 160.3605362661474,190.31219096526183 160.406684908201,190.42872111840552 160.51628793313284,190.91426141591364 160.59704805671936,191.19263639299606 160.61435379751492,191.3091651371942 160.64319669880206,191.59401239354338 160.66050243959762,191.9241748646673 160.70665108165122,192.24786210869934 160.6720396000892,192.4679686128511 160.6662710198434,192.62981120619224 160.63742811852717,192.73986396422697 160.6258909580356,192.8499165559333 160.5797423159529,192.95996898136946 160.54513083441998,193.34838797705743 160.46437071080436,193.65912168207433 160.4874450318166,193.8339088085413 160.64319669880206,194.22879669798567 160.66050243959762,194.32589994940645 160.70665108165122,194.59131484266982 160.712419661897,194.73373219151836 160.7527997237048,195.04445998607116 160.82779126707464,195.34871300041414 160.8854770696489,195.84069390894 160.983542934031,196.5139255566537 161.0296915760846,196.68223249635048 161.08737737868796,196.8570123682439 161.13352602074156,196.95411211587634 161.19698040359071,197.04473843019514 161.2431290456443,197.18067769028858 161.27197194693144,197.31661669667665 161.26620336668566,197.452555449403 161.2431290456443,197.54965440317756 161.26043478641077,197.7050124599773 161.26043478641077,198.0092543614519 161.22582330487785,198.1322454077672 161.1566003417829,198.24876304959616 161.08160879841307,198.488270950249 161.0643030576466,198.6112611878052 161.1104516997002,198.7601438291822 161.1623689220287,198.88313360776374 161.2431290456443,199.2262092610763 161.35273207054706,199.53691789253935 161.39888071262976,199.62754099375888 161.5142523178074,200.00945139605756 161.7334583675838,200.63733363828942 161.84882997276145,200.90919849744387 161.9180529358564,201.0192387472489 162.0045816397178,201.2004811493607 162.06803602256696,201.2911021813561 162.21801910927752,201.4464522596536 162.3160849736596,201.56296460100566 162.43722515908303,201.80246160646493 162.4891423814115,201.9254462492754 162.59297682603938,202.3591272804406 162.68527411017567,202.831642480538 162.6737369496841,202.94815260687756 162.6737369496841,203.06466254693078 162.65066262864275,203.17469954148692 162.59874540631426,203.2912091192993 162.55836534450646,203.53070044423657 162.5006795419322,203.614845858021 162.51221670245286,203.75724556766363 162.50644812217797,203.8931723036585 162.47183664064505,204.15855234316405 162.4487623196037,204.2750603478853 162.39684509727522,204.37215020955773 162.39684509727522,204.47571258607059 162.3622336157132,204.5792748153981 162.34492787494673,204.7346178834414 162.3160849736596,204.8964332271862 162.18917620799039,205.20064510069642 162.14879614618258,205.34304171151598 162.06803602256696,205.3754045388123 161.96997015818488,205.30420629979926 161.84882997276145,205.25242571863782 161.6988468860509,205.1941725208526 161.53155805857386,205.1618096130769 161.37003781131352,205.1618096130769 161.08737737868796,205.09708375440096 160.87393990912824,205.08413857578125 160.83355984732043,205.1876999404558 160.7643368842255,205.30420629979926 160.54513083441998,205.4530752656865 160.25670182149042,205.93204291880102 160.1759416979039,206.01618555979803 160.02019003094756,206.14563558701775 159.9105870059866,206.20388802423986 159.6452323141566,206.4174798957465 159.54716644974542,206.46278718194662 159.27027459733654,206.65048849617597 159.08568002909306,206.75404763501865 158.751102374139,206.90291363928554 158.5261277440586,206.98705515937036 158.3934503981145,207.0 158.30115311397822,207.0 158.0877156444185,206.95469304776634 157.84543527360074,206.92880334812799 157.5916177422332,206.94822062371532 157.31472588982433,206.98058273819333" stroke="#4dd2ff" stroke-linecap="round" stroke-linejoin="round" stroke-width="0.5"><title>2024-05-20 11.4km</title><desc>11568200045</desc></polyline><polyline fill="none" points="64.90134529146599,237.26464685687097 65.25448430492543,237.29863413549174 66.05156950670062,237.23065956916253 66.56614349776646,237.26464685687097 66.81838565022917,237.19667227233003 67.0,237.52521576084837 66.97982062777737,237.80844222458109 66.74775784753729,238.34090626797843 66.42488789238269,238.91868387698923 65.99103139014915,239.53044554187363 64.52802690584213,240.94654921200708 63.93273542600218,241.42235650464863 63.76121076231357,241.4450139503606 63.60986547084758,241.3203979489699 63.438340807158966,241.36571287271363 63.478699551546015,241.61494466441218 63.458520179381594,241.8415185965423 63.25672645738814,242.06809212484222 62.03587443946162,243.29158220020327 61.632286995474715,243.5634672846645 61.44058295962168,243.59745287933038 61.29932735429611,243.77870923083537 61.208520179381594,244.0845787379876 60.75448430492543,244.4697467002843 60.1692825112259,245.09281005119556 59.94730941706803,245.2400791243781 59.46300448430702,245.7725120426403 58.63565022422699,246.78072997101117 58.43385650223354,246.86002767120226 58.211883408075664,247.0639358160406 58.10089686099673,247.26784363385377 57.90919282514369,247.449094752963 57.72757847531466,247.52839203635813 57.404708520218264,247.89089327336114 56.44618834083667,248.72917342591245 55.9114349775482,249.28424778298358 55.00336322869407,250.05455103963322 54.18609865469625,250.65493122449698 53.75224215246271,250.91547268694558 53.44955156953074,251.01742354863381 52.78363228699891,251.3685870023255 52.561659192841034,251.44788184149365 52.41031390137505,251.57248791748134 52.24887892382685,251.65178262952395 51.62331838562386,251.86701088447444 50.87668161431793,252.03692767053144 49.201793721993454,252.2861385460492 48.081838565005455,252.27481078958226 47.59753363224445,252.22949975358642 46.8307174887741,252.1275498635805 43.75336322869407,251.52717663123622 42.64349775784649,251.28929211368086 41.705156950687524,251.04007928459032 40.99887892376864,250.91547268694558 40.25224215246271,250.70024282152735 38.769058295933064,250.41704507523536 37.941704035853036,250.17915848091798 37.37668161431793,249.89595957413258 37.05381165922154,249.68072798317735 36.47869955160422,249.510808048748 36.065022421535105,249.6354160228584 35.298206278064754,250.1225187500313 35.13677130045835,250.3037658001267 34.36995515692979,250.79086596713023 33.64349775784649,250.45102883810614 33.1692825112259,250.29243786705047 31.958520179381594,249.9979112532601 31.4035874439287,249.79400781329605 30.878923766838852,249.53346405312914 30.404708520160057,249.19362356367492 29.51681614352856,248.37800268326828 28.558295964088757,247.4037819974037 27.468609865463804,245.64790028288553 27.317264573997818,245.52328840101836 27.176008968614042,245.52328840101836 26.88340807176428,245.26273588972253 25.42040358739905,244.12989267647936 24.532511210767552,243.38221062630328 23.735426008992363,242.8610962940802 22.35313901345944,241.61494466441218 21.98991031391779,241.10515184074757 21.717488789232448,240.85591904957982 21.535874439461622,240.78794638536783 21.384529147995636,240.66332973994577 20.688340807158966,240.4820689466651 20.52690582961077,240.35745200142264 20.355381165922154,240.3347943618428 20.204035874456167,240.21017727221624 19.911434977606405,239.6550632978615 19.628923766838852,239.31519640290935 19.497757847537287,238.9413417689284 19.43721973092761,238.53349909609096 19.275784753379412,238.40888024060405 19.04372197308112,238.3635642628724 18.50896860990906,238.3635642628724 18.34753363224445,238.31824826897355 17.87331838568207,238.0010358594227 17.4192825112259,237.93306166866387 17.247757847537287,237.84242935779912 16.491031390149146,237.11736854443006 16.158071748912334,236.85679880440875 15.94618834083667,236.7774948644801 15.794843049312476,236.6415451380235 15.714125560538378,236.448949443351 15.774663677148055,236.2563534568544 15.966367713001091,235.973123534779 15.815022421476897,235.58792982797604 15.088565022451803,234.90817338010675 14.74551569513278,234.40968300784152 14.573991031385958,234.2963894687855 14.160313901375048,234.1264489708483 13.877802690549288,233.71859084864263 13.918161434936337,233.49200243745872 13.827354260080028,233.2654136223282 13.776905829610769,232.9935065109603 13.645739910309203,232.8462232493839 13.585201793757733,232.63096279088495 13.585201793757733,232.4043724406656 13.676008968614042,232.24575895514135 13.887892376631498,232.07581571530318 13.867713004467078,231.95119052829978 13.928251121076755,231.91720181972778 14.039237668155693,231.70193978771567 14.130044843070209,231.6566214187551 13.968609865463804,231.76991731088492 13.978699551546015,231.92853139027284 13.887892376631498,231.9965087922683 13.8071748878574,232.21177032535343 13.75672645738814,232.06448615787667 13.837443946162239,232.0078383557193 13.897982062771916,231.05615150405356 13.867713004467078,230.8182286776282 13.726457399083301,230.7049319370417 13.565022421535105,230.72759129320912 13.433856502233539,230.87487701000646 13.221973094157875,230.90886599734222 13.030269058304839,230.8182286776282 13.121076233161148,230.63695384420862 13.010089686140418,230.22908452369302 13.191704035853036,230.1611061763324 13.474215246678796,229.90052217464108 13.655829596391413,229.84387340792455 13.676008968614042,229.5153100629177 13.655829596391413,229.86653291764378 14.533632286998909,229.651267412155 15.128923766780645,229.6625971846879 15.30044843046926,229.62860786405508 15.562780269072391,229.39068236506137 15.845291479781736,229.2207353073245 16.057174887915608,228.92615986889723 16.137892376689706,228.54094480367348 16.460762331844307,228.32567705277324 17.19730941700982,228.33700694348227 17.399103139003273,228.31434716106014 17.621076233161148,228.23503789066308 17.81278026907239,228.24636778947024 17.974215246678796,228.32567705277324 18.64013452915242,228.7562121899391 20.082959641236812,229.4926504906034 20.758968609850854,230.28573311870423 20.90022421523463,230.18376562948833 20.769058295933064,229.93451142257254 20.48654708522372,229.71924603223306 20.19394618831575,229.46999091421458 20.022421524685342,229.43600154204614 19.699551569472533,229.23206511825992 19.124439461855218,228.98280904466083 18.619955156988,228.7108927704976 17.832959641236812,228.1783883815151 17.45964125561295,228.08774911436922 17.247757847537287,228.1670584766689 17.12668161431793,228.28035747982358 16.975336322851945,228.29168737457076 16.561659192782827,228.12173884711228 16.35986547084758,228.20104818823893 16.04708520177519,228.46163567471376 16.087443946220446,228.7562121899391 16.04708520177519,228.90350019146717 15.94618834083667,228.99413887680566 15.835201793699525,228.91483003067697 15.966367713001091,229.016798538054 15.825112107617315,229.1867458685083 15.471973094157875,229.39068236506137 15.330717488774098,229.52663984758692 15.118834080698434,229.62860786405508 14.89686098654056,229.5832887557117 14.695067264547106,229.60594831193885 13.968609865463804,229.75323532862967 13.726457399083301,229.68525672675605 13.35313901345944,229.85520316327165 13.050448430527467,230.13844671914558 13.0,230.38770052610926 13.020179372222628,230.69360225745186 13.262331838544924,230.85221768006886 13.464125560538378,230.82955834610766 13.665919282531831,230.682272576807 13.8071748878574,230.69360225745186 13.867713004467078,231.02216255609528 13.867713004467078,231.61130303356913 13.70627802691888,232.16645213815355 13.585201793757733,232.3363952568252 13.524663677148055,232.5969742640882 13.585201793757733,232.83489376067882 13.75672645738814,233.0048359855282 13.79708520177519,233.2654136223282 13.887892376631498,233.42402583533112 13.857623318384867,233.85454370147636 13.988789237686433,234.02448456297134 14.50336322869407,234.31904818467592 14.755605381156784,234.7042457368516 14.917040358763188,234.8628561543228 15.108744394616224,234.93083198693057 15.734304932702798,235.44064957276714 15.895739910309203,236.07508637942374 15.69394618831575,236.31299936552386 15.6535874439287,236.5395827477696 15.815022421476897,236.75483658682788 15.956278026860673,236.86812793463469 16.147982062830124,236.93610269487544 16.43049327353947,237.16268496643897 17.318385650229175,237.98970683016523 17.81278026907239,238.0576809906488 18.418161434994545,238.4428672132999 19.073991031385958,238.4315382234272 19.30605381168425,238.48818316277175 19.457399103150237,238.65811782939272 19.447309417068027,238.9073549295208 19.568385650229175,239.34918313327944 20.0728699551546,240.14220426273096 20.274663677089848,240.3347943618428 20.48654708522372,240.3687808196555 20.880044843012,240.55004177444061 21.414798206300475,240.64067215492105 21.62668161431793,240.85591904957982 21.929372197308112,241.11648059239087 22.4035874439287,241.7395603770492 23.51345291477628,242.77046749650617 23.705156950687524,242.94039643894212 24.350896861054935,243.32556786757777 26.933856502291746,245.34203453664668 27.438340807158966,245.78384037839714 28.36659192823572,247.29050003787415 29.4764573990833,248.43464319124178 30.535874439461622,249.37487193773995 31.03026905824663,249.70338395726867 31.686098654696252,249.9412714416103 31.82735426008003,250.04322308437258 32.98766816139687,250.40571715225087 33.381165919301566,250.49634050776513 34.35986547084758,250.8361775157682 34.571748878923245,250.84750540037203 36.821748878923245,249.45416802015097 36.922645739861764,249.30690382773173 37.164798206300475,249.22760765349085 37.43721973092761,249.0576871135636 37.588565022393595,248.87643828737782 37.881165919301566,248.76315763981984 38.022421524627134,248.54792413145333 38.62780269054929,248.0381591057303 38.80941704037832,247.9701902812376 38.89013452915242,247.80026806100796 40.15134529146599,246.6787757123966 40.31278026907239,246.5994778991444 41.49327354267007,245.50063168211636 42.108744394616224,244.85491349575022 42.3307174887741,244.73030083666526 42.59304932731902,244.3677905885561 42.66367713006912,244.12989267647936 42.75448430492543,243.98262231735134 42.83520179375773,243.54081021648744 43.03699551569298,242.88375348334375 43.29932735429611,241.50165754695627 43.228699551546015,240.82193272203585 43.29932735429611,240.28947907067777 43.79372197308112,239.2245650774421 43.88452914793743,238.56748603549204 44.07623318390688,238.1596421631475 45.08520179375773,236.788824001771 45.61995515692979,235.58792982797604 45.64013452915242,235.406661797344 45.61995515692979,235.044124960521 45.53923766815569,234.8855147692666 44.56053811660968,233.75257907550258 43.581838565005455,232.08714527168195 43.521300448453985,231.91720181972778 43.521300448453985,231.7359285538696 43.59192825114587,231.5886438349553 43.75336322869407,231.41869971642882 44.338565022393595,231.09014044289506 44.48991031385958,230.94285497556848 45.630044843012,230.35371139938798 45.831838565005455,230.13844671914558 47.10313901345944,229.4020121608337 47.294843049370684,229.35669297166896 49.2421524663805,228.3030172682993 49.897982062771916,227.88381052685872 50.352017937228084,227.7138614539581 51.0078475336195,227.73652134346776 51.18946188339032,227.79317104959773 51.108744394616224,227.98577986154123 50.987668161455076,229.3453631718803 50.90695067262277,231.44135894536157 51.0885650224518,231.61130303356913 51.784753363230266,231.54332542555494 52.29932735429611,231.5886438349553 53.10650224215351,231.5319958206819 53.368834080698434,231.49800700000196 53.52017937216442,231.43002933140815 54.5493273542379,231.44135894536157 55.144618834077846,231.40737010042358 56.05269058293197,231.46401817025617 56.48654708516551,231.6679510124959 57.74775784747908,232.52899718328263 57.94955156947253,232.63096279088495 58.37331838568207,232.94818860249507 58.73654708522372,233.1521190632775 58.948430493241176,233.1974368989977 59.55381165916333,233.53732015202695 59.78587443946162,233.59396727250714 61.168161434994545,234.22841329688526 61.65246636769734,234.35303625097004" stroke="#4dd2ff" stroke-linecap="round" stroke-linejoin="round" stroke-width="0.5"><title>2024-05-13 18.3km</title><desc>11568200111</desc></polyline></svg>