<?xml version="1.0" encoding="utf-8" ?>
<svg baseProfile="full" height="300mm" version="1.1" viewBox="0,0,200,300" width="200mm" xmlns="http://www.w3.org/2000/svg" xmlns:ev="http://www.w3.org/2001/xml-events" xmlns:xlink="http://www.w3.org/1999/xlink"><defs /><rect fill="#222222" height="300" width="200" x="0" y="0" /><text fill="#FFFFFF" style="font-size:12px; font-family:Arial; font-weight:bold;" x="10" y="20">Over 10km Workouts</text><text fill="#FFFFFF" style="font-size:4px; font-family:Arial" x="10" y="280">ATHLETE</text><text fill="#FFFFFF" style="font-size:9px; font-family:Arial" x="10" y="290">yangjie</text><text fill="#FFFFFF" style="font-size:4px; font-family:Arial" x="120" y="280">STATISTICS</text><text fill="#FFFFFF" style="font-size:3px; font-family:Arial" x="120" y="285">Number: 9</text><text fill="#FFFFFF" style="font-size:3px; font-family:Arial" x="120" y="290">Weekly: 2.2</text><text fill="#FFFFFF" style="font-size:3px; font-family:Arial" x="141" y="285">Total: 167.5 km</text><text fill="#FFFFFF" style="font-size:3px; font-family:Arial" x="141" y="290">Avg: 18.6 km</text><text fill="#FFFFFF" style="font-size:3px; font-family:Arial" x="167" y="285">Min: 10.4 km</text><text fill="#FFFFFF" style="font-size:3px; font-family:Arial" x="167" y="290">Max: 38.4 km</text><polyline fill="none" points="53.1036869049276,33.24685090152707 52.850655913716764,33.642741422288964 52.65984565806866,33.84767180799827 52.07082269495004,34.41588367455188 51.99200976325665,34.46711558843526 51.8717163412075,34.61149616642433 50.78492749376164,35.64077840785467 50.3659745411278,36.05062270792769 49.97605793173716,36.46977832732955 49.3372583801829,37.08453382276275 48.926601525599835,37.43848067698127 48.24217343465716,38.06719615363545 48.088695620317594,38.18362411585622 47.698779010926955,38.439764720049425 47.29227020540566,38.64001922740863 46.88990944890247,38.79370239889249 46.3962916136079,38.93341398094344 45.94000621965097,38.979984425335715 45.27631837387162,38.97532738275913 44.61263052809227,38.87287234122414 44.446708566654706,38.81698768849674 41.46426130972395,38.13705296208718 41.161453730092035,38.0345962777501 40.871090297572664,37.86693945208026 40.82546175818425,37.773796538818715 40.79227736587927,37.74585363248843 40.763241022636066,37.750510784575454 39.15794604567054,38.74247472524803 38.8758787112165,38.89615759556909 38.71825284784427,38.95669920832006 37.90523523677257,39.147637681642664 37.71857303015713,39.22215006744591 37.51117057836382,39.389802547222644 36.33312465211202,40.456246013251075 36.18379488681967,40.53075653416454 36.00957682731678,40.55404105017806 35.532551188152866,40.474873653427494 35.36248117768264,40.4841874710437 35.171670922019985,40.56801175480359 35.009897009600536,40.71703237193651 34.72782967516105,41.06629777915077 34.63657259636966,41.21066013273594 34.366949409013614,41.960406591511855 34.2134715946886,42.30035020170908 34.13465866300976,42.41211200184989 33.977032799622975,42.58441097574905 33.41289813071489,43.14787122404232 33.280160561567754,43.390017564870504 32.29292489099316,46.05355332553518 31.97767316426325,46.826512088344316 31.413538495326065,48.75420285897053 31.25176458293572,49.17325667144178 30.745702600543154,49.95548147496447 30.62540917849401,50.10447534978084 29.824835714534856,50.691134607899585 29.46810349743464,51.1055169455758 29.360254222498043,51.263819444291585 29.078186888044,51.813218518949725 28.986929809238063,51.95755121748152 28.46012758166762,52.6373063164865 28.28176147310296,52.9213109688244 28.182208296246245,53.26118336307263 27.970657795405714,54.29475434304186 27.92088120698463,54.46701418871453 27.85036437337112,54.57875000171407 27.203268723736983,55.244504276266525 27.016606517106993,55.46797234441328 26.56032112315006,56.13837082491955 26.025222797499737,56.75289522336243 25.846856688935077,56.99497861183772 25.813672296659206,57.09739816995352 25.780487904368783,57.483797426226374 25.539901060270495,60.82626473599885 25.485976422802196,61.924856428184285 25.427903736301232,62.23208557433463 25.203909088348155,62.87446796513177 25.154132499927073,63.27478923817762 25.14583640184719,63.474948727300216 25.16657664703962,64.18713791601112 25.212205186428037,64.60606820946487 25.261981774878222,64.78294888294477 25.963002061937004,66.66808737835163 25.992038405209314,66.68205111409407 26.029370846546954,66.67739653592798 26.025222797499737,66.66808737835163 26.000334503274644,66.68670569185633 26.00448255232186,66.7425605926619 26.282401837714133,67.50125043067237 26.576913319295272,68.21338488372203 26.67646649615199,68.36232681340334 26.713798937489628,68.37163566994059 26.697206741329865,68.35767238450717 26.813352114346344,68.34370909533754 27.186676527606323,68.34370909533754 27.253045312158065,68.36232681340334 27.360894587109215,68.4414520413302 27.535112646612106,68.40887107959134 29.094779084189213,69.10237574832354 29.64646960598475,69.20942598677357 29.924388891391573,69.18149985869604 30.119347196101444,69.2466608010509 30.231344520056155,69.30251297286668 30.39311843246105,69.49334077740059 30.467783315107226,69.54453836280663 30.87014407161041,69.70743943815614 31.0568062782404,69.72605667166863 31.546276064487756,69.71674805574366 31.969377066168818,69.77725402971555 32.1809275670239,69.7819083325121 32.425662460154854,69.75863681439296 32.740914186884766,69.79587123842066 33.889923769878806,70.45212361935774 34.36280135998095,70.66156413861609 34.59094405696669,70.78722804837525 35.00160091154976,71.0850968530176 35.48277459971723,71.49931784527507 35.57403167852317,71.54585932520786 35.66943680634722,71.57378419331144 36.10083390609361,71.58774662178621 36.353864897289895,71.7227165719778 36.47415831935359,71.83441557821425 36.54467515295255,71.92749790156086 36.64837637885648,72.15554889509076 36.743781506680534,72.42083145532888 37.05488518437778,72.97931666686782 37.20006690065202,73.28648099663405 37.24154739099322,73.44006248649748 37.24984348908765,73.56571973438622 37.18762275353947,73.83564910015411 37.059033233425,74.01249862057011 37.03829298824712,74.07299963531477 37.046589086327,74.13815449616959 37.09636567476264,74.18934754431757 37.51117057836382,74.37084976669212 37.805682059930405,74.42669647790899 37.909383285819786,74.47323535848045 38.09604549243522,74.60819787846413 38.16241427703062,74.68265980970682 38.1831545222085,74.7385061887253 38.16241427703062,74.92466035577309 38.18730257122661,75.06427554723632 38.35322453266417,75.29231289361633 38.573071131599136,75.44588850668515 38.614551621940336,75.49708027773522 38.69336455363373,75.71115441502843 38.7389930930367,75.75303838310356 39.35290435038041,75.93918894753006 39.76770925398159,76.00434148892964 40.22814269698574,76.17187622356505 40.667835894812015,76.24633593376711 40.746648826490855,76.2882194742815 40.82131370915158,76.3533715819176 40.9084227388812,76.47902184655686 40.949903229266056,76.6232865938291 41.012123964799684,77.05607845387203 41.10338104359107,77.18638067973006 41.25685885793064,77.24222439167352 41.40204057419032,77.37252615491889 41.733884497065446,78.19621195039508 41.771216938388534,78.37304676166605 41.93713889984065,78.52661335076846 42.15283744971384,78.79186367263173 42.4805333235563,79.14087520976318 42.5469021081517,79.17810296994139 42.94511481560767,79.30839992245456 43.11103677704523,79.42938965989742 43.318439228853094,79.50384474418388 43.45947289606556,79.60622031246385 43.5507299748715,79.64810116915396 43.97797902558523,79.73186278219146 44.305674899427686,80.02502737420218 44.413524174378836,80.15532222236288 44.455004664720036,80.30423022384639 44.484041007992346,80.3461105230781 44.52966954738076,80.36007061538476 44.8781056664011,80.2763100057673 45.031583480740665,80.29957685520276 45.102100314354175,80.29027011665676 45.2306898344832,80.17393574566086 45.500313021824695,80.10413499917922 45.952450366763514,80.10413499917922 46.42117990781844,80.18789588381696 46.50828893757716,80.23442965079084 46.620286261546426,80.37868406602865 46.63687845770619,80.46244451212988 46.61613821252831,80.80679160726504 46.67006284998206,81.42568002709231 46.6534706538514,81.99337576451944 46.74057968359557,82.78907010360854 46.869169203710044,83.2125048600792 46.99775872382452,83.7987934951816 47.27982605829311,84.52001258935343 47.462340215875884,85.16212189052385 47.595077785037574,85.47386777500287 47.72781535418471,85.90658660408371 47.823220482008765,86.10200684087977 47.918625609832816,86.23228659434244 48.29609807212546,86.62312391369414 48.39150319996406,86.77201355524085 48.590609553677496,86.90694442792665 48.70675492670853,86.9395138969303 48.831196397775784,86.94881945578891 48.963933966937475,87.0 49.00541445729323,87.0 49.026154702485655,86.98138889880283 49.378738870538655,85.79026468897064 49.50732839065313,85.4319915698834 49.598585469444515,85.27379227103665 49.80598792126693,85.02253358057351 49.980205980769824,84.90155674486596 50.30375380559417,84.63633732107701 50.536044551598025,84.37111655637273 51.066994828215684,83.8453240585477 51.137511661829194,83.76156901475406 51.19143629929749,83.64989541499745 51.336618015542626,83.30091388336223 51.473503633751534,83.11478945043928 51.792903409543214,82.75184490661195 52.00030586133653,82.46800191072543 52.128895381451,81.9189242146349 52.15378367566154,81.63972996122902 52.240892705420265,81.26746864471352 52.232596607354935,81.20232264264996 52.116451234323904,80.9463911368548 52.099859038207796,80.85797814459511 52.12474733241834,80.63927168124792 52.40266661782516,79.69463541514051 52.630809314810904,79.25255841102626 52.70547419745708,79.05245917338834 52.7511027368746,78.83839867846109 52.82991566853889,78.09848719356523 53.14931544431602,77.21430254314328 53.414790582624846,76.02295648588915 53.63878523057792,75.16200596000635 53.81715133912803,74.04042217451934 53.98307330056559,73.32836690214754 54.04529403609922,72.54183708950222 54.04529403609922,72.39756110903545 54.007961594776134,71.96473078460622 54.03699793803389,71.7599496005023 54.4725430868275,70.70810636255555 54.4725430868275,70.21475668560379 54.493283331990824,70.07512857525217 54.60528065598919,69.78656263489393 54.77535066645942,68.97205342369489 54.78779481355741,68.78122372068174 54.85416359815281,68.45076088381393 54.8375714020076,68.22734820762344 54.758758470314206,67.78517447743798 54.69238968573336,67.5571044630924 54.688241636700695,67.5664134626968 54.6094287050073,67.41746927041822 54.335657468647696,67.11957961555163 54.24025234080909,66.9380522765423 53.87937207466166,65.90007618033269 53.70100596611155,65.28565911496116 53.821299388160696,64.91793636349394 53.84203963332402,64.33609129310935 53.70515401515877,64.03352930222536 53.6595254757558,63.87526541079569 53.58900864214229,63.33530265276568 53.47286326912581,62.76274985446071 53.406494484544965,62.134331041503174 53.29034911154304,61.87830640032189 53.26960886636516,61.789861233392 53.43967887684994,61.02643358338173 53.460419122027815,60.88212588665556 53.45212302393338,60.75178310908086 53.398198386479635,60.45851067332842 53.348421798044,59.95109892898836 53.157611542381346,59.26212832280362 53.09539080686227,58.926950155364466 52.90872860023228,58.58711454501827 52.809175423375564,58.10761671288856 52.78428712915047,57.888815272104694 52.86724810987653,57.069465583059355 52.83821176660422,56.66444139833038 52.780139080103254,56.48753329989631 52.771842982037924,56.31528010330658 52.842359815651434,55.57505045564176 52.834063717586105,55.49590578585048 52.63910541287623,54.91395600955002 52.373630274567404,54.5508160708232 52.348741980371415,54.49494816433071 52.311409539033775,52.97252475850837 52.38607442167995,52.82353904935371 52.61836516771291,52.646617968857754 52.65984565806866,52.57678053561176 52.64740151097067,52.53022219499326 52.419258813984925,52.27415058125189 52.30726148998656,52.0227335960044 52.02104610649985,51.97617476247615 52.319705637099105,52.018077714525134 52.20770831312984,51.71544452925809 52.15793172470876,51.4314333327311 52.178671969872084,50.94255799077655 52.13304343048367,50.41642990113178 52.099859038207796,50.26743691458978 52.06252659687016,50.19294026222269 51.92149292964314,50.03929058175345 51.86756829217484,49.92754507619975 51.80534755664121,49.51780951405817 51.79705145856133,49.32690889508376 51.888308537367266,48.71229729312472 51.904900733497925,48.39102017318146 51.8717163412075,48.02317872927233 51.73068267398048,47.10123564456808 51.46105948665354,46.38415756771428 51.14995580892719,45.74157275824473 51.12091946568398,45.369056210704 51.154103857974405,44.7963068435929 51.04210653399059,44.41447044786764 51.058698730150354,44.107136689948675 51.216324593508034,43.50177703634108 51.52328022218717,42.891753681942646 51.86756829217484,42.305006948157825 52.17037587182131,41.98369047092274 52.26578099964536,41.8486438260079 52.28237319577602,41.788105561623524 52.20770831312984,41.569235867220414 52.21185636216251,41.5086972793797 52.26992904867802,41.266542227123864 52.32385368614632,41.131493730117654 54.70898188187857,38.36525121917657 54.71312993092579,38.32799442890973 53.709302064205986,35.96213386968884 53.514343759496114,35.61283436127633 53.29864520962292,35.36599463438688 53.06635446360451,35.18901449002442 52.879692256989074,35.08189463786039 52.278225146757904,34.63944074834944 52.26163295059814,34.59286643684027 52.278225146757904,34.38328152139729 52.89213640408707,33.791781782503676 53.124427150105475,33.47507050902641 53.21983227792953,33.29808396138833 53.294497160590254,33.0" stroke="#ff1e00" stroke-linecap="round" stroke-linejoin="round" stroke-width="0.5"><title>2024-06-07 35.1km</title><desc>11594629734</desc></polyline><polyline fill="none" points="84.02517702593468,61.50355398230022 83.51534225023352,62.38609076241846 83.02675059018657,63.053954499424435 82.45318646740634,63.6741121915984 79.37293469707947,66.6556194969744 79.11801730922889,66.79873101232806 77.88591660116799,66.82258292412735 77.52478363504633,66.70332334397244 76.8237608182244,66.20243252703222 74.95436664042063,65.0098315711366 74.16837136109825,64.43738122467767 73.5310778914718,64.00804266138584 73.10621557838749,63.69796438180492 73.0,63.53099900553934 73.06372934707906,63.29247685879818 73.84972462628502,62.36223845524364 74.7419354839949,61.59896350419149 76.05900865467265,60.358637066034134 77.01494885922875,59.54765128699364 77.33359559404198,59.21371525185532 77.60975609754678,59.04674707807135 77.94964594813064,58.999041866482 78.8843430369161,59.09445228127879 82.02832415420562,58.97518925744225 85.97954366647173,58.87977880012477 88.93233674275689,58.68895778350998 91.4177812745329,58.59354722412536 92.37372147920541,58.49813663077657 93.32966168376151,58.49813663077657 98.95908733282704,58.259609998523956 100.4036191975465,58.14034660276957 101.40204563352745,58.1641992861405 102.35798583796714,58.14034660276957 103.44138473644853,58.1641992861405 104.99213217932265,58.426578663435066 107.58379228960257,58.903631417575525 111.76868607394863,59.738471691380255 113.14948859170545,60.00084952521138 114.5940204563085,60.191669606545474 116.7608182533877,60.66871921447455 117.37686860747635,60.71642412850633 118.50275373726618,61.02650586242089 123.1762391817756,61.885191865905654 124.87568843434565,62.31453383463668 125.61919748224318,62.433795370336156 126.40519276156556,62.38609076241846 126.70259638084099,62.26682920541498 126.91502753738314,62.02830593197723 127.0,61.67052062336006 126.95751376869157,51.1752720970544 127.0,47.69266686119954 126.97875688434578,46.57154457256547 127.0,45.283440825063735 126.97875688434578,42.945755222666776 127.0,40.5603406970331 127.0,38.9621010668925 126.93627065303735,38.818974664085545 126.8512981904205,38.72355701972265 126.72383949637879,38.67584818467731 126.59638080256991,38.69970260327682 126.4689221085282,38.77126584612415 126.38394964591134,38.89053787509329 126.29897718329448,39.224499273172114 126.38394964591134,40.48877793274005 126.40519276156556,41.63377986528212 126.36270653025713,42.778776898019714 126.40519276156556,45.99905478369328 126.34146341460291,48.122031600098126 126.3202202989487,51.41380504379049 126.40519276156556,54.65783200977603 126.49016522418242,55.516538447729545 126.36270653025713,57.400912362354575 126.42643587721977,63.030102251825156 126.40519276156556,67.22806509915972 126.4476789929904,75.1944726597867 126.42643587721977,77.69883324118564 126.4689221085282,78.98678098883829 126.4476789929904,80.68018433870748 126.36270653025713,80.9425416457816 126.1927616050234,81.15719743314548 125.91660110151861,81.30030119573348 125.57671125093475,81.3241518153227 116.67584579065442,79.08218427927932 113.0857592447428,78.24740433567786 109.36821400478948,77.269515948341 106.22423288749997,76.50628350538318 103.44138473644853,75.71919776950381 102.37922895350493,75.50453762162942 100.4036191975465,74.97981209127465 98.98033044848125,74.71744894026779 97.08969315502327,74.14501935482258 95.13532651460264,73.7156963624002 94.49803304485977,73.62029115943005 91.69394177815411,73.40562932848115 88.08261211647186,72.64238586879219 87.33910306857433,72.61853447562316 85.95830055081751,72.85704831179464 85.70338316296693,72.78549418327748 84.95987411495298,71.99839750688989 84.25885129824746,71.4498136061593 79.98898505116813,68.5399149863515 79.90401258855127,68.25369374113507 79.96774193551391,67.3711763083702 80.0739575139014,67.1088056996523 81.1573564123828,66.15472859083093 82.70810385525692,64.60434603551403 83.47285601892509,63.81722530111438 84.0464201415889,63.053954499424435 84.61998426436912,62.07601060369052 85.1298190401867,61.002653434086824 85.46970889065415,60.120112092001364 85.66089693154208,59.35683074648841 85.809598741238,59.09445228127879 86.06451612908859,58.92748403301812 86.53186467348132,58.85592618052033 87.65774980327114,58.85592618052033 90.46184107009321,58.68895778350998 91.24783634929918,58.52198928230791 91.46026750595775,58.378873341251165 91.60896931553725,58.14034660276957 91.65145554684568,57.71099793771282 91.56648308422882,55.516538447729545 91.63021243119147,53.34591407573316 91.63021243119147,50.88903228039271 91.58772619988304,50.29269834558363 91.50275373726618,50.125724605692085 91.29032258072402,50.05416439950932 90.97167584579438,50.05416439950932 89.9095200629672,50.43581861117855 88.91109362710267,50.72205891262274 87.7214791503502,51.222978703444824" stroke="#4dd2ff" stroke-linecap="round" stroke-linejoin="round" stroke-width="0.5"><title>2024-06-05 10.4km</title><desc>11578256068</desc></polyline><polyline fill="none" points="187.0,60.06889173630043 185.50741573033156,61.51315728719055 185.32539325841935,61.60853283392498 184.694382022426,61.71753338590497 184.56089887639973,61.82653386016318 184.48808988759993,61.94915930085699 184.45168539322913,62.18078486491868 184.45168539322913,62.507785063877236 184.39101123594446,62.65765992131492 183.8692134831217,63.080033729216666 183.2139325842727,63.76127934792021 182.40089887636714,64.55152046312287 182.04898876399966,64.93301471220911 181.7334831460612,65.38263171243307 181.04179775278317,66.0229930364585 180.43505617970368,66.60885317534849 180.14382022467908,66.90859470400028 179.94966292130994,67.16746191504353 178.95460674155038,68.17567740195955 177.94741573027568,69.15663744151243 177.57123595505254,69.49724709462316 177.02516853931593,70.0422209615499 176.60044943814864,70.36920434952481 174.8530337078846,72.01773494962254 173.9550561797223,72.7806852452486 173.50606741569936,73.12128682695038 172.98426966293482,73.46188765016268 172.41393258422613,73.80248771479819 171.26112359546823,74.38831805170048 170.03550561796874,74.79703556255845 169.17393258429365,75.04226554477646 168.99191011232324,75.02864166718791 168.59146067412803,75.16488038846 167.99685393256368,75.23299970357039 167.8269662921084,75.20575198116421 167.66921348311007,75.26024742113077 167.3173033707426,75.30111898834002 166.2373033707263,75.28749513383082 165.6912359550479,75.26024742113077 165.14516853925306,75.21937584294938 164.5020224719192,75.13763265390298 161.84449438203592,74.55180518713314 158.83505617972696,73.856983654754 158.22831460670568,73.70711977314204 154.35730337077985,72.83518154930789 153.7991011235281,72.6853166664514 153.26516853930661,72.45370701317734 152.7919101123698,72.15397635298723 152.33078651683172,71.96323835429212 152.02741573029198,71.85424510539451 151.9667415730073,71.86786926572677 151.7483146067243,71.99048665439477 150.78966292133555,72.6035721229855 149.49123595503625,73.39376754617842 149.35775280900998,73.38014352177561 148.77528089884436,73.09403872836265 148.35056179773528,72.95779816238792 147.7802247190266,72.8079333997157 146.72449438204058,72.4945793303923 145.80224719102262,72.18122461912571 145.34112359548453,71.908741739564 144.90426966291852,71.62263419351075 144.52808988757897,71.32290190452477 143.48449438199168,70.36920434952481 142.732134831429,69.56536893418524 142.46516853931826,69.33375455580244 142.14966292132158,68.91139802156249 141.8705617976957,68.43454246803594 141.33662921347423,67.64432141974976 141.15460674156202,67.31733220533351 140.54786516848253,66.82684707266162 140.29303370788693,66.58160391633282 139.5649438202381,66.11836577017675 138.48494382022182,65.15101099865569 137.8296629213146,64.64689411467407 137.56269662920386,64.41527228638006 136.9316853932687,64.0337767455494 136.3128089887905,63.52965617814334 135.97303370787995,63.20265816459141 135.00224719103426,62.344285051804036 134.49258426972665,61.649408050012426 133.86157303367509,61.10440427016874 133.70382022467675,61.04990378537332 133.20629213482607,61.036278661107644 133.0,60.9681530216767 133.0364044943708,60.954527890178724 133.38831460668007,61.07715403022303 133.8008988763322,61.11802938836627 133.95865168538876,61.1725298489182 134.6260674156947,61.78565869144222 134.95370786514832,62.28978500890662 135.17213483148953,62.53503504888795 135.86382022470934,63.120908551936736 136.4220224719029,63.652280252907076 136.94382022472564,64.07465131331992 137.59910112357466,64.46977157166111 138.38786516856635,65.09651195615879 139.11595505615696,65.73687447840348 139.79550561797805,66.28186174668372 140.4265168539132,66.70422554366814 141.00898876402061,67.22196021940908 141.22741573036183,67.4263286878122 141.6521348314709,68.14842842213693 142.31955056177685,69.17026184224233 142.64719101117225,69.53812020200712 143.21752808982274,70.06946960392816 143.59370786510408,70.50544722149789 144.09123595507117,70.9822963176266 144.74651685392018,71.55451327032642 145.474606741569,72.04498324000451 145.9842696628766,72.30384175651125 147.61033707862953,72.8079333997157 148.21707865170902,72.95779816238792 148.8602247191011,73.14853492072143 149.4426966291503,73.42101559140428 149.57617977523478,73.43463961219823 149.75820224714698,73.35289546925924 151.76044943818124,72.0722315255116 153.10741573036648,71.25478084784118 153.70202247187262,70.85967812062881 154.29662921349518,70.35558005567873 156.3231460673851,68.52991369769734 157.3667415729724,67.67157048943045 158.11910112359328,66.96309310068318 158.8107865168713,66.22736310727487 159.27191011235118,65.72324977182143 159.41752808989258,65.46438011586724 159.55101123591885,65.08288719248958 160.0728089887416,62.834784563456196 160.15775280899834,62.38516007117869 160.1820224719122,62.08540967515728 160.13348314602626,61.7311584494455 160.1092134831124,61.25428050332994 160.15775280899834,60.872777075492195 160.2548314606538,60.586648879921995 160.67955056176288,59.796387272232096 160.78876404487528,59.48300653806655 160.84943820215994,58.89711909471953 160.89797752804589,58.52923513391579 161.0071910112165,58.2976040377398 161.56539325841004,57.64358493073087 161.94157303369138,57.08494139452523 162.2692134830868,56.68980205093976 162.7788764045108,55.55888035407406 162.9973033707356,55.02748052297102 163.0337078651064,54.79584412105032 163.00943820225075,54.56420736818109 162.94876404496608,54.346195985985105 162.7788764045108,54.100932809422375 161.84449438203592,53.07899867123342 161.17707865167176,51.97530212829588 160.75235955050448,51.32125597209961 160.41258426965214,50.694459112899494 160.38831460673828,50.51732040423667 160.4368539325078,50.340181490333634 160.55820224719355,50.17666846451175 164.65977528085932,47.80570993303263 165.31505617970834,47.45142561470857 165.99460674158763,47.029008623430855 166.6377528089797,46.64746969231055 166.97752808989026,46.48395271599293 167.36584269662853,46.23867692347267 167.8633707864792,46.020653666360886 168.4337078651297,45.7072446893726 168.7613483145833,45.63911221799208 169.1982022471493,45.59823272061476 169.56224719097372,45.59823272061476 169.8777528089704,45.69361819753249 171.1033707864699,46.19779758647201 171.6130337078357,46.48395271599293 172.09842696622945,46.8382392769563 174.3433707865188,48.90943658344622 174.98651685391087,49.468109997935244 175.0714606741094,49.48173615333508 175.16853932582308,49.44085768367222 175.5325842696475,49.05932477317401 176.39415730332257,48.35076112690149 176.61258426966378,48.187245972818346 176.68539325840538,48.15999343016301 176.7582022472052,48.187245972818346 176.87955056177452,48.28262983397872 177.13438202248653,48.70504336064914 177.1950561797712,48.759548246787745 177.2678651685128,48.78680068257381 177.3406741573126,48.77317446528468 177.65617977525108,48.65053845504008 177.81393258424941,48.66416468327225 178.29932584270136,49.03207238597679 178.80898876400897,49.18196045537479 178.97887640446424,49.34547454533458 179.282247191004,49.781511263296125 179.65842696622713,50.27205108416092 179.77977528085466,50.462816144907265 179.9011235954822,50.558198585989885 180.38651685393415,50.76258933078498 180.7626966292155,50.98060582396283 181.40584269660758,51.198622006209916 181.67280898871832,51.157743995732744 181.83056179771665,51.07598794194928 182.0247191010858,50.885223646473605 182.15820224711206,50.65358096759883 182.206741572998,50.40831186615105 182.18247191008413,50.13579018073506 182.00044943817193,49.72700674155203 182.00044943817193,49.37272687662335 181.951910112286,49.30459603926283 181.67280898871832,49.113829532958334 181.1631460673525,48.623285994966864 181.13887640449684,48.55515482352348 181.18741573032457,48.41889238949807 181.33303370780777,48.2144985106861 181.39370786515065,48.06460949250322 181.39370786515065,47.628567876527086 181.44224719097838,47.46505194983911 181.61213483143365,47.27428314757708 181.6606741573196,47.124393207370304 181.61213483143365,46.74285451437754 181.64853932580445,46.59296405299392 181.75775280897506,46.37494130124105 181.769887640432,46.23867692347267 181.70921348314732,46.143291786749614 181.47865168534918,45.96614780346863 181.24808988766745,45.870762496677344 180.7626966292155,45.77537713032507 179.45213483140105,45.82988306124753 179.01528089883504,45.870762496677344 178.3478651685291,45.666365210170625 178.0202247190755,45.44834113663819 177.668314606708,45.31207593274303 177.13438202248653,45.17581060733937 174.6346067415434,44.69888101165998 174.51325842697406,44.73976074960956 174.4161797752604,44.90327959206479 174.37977528083138,45.02591860904067 174.40404494380346,45.148557527703815 174.90157303365413,45.69361819753249 175.22921348316595,46.129665333763114 175.5689887640183,46.51120555753005 175.95730337075656,46.988129497811315 176.1150561797549,47.13801957164833 176.45483146066545,47.32878854399314 176.60044943814864,47.50593094795477 176.72179775277618,47.751204706772114 176.73393258423312,47.914720327287796 176.67325842694845,48.05098321080732 176.21213483141037,48.37801363559265 175.35056179767707,49.14108190557454 175.19280898873694,49.34547454533458 175.20494382019388,49.48173615333508 175.26561797753675,49.631623781780945 175.47191011236282,49.822389641805785 176.13932584266877,50.35380756792438 177.11011235951446,51.021483881850145 177.46202247188194,51.30762998072896 177.91101123590488,51.580149576897384 179.58561797754373,52.68384897292708 180.64134831452975,53.16075365367578 181.10247191006783,53.310637674687314 181.85483146063052,53.51502473912842 183.96629213477718,53.991926826842246 184.45168539322913,54.046429827809334" stroke="#4dd2ff" stroke-linecap="round" stroke-linejoin="round" stroke-width="0.5"><title>2024-06-02 14.5km</title><desc>11553994390</desc></polyline><polyline fill="none" points="18.965399995955522,136.20314546944792 19.03213016349764,136.23124369415018 19.05715397633321,136.282757067067 19.078007153701037,136.37641761570194 19.14056668577541,136.49817607932346 19.153078592193197,136.50285909151353 19.169761134093278,136.4841270402212 19.17393176954647,136.41856480810748 19.132225414839922,136.16099810422747 18.89866982839885,135.3367761663285 18.644261064589955,134.31116376691352 18.34814594607451,133.02326595629347 18.302268955885665,132.77504929437418 18.268903872085502,132.40974716792698 18.273074507553247,132.0069752118652 18.293927684935625,131.86178921456667 18.281415778503288,131.6838187348876 18.298098320388817,131.52458147872676 18.310610226821154,131.06560080381314 18.343975310592214,131.00939881286104 18.44824119740224,130.9016781621176 18.702649961196585,130.5972490415661 19.036300798979937,130.03522141349458 19.090519060118822,129.98370191330832 19.16559049861098,129.9509167504948 19.240661937117693,129.9462331541472 19.72862628736766,130.0164870556364 19.874598528898787,130.0211706457194 20.05393585418642,130.0586393514168 21.000670106397592,130.1523109986847 21.163324889799696,130.13826026223978 21.288443953962997,130.10547519593092 21.505316998518538,129.99775269109523 21.72219004307408,129.90408076814128 22.6689242952707,129.44040228897939 23.540587108946056,128.98608708087704 24.14949988790613,128.7144328106151 24.387226109814947,128.59734001931793 24.850166647229344,128.40062354212932 25.058698420820292,128.3256837379231 25.84277788961481,128.09617992222047 26.981361373516847,127.79641832566995 27.152357427868992,127.75894800576498 27.294159033932374,127.76363179721011 28.028190877041197,127.87604266666312 28.190845660457853,127.8807264476709 28.38686552766012,127.85262375537422 28.937389409984462,127.73552904225289 29.083361651515588,127.72147765912086 29.266869612285518,127.74489662890483 29.746492691585445,127.84325618793082 29.930000652369927,127.85262375537422 30.117679248622153,127.83388861881758 30.330381657695398,127.79173453713884 31.91105250167311,127.15941925073275 32.11958427527861,127.08447767501275 32.29058032963076,127.05169070200282 32.47408829041524,127.04232299166324 32.7159851477918,127.05169070200282 33.83788608982286,127.11726462755178 34.200731375894975,127.12663232451814 34.41343378498277,127.070426117647 34.59694174576725,127.00016827446962 36.990886506813695,126.00718070291623 37.574775472909096,125.77766675247403 37.987668384666904,125.67930332368633 38.951085178749054,125.48725990776438 40.07715675623331,125.24837565388589 40.30237107172434,125.22495557047296 40.53592665817996,125.22495557047296 43.59300245929626,125.37484392369879 43.95584774539748,125.37484392369879 44.09347871597856,125.34205588300756 44.25196286391292,125.25774368430939 44.82333992360509,124.9064413989363 45.0235304262751,124.83149660713389 45.10277250024956,124.82212850063297 45.2320621998806,124.84554876375478 45.436423338003806,124.91112544487987 46.96704655631038,125.4357359449532 47.11301879782695,125.46852392714572 47.246479132954846,125.46852392714572 47.884586360203684,125.3701599191445 48.084776862859144,125.29989980058599 48.92724522826029,124.96264992258511 49.156630179233616,124.88302116299019 49.24421352414356,124.85960091659217 49.72383660344349,124.80339228262892 49.86980884496006,124.77528794307 50.06165807668003,124.7050270283471 50.2118009536789,124.60666158974345 50.41616209183121,124.42866651805525 51.69654718178208,123.26699964797808 51.84251942332776,123.12647368676335 51.90090831993439,123.08431582502453 52.05939246786875,123.01405264690766 52.1386345418432,123.0 52.21370598033536,123.02342107609002 52.27626551242429,123.0655789867269 52.363848857348785,123.18268411639292 54.01124986886862,125.96502515458269 54.098833213793114,126.09617563823122 54.27817053908075,126.30695251487487 54.42831341609417,126.43810214437326 54.6535277315852,126.61140650944071 55.25826987504843,126.9908005549405 56.24253984648385,127.59033123531117 56.6637740291917,127.80578590145888 56.86396453184716,127.89477778817309 57.23098045340157,128.03529098641957 57.798186877625994,128.19922257580765 58.31951631164702,128.3256837379231 58.573925075441366,128.40530727633814 58.78662748452916,128.50834932331054 58.995159258149215,128.63949345426227 59.178667218919145,128.80342315736925 59.33298073138576,128.97671971563977 59.68748474653694,129.4638204921539 59.82094508163573,129.62306399678346 59.96274668769911,129.76357257043492 60.12957210656896,129.89002996529234 60.75933806288231,130.3068688513922 60.896969033477944,130.41927427676274 61.02625873310899,130.56446426179173 61.155548432740034,130.74243853454755 61.347397664474556,131.08433478742882 61.718584221511264,131.86178921456667 61.85204455661005,132.17557780188508 61.885409640395665,132.26924567358947 61.94796917247004,132.5736651030129 61.96048107887327,132.87808276811847 61.89375091133115,133.2386983347169 61.09298890065111,135.60371309605762 61.038770639526774,135.79571952264814 60.96786983650236,136.15163201847463 60.95118729460228,136.49349306670047 60.955357930084574,138.16530204708033 60.98455237838789,138.73660832781025 61.13469525538676,140.33810594020179 61.138865890854504,140.53009506801027 61.113842078033485,140.88597549876067 60.98455237838789,141.452569633253 60.38815150586015,143.6861085032033 60.300568160950206,144.04196756661622 60.1796197322401,144.5008349083655 60.15459591940453,144.5429755858895 60.05867130354454,144.95501598622286 59.816774446182535,145.83527329542994 59.4706117019814,147.16031368978656 59.345492637803545,147.7877063270971 59.23288548007258,148.5134123541102 59.1369608642126,149.04246914573014 58.970135445313645,149.71197586317794 58.778286213593674,150.60151705790122 58.711556046051555,150.80751392592356 58.64899651396263,151.20546013621424 58.64482587848033,151.46763481775997 58.661508420380414,151.67830995417899 58.79913939094695,152.27287745470312 58.83250447473256,152.4882309543973 58.83250447473256,152.73635454573014 58.803310026429244,152.99852159701913 58.744921129822615,153.27005037987692 57.72728607458703,158.9016159136736 57.64387336515938,159.22928612638134 57.54377811383165,159.51014468493304 56.826428812593804,160.99867002366227 56.768039915987174,161.20462618917009 56.7054803839128,161.485474207042 56.47609543292492,162.92245645045477 56.39268272349727,163.56370296942987 56.36348827517941,163.95687215479848 56.338464462343836,165.2674149006889 56.30509937857278,165.8290660915045 56.24671048196615,166.44219513482676 56.12159141780285,167.2752903330511 56.09656760496728,167.64035036783753 56.10073824043502,167.85096077518392 56.12576205327059,168.26281869319428 56.32595255592605,170.05997918934372 56.37182954612945,170.70113879549172 56.38017081707949,170.94917654944584 56.37182954612945,171.2065729836795 56.34263509782613,171.46864806079248 56.13410332422063,172.76028474913255 56.08405569854949,173.02235209653736 56.02149616647512,173.26569918037058 55.94642472798296,173.49968570095007 55.87552392492944,173.6728350571102 55.40007148109726,174.49645663562478 55.20405161392409,174.87082582412768 55.041396830492886,175.2498719173891 54.382436425905325,176.92980881610856 54.3574126130552,176.9719235376724 54.29902371644857,177.0 54.19892846510629,177.0 54.15722211039974,176.97660294909292 53.8611069918843,176.38699383674975 53.15626959706424,174.89890340603597 52.98527354271209,174.51985478783536 52.91854337515542,174.33734892499706 52.86015447854879,174.13612377932077 52.69332905964984,173.31249656762884 52.65162270491419,173.15338528136272 52.58906317285437,173.03171162054787 52.480626650576596,172.8959983596469 50.69976530392887,171.37037005967068 50.41616209183121,171.1129744258542 49.42772148491349,169.95233849031865 49.24421352414356,169.69961598455848 48.7520785384113,168.96952193366815 48.5852531195269,168.80103725384106 48.46430469084589,168.71679471179232 47.634348231877084,168.25345832174935 47.505058532216935,168.16921490376262 47.40913391635695,168.08029114969395 47.313209300496965,167.96796619308589 46.94202274347481,167.32677331175364 46.78353859554045,167.09275936661288 46.30808615170827,166.48899858528603 46.20382026491279,166.33922739735863 46.10789564905281,166.18009504339352 45.92438768825377,165.8243856896661 45.80343925957277,165.64653011165137 45.18201457420946,164.97722610464552 44.844193100958364,164.6402306568889 44.31035176051955,164.21898331380362 44.09764935144631,164.0177195044489 43.43868894681509,163.33435292193826 43.35110560190515,163.25010163314073 43.2218159022741,163.16585020949424 43.11337938001088,163.11436316201434 42.959065867529716,163.07691800493922 42.55868486218969,163.06287606418118 42.25422847272421,163.02543087046797 42.04986733458645,162.9458597454286 41.93726017684094,162.88501115688632 41.83299429003091,162.81480115963132 41.737069674170925,162.72118768429573 41.445125191123225,162.3654549597195 40.85289495407778,161.57440910031073 39.53080350937671,159.50078275712804 39.409855080681155,159.33226777189338 39.29724792295019,159.18715721331318 38.76757721796457,158.55053842176494 38.204541429237,157.8951875035891 38.09193427146238,157.82028973611887 37.987668384666904,157.77347857733184 37.870890591453644,157.75007298231867 37.71657707897248,157.75475410214858 36.76567219130811,157.89050639624838 36.57382295958814,157.8951875035891 36.42368008257472,157.86710085328377 36.2735372055904,157.81560862212064 35.28926723415498,157.39898780781368 35.13495372168836,157.28664005726023 34.73874335181608,156.9121458229747 34.555235391060705,156.7670285906861 32.861957389322924,155.61075763435656 32.736838325159624,155.51245002474025 32.35731049718743,155.0911296172344 32.26972715227748,155.00686513086112 32.182143807352986,154.94132599259683 32.082048556025256,154.89451227242898 31.981953304697527,154.8711053967163 31.52735403821862,154.82429161406617 31.193703200449818,154.77747778974663 31.072754771754262,154.7353453122596 30.926782530237688,154.6510802560333 30.82251664341311,154.53872663778748 30.751615840388695,154.42637277961694 30.68071503736428,154.23911581610082 30.526401524897665,153.7428816392312 30.459671357340994,153.57434821244897 30.38042928338109,153.4479477880268 30.280334032024257,153.34027311286627 30.151044332393212,153.25132430192025 29.77568713988876,153.05470008088378 29.579667272701045,152.93297995669855 29.24184579947905,152.6380415646272 28.924877503566677,152.39459910634832 27.50686144302017,151.5097699125654 27.335865388668026,151.38336452692238 27.223258230893407,151.27100392911234 27.152357427868992,151.158643091283 27.093968531262362,151.00414654731867 27.0647740829736,150.84964954953102 27.085627260326874,150.40020115733205 27.081456624844577,150.21292986033222 27.056432812009007,150.09120315970722 26.989702644466888,149.95543073816953 26.918801841442473,149.86179438115505 26.810365319164703,149.75879419589546 26.681075619533658,149.68388484354 26.32657160439703,149.48724728596062 26.19311126928369,149.38424636713535 25.671781835262664,148.75219085712888 25.492444509945926,148.60236917803923 22.798213994901744,147.03857992284247 22.539634595625103,146.81383992037445 21.868162284605205,146.083428278067 21.701336865720805,145.88677725608068 21.609582885328564,145.73226522279583 21.542852717771893,145.55902391822383 21.217543150953134,144.3884596031712 19.616019129607594,140.6143827562264 19.41999926243443,140.18357759619175 19.332415917495382,140.01968340148596 19.249003208053182,139.89793309742163 19.023788892562152,139.68721075074063 18.052030827544513,139.0035279858239 18.039518921126728,138.95201728020038 18.043689556594472,138.78343643604967 18.056201463012258,138.7459739527876 18.156296714339987,138.6616832678119 18.577530897033284,138.2449106717686 18.831939660856733,137.9452069864601 18.869475380095537,137.8796465774285 18.87364601556328,137.76725711451218 19.007106350676622,137.47223363059675 19.090519060118822,137.24745272149448 19.098860331068863,137.18657439311937 19.048812705397722,137.07418344774123 19.04047143444768,137.00862195190348 19.073836518233293,136.746375150542 19.069665882750996,136.54032317404926 19.044642069915426,136.33895341628158 19.019618257079856,136.30617221987632" stroke="#ff0000" stroke-linecap="round" stroke-linejoin="round" stroke-width="0.5"><title>2024-06-01 38.4km</title><desc>11545145550</desc></polyline><polyline fill="none" points="120.10000000003492,147.2199376744975 120.08965517242905,146.3950308487183 120.0689655172755,146.04647709817073 120.05862068966962,145.55850027983251 120.08965517242905,145.14023297988751 120.0689655172755,144.67548995957623 120.07931034488138,143.51362515099754 120.04827586212195,141.61976328792662 120.04827586212195,139.8885403038803 119.96551724139135,136.36792858838453 119.95517241384368,136.0542060922162 119.90344827593071,135.5778112262342 119.91379310342018,134.6133967696005 119.93448275863193,134.17185523607623 119.83103448274778,133.06799484903604 119.6241379310377,131.68525126071472 119.5413793103653,131.1972206044229 119.48965517239412,130.6975682746779 119.34482758626109,129.72149772450211 119.29310344828991,129.24507967832324 119.32413793104934,129.12887989030423 119.44827586208703,128.98944000771007 119.55172413797118,128.90810000719648 119.67586206895066,128.86161998407624 120.1931034483132,128.86161998407624 120.97931034484645,128.7221798151004 121.5275862069102,128.59435952900822 121.99310344830155,128.5130192815559 122.86206896556541,128.43167898327374 124.39310344832484,128.42005893649912 126.1931034483132,128.43167898327374 126.56551724142628,128.3968188398576 126.8758620689623,128.29223835362063 126.9586206896347,128.2225179827874 127.0,128.11793735648098 127.0,127.87391556825605 126.93793103448115,127.60665308473108 126.9172413793276,125.53825530182803 126.89655172417406,125.11992366320919 126.84482758620288,125.02696089420351 126.5965517241857,124.82941478957218 126.21379310346674,124.65510915406048 125.85172413795954,124.55052566064114 125.665517241403,124.46918288545567 125.40689655172173,124.44594208322815 125.07586206897395,124.46918288545567 124.25862068968127,124.81779442112747 123.97931034484645,125.06182194037683 123.90689655177994,125.17802536010277 123.8758620689623,125.41043188825279 123.91724137938581,126.63055935123703 123.90689655177994,127.8158150750387 123.84482758620288,127.94363612586312 123.73103448277107,128.04821689224627 123.57586206897395,128.0714570511409 123.2344827586785,128.036596811231 122.91379310347838,128.02497672919708 122.30344827589579,128.0714570511409 121.70344827591907,128.14117750293372 121.1241379310377,128.2573781728861 120.21379310346674,128.466539117333 119.85172413795954,128.6175995903759 119.64482758624945,128.67569972560887 119.5413793103653,128.75703987136512 119.25172413798282,129.14049987377803 119.0965517241857,129.25669965140696 118.98275862069568,129.3147995013569 118.85862068965798,129.3961392476631 118.80689655174501,129.45423903532355 118.77586206898559,129.52395874629292 118.78620689659147,129.6633980561528 118.86896551726386,129.97713595712412 118.9724137930898,130.6859484302404 119.29310344828991,133.0331359474585 119.39655172417406,134.2183333627836 119.52068965521175,135.124653516119 119.43793103453936,136.37954792557866 119.48965517239412,141.0504374646771 119.47931034484645,142.35174997369904 119.51034482760588,143.00240135044442 119.5,144.28045708800346 119.53103448275942,148.05645756931335 119.56206896551885,149.35770005734958 119.55172413797118,150.6821656648899 119.57241379312472,151.414101405564 119.6241379310377,151.77425875185145 119.59310344827827,152.27383019609988 119.68620689655654,152.8198712104786 119.72758620692184,153.16840683104238 119.71724137931596,154.39989188667096 119.74827586207539,155.1434243955373 119.68620689655654,155.24798331417696 119.57241379312472,155.3060715660249 119.06551724136807,155.39901271509734 115.31034482765244,156.45621361781377 114.85517241380876,156.6304766789981 114.44137931038858,156.79312199244305 111.5965517241857,158.05942498633522 108.46206896554213,159.68585113784502 106.99310344830155,160.3828847002369 106.86896551726386,160.40611908805295 106.76551724137971,160.34803311069118 106.6931034483132,160.20862665931054 106.66206896555377,159.9530477776134 106.67241379310144,159.40703666847548 106.64137931040023,158.9539618828785 106.64137931040023,157.42046629887773 106.67241379310144,156.68856431425957 106.64137931040023,156.22386250683485 106.63103448279435,155.7475414334258 106.62068965518847,154.8413648257556 106.64137931040023,154.36503869617445 106.62068965518847,153.01737484331534 106.5689655172755,152.6804567010622 106.4862068965449,152.5294241474403 106.35172413795954,152.4132451408659 106.17586206900887,152.36677350918762 105.12068965518847,152.4480988537034 104.61379310349002,152.43648095044045 104.12758620688692,152.47133465707157 103.22758620692184,152.45971675591136 102.76206896553049,152.506188354404 101.26206896553049,152.5294241474403 100.75517241383204,152.5642778291949 99.78275862074224,152.5642778291949 98.88275862071896,152.61074939037644 98.7068965517683,152.59913150165085 98.30344827589579,152.34353768712754 98.20000000006985,152.3086839462776 98.10689655179158,152.33191977454408 97.74482758622617,152.57589572105644 97.51724137936253,152.59913150165085 96.96896551729878,152.5642778291949 95.70689655171009,152.5294241474403 93.88620689656818,152.4480988537034 91.96206896554213,152.4132451408659 90.01724137930432,152.3086839462776 88.19655172416242,152.26221227732458 87.77241379313637,152.2273585146977 86.6241379310377,152.21574059176783 86.11724137933925,152.4016272344379 85.80689655174501,152.61074939037644 85.49655172415078,152.9011962720324 85.42413793108426,153.04061054516205 85.41379310347838,153.26134950567211 85.51724137936253,153.72606188381906 85.55862068972783,154.34180323062174 85.67241379315965,155.6081300580263 85.72413793107262,156.11930437165574 85.78620689659147,156.58400655216974 85.77586206898559,156.804739507068 85.70344827591907,156.9906195999938 85.55862068972783,157.1648819461916 85.42413793108426,157.23458681937336 85.02068965521175,157.26943924200168 83.32413793104934,157.327526592293 82.32068965520011,157.37399645386176 82.11379310349002,157.40884883915714 81.65862068970455,157.40884883915714 78.34827586211031,157.58311062579742 76.6931034483132,157.64119783620117 73.74482758622617,157.78060703544907 73.32068965520011,157.8154593119616 73.15517241385533,157.86192899943126 73.06206896551885,157.96648573570565 73.01034482760588,158.09427718822553 73.0,158.33824234037456 73.05172413797118,158.8029366041228 73.11379310349002,159.69746839442814 73.11379310349002,160.53390814710292 73.18620689661475,162.09060116469482 73.31034482765244,162.9154085821283 73.45517241384368,163.70536008589988 73.47586206899723,163.91446409389755 73.51724137936253,164.75087676953262 73.68275862070732,166.05195248011296 73.78620689659147,166.79541848089866 73.93103448284091,167.5737299048924 74.07586206903215,168.14293979378272 74.35517241386697,169.13033880454896 74.48965517245233,169.64146005906514 74.64482758624945,170.18742827523965 74.84137931041187,170.77985928352427 75.07931034488138,171.3606713825502 75.34827586211031,171.918248562004 75.57586206903215,172.30158148880582 75.9172413793276,172.66168108976126 76.03103448281763,172.71976157736935 76.165517241403,172.73137767177104 76.27931034483481,172.65006498913863 76.5275862069102,172.32481375115458 76.71379310346674,172.18542011489626 77.28275862074224,171.88340005817008 78.1931034483132,171.3490551659561 78.29655172419734,171.3606713825502 78.48275862069568,171.1864280246955 81.10000000003492,169.69954189292912 82.98275862075388,168.65406492177863 83.43793103448115,168.5727496946347 83.61379310343182,168.5495167632689 83.82068965520011,168.56113322945748 83.91379310347838,168.5146673584386 84.20344827586086,168.56113322945748 84.75172413798282,168.828311666206 85.33103448280599,169.07225671692868 85.87931034486974,169.36266689606418 86.11724137933925,169.53691269285628 87.9586206896929,171.24450916987553 88.39310344826663,171.6278440787646 89.2620689655887,172.3480460093415 90.48275862075388,173.2308687520199 92.0965517241857,174.31115686545672 92.50000000005821,174.55509165165859 92.88275862071896,174.76417824778764 93.26551724143792,174.9268009239604 93.75172413798282,175.0778075129856 95.73793103452772,175.55405791677185" stroke="#4dd2ff" stroke-linecap="round" stroke-linejoin="round" stroke-width="0.5"><title>2024-05-26 16.2km</title><desc>11499346637</desc></polyline><polyline fill="none" points="179.64520368544618,159.127708672866 178.42072663462022,160.2791465822811 177.71665233036038,160.96656892255123 175.16055648657493,163.40689844179724 174.73198951873928,163.78497490056907 172.55854275339516,165.8987523559481 172.0228340436006,166.44867440061353 171.59426707582315,166.964224893527 170.7830510296044,167.875027396527 169.57387994177407,169.06078270138823 168.15042537014233,170.3496388955973 166.89533639303409,171.44945603817177 165.5331056738505,172.73829627214582 164.52291210682597,173.5975183108385 163.39027083473047,174.4395521956758 162.76272634608904,174.83479132311186 162.10456993128173,175.19566112356551 161.41580159013392,175.5737144761515 160.8953988435096,175.79710929081193 160.20663050242,176.07205639992026 159.47194427187787,176.32981895879493 158.01787777390564,176.72505421342794 157.74237043742323,176.74223833657743 157.35972135898191,176.62194944245857 157.1454378751223,176.6735018348263 156.9770722805988,176.81097481383767 156.74748283356894,176.82815892930375 156.5944232021575,176.89689537596132 156.1199383449857,176.9656317980989 155.44647596700815,177.0 154.75770762586035,177.0 153.41078286990523,176.93126359008602 151.77304481429746,176.75942245821352 151.2067241782206,176.62194944245857 150.6863214315963,176.41573973521008 147.426151283551,175.67681980738416 138.9007298166398,173.68344030421576 138.41093899623957,173.51159627917514 137.82931239710888,173.15072332834825 137.27829772408586,172.78984970241436 137.1558500190731,172.63518937032495 137.10993212962057,172.42897540134436 137.17115598224336,172.3430528492172 137.6609468026436,172.0681004251528 138.25787936488632,171.69004020220018 138.88542385346955,171.22605618859234 140.67622154043056,169.6106957309239 143.99761554098222,166.72363483496883 145.52821185463108,165.1426069844165 145.83433111733757,164.74734799673024 146.03330863820156,164.3177177436155 146.75268890551524,161.31027917382016 146.8751366106444,160.58848693862092 146.8751366106444,160.34788892658253 146.79860679490957,159.69483566652343 146.79860679490957,159.127708672866 146.89044257375645,158.64650870366313 147.10472605767427,158.14812175551197 147.563904951734,157.3575742992689 147.68635265686316,156.9794852398045 147.74757650936954,155.9998874100129 147.82410632504616,155.70772569034307 148.05369577213423,155.3640054534917 148.68124026071746,154.62500486944919 149.2475608967361,153.88600145335658 149.59959804889513,153.3532297917991 150.36489620571956,151.63460149551975 150.47203794767847,151.3080603875278 150.47203794767847,150.94714588786883 150.39550813200185,150.60341716492258 150.22714253747836,150.2940607903729 148.9720535603119,148.93632416587207 147.426151283551,146.37550375024148 147.1812558733509,145.94583256305486 147.0435022051097,145.60209492383 146.64554716361454,145.12086119934975 146.29351001151372,144.50213036002242 146.06392056442564,143.98651981033618 145.72718937543686,143.33341113447386 145.43637607584242,142.5771772719745 144.83944351348327,140.51470620564942 144.10475728299934,137.6959600623377 143.56904857314657,134.25840898251045 143.44660086807562,133.57089140999597 143.24762334732804,131.2848778483458 143.1251756422571,130.54578495700844 142.97211601090385,128.86133010260528 142.7884444532101,125.06265848754265 142.7884444532101,124.04852082337311 142.86497426894493,123.8938213885558 143.07925775286276,123.84225488264929 143.63027242576936,123.79068836297665 148.13022558786906,123.55004442205245 149.07919530227082,123.55004442205245 150.34959024260752,123.4641000845586 154.0536333216005,123.32658906494908 156.93115439120447,123.1718890505581 157.89543006883468,123.10313344871975 159.8239814239787,123.01718891198107 160.69642132270383,123.0 161.00254058546852,123.0 161.46171947952826,123.2406446278037 161.67600296344608,123.2578335183207 162.07395800499944,123.10313344871975 162.39538323093439,123.08594454446575 164.2933226597379,123.48128895513946 164.75250155385584,123.63598872115836 165.30351622676244,123.68755528221664 165.47188182122773,123.6531775764015 166.26779190439265,123.82506604431546 172.12997578561772,124.89077112352243 172.89527394238394,124.99390356033109 173.79832576744957,125.21735698418343 177.08910784177715,125.83614972878422 177.91562985110795,126.00803624972468 181.7421206351719,127.00497504776285 182.2625233818544,127.10810635323287 182.62986649712548,127.27999173974968 182.82884401781484,127.48625400113815 182.89006787043763,127.64095055233338 182.813538054761,127.91596633674635 182.50741879205452,128.44880830231705 182.06354586104862,129.1191557794955 181.2676357779419,130.39109073735017 180.31866606354015,131.49113582386053 179.9972408376052,131.98959168672445 179.93601698515704,132.31616551858315 179.95132294821087,133.27869569908944 179.9207110219868,136.28657153416134 179.96662891138112,137.3693953449838 180.08907661645208,138.41783800072153 180.3033601003699,139.43190006258374 180.77784495754167,141.44282091606874 181.17579999909503,143.00685596687254 182.03293393476633,146.51299832788936" stroke="#4dd2ff" stroke-linecap="round" stroke-linejoin="round" stroke-width="0.5"><title>2024-05-24 11.2km</title><desc>11485428283</desc></polyline><polyline fill="none" points="44.60757176231709,267.0 44.97818762320094,266.7110262060596 45.21060773936915,266.4925331267077 45.285987236507935,266.35861771619966 45.48699922885862,266.08373800769186 45.60635009931866,265.9639183496183 45.69429284596117,265.8370502791513 45.81992534120218,265.6960855185316 45.92043133734842,265.7031337625158 46.29104719826137,265.7736161678622 46.441806192538934,265.7806644049415 46.938054548663786,265.94982190735027 47.08881354294135,265.9921112266311 47.19560116386856,266.04144873727637 47.23957253721892,265.8722914301761 47.30238878479577,265.6960855185316 47.440584529569605,265.3789138915672 47.50968240192742,265.1251756772326 47.54109052574495,264.99125795922737 47.559935400029644,264.82914673504274 47.597625148599036,264.65293850703165 47.69184951999341,264.29347250857245 47.75466576762847,263.7436978316473 47.79235551619786,263.5674871931915 47.84260851427098,263.3842277140793 47.82376363998628,263.2503070578314 47.81748201523442,263.06704684615397 47.77979226666503,262.8837862111832 47.72325764381094,262.50316661685065 47.62275164760649,262.1648365556903 47.55365377524868,261.99567098410625 47.47199265338713,261.84060222661356 47.371486657182686,261.74897054563917 47.2961071600439,261.6220957357509 47.007152421050705,261.35424824852817 46.81870367820375,260.9877186427766 46.636536560137756,260.416774922116 46.58628356203553,260.3180928749207 46.53603056396241,260.12777715155244 46.41039806875051,259.76829065060883 46.272202324005775,259.45814412515756 46.09003520591068,258.81670087311795 46.071190331625985,258.68277250662504 46.06490870684502,258.44311065489455 46.18425957733416,258.2316437138288 46.21566770115169,258.12591003190755 46.228230950655416,258.02017620903644 46.24707582494011,257.8016591951746 46.228230950655416,257.456260106861 46.25335744972108,257.23774153953855 46.25335744972108,257.1320065327818 46.228230950655416,257.0262713850898 46.18425957733416,256.9134870721973 46.06490870684502,256.7020160532993 45.96440271069878,256.31431772098585 45.89530483834096,255.68694731437427 45.80108046691748,255.15826053457567 45.725700969749596,254.81989914605947 45.62519497360336,253.86825000160025 45.57494197553024,253.70611604593432 45.499562478391454,253.5651297281147 45.430464606004534,253.39594581589336 45.41161973171984,253.21971219019179 45.44302785550826,253.0505275411051 45.537252226960845,252.70510776182346 45.60635009931866,252.33853818727948 45.65032147263992,252.16935165832547 45.7068560954649,251.84507646891143 45.63147659835522,251.33046312027 45.57494197553024,250.76649945083773 45.53097060217988,250.48451611201745 45.430464606004534,250.146134781804 45.35508510886575,249.82185131865845 45.311113735544495,249.67380842718558 45.25457911269041,249.5469143001974 45.21060773936915,249.29312543701235 45.17291799079976,249.18033012597152 45.14150986698223,248.96883848527796 45.084975244128145,248.84194323010888 44.8588367527409,248.4401069155574 44.82114700417151,248.29206144419004 44.78973888035398,248.02416893619375 44.75833075653645,247.9184216443973 44.67666963467491,247.5306803677886 44.67666963467491,247.22048598122637 44.75833075653645,246.73404234020563 44.82114700417151,246.22644579351618 44.82114700417151,246.03609625064564 44.77717563085025,245.5707954439713 44.72064100796706,245.42274461458874 44.67666963467491,245.26059338897903 44.67038800989394,245.0843416806165 44.66410638514208,244.68248632028553 44.70807775846333,244.26652862630726 44.745767507032724,244.11847536109417 44.76461238131742,243.94222111338604 44.75204913178459,243.7730166668698 44.601290137536125,243.23720020357723 44.444249518506695,242.84943603036663 44.31861702329479,242.65202808625327 44.249519150936976,242.56037423079397 44.192984528053785,242.475770577832 44.117605030915,242.3911668346118 44.05478878330905,242.28541202854103 44.04222553377622,242.02454957034206 44.05478878330905,241.88354247873212 44.010817409987794,241.30541078044917 44.010817409987794,240.88943536451552 43.985690910951234,240.63561878403561 43.95428278713371,240.13503370128456 43.96684603666654,239.9799221889698 44.02966228427249,239.84596200218948 44.10504178141127,239.73315324824216 44.18670290327282,239.64854657740943 44.43796789372573,239.4652318140652 44.494502516579814,239.3876754403973 44.507065766112646,239.28191662671452 44.425404644222,239.18320827329444 44.262082400440704,239.02104428291204 44.18670290327282,238.91528497997933 44.07991528234561,238.69671530670166 43.960564411914675,238.50634768074815 43.8286502918927,238.47814503058908 43.6841729223961,238.47109436650499 43.112545069132466,238.29482756000652 42.98691257392056,238.16791521658888 42.92409632631461,238.0057491486732 42.75449245775235,237.73077114467014 42.72936595871579,237.59680715603463 42.68539458539453,237.49104595242534 42.610015088226646,237.34298003020376 42.47810096829198,237.27952312171692 42.23311760259094,237.24426926171873 41.98185261213803,237.23721848782588 41.86250174167799,237.27247235096002 41.27202901412966,237.540401198341 41.12755164463306,237.61090863918798 41.00820077417302,237.65321307357226 40.86372340467642,237.68141601731622 40.71296441036975,237.69551748538652 40.55592379136942,237.6673145467139 40.17902630570461,237.55450269150606 39.83353694382822,237.49104595242534 39.71418607336818,237.51219820441474 39.60111682766001,237.56155343718274 39.305880463914946,237.7519233326966 39.08602359725046,237.8435827489011 38.70284448683378,237.96344490246702 38.45786112113274,238.09035757335369 38.093526885000756,238.22432072764786 37.980457639321685,238.25957415167068 37.69150290029938,238.2736755168953 37.55958878027741,238.29482756000652 37.4528011593502,238.2313714137199 37.40882978605805,238.11150966538116 37.3271686641383,237.9845970283859 37.176409669889836,237.64616233608103 37.094748547970084,237.49104595242534 36.82463868326158,237.1032536648563 36.64247156516649,236.80006928183866 36.37864332520985,236.22190049906203 36.152504833822604,235.83410200056824 36.07084371193196,235.67898206977407 36.02059071382973,235.53091276166379 36.03943558811443,235.38284317684156 36.07084371193196,235.26297711979714 36.01430908907787,235.1008051069657 35.926366342406254,234.9527347184121 35.82586034623091,234.80466405313928 35.700227850989904,234.69184812246385 35.555750481493305,234.60018506050255 35.442681235814234,234.50147087519872 35.27935899203294,234.3251952383871 35.19769787014229,234.22648071048752 35.097191873937845,233.98674491640122 35.02809400158003,233.8739278211142 34.93386963015655,233.77521273097955 34.74542088730959,233.61303767304344 34.47531102260109,233.24637979667023 34.28686227975413,233.10535708470707 34.19263790833065,233.02074333703786 34.110976786440006,232.92907834177458 33.94765454265871,232.70344097850466 33.89111991980462,232.5906220558827 33.8597117960162,232.47780297261488 33.8597117960162,232.35088131190423 33.92252804362215,232.21690822722303 34.01047079026466,232.08998614858137 34.07956866265158,231.96306386656943 34.08585028737434,231.76562880149868 34.06700541311875,231.61755217982136 34.12354003594373,231.4412701264664 34.387368275929475,230.9406269560277 34.456466148316395,230.77844609558815 34.53812727020704,230.61626490315393 34.55697214449174,230.43292924230627 34.45018452353543,229.88291971399303 34.40621315021417,229.5021416496529 34.34967852736008,229.3963696403007 34.34339690260822,229.2764945256058 34.318270403542556,229.17777370670228 34.318270403542556,228.98738320854318 34.36852340164478,228.7758376738857 34.44390289878356,228.59249775353965 34.613506767345825,228.43736364330107 34.68888626448461,228.31043550898175 34.72029438827303,228.20466190832667 34.68888626448461,228.08478499018383 34.64491489113425,227.9790110881877 34.531845645426074,227.77451447716157 34.481592647352954,227.51360424144514 34.4376212740317,227.38667462683952 34.35596015211195,227.2879514526212 34.318270403542556,227.1469181331122 34.38108665117761,227.0552463408021 34.481592647352954,226.9353676830433 34.550690519739874,226.86485074079974 34.64491489113425,226.80138543907378 34.714012763492065,226.70971324681886 34.783110635878984,226.47700643612916 34.92758800540469,226.16672962499433 34.92758800540469,226.04684962242027 34.8710533825506,225.8211926547665 34.77682901112712,225.6237422806371 34.707731138769304,225.41218776212918 34.65747814066708,225.31346212676 34.519282395922346,224.91150648366602 34.34339690260822,224.50954880048812 34.24917253118474,224.32619900431018 34.136103285476565,224.030017667661 34.07956866265158,223.64921146429697 34.03559728930122,223.45175567499246 34.03559728930122,223.25429939333844 33.96021779219154,222.95811404773121 33.93509129315498,222.81002095949225 34.0041891655128,222.6619275943376 34.02931566454936,222.37279213078727 34.060723788366886,222.20354161346768 34.04187891408219,222.05544711408584 34.0041891655128,221.78041373754968 33.95393616743968,221.64642277216626 33.89740154458559,221.35023141255806 33.853430171264336,221.21623971922236 33.73407930077519,220.9341512026731 33.63357330459985,220.50396428009117 33.48281431032228,220.22187322602986 33.41999806271633,220.0737750203043 33.36974506461411,219.93272885256738 33.29436556750443,219.79168243357708 33.20014119608095,219.6788451174798 33.08079032562091,219.580112333977 32.94887620565714,219.4954841358558 32.54685222092667,219.2627561245754 32.20764448380214,219.0441322181141 32.15739148572902,218.93834624020383 32.301868855254725,218.70561659126543 32.37096672761254,218.62803988959058 32.440064599970356,218.59277772735368 32.67876634091954,218.67740689035418 33.35718181511038,218.78319321692106 33.6963895522058,218.79729804976523 34.06700541311875,218.79024563366693 34.73913926255773,218.75498354365845 34.92758800540469,218.72677386035502 35.072065374901285,218.71972143794846 35.32961199010606,218.68445931653696 35.687664601486176,218.57867285804969 36.30326382807107,218.34594215184916 36.78694893469219,218.11321076154854 37.35229516320396,217.78879616689665 37.70406614980311,217.5490106120851 37.96161276503699,217.3303819732755 38.63374661447597,216.7168080523843 39.04833384868107,216.36417721032922 39.3498518372071,216.0820714057336 39.557145454367856,215.9128074404507 39.946606189536396,215.5249094882529 40.72552765990258,214.79142452893575 40.907694777997676,214.55868268870836 41.1024251455965,214.34004579119937 41.54842050361913,213.9521401320526 41.63636325029074,213.84634734963765 41.761995745502645,213.62065560791234 41.84365686739329,213.53602103886806 41.84993849217426,213.41612191112654 41.84365686739329,213.27506388126494 41.47304100650945,213.0" stroke="#4dd2ff" stroke-linecap="round" stroke-linejoin="round" stroke-width="0.5"><title>2024-05-20 12.0km</title><desc>11568200050</desc></polyline><polyline fill="none" points="99.97404138883576,213.0 99.95096706782351,213.23965689379838 100.11825589532964,213.36272364025353 100.25670182149042,213.38215521276288 100.4009163279552,213.4663586335446 100.45283355025458,213.59590216731158 100.33169336488936,213.93919141506922 100.27400756228599,214.0622569769548 100.19901601894526,214.17884521178348 100.14133021634188,214.3019103678671 100.00288429012289,214.50917752814712 99.58177793127834,214.9496182811199 99.50101780766272,215.02086579919705 99.41448910380132,215.0791591711095 99.3337289801857,215.1892687460786 98.8433996582462,215.6361823671541 98.81455675695906,215.7527680772473 98.86070539901266,215.86935360034113 98.94723410290317,215.9665080600389 99.40295194328064,216.34864767499676 99.70291811673087,216.5688628118005 99.80675256135873,216.63363184271293 99.89328126522014,216.71783149662224 100.07787583349273,216.8603229964283 100.21632175971172,216.87975363384612 100.4009163279552,217.02224481623125 100.58551089619868,217.1841662753286 100.66050243959762,217.26188844757417 100.7989483657584,217.44323985966184 100.90278281041537,217.6245908192941 101.0700716379215,218.0002449392632 101.20851756411139,218.27226912463084 101.24312904564431,218.3629436268966 101.30081484824768,218.4471412776984 101.41041787312133,218.71268707609124 101.55463237958611,219.1077656151101 101.68730972553021,219.41216892658122 102.11995324489544,220.3512774940391 102.16033330670325,220.48728531536472 102.40838225776679,221.063696591169 102.41415083804168,221.18675009182334 102.33339071445516,221.29037393083127 102.21801910927752,221.38752114577073 102.14302756590769,221.49114469862252 102.02188738051336,221.6012445617016 101.94689583714353,221.7113442580594 101.90651577533572,221.84734953513544 101.05853447740083,222.8188084015128 100.44129638976301,223.5635847425874 100.36053626614739,223.67368146754598 100.27977614253177,223.76434923352645 100.11248731505475,223.92625567729556 99.70868669697666,224.40549663804995 99.22989453555783,224.94949606334558 99.16067157246289,225.04663838959823 99.1087543501344,225.143780586106 99.01068848575233,225.49996752973675 99.02799422651879,225.62301352299255 99.12029151062598,225.85615272876748 99.1145229304093,225.96624598279595 99.00491990547744,226.1410996319173 98.91839120161603,226.19290803981858 98.82609391747974,226.2641445404006 98.58381354663288,226.5361378098678 98.46844194148434,226.74337009431474 98.3992189783603,226.82108204873657 98.24923589164973,227.07364532710926 98.174244348309,227.22259249040508 98.11078996548895,227.30677988253592 97.83389811308007,227.8378058022936 97.79928663154715,227.9219924822828 97.76467514998512,228.09684142937476 97.70122076713596,228.20693129152642 97.60892348299967,228.49186898444168 97.5512376804254,228.61490991585742 97.47624613705557,228.89984601050674 97.4185603344813,229.2106841134082 97.39548601343995,229.54094814223936 97.44163465549354,229.77407478914392 97.52239477913827,230.08490915606671 97.53970051990473,230.25327721688518 97.52816335938405,230.57058519524435 97.51085761861759,230.66772001395293 97.52239477913827,230.77133034425788 97.51662619889248,230.9655993158085 97.53393193965894,231.06920922183053 97.52239477913827,231.20519699953002 97.57431200143765,231.48364737019438 97.75890656971023,231.85275435817312 97.78774947102647,231.96931407055672 97.9954183603113,232.3448940955568 98.05310416288557,232.4938304650932 98.33576459554024,233.25793400077964 98.43383045992232,233.7241627242256 98.51459058353794,234.37817298165464 98.58381354663288,234.7861169966418 98.58958212687867,235.12283096845204 98.58958212687867,235.22643495396915 98.56073922559153,235.59552295342291 98.50305342301726,236.029360839726 98.49728484274237,236.1977151437095 98.46844194148434,236.3660690581455 98.46267336120945,236.50852206612763 98.47421052173013,236.70277571846236 98.49728484274237,236.83875296655606 98.5318963243044,236.9812050491455 98.55497064534575,237.1430820772075 98.6184250281949,237.3891344701551 98.68187941101496,237.47331009779737 98.77417669515125,237.55101059073058 98.8433996582462,237.6351860311188 98.88377972008311,237.72583639650838 98.9356969424116,237.95893681748566 98.97030842394452,238.20498645179032 98.94146552262828,238.3021110784175 98.97030842394452,238.67765841504297 98.97030842394452,238.83305674607254 98.96453984366963,238.96255510177434 98.94146552262828,239.07262852293206 98.94146552262828,239.21507623258367 98.98761416471098,239.51939540542662 99.0222256462439,239.68126678739645 99.13759725139244,240.04385737649864 99.23566311580362,240.38702180585096 99.30488607889856,240.52299216988467 99.49524922741693,240.7496088787957 99.63369515360682,240.93737647448143 99.52986070897896,241.0539216350444 99.36257188147283,241.17046660898632 99.25873743684497,241.2740619847027 99.18374589347513,241.4100306915716 99.154902992188,241.59132190557284 99.20682021451648,242.53014418263774 99.2010516342707,242.70495802791993 99.22412595528294,243.4754288614713 99.23566311580362,243.57902095661848 99.2875803381321,243.70203637810482 99.62215799311525,244.15524929504318 99.69714953645598,244.3041614947142 99.78367824034649,244.74442186857777 99.82982688240008,244.8674353206443 99.85290120344143,244.97749981207016 99.8702069442079,245.09403850398667 99.85866978368722,245.3012179400248 99.864438363933,245.40480743694206 99.83559546267497,245.49544812581735 99.83559546267497,245.70262641948648 99.8240583021252,245.81268964816263 99.81252114160452,246.12992978804687 99.81828972187941,246.4018488076399 99.84136404292076,246.53780793657643 99.88751268500346,246.6543441307149 99.88751268500346,246.79677700356842 99.9105870059866,246.94568379996053 99.92212416653638,247.09459029178834 99.91635558626149,247.21112559468747 99.88174410472857,247.39887652367906 99.87597552445368,247.67726494099043 99.85290120344143,247.8196958126282 99.81828972187941,247.96860051689873 99.79521540083806,248.23403858222446 99.80675256135873,248.40236465883936 99.82982688240008,248.56421628856333 99.8702069442079,248.80375604031724 99.8702069442079,248.90086652598984 99.9567356480693,249.2180932098854 100.17594169790391,249.63890198442823 100.23362750047818,249.78132901879144 100.25670182149042,249.93022971136816 100.29131330305245,250.03381262230687 100.36053626614739,250.31219096526183 100.40668490820099,250.42872111840552 100.51628793313284,250.91426141591364 100.59704805671936,251.19263639299606 100.61435379751492,251.3091651371942 100.64319669880206,251.59401239354338 100.66050243959762,251.9241748646673 100.70665108165122,252.24786210869934 100.67203960008919,252.4679686128511 100.6662710198434,252.62981120619224 100.63742811852717,252.73986396422697 100.6258909580356,252.8499165559333 100.5797423159529,252.95996898136946 100.54513083441998,253.34838797705743 100.46437071080436,253.65912168207433 100.4874450318166,253.8339088085413 100.64319669880206,254.22879669798567 100.66050243959762,254.32589994940645 100.70665108165122,254.59131484266982 100.712419661897,254.73373219151836 100.75279972370481,255.04445998607116 100.82779126707464,255.34871300041414 100.88547706964891,255.84069390894 100.983542934031,256.5139255566537 101.02969157608459,256.6822324963505 101.08737737868796,256.8570123682439 101.13352602074156,256.95411211587634 101.19698040359071,257.04473843019514 101.24312904564431,257.1806776902886 101.27197194693144,257.31661669667665 101.26620336668566,257.452555449403 101.24312904564431,257.54965440317756 101.26043478641077,257.7050124599773 101.26043478641077,258.0092543614519 101.22582330487785,258.1322454077672 101.1566003417829,258.24876304959616 101.08160879841307,258.488270950249 101.06430305764661,258.6112611878052 101.1104516997002,258.7601438291822 101.16236892202869,258.88313360776374 101.24312904564431,259.2262092610763 101.35273207054706,259.53691789253935 101.39888071262976,259.6275409937589 101.5142523178074,260.00945139605756 101.73345836758381,260.6373336382894 101.84882997276145,260.90919849744387 101.9180529358564,261.0192387472489 102.0045816397178,261.2004811493607 102.06803602256696,261.2911021813561 102.21801910927752,261.4464522596536 102.3160849736596,261.56296460100566 102.43722515908303,261.80246160646493 102.48914238141151,261.9254462492754 102.59297682603938,262.3591272804406 102.68527411017567,262.831642480538 102.6737369496841,262.94815260687756 102.6737369496841,263.0646625469308 102.65066262864275,263.1746995414869 102.59874540631426,263.2912091192993 102.55836534450646,263.5307004442366 102.50067954193219,263.614845858021 102.51221670245286,263.75724556766363 102.50644812217797,263.8931723036585 102.47183664064505,264.15855234316405 102.4487623196037,264.2750603478853 102.39684509727522,264.37215020955773 102.39684509727522,264.4757125860706 102.3622336157132,264.5792748153981 102.34492787494673,264.7346178834414 102.3160849736596,264.8964332271862 102.18917620799039,265.2006451006964 102.14879614618258,265.343041711516 102.06803602256696,265.3754045388123 101.96997015818488,265.30420629979926 101.84882997276145,265.2524257186378 101.69884688605089,265.1941725208526 101.53155805857386,265.1618096130769 101.37003781131352,265.1618096130769 101.08737737868796,265.09708375440096 100.87393990912824,265.08413857578125 100.83355984732043,265.1876999404558 100.76433688422549,265.30420629979926 100.54513083441998,265.4530752656865 100.25670182149042,265.932042918801 100.17594169790391,266.01618555979803 100.02019003094756,266.14563558701775 99.9105870059866,266.20388802423986 99.6452323141566,266.4174798957465 99.54716644974542,266.4627871819466 99.27027459733654,266.65048849617597 99.08568002909306,266.75404763501865 98.75110237413901,266.90291363928554 98.52612774405861,266.98705515937036 98.39345039811451,267.0 98.30115311397822,267.0 98.0877156444185,266.95469304776634 97.84543527360074,266.928803348128 97.59161774223321,266.9482206237153 97.31472588982433,266.98058273819333" stroke="#4dd2ff" stroke-linecap="round" stroke-linejoin="round" stroke-width="0.5"><title>2024-05-20 11.4km</title><desc>11568200045</desc></polyline><polyline fill="none" points="184.901345291466,237.26464685687097 185.25448430492543,237.29863413549174 186.05156950670062,237.23065956916253 186.56614349776646,237.26464685687097 186.81838565022917,237.19667227233003 187.0,237.52521576084837 186.97982062777737,237.80844222458109 186.7477578475373,238.34090626797843 186.42488789238269,238.91868387698923 185.99103139014915,239.53044554187363 184.52802690584213,240.94654921200708 183.93273542600218,241.42235650464863 183.76121076231357,241.4450139503606 183.60986547084758,241.3203979489699 183.43834080715897,241.36571287271363 183.47869955154601,241.61494466441218 183.4585201793816,241.8415185965423 183.25672645738814,242.06809212484222 182.03587443946162,243.29158220020327 181.63228699547471,243.5634672846645 181.44058295962168,243.59745287933038 181.2993273542961,243.77870923083537 181.2085201793816,244.0845787379876 180.75448430492543,244.4697467002843 180.1692825112259,245.09281005119556 179.94730941706803,245.2400791243781 179.46300448430702,245.7725120426403 178.635650224227,246.78072997101117 178.43385650223354,246.86002767120226 178.21188340807566,247.0639358160406 178.10089686099673,247.26784363385377 177.9091928251437,247.449094752963 177.72757847531466,247.52839203635813 177.40470852021826,247.89089327336114 176.44618834083667,248.72917342591245 175.9114349775482,249.28424778298358 175.00336322869407,250.05455103963322 174.18609865469625,250.65493122449698 173.7522421524627,250.91547268694558 173.44955156953074,251.01742354863381 172.7836322869989,251.3685870023255 172.56165919284103,251.44788184149365 172.41031390137505,251.57248791748134 172.24887892382685,251.65178262952395 171.62331838562386,251.86701088447444 170.87668161431793,252.03692767053144 169.20179372199345,252.2861385460492 168.08183856500546,252.27481078958226 167.59753363224445,252.22949975358642 166.8307174887741,252.1275498635805 163.75336322869407,251.52717663123622 162.6434977578465,251.28929211368086 161.70515695068752,251.04007928459032 160.99887892376864,250.91547268694558 160.2522421524627,250.70024282152735 158.76905829593306,250.41704507523536 157.94170403585304,250.17915848091798 157.37668161431793,249.89595957413258 157.05381165922154,249.68072798317735 156.47869955160422,249.510808048748 156.0650224215351,249.6354160228584 155.29820627806475,250.1225187500313 155.13677130045835,250.3037658001267 154.3699551569298,250.79086596713023 153.6434977578465,250.45102883810614 153.1692825112259,250.29243786705047 151.9585201793816,249.9979112532601 151.4035874439287,249.79400781329605 150.87892376683885,249.53346405312914 150.40470852016006,249.19362356367492 149.51681614352856,248.37800268326828 148.55829596408876,247.4037819974037 147.4686098654638,245.64790028288553 147.31726457399782,245.52328840101836 147.17600896861404,245.52328840101836 146.88340807176428,245.26273588972253 145.42040358739905,244.12989267647936 144.53251121076755,243.38221062630328 143.73542600899236,242.8610962940802 142.35313901345944,241.61494466441218 141.9899103139178,241.10515184074757 141.71748878923245,240.85591904957982 141.53587443946162,240.78794638536783 141.38452914799564,240.66332973994577 140.68834080715897,240.4820689466651 140.52690582961077,240.35745200142264 140.35538116592215,240.3347943618428 140.20403587445617,240.21017727221624 139.9114349776064,239.6550632978615 139.62892376683885,239.31519640290935 139.4977578475373,238.9413417689284 139.4372197309276,238.53349909609096 139.2757847533794,238.40888024060405 139.04372197308112,238.3635642628724 138.50896860990906,238.3635642628724 138.34753363224445,238.31824826897355 137.87331838568207,238.0010358594227 137.4192825112259,237.93306166866387 137.2477578475373,237.84242935779912 136.49103139014915,237.11736854443006 136.15807174891233,236.85679880440875 135.94618834083667,236.7774948644801 135.79484304931248,236.6415451380235 135.71412556053838,236.448949443351 135.77466367714806,236.2563534568544 135.9663677130011,235.973123534779 135.8150224214769,235.58792982797604 135.0885650224518,234.90817338010675 134.74551569513278,234.40968300784152 134.57399103138596,234.2963894687855 134.16031390137505,234.1264489708483 133.8778026905493,233.71859084864263 133.91816143493634,233.49200243745872 133.82735426008003,233.2654136223282 133.77690582961077,232.9935065109603 133.6457399103092,232.8462232493839 133.58520179375773,232.63096279088495 133.58520179375773,232.4043724406656 133.67600896861404,232.24575895514135 133.8878923766315,232.07581571530318 133.86771300446708,231.95119052829978 133.92825112107676,231.91720181972778 134.0392376681557,231.70193978771567 134.1300448430702,231.6566214187551 133.9686098654638,231.76991731088492 133.97869955154601,231.92853139027284 133.8878923766315,231.9965087922683 133.8071748878574,232.21177032535343 133.75672645738814,232.06448615787667 133.83744394616224,232.0078383557193 133.89798206277192,231.05615150405356 133.86771300446708,230.8182286776282 133.7264573990833,230.7049319370417 133.5650224215351,230.72759129320912 133.43385650223354,230.87487701000646 133.22197309415787,230.90886599734222 133.03026905830484,230.8182286776282 133.12107623316115,230.63695384420862 133.01008968614042,230.22908452369302 133.19170403585304,230.1611061763324 133.4742152466788,229.90052217464108 133.6558295963914,229.84387340792455 133.67600896861404,229.5153100629177 133.6558295963914,229.86653291764378 134.5336322869989,229.651267412155 135.12892376678064,229.6625971846879 135.30044843046926,229.62860786405508 135.5627802690724,229.39068236506137 135.84529147978174,229.2207353073245 136.0571748879156,228.92615986889723 136.1378923766897,228.54094480367348 136.4607623318443,228.32567705277324 137.19730941700982,228.33700694348227 137.39910313900327,228.31434716106014 137.62107623316115,228.23503789066308 137.8127802690724,228.24636778947024 137.9742152466788,228.32567705277324 138.64013452915242,228.7562121899391 140.0829596412368,229.4926504906034 140.75896860985085,230.28573311870423 140.90022421523463,230.18376562948833 140.76905829593306,229.93451142257254 140.48654708522372,229.71924603223306 140.19394618831575,229.46999091421458 140.02242152468534,229.43600154204614 139.69955156947253,229.23206511825992 139.12443946185522,228.98280904466083 138.619955156988,228.7108927704976 137.8329596412368,228.1783883815151 137.45964125561295,228.08774911436922 137.2477578475373,228.1670584766689 137.12668161431793,228.28035747982358 136.97533632285194,228.29168737457076 136.56165919278283,228.12173884711228 136.35986547084758,228.20104818823893 136.0470852017752,228.46163567471376 136.08744394622045,228.7562121899391 136.0470852017752,228.90350019146717 135.94618834083667,228.99413887680566 135.83520179369953,228.91483003067697 135.9663677130011,229.016798538054 135.82511210761731,229.1867458685083 135.47197309415787,229.39068236506137 135.3307174887741,229.52663984758692 135.11883408069843,229.62860786405508 134.89686098654056,229.5832887557117 134.6950672645471,229.60594831193885 133.9686098654638,229.75323532862967 133.7264573990833,229.68525672675605 133.35313901345944,229.85520316327165 133.05044843052747,230.13844671914558 133.0,230.38770052610926 133.02017937222263,230.69360225745186 133.26233183854492,230.85221768006886 133.46412556053838,230.82955834610766 133.66591928253183,230.682272576807 133.8071748878574,230.69360225745186 133.86771300446708,231.02216255609528 133.86771300446708,231.61130303356913 133.70627802691888,232.16645213815355 133.58520179375773,232.3363952568252 133.52466367714806,232.5969742640882 133.58520179375773,232.83489376067882 133.75672645738814,233.0048359855282 133.7970852017752,233.2654136223282 133.8878923766315,233.42402583533112 133.85762331838487,233.85454370147636 133.98878923768643,234.02448456297134 134.50336322869407,234.31904818467592 134.75560538115678,234.7042457368516 134.9170403587632,234.8628561543228 135.10874439461622,234.93083198693057 135.7343049327028,235.44064957276714 135.8957399103092,236.07508637942374 135.69394618831575,236.31299936552386 135.6535874439287,236.5395827477696 135.8150224214769,236.75483658682788 135.95627802686067,236.86812793463469 136.14798206283012,236.93610269487544 136.43049327353947,237.16268496643897 137.31838565022917,237.98970683016523 137.8127802690724,238.0576809906488 138.41816143499454,238.4428672132999 139.07399103138596,238.4315382234272 139.30605381168425,238.48818316277175 139.45739910315024,238.65811782939272 139.44730941706803,238.9073549295208 139.56838565022917,239.34918313327944 140.0728699551546,240.14220426273096 140.27466367708985,240.3347943618428 140.48654708522372,240.3687808196555 140.880044843012,240.55004177444061 141.41479820630047,240.64067215492105 141.62668161431793,240.85591904957982 141.9293721973081,241.11648059239087 142.4035874439287,241.7395603770492 143.51345291477628,242.77046749650617 143.70515695068752,242.94039643894212 144.35089686105493,243.32556786757777 146.93385650229175,245.34203453664668 147.43834080715897,245.78384037839714 148.36659192823572,247.29050003787415 149.4764573990833,248.43464319124178 150.53587443946162,249.37487193773995 151.03026905824663,249.70338395726867 151.68609865469625,249.9412714416103 151.82735426008003,250.04322308437258 152.98766816139687,250.40571715225087 153.38116591930157,250.49634050776513 154.35986547084758,250.8361775157682 154.57174887892324,250.84750540037203 156.82174887892324,249.45416802015097 156.92264573986176,249.30690382773173 157.16479820630047,249.22760765349085 157.4372197309276,249.0576871135636 157.5885650223936,248.87643828737782 157.88116591930157,248.76315763981984 158.02242152462713,248.54792413145333 158.6278026905493,248.0381591057303 158.80941704037832,247.9701902812376 158.89013452915242,247.80026806100796 160.151345291466,246.6787757123966 160.3127802690724,246.5994778991444 161.49327354267007,245.50063168211636 162.10874439461622,244.85491349575022 162.3307174887741,244.73030083666526 162.59304932731902,244.3677905885561 162.66367713006912,244.12989267647936 162.75448430492543,243.98262231735134 162.83520179375773,243.54081021648744 163.03699551569298,242.88375348334375 163.2993273542961,241.50165754695627 163.22869955154601,240.82193272203585 163.2993273542961,240.28947907067777 163.79372197308112,239.2245650774421 163.88452914793743,238.56748603549204 164.07623318390688,238.1596421631475 165.08520179375773,236.788824001771 165.6199551569298,235.58792982797604 165.64013452915242,235.406661797344 165.6199551569298,235.044124960521 165.5392376681557,234.8855147692666 164.56053811660968,233.75257907550258 163.58183856500546,232.08714527168195 163.52130044845399,231.91720181972778 163.52130044845399,231.7359285538696 163.59192825114587,231.5886438349553 163.75336322869407,231.41869971642882 164.3385650223936,231.09014044289506 164.48991031385958,230.94285497556848 165.630044843012,230.35371139938798 165.83183856500546,230.13844671914558 167.10313901345944,229.4020121608337 167.29484304937068,229.35669297166896 169.2421524663805,228.3030172682993 169.89798206277192,227.88381052685872 170.35201793722808,227.7138614539581 171.0078475336195,227.73652134346776 171.18946188339032,227.79317104959773 171.10874439461622,227.98577986154123 170.98766816145508,229.3453631718803 170.90695067262277,231.44135894536157 171.0885650224518,231.61130303356913 171.78475336323027,231.54332542555494 172.2993273542961,231.5886438349553 173.1065022421535,231.5319958206819 173.36883408069843,231.49800700000196 173.52017937216442,231.43002933140815 174.5493273542379,231.44135894536157 175.14461883407785,231.40737010042358 176.05269058293197,231.46401817025617 176.4865470851655,231.6679510124959 177.74775784747908,232.52899718328263 177.94955156947253,232.63096279088495 178.37331838568207,232.94818860249507 178.73654708522372,233.1521190632775 178.94843049324118,233.1974368989977 179.55381165916333,233.53732015202695 179.78587443946162,233.59396727250714 181.16816143499454,234.22841329688526 181.65246636769734,234.35303625097004" stroke="#4dd2ff" stroke-linecap="round" stroke-linejoin="round" stroke-width="0.5"><title>2024-05-13 18.3km</title><desc>11568200111</desc></polyline></svg>