<?xml version="1.0" encoding="utf-8" ?>
<svg baseProfile="full" height="300mm" version="1.1" viewBox="0,0,200,300" width="200mm" xmlns="http://www.w3.org/2000/svg" xmlns:ev="http://www.w3.org/2001/xml-events" xmlns:xlink="http://www.w3.org/1999/xlink"><defs /><rect fill="#222222" height="300" width="200" x="0" y="0" /><text fill="#FFFFFF" style="font-size:12px; font-family:Arial; font-weight:bold;" x="10" y="20">Over 10km Workouts</text><text fill="#FFFFFF" style="font-size:4px; font-family:Arial" x="10" y="280">ATHLETE</text><text fill="#FFFFFF" style="font-size:9px; font-family:Arial" x="10" y="290">yangjie</text><text fill="#FFFFFF" style="font-size:4px; font-family:Arial" x="120" y="280">STATISTICS</text><text fill="#FFFFFF" style="font-size:3px; font-family:Arial" x="120" y="285">Number: 10</text><text fill="#FFFFFF" style="font-size:3px; font-family:Arial" x="120" y="290">Weekly: 2.5</text><text fill="#FFFFFF" style="font-size:3px; font-family:Arial" x="141" y="285">Total: 179.9 km</text><text fill="#FFFFFF" style="font-size:3px; font-family:Arial" x="141" y="290">Avg: 18.0 km</text><text fill="#FFFFFF" style="font-size:3px; font-family:Arial" x="167" y="285">Min: 10.4 km</text><text fill="#FFFFFF" style="font-size:3px; font-family:Arial" x="167" y="290">Max: 38.4 km</text><polyline fill="none" points="31.94525139662437,80.57486465018883 30.497206703876145,80.07804178545484 29.511731843580492,79.62638379025157 28.626815642463043,79.10697610033094 27.74189944146201,78.47465225793712 26.535195530741476,77.75199450546643 22.794413407798856,75.04200957382272 21.96983240218833,74.25159184126824 20.883798882598057,73.37083774848725 19.757541899452917,72.24166135497217 18.369832402211614,70.99956150857906 18.068156424560584,70.68338966612646 16.579888268141076,69.35094685119111 16.1575418994762,69.03477295090852 15.43351955304388,68.6734308674204 13.724022346315905,67.9733291137527 13.140782122849487,67.5894015240774 13.0,67.29580944520421 13.060335195623338,66.95704893142101 13.382122904993594,66.30211065328331 14.729608938563615,63.00480945943855 14.950837988872081,62.395029878025525 15.091620111721568,60.836697611244745 15.031284916214645,60.430174573513796 14.991061452543363,59.36869467643555 15.011173184379004,57.448985691866255 15.091620111721568,56.50041823393258 15.212290502735414,55.50667708646506 15.23240223468747,54.89687945174228 15.353072625701316,53.76762069543474 15.554189944057725,52.54801558262261 15.45363128487952,52.38991819351213 15.25251396652311,52.20923534221947 15.13184357539285,52.25440606713528 15.192178771016188,52.09630849472887 15.272625698358752,52.299576783931116 15.513966480502859,52.38991819351213 15.614525139681064,52.322162139360444 15.835754189873114,50.22171546975733 16.07709497201722,48.93433631894004 16.237988826818764,47.75987945488305 16.398882681620307,47.01454823509266 16.55977653642185,46.67576059170824 16.821229050285183,46.38214426753984 16.921787709579803,46.17887122818502 16.94189944129903,45.86266839833115 16.881564245792106,45.65939494207851 16.519553072634153,45.298019505731645 16.41899441345595,44.91405753957224 16.398882681620307,44.055787509845686 16.318435754277743,43.242686903409776 16.278212290490046,42.452169921656605 16.1575418994762,41.59389154701785 16.13743016764056,40.93888767216413 15.85586592182517,37.663842880618176 16.298324022325687,37.14434912435536 16.660335195600055,36.8055482742202 16.96201117313467,36.76037479322986 17.867039106204174,36.78296153472911 18.792178770992905,36.895895211884636 24.98659217869863,37.05400227525388 33.91620111733209,37.46056284205406 34.841340782120824,37.48314952106739 35.20335195527878,37.39280279292143 37.23463687149342,37.550909546087496 39.1854748603655,37.618669552815845 39.547486033523455,37.709016200416954 39.98994413414039,37.9800559495925 40.07039106148295,38.09298909275094 40.11061452515423,38.22850879809994 40.09050279331859,38.49954799115949 38.98435754189268,42.13596243785287 38.44134078209754,44.25906225340441 38.36089385475498,44.755955384272966 38.4212290502619,45.27543352385692 38.64245810045395,45.79491059771681 39.06480446923524,46.54024540746468 39.8089385475032,47.75987945488305 40.3318435754627,48.911750661427504 40.49273743014783,49.566733912652126 40.3318435754627,51.39616091620701 40.27150837983936,53.90313201205572 40.29162011179142,54.85170919817756 40.55307262565475,56.88436263300537 40.51284916209988,57.11021200756659 40.432402234640904,57.17796678071318 40.21117318433244,57.245721535684424 38.96424581005704,57.17796678071318 38.320670391083695,57.223136619402794 37.2748603351647,57.15538185837795 37.073743016808294,57.20055170102569 36.912849162123166,57.336061180816614 36.83240223466419,57.53932526448625 36.912849162123166,58.82666067271202 36.85251396649983,61.98850934150687 36.75195530720521,62.21435416454915 36.470391061506234,62.46278323739534 33.87597765366081,64.26953280017187 33.79553072631825,64.45020704755734 33.83575418998953,65.96334881041548 33.79553072631825,66.75379240562324 33.89608938549645,67.00221702610725 34.07709497201722,67.16030529407726 34.80111731844954,67.22805737877206 35.143016759771854,67.40872951583879 35.62569832406007,67.90557722846279 36.04804469284136,68.4701757189323 36.208938547526486,68.85410197355668 36.651396648027,72.71591605326103 36.772067039157264,73.16758636904706 37.05363128485624,73.73217313135683 37.43575418996625,74.20642503921408 38.17988826823421,74.72584277678106 38.72290502791293,74.97425957905944 39.46703910618089,75.08717622685072 40.07039106148295,75.08717622685072 43.20782122912351,74.2741752393049 44.09273743024096,74.38709219908924 44.25363128492609,74.34192542124947 44.57541899441276,73.91284062949126 44.63575418991968,73.48375511096674 44.99776536307763,72.91916779508756 45.23910614522174,72.60299834854959 45.359776536235586,72.28682850734913 45.60111731837969,71.99324187297316 45.70167597767431,71.65448764113535 45.80223463685252,71.58673674048623 46.88826815644279,71.6093203760538 47.33072625705972,71.54156946326839 47.391061452566646,71.4286512349936 47.391061452566646,71.20281462742423 47.16983240225818,70.32204993431515 47.049162011244334,69.32836301423959 46.86815642460715,68.33467219596787 46.16424581001047,65.3987447322288 46.16424581001047,65.19548695599951 46.20446927379817,65.10515011423558 46.40558659215458,65.0373974616814 46.948603351949714,65.0373974616814 48.3765363128623,64.90189210232347 50.58882681559771,64.60829690833634 51.614525139681064,64.56312838681333 52.96201117313467,64.3824542198854 53.44469273742288,64.51795985717035 54.068156424560584,64.42762277369911 55.05363128485624,64.15661133000685 55.998882681597024,63.637171919224784 56.70279329607729,63.32099088667019 57.72849162016064,62.9822250566649 60.62458100565709,62.1014317782101 61.610055865952745,61.76266431702243 62.43463687156327,61.446480944461655 63.29944134084508,61.03995888543432 66.15530726255383,59.91072752016771 67.0,59.48161828123557 66.95977653632872,59.54937241986045 66.29608938551974,59.84297347809479 65.47150837990921,60.15915885250433 64.12402234633919,60.74635921479785 63.29944134084508,61.06254346143396 62.515083798905835,61.423896402760874 60.78547486034222,62.05626280955039 59.84022346371785,62.37244542085682 57.949720670469105,62.89188742553233 57.10502793290652,63.185484609071864 57.06480446923524,63.23065337634762 57.44692737434525,63.68234060588293 57.68826815637294,64.35986993998813 57.44692737434525,63.68234060588293 57.1854748603655,63.253237756871385 57.0849162011873,63.20806899374293 56.622346368734725,63.388743998264545 55.89832402241882,63.72750928455207 55.1743016759865,64.17919562809402 54.59106145252008,64.33728565802448 53.66592178773135,64.51795985717035 53.22346368711442,64.54054412293772 52.80111731844954,64.40503849784727 51.81564245803747,64.56312838681333 49.82458100549411,64.72121817710286 46.687150837969966,65.0373974616814 46.24469273746945,65.10515011423558 46.16424581001047,65.15031853917753 46.12402234633919,65.24065536478884 46.16424581001047,65.44391310479841 46.48603351949714,66.48278345087601 46.88826815644279,68.31208826844522 47.10949720675126,69.4412821787264 47.45139664807357,71.78998938821314 47.37094972061459,72.62558189350239 47.43128491623793,73.39342122498783 47.35083798877895,73.46117164248426 47.049162011244334,73.39342122498783 46.40558659215458,73.50633857748471 46.08379888278432,73.28050382221409 45.86256983235944,73.25792033564358 44.95754189940635,72.91916779508756 45.118435754207894,72.91916779508756 45.27932960900944,72.69333251636999 45.460335195530206,72.26424493212835 45.64134078216739,72.01582547229191 45.70167597767431,71.72223852375464 45.842458100640215,71.58673674048623 46.10391061450355,71.58673674048623 46.767597765428945,71.6319040095841 47.391061452566646,71.58673674048623 47.45139664807357,71.49640217795968 47.2301675977651,70.68338966612646 47.14972067042254,69.80262316695007 46.848044692655094,68.15400071933982 46.6067039106274,67.22805737877206 46.22458100551739,65.3761605428881 46.12402234633919,65.15031853917753 45.92290502798278,65.10515011423558 44.535195530741476,65.2858237655746 43.811173184309155,65.30840796297707 43.811173184309155,65.3761605428881 44.09273743024096,65.4213289195468 44.213407821254805,65.534249825796 44.37430167593993,67.29580944520421 44.27374301676173,67.72490544572065 44.13296089391224,68.08624888231861 43.9720670391107,68.24433647372643 43.4491620111512,68.40242396648682 43.187709497171454,68.56051136058522 42.54413407819811,68.53792745320243 41.88044692738913,68.69601476273965 41.67932960903272,68.69601476273965 41.63910614524502,68.49275963233958 41.67932960903272,68.42500788600591 41.84022346371785,68.9444374783634 42.705027932999656,72.58041480153042 42.76536312850658,73.07725237036357 42.84581005584914,73.30308730677643 43.00670391053427,74.09350799884123 43.00670391053427,74.34192542124947 42.8659217878012,74.40967558513512 42.684916201164015,74.38709219908924 42.56424581003375,74.20642503921408 42.403351955348626,73.34825426992029 41.29720670392271,69.1702760993503 41.33743016759399,69.01218908582814 41.37765363138169,69.01218908582814 41.478212290559895,69.19285995041719 41.79999999993015,70.63822222784802 42.38324022339657,72.76108312114957 42.46368715085555,73.12241937378712 43.891620111768134,78.97147826693254 44.17318435758352,80.80069290296524 44.25363128492609,81.61367294637603 44.535195530741476,82.90088601305615 44.49497206695378,83.05896435983595 44.33407821226865,83.2396252067847" stroke="#4dd2ff" stroke-linecap="round" stroke-linejoin="round" stroke-width="0.5"><title>2024-06-08 12.4km</title><desc>11601578652</desc></polyline><polyline fill="none" points="113.1036869049276,33.24685090152707 112.85065591371676,33.642741422288964 112.65984565806866,33.84767180799827 112.07082269495004,34.41588367455188 111.99200976325665,34.46711558843526 111.8717163412075,34.61149616642433 110.78492749376164,35.64077840785467 110.3659745411278,36.05062270792769 109.97605793173716,36.46977832732955 109.3372583801829,37.08453382276275 108.92660152559984,37.43848067698127 108.24217343465716,38.06719615363545 108.0886956203176,38.18362411585622 107.69877901092696,38.439764720049425 107.29227020540566,38.64001922740863 106.88990944890247,38.79370239889249 106.3962916136079,38.93341398094344 105.94000621965097,38.979984425335715 105.27631837387162,38.97532738275913 104.61263052809227,38.87287234122414 104.4467085666547,38.81698768849674 101.46426130972395,38.13705296208718 101.16145373009203,38.0345962777501 100.87109029757266,37.86693945208026 100.82546175818425,37.773796538818715 100.79227736587927,37.74585363248843 100.76324102263607,37.750510784575454 99.15794604567054,38.74247472524803 98.8758787112165,38.89615759556909 98.71825284784427,38.95669920832006 97.90523523677257,39.147637681642664 97.71857303015713,39.22215006744591 97.51117057836382,39.389802547222644 96.33312465211202,40.456246013251075 96.18379488681967,40.53075653416454 96.00957682731678,40.55404105017806 95.53255118815287,40.474873653427494 95.36248117768264,40.4841874710437 95.17167092201998,40.56801175480359 95.00989700960054,40.71703237193651 94.72782967516105,41.06629777915077 94.63657259636966,41.21066013273594 94.36694940901361,41.960406591511855 94.2134715946886,42.30035020170908 94.13465866300976,42.41211200184989 93.97703279962298,42.58441097574905 93.4128981307149,43.14787122404232 93.28016056156775,43.390017564870504 92.29292489099316,46.05355332553518 91.97767316426325,46.826512088344316 91.41353849532607,48.75420285897053 91.25176458293572,49.17325667144178 90.74570260054315,49.95548147496447 90.62540917849401,50.10447534978084 89.82483571453486,50.691134607899585 89.46810349743464,51.1055169455758 89.36025422249804,51.263819444291585 89.078186888044,51.813218518949725 88.98692980923806,51.95755121748152 88.46012758166762,52.6373063164865 88.28176147310296,52.9213109688244 88.18220829624624,53.26118336307263 87.97065779540571,54.29475434304186 87.92088120698463,54.46701418871453 87.85036437337112,54.57875000171407 87.20326872373698,55.244504276266525 87.016606517107,55.46797234441328 86.56032112315006,56.13837082491955 86.02522279749974,56.75289522336243 85.84685668893508,56.99497861183772 85.8136722966592,57.09739816995352 85.78048790436878,57.483797426226374 85.5399010602705,60.82626473599885 85.4859764228022,61.924856428184285 85.42790373630123,62.23208557433463 85.20390908834815,62.87446796513177 85.15413249992707,63.27478923817762 85.14583640184719,63.474948727300216 85.16657664703962,64.18713791601112 85.21220518642804,64.60606820946487 85.26198177487822,64.78294888294477 85.963002061937,66.66808737835163 85.99203840520931,66.68205111409407 86.02937084654695,66.67739653592798 86.02522279749974,66.66808737835163 86.00033450327464,66.68670569185633 86.00448255232186,66.7425605926619 86.28240183771413,67.50125043067237 86.57691331929527,68.21338488372203 86.67646649615199,68.36232681340334 86.71379893748963,68.37163566994059 86.69720674132986,68.35767238450717 86.81335211434634,68.34370909533754 87.18667652760632,68.34370909533754 87.25304531215806,68.36232681340334 87.36089458710921,68.4414520413302 87.5351126466121,68.40887107959134 89.09477908418921,69.10237574832354 89.64646960598475,69.20942598677357 89.92438889139157,69.18149985869604 90.11934719610144,69.2466608010509 90.23134452005615,69.30251297286668 90.39311843246105,69.49334077740059 90.46778331510723,69.54453836280663 90.87014407161041,69.70743943815614 91.0568062782404,69.72605667166863 91.54627606448776,69.71674805574366 91.96937706616882,69.77725402971555 92.1809275670239,69.7819083325121 92.42566246015485,69.75863681439296 92.74091418688477,69.79587123842066 93.8899237698788,70.45212361935774 94.36280135998095,70.66156413861609 94.59094405696669,70.78722804837525 95.00160091154976,71.0850968530176 95.48277459971723,71.49931784527507 95.57403167852317,71.54585932520786 95.66943680634722,71.57378419331144 96.10083390609361,71.58774662178621 96.3538648972899,71.7227165719778 96.47415831935359,71.83441557821425 96.54467515295255,71.92749790156086 96.64837637885648,72.15554889509076 96.74378150668053,72.42083145532888 97.05488518437778,72.97931666686782 97.20006690065202,73.28648099663405 97.24154739099322,73.44006248649748 97.24984348908765,73.56571973438622 97.18762275353947,73.83564910015411 97.059033233425,74.01249862057011 97.03829298824712,74.07299963531477 97.046589086327,74.13815449616959 97.09636567476264,74.18934754431757 97.51117057836382,74.37084976669212 97.8056820599304,74.42669647790899 97.90938328581979,74.47323535848045 98.09604549243522,74.60819787846413 98.16241427703062,74.68265980970682 98.1831545222085,74.7385061887253 98.16241427703062,74.92466035577309 98.18730257122661,75.06427554723632 98.35322453266417,75.29231289361633 98.57307113159914,75.44588850668515 98.61455162194034,75.49708027773522 98.69336455363373,75.71115441502843 98.7389930930367,75.75303838310356 99.35290435038041,75.93918894753006 99.7677092539816,76.00434148892964 100.22814269698574,76.17187622356505 100.66783589481201,76.24633593376711 100.74664882649085,76.2882194742815 100.82131370915158,76.3533715819176 100.9084227388812,76.47902184655686 100.94990322926606,76.6232865938291 101.01212396479968,77.05607845387203 101.10338104359107,77.18638067973006 101.25685885793064,77.24222439167352 101.40204057419032,77.37252615491889 101.73388449706545,78.19621195039508 101.77121693838853,78.37304676166605 101.93713889984065,78.52661335076846 102.15283744971384,78.79186367263173 102.4805333235563,79.14087520976318 102.5469021081517,79.17810296994139 102.94511481560767,79.30839992245456 103.11103677704523,79.42938965989742 103.3184392288531,79.50384474418388 103.45947289606556,79.60622031246385 103.5507299748715,79.64810116915396 103.97797902558523,79.73186278219146 104.30567489942769,80.02502737420218 104.41352417437884,80.15532222236288 104.45500466472004,80.30423022384639 104.48404100799235,80.3461105230781 104.52966954738076,80.36007061538476 104.8781056664011,80.2763100057673 105.03158348074066,80.29957685520276 105.10210031435417,80.29027011665676 105.2306898344832,80.17393574566086 105.5003130218247,80.10413499917922 105.95245036676351,80.10413499917922 106.42117990781844,80.18789588381696 106.50828893757716,80.23442965079084 106.62028626154643,80.37868406602865 106.63687845770619,80.46244451212988 106.61613821252831,80.80679160726504 106.67006284998206,81.42568002709231 106.6534706538514,81.99337576451944 106.74057968359557,82.78907010360854 106.86916920371004,83.2125048600792 106.99775872382452,83.7987934951816 107.27982605829311,84.52001258935343 107.46234021587588,85.16212189052385 107.59507778503757,85.47386777500287 107.72781535418471,85.90658660408371 107.82322048200876,86.10200684087977 107.91862560983282,86.23228659434244 108.29609807212546,86.62312391369414 108.39150319996406,86.77201355524085 108.5906095536775,86.90694442792665 108.70675492670853,86.9395138969303 108.83119639777578,86.94881945578891 108.96393396693747,87.0 109.00541445729323,87.0 109.02615470248566,86.98138889880283 109.37873887053865,85.79026468897064 109.50732839065313,85.4319915698834 109.59858546944452,85.27379227103665 109.80598792126693,85.02253358057351 109.98020598076982,84.90155674486596 110.30375380559417,84.63633732107701 110.53604455159802,84.37111655637273 111.06699482821568,83.8453240585477 111.1375116618292,83.76156901475406 111.1914362992975,83.64989541499745 111.33661801554263,83.30091388336223 111.47350363375153,83.11478945043928 111.79290340954321,82.75184490661195 112.00030586133653,82.46800191072543 112.128895381451,81.9189242146349 112.15378367566154,81.63972996122902 112.24089270542026,81.26746864471352 112.23259660735494,81.20232264264996 112.1164512343239,80.9463911368548 112.0998590382078,80.85797814459511 112.12474733241834,80.63927168124792 112.40266661782516,79.69463541514051 112.6308093148109,79.25255841102626 112.70547419745708,79.05245917338834 112.7511027368746,78.83839867846109 112.82991566853889,78.09848719356523 113.14931544431602,77.21430254314328 113.41479058262485,76.02295648588915 113.63878523057792,75.16200596000635 113.81715133912803,74.04042217451934 113.9830733005656,73.32836690214754 114.04529403609922,72.54183708950222 114.04529403609922,72.39756110903545 114.00796159477613,71.96473078460622 114.03699793803389,71.7599496005023 114.4725430868275,70.70810636255555 114.4725430868275,70.21475668560379 114.49328333199082,70.07512857525217 114.60528065598919,69.78656263489393 114.77535066645942,68.97205342369489 114.78779481355741,68.78122372068174 114.85416359815281,68.45076088381393 114.8375714020076,68.22734820762344 114.7587584703142,67.78517447743798 114.69238968573336,67.5571044630924 114.6882416367007,67.5664134626968 114.6094287050073,67.41746927041822 114.3356574686477,67.11957961555163 114.24025234080909,66.9380522765423 113.87937207466166,65.90007618033269 113.70100596611155,65.28565911496116 113.8212993881607,64.91793636349394 113.84203963332402,64.33609129310935 113.70515401515877,64.03352930222536 113.6595254757558,63.87526541079569 113.58900864214229,63.33530265276568 113.47286326912581,62.76274985446071 113.40649448454496,62.134331041503174 113.29034911154304,61.87830640032189 113.26960886636516,61.789861233392 113.43967887684994,61.02643358338173 113.46041912202782,60.88212588665556 113.45212302393338,60.75178310908086 113.39819838647963,60.45851067332842 113.348421798044,59.95109892898836 113.15761154238135,59.26212832280362 113.09539080686227,58.926950155364466 112.90872860023228,58.58711454501827 112.80917542337556,58.10761671288856 112.78428712915047,57.888815272104694 112.86724810987653,57.069465583059355 112.83821176660422,56.66444139833038 112.78013908010325,56.48753329989631 112.77184298203792,56.31528010330658 112.84235981565143,55.57505045564176 112.8340637175861,55.49590578585048 112.63910541287623,54.91395600955002 112.3736302745674,54.5508160708232 112.34874198037141,54.49494816433071 112.31140953903378,52.97252475850837 112.38607442167995,52.82353904935371 112.61836516771291,52.646617968857754 112.65984565806866,52.57678053561176 112.64740151097067,52.53022219499326 112.41925881398492,52.27415058125189 112.30726148998656,52.0227335960044 112.02104610649985,51.97617476247615 112.3197056370991,52.018077714525134 112.20770831312984,51.71544452925809 112.15793172470876,51.4314333327311 112.17867196987208,50.94255799077655 112.13304343048367,50.41642990113178 112.0998590382078,50.26743691458978 112.06252659687016,50.19294026222269 111.92149292964314,50.03929058175345 111.86756829217484,49.92754507619975 111.80534755664121,49.51780951405817 111.79705145856133,49.32690889508376 111.88830853736727,48.71229729312472 111.90490073349793,48.39102017318146 111.8717163412075,48.02317872927233 111.73068267398048,47.10123564456808 111.46105948665354,46.38415756771428 111.14995580892719,45.74157275824473 111.12091946568398,45.369056210704 111.1541038579744,44.7963068435929 111.04210653399059,44.41447044786764 111.05869873015035,44.107136689948675 111.21632459350803,43.50177703634108 111.52328022218717,42.891753681942646 111.86756829217484,42.305006948157825 112.1703758718213,41.98369047092274 112.26578099964536,41.8486438260079 112.28237319577602,41.788105561623524 112.20770831312984,41.569235867220414 112.21185636216251,41.5086972793797 112.26992904867802,41.266542227123864 112.32385368614632,41.131493730117654 114.70898188187857,38.36525121917657 114.71312993092579,38.32799442890973 113.70930206420599,35.96213386968884 113.51434375949611,35.61283436127633 113.29864520962292,35.36599463438688 113.06635446360451,35.18901449002442 112.87969225698907,35.08189463786039 112.2782251467579,34.63944074834944 112.26163295059814,34.59286643684027 112.2782251467579,34.38328152139729 112.89213640408707,33.791781782503676 113.12442715010548,33.47507050902641 113.21983227792953,33.29808396138833 113.29449716059025,33.0" stroke="#ff1e00" stroke-linecap="round" stroke-linejoin="round" stroke-width="0.5"><title>2024-06-07 35.1km</title><desc>11594629734</desc></polyline><polyline fill="none" points="144.02517702593468,61.50355398230022 143.51534225023352,62.38609076241846 143.02675059018657,63.053954499424435 142.45318646740634,63.6741121915984 139.37293469707947,66.6556194969744 139.1180173092289,66.79873101232806 137.885916601168,66.82258292412735 137.52478363504633,66.70332334397244 136.8237608182244,66.20243252703222 134.95436664042063,65.0098315711366 134.16837136109825,64.43738122467767 133.5310778914718,64.00804266138584 133.1062155783875,63.69796438180492 133.0,63.53099900553934 133.06372934707906,63.29247685879818 133.84972462628502,62.36223845524364 134.7419354839949,61.59896350419149 136.05900865467265,60.358637066034134 137.01494885922875,59.54765128699364 137.33359559404198,59.21371525185532 137.60975609754678,59.04674707807135 137.94964594813064,58.999041866482 138.8843430369161,59.09445228127879 142.02832415420562,58.97518925744225 145.97954366647173,58.87977880012477 148.9323367427569,58.68895778350998 151.4177812745329,58.59354722412536 152.37372147920541,58.49813663077657 153.32966168376151,58.49813663077657 158.95908733282704,58.259609998523956 160.4036191975465,58.14034660276957 161.40204563352745,58.1641992861405 162.35798583796714,58.14034660276957 163.44138473644853,58.1641992861405 164.99213217932265,58.426578663435066 167.58379228960257,58.903631417575525 171.76868607394863,59.738471691380255 173.14948859170545,60.00084952521138 174.5940204563085,60.191669606545474 176.7608182533877,60.66871921447455 177.37686860747635,60.71642412850633 178.50275373726618,61.02650586242089 183.1762391817756,61.885191865905654 184.87568843434565,62.31453383463668 185.61919748224318,62.433795370336156 186.40519276156556,62.38609076241846 186.702596380841,62.26682920541498 186.91502753738314,62.02830593197723 187.0,61.67052062336006 186.95751376869157,51.1752720970544 187.0,47.69266686119954 186.97875688434578,46.57154457256547 187.0,45.283440825063735 186.97875688434578,42.945755222666776 187.0,40.5603406970331 187.0,38.9621010668925 186.93627065303735,38.818974664085545 186.8512981904205,38.72355701972265 186.7238394963788,38.67584818467731 186.5963808025699,38.69970260327682 186.4689221085282,38.77126584612415 186.38394964591134,38.89053787509329 186.29897718329448,39.224499273172114 186.38394964591134,40.48877793274005 186.40519276156556,41.63377986528212 186.36270653025713,42.778776898019714 186.40519276156556,45.99905478369328 186.3414634146029,48.122031600098126 186.3202202989487,51.41380504379049 186.40519276156556,54.65783200977603 186.49016522418242,55.516538447729545 186.36270653025713,57.400912362354575 186.42643587721977,63.030102251825156 186.40519276156556,67.22806509915972 186.4476789929904,75.1944726597867 186.42643587721977,77.69883324118564 186.4689221085282,78.98678098883829 186.4476789929904,80.68018433870748 186.36270653025713,80.9425416457816 186.1927616050234,81.15719743314548 185.9166011015186,81.30030119573348 185.57671125093475,81.3241518153227 176.67584579065442,79.08218427927932 173.0857592447428,78.24740433567786 169.36821400478948,77.269515948341 166.22423288749997,76.50628350538318 163.44138473644853,75.71919776950381 162.37922895350493,75.50453762162942 160.4036191975465,74.97981209127465 158.98033044848125,74.71744894026779 157.08969315502327,74.14501935482258 155.13532651460264,73.7156963624002 154.49803304485977,73.62029115943005 151.6939417781541,73.40562932848115 148.08261211647186,72.64238586879219 147.33910306857433,72.61853447562316 145.9583005508175,72.85704831179464 145.70338316296693,72.78549418327748 144.95987411495298,71.99839750688989 144.25885129824746,71.4498136061593 139.98898505116813,68.5399149863515 139.90401258855127,68.25369374113507 139.9677419355139,67.3711763083702 140.0739575139014,67.1088056996523 141.1573564123828,66.15472859083093 142.70810385525692,64.60434603551403 143.47285601892509,63.81722530111438 144.0464201415889,63.053954499424435 144.61998426436912,62.07601060369052 145.1298190401867,61.002653434086824 145.46970889065415,60.120112092001364 145.66089693154208,59.35683074648841 145.809598741238,59.09445228127879 146.0645161290886,58.92748403301812 146.53186467348132,58.85592618052033 147.65774980327114,58.85592618052033 150.46184107009321,58.68895778350998 151.24783634929918,58.52198928230791 151.46026750595775,58.378873341251165 151.60896931553725,58.14034660276957 151.65145554684568,57.71099793771282 151.56648308422882,55.516538447729545 151.63021243119147,53.34591407573316 151.63021243119147,50.88903228039271 151.58772619988304,50.29269834558363 151.50275373726618,50.125724605692085 151.29032258072402,50.05416439950932 150.97167584579438,50.05416439950932 149.9095200629672,50.43581861117855 148.91109362710267,50.72205891262274 147.7214791503502,51.222978703444824" stroke="#4dd2ff" stroke-linecap="round" stroke-linejoin="round" stroke-width="0.5"><title>2024-06-05 10.4km</title><desc>11578256068</desc></polyline><polyline fill="none" points="67.0,120.06889173630043 65.50741573033156,121.51315728719055 65.32539325841935,121.60853283392498 64.694382022426,121.71753338590497 64.56089887639973,121.82653386016318 64.48808988759993,121.94915930085699 64.45168539322913,122.18078486491868 64.45168539322913,122.50778506387724 64.39101123594446,122.65765992131492 63.86921348312171,123.08003372921667 63.2139325842727,123.76127934792021 62.40089887636714,124.55152046312287 62.04898876399966,124.93301471220911 61.73348314606119,125.38263171243307 61.04179775278317,126.0229930364585 60.43505617970368,126.60885317534849 60.143820224679075,126.90859470400028 59.94966292130994,127.16746191504353 58.95460674155038,128.17567740195955 57.94741573027568,129.15663744151243 57.57123595505254,129.49724709462316 57.02516853931593,130.0422209615499 56.600449438148644,130.3692043495248 54.853033707884606,132.01773494962254 53.955056179722305,132.7806852452486 53.50606741569936,133.12128682695038 52.98426966293482,133.46188765016268 52.41393258422613,133.8024877147982 51.261123595468234,134.38831805170048 50.03550561796874,134.79703556255845 49.17393258429365,135.04226554477646 48.99191011232324,135.0286416671879 48.59146067412803,135.16488038846 47.99685393256368,135.23299970357039 47.82696629210841,135.2057519811642 47.66921348311007,135.26024742113077 47.31730337074259,135.30111898834002 46.237303370726295,135.28749513383082 45.69123595504789,135.26024742113077 45.14516853925306,135.21937584294938 44.50202247191919,135.13763265390298 41.84449438203592,134.55180518713314 38.83505617972696,133.856983654754 38.22831460670568,133.70711977314204 34.357303370779846,132.8351815493079 33.79910112352809,132.6853166664514 33.265168539306615,132.45370701317734 32.791910112369806,132.15397635298723 32.33078651683172,131.96323835429212 32.02741573029198,131.8542451053945 31.96674157300731,131.86786926572677 31.748314606724307,131.99048665439477 30.789662921335548,132.6035721229855 29.491235955036245,133.39376754617842 29.35775280900998,133.3801435217756 28.775280898844358,133.09403872836265 28.35056179773528,132.95779816238792 27.78022471902659,132.8079333997157 26.724494382040575,132.4945793303923 25.802247191022616,132.18122461912571 25.341123595484532,131.908741739564 24.904269662918523,131.62263419351075 24.52808988757897,131.32290190452477 23.48449438199168,130.3692043495248 22.732134831428993,129.56536893418524 22.465168539318256,129.33375455580244 22.14966292132158,128.9113980215625 21.8705617976957,128.43454246803594 21.336629213474225,127.64432141974976 21.15460674156202,127.31733220533351 20.54786516848253,126.82684707266162 20.293033707886934,126.58160391633282 19.564943820238113,126.11836577017675 18.484943820221815,125.15101099865569 17.829662921314593,124.64689411467407 17.562696629203856,124.41527228638006 16.931685393268708,124.0337767455494 16.312808988790493,123.52965617814334 15.97303370787995,123.20265816459141 15.002247191034257,122.34428505180404 14.492584269726649,121.64940805001243 13.861573033675086,121.10440427016874 13.703820224676747,121.04990378537332 13.206292134826072,121.03627866110764 13.0,120.9681530216767 13.0364044943708,120.95452789017872 13.38831460668007,121.07715403022303 13.800898876332212,121.11802938836627 13.958651685388759,121.1725298489182 14.626067415694706,121.78565869144222 14.953707865148317,122.28978500890662 15.17213483148953,122.53503504888795 15.863820224709343,123.12090855193674 16.422022471902892,123.65228025290708 16.94382022472564,124.07465131331992 17.599101123574656,124.46977157166111 18.38786516856635,125.09651195615879 19.115955056156963,125.73687447840348 19.79550561797805,126.28186174668372 20.4265168539132,126.70422554366814 21.008988764020614,127.22196021940908 21.227415730361827,127.4263286878122 21.652134831470903,128.14842842213693 22.31955056177685,129.17026184224233 22.647191011172254,129.53812020200712 23.217528089822736,130.06946960392816 23.59370786510408,130.5054472214979 24.09123595507117,130.9822963176266 24.746516853920184,131.55451327032642 25.474606741569005,132.0449832400045 25.984269662876613,132.30384175651125 27.610337078629527,132.8079333997157 28.217078651709016,132.95779816238792 28.860224719101097,133.14853492072143 29.442696629150305,133.42101559140428 29.576179775234777,133.43463961219823 29.758202247146983,133.35289546925924 31.76044943818124,132.0722315255116 33.10741573036648,131.25478084784118 33.702022471872624,130.85967812062881 34.29662921349518,130.35558005567873 36.323146067385096,128.52991369769734 37.36674157297239,127.67157048943045 38.11910112359328,126.96309310068318 38.8107865168713,126.22736310727487 39.27191011235118,125.72324977182143 39.417528089892585,125.46438011586724 39.55101123591885,125.08288719248958 40.0728089887416,122.8347845634562 40.15775280899834,122.38516007117869 40.182022471912205,122.08540967515728 40.133483146026265,121.7311584494455 40.1092134831124,121.25428050332994 40.15775280899834,120.8727770754922 40.254831460653804,120.586648879922 40.67955056176288,119.7963872722321 40.78876404487528,119.48300653806655 40.849438202159945,118.89711909471953 40.897977528045885,118.52923513391579 41.00719101121649,118.2976040377398 41.56539325841004,117.64358493073087 41.941573033691384,117.08494139452523 42.26921348308679,116.68980205093976 42.77887640451081,115.55888035407406 42.99730337073561,115.02748052297102 43.03370786510641,114.79584412105032 43.00943820225075,114.56420736818109 42.94876404496608,114.3461959859851 42.77887640451081,114.10093280942237 41.84449438203592,113.07899867123342 41.17707865167176,111.97530212829588 40.75235955050448,111.3212559720996 40.41258426965214,110.6944591128995 40.38831460673828,110.51732040423667 40.4368539325078,110.34018149033363 40.55820224719355,110.17666846451175 44.65977528085932,107.80570993303263 45.315056179708336,107.45142561470857 45.99460674158763,107.02900862343085 46.63775280897971,106.64746969231055 46.97752808989026,106.48395271599293 47.36584269662853,106.23867692347267 47.86337078647921,106.02065366636089 48.43370786512969,105.7072446893726 48.7613483145833,105.63911221799208 49.19820224714931,105.59823272061476 49.56224719097372,105.59823272061476 49.8777528089704,105.69361819753249 51.103370786469895,106.197797586472 51.61303370783571,106.48395271599293 52.098426966229454,106.8382392769563 54.34337078651879,108.90943658344622 54.98651685391087,109.46810999793524 55.0714606741094,109.48173615333508 55.168539325823076,109.44085768367222 55.53258426964749,109.05932477317401 56.39415730332257,108.35076112690149 56.612584269663785,108.18724597281835 56.685393258405384,108.15999343016301 56.75820224720519,108.18724597281835 56.87955056177452,108.28262983397872 57.134382022486534,108.70504336064914 57.1950561797712,108.75954824678774 57.2678651685128,108.78680068257381 57.340674157312606,108.77317446528468 57.656179775251076,108.65053845504008 57.813932584249415,108.66416468327225 58.299325842701364,109.03207238597679 58.80898876400897,109.18196045537479 58.978876404464245,109.34547454533458 59.28224719100399,109.78151126329612 59.658426966227125,110.27205108416092 59.779775280854665,110.46281614490726 59.901123595482204,110.55819858598989 60.386516853934154,110.76258933078498 60.7626966292155,110.98060582396283 61.40584269660758,111.19862200620992 61.672808988718316,111.15774399573274 61.830561797716655,111.07598794194928 62.02471910108579,110.8852236464736 62.15820224711206,110.65358096759883 62.206741572998,110.40831186615105 62.18247191008413,110.13579018073506 62.00044943817193,109.72700674155203 62.00044943817193,109.37272687662335 61.95191011228599,109.30459603926283 61.672808988718316,109.11382953295833 61.1631460673525,108.62328599496686 61.13887640449684,108.55515482352348 61.187415730324574,108.41889238949807 61.33303370780777,108.2144985106861 61.393707865150645,108.06460949250322 61.393707865150645,107.62856787652709 61.44224719097838,107.46505194983911 61.61213483143365,107.27428314757708 61.66067415731959,107.1243932073703 61.61213483143365,106.74285451437754 61.64853932580445,106.59296405299392 61.757752808975056,106.37494130124105 61.76988764043199,106.23867692347267 61.70921348314732,106.14329178674961 61.47865168534918,105.96614780346863 61.24808988766745,105.87076249667734 60.7626966292155,105.77537713032507 59.452134831401054,105.82988306124753 59.015280898835044,105.87076249667734 58.3478651685291,105.66636521017062 58.020224719075486,105.44834113663819 57.66831460670801,105.31207593274303 57.134382022486534,105.17581060733937 54.634606741543394,104.69888101165998 54.51325842697406,104.73976074960956 54.41617977526039,104.90327959206479 54.37977528083138,105.02591860904067 54.404044943803456,105.14855752770382 54.90157303365413,105.69361819753249 55.22921348316595,106.12966533376311 55.568988764018286,106.51120555753005 55.95730337075656,106.98812949781131 56.1150561797549,107.13801957164833 56.454831460665446,107.32878854399314 56.600449438148644,107.50593094795477 56.72179775277618,107.75120470677211 56.733932584233116,107.9147203272878 56.67325842694845,108.05098321080732 56.21213483141037,108.37801363559265 55.350561797677074,109.14108190557454 55.19280898873694,109.34547454533458 55.204943820193876,109.48173615333508 55.26561797753675,109.63162378178095 55.47191011236282,109.82238964180578 56.13932584266877,110.35380756792438 57.11011235951446,111.02148388185014 57.46202247188194,111.30762998072896 57.91101123590488,111.58014957689738 59.585617977543734,112.68384897292708 60.64134831452975,113.16075365367578 61.102471910067834,113.31063767468731 61.85483146063052,113.51502473912842 63.96629213477718,113.99192682684225 64.45168539322913,114.04642982780933" stroke="#4dd2ff" stroke-linecap="round" stroke-linejoin="round" stroke-width="0.5"><title>2024-06-02 14.5km</title><desc>11553994390</desc></polyline><polyline fill="none" points="78.96539999595552,106.20314546944792 79.03213016349764,106.23124369415018 79.05715397633321,106.282757067067 79.07800715370104,106.37641761570194 79.14056668577541,106.49817607932346 79.1530785921932,106.50285909151353 79.16976113409328,106.48412704022121 79.17393176954647,106.41856480810748 79.13222541483992,106.16099810422747 78.89866982839885,105.33677616632849 78.64426106458995,104.31116376691352 78.34814594607451,103.02326595629347 78.30226895588567,102.77504929437418 78.2689038720855,102.40974716792698 78.27307450755325,102.00697521186521 78.29392768493562,101.86178921456667 78.28141577850329,101.68381873488761 78.29809832038882,101.52458147872676 78.31061022682115,101.06560080381314 78.34397531059221,101.00939881286104 78.44824119740224,100.9016781621176 78.70264996119658,100.5972490415661 79.03630079897994,100.03522141349458 79.09051906011882,99.98370191330832 79.16559049861098,99.9509167504948 79.2406619371177,99.9462331541472 79.72862628736766,100.01648705563639 79.87459852889879,100.0211706457194 80.05393585418642,100.05863935141679 81.00067010639759,100.1523109986847 81.1633248897997,100.13826026223978 81.288443953963,100.10547519593092 81.50531699851854,99.99775269109523 81.72219004307408,99.90408076814128 82.6689242952707,99.44040228897939 83.54058710894606,98.98608708087704 84.14949988790613,98.71443281061511 84.38722610981495,98.59734001931793 84.85016664722934,98.40062354212932 85.05869842082029,98.3256837379231 85.84277788961481,98.09617992222047 86.98136137351685,97.79641832566995 87.15235742786899,97.75894800576498 87.29415903393237,97.76363179721011 88.0281908770412,97.87604266666312 88.19084566045785,97.8807264476709 88.38686552766012,97.85262375537422 88.93738940998446,97.73552904225289 89.08336165151559,97.72147765912086 89.26686961228552,97.74489662890483 89.74649269158544,97.84325618793082 89.93000065236993,97.85262375537422 90.11767924862215,97.83388861881758 90.3303816576954,97.79173453713884 91.91105250167311,97.15941925073275 92.11958427527861,97.08447767501275 92.29058032963076,97.05169070200282 92.47408829041524,97.04232299166324 92.7159851477918,97.05169070200282 93.83788608982286,97.11726462755178 94.20073137589497,97.12663232451814 94.41343378498277,97.070426117647 94.59694174576725,97.00016827446962 96.9908865068137,96.00718070291623 97.5747754729091,95.77766675247403 97.9876683846669,95.67930332368633 98.95108517874905,95.48725990776438 100.07715675623331,95.24837565388589 100.30237107172434,95.22495557047296 100.53592665817996,95.22495557047296 103.59300245929626,95.37484392369879 103.95584774539748,95.37484392369879 104.09347871597856,95.34205588300756 104.25196286391292,95.25774368430939 104.82333992360509,94.9064413989363 105.0235304262751,94.83149660713389 105.10277250024956,94.82212850063297 105.2320621998806,94.84554876375478 105.4364233380038,94.91112544487987 106.96704655631038,95.4357359449532 107.11301879782695,95.46852392714572 107.24647913295485,95.46852392714572 107.88458636020368,95.3701599191445 108.08477686285914,95.29989980058599 108.92724522826029,94.96264992258511 109.15663017923362,94.88302116299019 109.24421352414356,94.85960091659217 109.72383660344349,94.80339228262892 109.86980884496006,94.77528794307 110.06165807668003,94.7050270283471 110.2118009536789,94.60666158974345 110.41616209183121,94.42866651805525 111.69654718178208,93.26699964797808 111.84251942332776,93.12647368676335 111.90090831993439,93.08431582502453 112.05939246786875,93.01405264690766 112.1386345418432,93.0 112.21370598033536,93.02342107609002 112.27626551242429,93.0655789867269 112.36384885734878,93.18268411639292 114.01124986886862,95.96502515458269 114.09883321379311,96.09617563823122 114.27817053908075,96.30695251487487 114.42831341609417,96.43810214437326 114.6535277315852,96.61140650944071 115.25826987504843,96.9908005549405 116.24253984648385,97.59033123531117 116.6637740291917,97.80578590145888 116.86396453184716,97.89477778817309 117.23098045340157,98.03529098641957 117.798186877626,98.19922257580765 118.31951631164702,98.3256837379231 118.57392507544137,98.40530727633814 118.78662748452916,98.50834932331054 118.99515925814922,98.63949345426227 119.17866721891914,98.80342315736925 119.33298073138576,98.97671971563977 119.68748474653694,99.4638204921539 119.82094508163573,99.62306399678346 119.96274668769911,99.76357257043492 120.12957210656896,99.89002996529234 120.7593380628823,100.30686885139221 120.89696903347794,100.41927427676274 121.02625873310899,100.56446426179173 121.15554843274003,100.74243853454755 121.34739766447456,101.08433478742882 121.71858422151126,101.86178921456667 121.85204455661005,102.17557780188508 121.88540964039566,102.26924567358947 121.94796917247004,102.5736651030129 121.96048107887327,102.87808276811847 121.89375091133115,103.2386983347169 121.09298890065111,105.60371309605762 121.03877063952677,105.79571952264814 120.96786983650236,106.15163201847463 120.95118729460228,106.49349306670047 120.95535793008457,108.16530204708033 120.98455237838789,108.73660832781025 121.13469525538676,110.33810594020179 121.1388658908545,110.53009506801027 121.11384207803349,110.88597549876067 120.98455237838789,111.452569633253 120.38815150586015,113.68610850320329 120.3005681609502,114.04196756661622 120.1796197322401,114.5008349083655 120.15459591940453,114.54297558588951 120.05867130354454,114.95501598622286 119.81677444618254,115.83527329542994 119.4706117019814,117.16031368978656 119.34549263780355,117.78770632709711 119.23288548007258,118.51341235411019 119.1369608642126,119.04246914573014 118.97013544531364,119.71197586317794 118.77828621359367,120.60151705790122 118.71155604605156,120.80751392592356 118.64899651396263,121.20546013621424 118.64482587848033,121.46763481775997 118.66150842038041,121.67830995417899 118.79913939094695,122.27287745470312 118.83250447473256,122.4882309543973 118.83250447473256,122.73635454573014 118.80331002642924,122.99852159701913 118.74492112982261,123.27005037987692 117.72728607458703,128.9016159136736 117.64387336515938,129.22928612638134 117.54377811383165,129.51014468493304 116.8264288125938,130.99867002366227 116.76803991598717,131.20462618917009 116.7054803839128,131.485474207042 116.47609543292492,132.92245645045477 116.39268272349727,133.56370296942987 116.3634882751794,133.95687215479848 116.33846446234384,135.2674149006889 116.30509937857278,135.8290660915045 116.24671048196615,136.44219513482676 116.12159141780285,137.2752903330511 116.09656760496728,137.64035036783753 116.10073824043502,137.85096077518392 116.12576205327059,138.26281869319428 116.32595255592605,140.05997918934372 116.37182954612945,140.70113879549172 116.38017081707949,140.94917654944584 116.37182954612945,141.2065729836795 116.34263509782613,141.46864806079248 116.13410332422063,142.76028474913255 116.08405569854949,143.02235209653736 116.02149616647512,143.26569918037058 115.94642472798296,143.49968570095007 115.87552392492944,143.6728350571102 115.40007148109726,144.49645663562478 115.2040516139241,144.87082582412768 115.04139683049289,145.2498719173891 114.38243642590533,146.92980881610856 114.3574126130552,146.9719235376724 114.29902371644857,147.0 114.19892846510629,147.0 114.15722211039974,146.97660294909292 113.8611069918843,146.38699383674975 113.15626959706424,144.89890340603597 112.9852735427121,144.51985478783536 112.91854337515542,144.33734892499706 112.8601544785488,144.13612377932077 112.69332905964984,143.31249656762884 112.65162270491419,143.15338528136272 112.58906317285437,143.03171162054787 112.4806266505766,142.8959983596469 110.69976530392887,141.37037005967068 110.41616209183121,141.1129744258542 109.42772148491349,139.95233849031865 109.24421352414356,139.69961598455848 108.7520785384113,138.96952193366815 108.5852531195269,138.80103725384106 108.46430469084589,138.71679471179232 107.63434823187708,138.25345832174935 107.50505853221694,138.16921490376262 107.40913391635695,138.08029114969395 107.31320930049696,137.96796619308589 106.94202274347481,137.32677331175364 106.78353859554045,137.09275936661288 106.30808615170827,136.48899858528603 106.20382026491279,136.33922739735863 106.10789564905281,136.18009504339352 105.92438768825377,135.8243856896661 105.80343925957277,135.64653011165137 105.18201457420946,134.97722610464552 104.84419310095836,134.6402306568889 104.31035176051955,134.21898331380362 104.09764935144631,134.0177195044489 103.43868894681509,133.33435292193826 103.35110560190515,133.25010163314073 103.2218159022741,133.16585020949424 103.11337938001088,133.11436316201434 102.95906586752972,133.07691800493922 102.5586848621897,133.06287606418118 102.25422847272421,133.02543087046797 102.04986733458645,132.9458597454286 101.93726017684094,132.88501115688632 101.83299429003091,132.81480115963132 101.73706967417093,132.72118768429573 101.44512519112322,132.3654549597195 100.85289495407778,131.57440910031073 99.53080350937671,129.50078275712804 99.40985508068115,129.33226777189338 99.29724792295019,129.18715721331318 98.76757721796457,128.55053842176494 98.204541429237,127.89518750358911 98.09193427146238,127.82028973611887 97.9876683846669,127.77347857733184 97.87089059145364,127.75007298231867 97.71657707897248,127.75475410214858 96.76567219130811,127.89050639624838 96.57382295958814,127.89518750358911 96.42368008257472,127.86710085328377 96.2735372055904,127.81560862212064 95.28926723415498,127.39898780781368 95.13495372168836,127.28664005726023 94.73874335181608,126.91214582297471 94.5552353910607,126.7670285906861 92.86195738932292,125.61075763435656 92.73683832515962,125.51245002474025 92.35731049718743,125.0911296172344 92.26972715227748,125.00686513086112 92.18214380735299,124.94132599259683 92.08204855602526,124.89451227242898 91.98195330469753,124.8711053967163 91.52735403821862,124.82429161406617 91.19370320044982,124.77747778974663 91.07275477175426,124.7353453122596 90.92678253023769,124.65108025603331 90.82251664341311,124.53872663778748 90.7516158403887,124.42637277961694 90.68071503736428,124.23911581610082 90.52640152489766,123.7428816392312 90.459671357341,123.57434821244897 90.38042928338109,123.4479477880268 90.28033403202426,123.34027311286627 90.15104433239321,123.25132430192025 89.77568713988876,123.05470008088378 89.57966727270104,122.93297995669855 89.24184579947905,122.6380415646272 88.92487750356668,122.39459910634832 87.50686144302017,121.50976991256539 87.33586538866803,121.38336452692238 87.2232582308934,121.27100392911234 87.15235742786899,121.15864309128301 87.09396853126236,121.00414654731867 87.0647740829736,120.84964954953102 87.08562726032687,120.40020115733205 87.08145662484458,120.21292986033222 87.056432812009,120.09120315970722 86.98970264446689,119.95543073816953 86.91880184144247,119.86179438115505 86.8103653191647,119.75879419589546 86.68107561953366,119.68388484354 86.32657160439703,119.48724728596062 86.19311126928369,119.38424636713535 85.67178183526266,118.75219085712888 85.49244450994593,118.60236917803923 82.79821399490174,117.03857992284247 82.5396345956251,116.81383992037445 81.8681622846052,116.083428278067 81.7013368657208,115.88677725608068 81.60958288532856,115.73226522279583 81.5428527177719,115.55902391822383 81.21754315095313,114.38845960317121 79.6160191296076,110.6143827562264 79.41999926243443,110.18357759619175 79.33241591749538,110.01968340148596 79.24900320805318,109.89793309742163 79.02378889256215,109.68721075074063 78.05203082754451,109.0035279858239 78.03951892112673,108.95201728020038 78.04368955659447,108.78343643604967 78.05620146301226,108.74597395278761 78.15629671433999,108.6616832678119 78.57753089703328,108.2449106717686 78.83193966085673,107.94520698646011 78.86947538009554,107.8796465774285 78.87364601556328,107.76725711451218 79.00710635067662,107.47223363059675 79.09051906011882,107.24745272149448 79.09886033106886,107.18657439311937 79.04881270539772,107.07418344774123 79.04047143444768,107.00862195190348 79.07383651823329,106.74637515054201 79.069665882751,106.54032317404926 79.04464206991543,106.33895341628158 79.01961825707986,106.30617221987632" stroke="#ff0000" stroke-linecap="round" stroke-linejoin="round" stroke-width="0.5"><title>2024-06-01 38.4km</title><desc>11545145550</desc></polyline><polyline fill="none" points="180.10000000003492,117.21993767449749 180.08965517242905,116.3950308487183 180.0689655172755,116.04647709817073 180.05862068966962,115.55850027983251 180.08965517242905,115.14023297988751 180.0689655172755,114.67548995957623 180.07931034488138,113.51362515099754 180.04827586212195,111.61976328792662 180.04827586212195,109.88854030388029 179.96551724139135,106.36792858838453 179.95517241384368,106.05420609221619 179.9034482759307,105.57781122623419 179.91379310342018,104.61339676960051 179.93448275863193,104.17185523607623 179.83103448274778,103.06799484903604 179.6241379310377,101.68525126071472 179.5413793103653,101.19722060442291 179.48965517239412,100.6975682746779 179.3448275862611,99.72149772450211 179.2931034482899,99.24507967832324 179.32413793104934,99.12887989030423 179.44827586208703,98.98944000771007 179.55172413797118,98.90810000719648 179.67586206895066,98.86161998407624 180.1931034483132,98.86161998407624 180.97931034484645,98.72217981510039 181.5275862069102,98.59435952900822 181.99310344830155,98.5130192815559 182.8620689655654,98.43167898327374 184.39310344832484,98.42005893649912 186.1931034483132,98.43167898327374 186.56551724142628,98.39681883985759 186.8758620689623,98.29223835362063 186.9586206896347,98.2225179827874 187.0,98.11793735648098 187.0,97.87391556825605 186.93793103448115,97.60665308473108 186.9172413793276,95.53825530182803 186.89655172417406,95.11992366320919 186.84482758620288,95.02696089420351 186.5965517241857,94.82941478957218 186.21379310346674,94.65510915406048 185.85172413795954,94.55052566064114 185.665517241403,94.46918288545567 185.40689655172173,94.44594208322815 185.07586206897395,94.46918288545567 184.25862068968127,94.81779442112747 183.97931034484645,95.06182194037683 183.90689655177994,95.17802536010277 183.8758620689623,95.41043188825279 183.9172413793858,96.63055935123703 183.90689655177994,97.8158150750387 183.84482758620288,97.94363612586312 183.73103448277107,98.04821689224627 183.57586206897395,98.0714570511409 183.2344827586785,98.036596811231 182.91379310347838,98.02497672919708 182.3034482758958,98.0714570511409 181.70344827591907,98.14117750293372 181.1241379310377,98.25737817288609 180.21379310346674,98.46653911733301 179.85172413795954,98.6175995903759 179.64482758624945,98.67569972560887 179.5413793103653,98.75703987136512 179.25172413798282,99.14049987377803 179.0965517241857,99.25669965140696 178.98275862069568,99.3147995013569 178.85862068965798,99.39613924766309 178.806896551745,99.45423903532355 178.7758620689856,99.52395874629292 178.78620689659147,99.6633980561528 178.86896551726386,99.97713595712412 178.9724137930898,100.68594843024039 179.2931034482899,103.0331359474585 179.39655172417406,104.2183333627836 179.52068965521175,105.124653516119 179.43793103453936,106.37954792557866 179.48965517239412,111.05043746467709 179.47931034484645,112.35174997369904 179.51034482760588,113.00240135044442 179.5,114.28045708800346 179.53103448275942,118.05645756931335 179.56206896551885,119.35770005734958 179.55172413797118,120.68216566488991 179.57241379312472,121.414101405564 179.6241379310377,121.77425875185145 179.59310344827827,122.27383019609988 179.68620689655654,122.8198712104786 179.72758620692184,123.16840683104238 179.71724137931596,124.39989188667096 179.7482758620754,125.1434243955373 179.68620689655654,125.24798331417696 179.57241379312472,125.30607156602491 179.06551724136807,125.39901271509734 175.31034482765244,126.45621361781377 174.85517241380876,126.6304766789981 174.44137931038858,126.79312199244305 171.5965517241857,128.05942498633522 168.46206896554213,129.68585113784502 166.99310344830155,130.3828847002369 166.86896551726386,130.40611908805295 166.7655172413797,130.34803311069118 166.6931034483132,130.20862665931054 166.66206896555377,129.9530477776134 166.67241379310144,129.40703666847548 166.64137931040023,128.9539618828785 166.64137931040023,127.42046629887773 166.67241379310144,126.68856431425957 166.64137931040023,126.22386250683485 166.63103448279435,125.7475414334258 166.62068965518847,124.84136482575559 166.64137931040023,124.36503869617445 166.62068965518847,123.01737484331534 166.5689655172755,122.68045670106221 166.4862068965449,122.5294241474403 166.35172413795954,122.41324514086591 166.17586206900887,122.36677350918762 165.12068965518847,122.44809885370341 164.61379310349002,122.43648095044045 164.12758620688692,122.47133465707157 163.22758620692184,122.45971675591136 162.7620689655305,122.506188354404 161.2620689655305,122.5294241474403 160.75517241383204,122.5642778291949 159.78275862074224,122.5642778291949 158.88275862071896,122.61074939037644 158.7068965517683,122.59913150165085 158.3034482758958,122.34353768712754 158.20000000006985,122.3086839462776 158.10689655179158,122.33191977454408 157.74482758622617,122.57589572105644 157.51724137936253,122.59913150165085 156.96896551729878,122.5642778291949 155.7068965517101,122.5294241474403 153.88620689656818,122.44809885370341 151.96206896554213,122.41324514086591 150.01724137930432,122.3086839462776 148.19655172416242,122.26221227732458 147.77241379313637,122.2273585146977 146.6241379310377,122.21574059176783 146.11724137933925,122.40162723443791 145.806896551745,122.61074939037644 145.49655172415078,122.9011962720324 145.42413793108426,123.04061054516205 145.41379310347838,123.26134950567211 145.51724137936253,123.72606188381906 145.55862068972783,124.34180323062174 145.67241379315965,125.60813005802629 145.72413793107262,126.11930437165574 145.78620689659147,126.58400655216974 145.7758620689856,126.804739507068 145.70344827591907,126.9906195999938 145.55862068972783,127.1648819461916 145.42413793108426,127.23458681937336 145.02068965521175,127.26943924200168 143.32413793104934,127.327526592293 142.3206896552001,127.37399645386176 142.11379310349002,127.40884883915714 141.65862068970455,127.40884883915714 138.3482758621103,127.58311062579742 136.6931034483132,127.64119783620117 133.74482758622617,127.78060703544907 133.3206896552001,127.8154593119616 133.15517241385533,127.86192899943126 133.06206896551885,127.96648573570565 133.01034482760588,128.09427718822553 133.0,128.33824234037456 133.05172413797118,128.8029366041228 133.11379310349002,129.69746839442814 133.11379310349002,130.53390814710292 133.18620689661475,132.09060116469482 133.31034482765244,132.9154085821283 133.45517241384368,133.70536008589988 133.47586206899723,133.91446409389755 133.51724137936253,134.75087676953262 133.68275862070732,136.05195248011296 133.78620689659147,136.79541848089866 133.93103448284091,137.5737299048924 134.07586206903215,138.14293979378272 134.35517241386697,139.13033880454896 134.48965517245233,139.64146005906514 134.64482758624945,140.18742827523965 134.84137931041187,140.77985928352427 135.07931034488138,141.3606713825502 135.3482758621103,141.918248562004 135.57586206903215,142.30158148880582 135.9172413793276,142.66168108976126 136.03103448281763,142.71976157736935 136.165517241403,142.73137767177104 136.2793103448348,142.65006498913863 136.5275862069102,142.32481375115458 136.71379310346674,142.18542011489626 137.28275862074224,141.88340005817008 138.1931034483132,141.3490551659561 138.29655172419734,141.3606713825502 138.48275862069568,141.1864280246955 141.10000000003492,139.69954189292912 142.98275862075388,138.65406492177863 143.43793103448115,138.5727496946347 143.61379310343182,138.5495167632689 143.8206896552001,138.56113322945748 143.91379310347838,138.5146673584386 144.20344827586086,138.56113322945748 144.75172413798282,138.828311666206 145.331034482806,139.07225671692868 145.87931034486974,139.36266689606418 146.11724137933925,139.53691269285628 147.9586206896929,141.24450916987553 148.39310344826663,141.6278440787646 149.2620689655887,142.3480460093415 150.48275862075388,143.2308687520199 152.0965517241857,144.31115686545672 152.5000000000582,144.55509165165859 152.88275862071896,144.76417824778764 153.26551724143792,144.9268009239604 153.75172413798282,145.0778075129856 155.73793103452772,145.55405791677185" stroke="#4dd2ff" stroke-linecap="round" stroke-linejoin="round" stroke-width="0.5"><title>2024-05-26 16.2km</title><desc>11499346637</desc></polyline><polyline fill="none" points="59.64520368544618,189.127708672866 58.42072663462022,190.2791465822811 57.716652330360375,190.96656892255123 55.16055648657493,193.40689844179724 54.73198951873928,193.78497490056907 52.55854275339516,195.8987523559481 52.0228340436006,196.44867440061353 51.594267075823154,196.964224893527 50.783051029604394,197.875027396527 49.57387994177407,199.06078270138823 48.15042537014233,200.3496388955973 46.895336393034086,201.44945603817177 45.533105673850514,202.73829627214582 44.52291210682597,203.5975183108385 43.39027083473047,204.4395521956758 42.76272634608904,204.83479132311186 42.10456993128173,205.19566112356551 41.415801590133924,205.5737144761515 40.89539884350961,205.79710929081193 40.20663050242001,206.07205639992026 39.471944271877874,206.32981895879493 38.01787777390564,206.72505421342794 37.74237043742323,206.74223833657743 37.359721358981915,206.62194944245857 37.1454378751223,206.6735018348263 36.977072280598804,206.81097481383767 36.74748283356894,206.82815892930375 36.594423202157486,206.89689537596132 36.11993834498571,206.9656317980989 35.446475967008155,207.0 34.75770762586035,207.0 33.41078286990523,206.93126359008602 31.773044814297464,206.75942245821352 31.20672417822061,206.62194944245857 30.686321431596298,206.41573973521008 27.426151283551008,205.67681980738416 18.900729816639796,203.68344030421576 18.410938996239565,203.51159627917514 17.82931239710888,203.15072332834825 17.27829772408586,202.78984970241436 17.155850019073114,202.63518937032495 17.109932129620574,202.42897540134436 17.171155982243363,202.3430528492172 17.660946802643593,202.0681004251528 18.25787936488632,201.69004020220018 18.885423853469547,201.22605618859234 20.67622154043056,199.6106957309239 23.997615540982224,196.72363483496883 25.52821185463108,195.1426069844165 25.83433111733757,194.74734799673024 26.03330863820156,194.3177177436155 26.752688905515242,191.31027917382016 26.875136610644404,190.58848693862092 26.875136610644404,190.34788892658253 26.798606794909574,189.69483566652343 26.798606794909574,189.127708672866 26.890442573756445,188.64650870366313 27.10472605767427,188.14812175551197 27.563904951734003,187.3575742992689 27.686352656863164,186.9794852398045 27.747576509369537,185.9998874100129 27.82410632504616,185.70772569034307 28.053695772134233,185.3640054534917 28.68124026071746,184.62500486944919 29.247560896736104,183.88600145335658 29.599598048895132,183.3532297917991 30.36489620571956,181.63460149551975 30.472037947678473,181.3080603875278 30.472037947678473,180.94714588786883 30.39550813200185,180.60341716492258 30.227142537478358,180.2940607903729 28.972053560311906,178.93632416587207 27.426151283551008,176.37550375024148 27.181255873350892,175.94583256305486 27.04350220510969,175.60209492383 26.645547163614538,175.12086119934975 26.293510011513717,174.50213036002242 26.063920564425644,173.98651981033618 25.727189375436865,173.33341113447386 25.436376075842418,172.5771772719745 24.839443513483275,170.51470620564942 24.104757282999344,167.6959600623377 23.569048573146574,164.25840898251045 23.44660086807562,163.57089140999597 23.247623347328044,161.2848778483458 23.12517564225709,160.54578495700844 22.972116010903846,158.86133010260528 22.788444453210104,155.06265848754265 22.788444453210104,154.0485208233731 22.864974268944934,153.8938213885558 23.07925775286276,153.84225488264929 23.630272425769363,153.79068836297665 28.130225587869063,153.55004442205245 29.07919530227082,153.55004442205245 30.34959024260752,153.4641000845586 34.0536333216005,153.32658906494908 36.93115439120447,153.1718890505581 37.895430068834685,153.10313344871975 39.823981423978694,153.01718891198107 40.69642132270383,153.0 41.00254058546852,153.0 41.461719479528256,153.2406446278037 41.67600296344608,153.2578335183207 42.07395800499944,153.10313344871975 42.395383230934385,153.08594454446575 44.293322659737896,153.48128895513946 44.752501553855836,153.63598872115836 45.30351622676244,153.68755528221664 45.471881821227726,153.6531775764015 46.26779190439265,153.82506604431546 52.12997578561772,154.89077112352243 52.89527394238394,154.9939035603311 53.79832576744957,155.21735698418343 57.08910784177715,155.83614972878422 57.91562985110795,156.00803624972468 61.74212063517189,157.00497504776285 62.26252338185441,157.10810635323287 62.62986649712548,157.27999173974968 62.828844017814845,157.48625400113815 62.89006787043763,157.64095055233338 62.81353805476101,157.91596633674635 62.50741879205452,158.44880830231705 62.063545861048624,159.1191557794955 61.267635777941905,160.39109073735017 60.31866606354015,161.49113582386053 59.997240837605204,161.98959168672445 59.93601698515704,162.31616551858315 59.95132294821087,163.27869569908944 59.92071102198679,166.28657153416134 59.96662891138112,167.3693953449838 60.089076616452076,168.41783800072153 60.3033601003699,169.43190006258374 60.777844957541674,171.44282091606874 61.175799999095034,173.00685596687254 62.03293393476633,176.51299832788936" stroke="#4dd2ff" stroke-linecap="round" stroke-linejoin="round" stroke-width="0.5"><title>2024-05-24 11.2km</title><desc>11485428283</desc></polyline><polyline fill="none" points="104.6075717623171,207.0 104.97818762320094,206.7110262060596 105.21060773936915,206.4925331267077 105.28598723650794,206.35861771619966 105.48699922885862,206.08373800769186 105.60635009931866,205.96391834961833 105.69429284596117,205.8370502791513 105.81992534120218,205.69608551853162 105.92043133734842,205.7031337625158 106.29104719826137,205.7736161678622 106.44180619253893,205.7806644049415 106.93805454866379,205.94982190735027 107.08881354294135,205.9921112266311 107.19560116386856,206.04144873727637 107.23957253721892,205.87229143017612 107.30238878479577,205.69608551853162 107.4405845295696,205.3789138915672 107.50968240192742,205.12517567723262 107.54109052574495,204.99125795922737 107.55993540002964,204.82914673504274 107.59762514859904,204.65293850703165 107.69184951999341,204.29347250857245 107.75466576762847,203.7436978316473 107.79235551619786,203.56748719319148 107.84260851427098,203.38422771407932 107.82376363998628,203.25030705783138 107.81748201523442,203.06704684615397 107.77979226666503,202.88378621118318 107.72325764381094,202.50316661685065 107.62275164760649,202.16483655569027 107.55365377524868,201.99567098410625 107.47199265338713,201.84060222661356 107.37148665718269,201.74897054563917 107.2961071600439,201.62209573575092 107.0071524210507,201.35424824852817 106.81870367820375,200.9877186427766 106.63653656013776,200.41677492211602 106.58628356203553,200.3180928749207 106.53603056396241,200.12777715155244 106.41039806875051,199.76829065060883 106.27220232400578,199.45814412515756 106.09003520591068,198.81670087311795 106.07119033162598,198.68277250662504 106.06490870684502,198.44311065489455 106.18425957733416,198.23164371382882 106.21566770115169,198.12591003190755 106.22823095065542,198.02017620903644 106.24707582494011,197.80165919517458 106.22823095065542,197.456260106861 106.25335744972108,197.23774153953855 106.25335744972108,197.13200653278182 106.22823095065542,197.02627138508979 106.18425957733416,196.9134870721973 106.06490870684502,196.7020160532993 105.96440271069878,196.31431772098585 105.89530483834096,195.68694731437427 105.80108046691748,195.15826053457567 105.7257009697496,194.81989914605947 105.62519497360336,193.86825000160025 105.57494197553024,193.70611604593432 105.49956247839145,193.5651297281147 105.43046460600453,193.39594581589336 105.41161973171984,193.21971219019179 105.44302785550826,193.0505275411051 105.53725222696085,192.70510776182346 105.60635009931866,192.33853818727948 105.65032147263992,192.16935165832547 105.7068560954649,191.84507646891143 105.63147659835522,191.33046312027 105.57494197553024,190.76649945083773 105.53097060217988,190.48451611201745 105.43046460600453,190.146134781804 105.35508510886575,189.82185131865845 105.3111137355445,189.67380842718558 105.25457911269041,189.5469143001974 105.21060773936915,189.29312543701235 105.17291799079976,189.18033012597152 105.14150986698223,188.96883848527796 105.08497524412815,188.84194323010888 104.8588367527409,188.4401069155574 104.82114700417151,188.29206144419004 104.78973888035398,188.02416893619375 104.75833075653645,187.9184216443973 104.67666963467491,187.5306803677886 104.67666963467491,187.22048598122637 104.75833075653645,186.73404234020563 104.82114700417151,186.22644579351618 104.82114700417151,186.03609625064564 104.77717563085025,185.5707954439713 104.72064100796706,185.42274461458874 104.67666963467491,185.26059338897903 104.67038800989394,185.0843416806165 104.66410638514208,184.68248632028553 104.70807775846333,184.26652862630726 104.74576750703272,184.11847536109417 104.76461238131742,183.94222111338604 104.75204913178459,183.7730166668698 104.60129013753613,183.23720020357723 104.4442495185067,182.84943603036663 104.31861702329479,182.65202808625327 104.24951915093698,182.56037423079397 104.19298452805378,182.475770577832 104.117605030915,182.3911668346118 104.05478878330905,182.28541202854103 104.04222553377622,182.02454957034206 104.05478878330905,181.88354247873212 104.0108174099878,181.30541078044917 104.0108174099878,180.88943536451552 103.98569091095123,180.63561878403561 103.9542827871337,180.13503370128456 103.96684603666654,179.9799221889698 104.02966228427249,179.84596200218948 104.10504178141127,179.73315324824216 104.18670290327282,179.64854657740943 104.43796789372573,179.4652318140652 104.49450251657981,179.3876754403973 104.50706576611265,179.28191662671452 104.425404644222,179.18320827329444 104.2620824004407,179.02104428291204 104.18670290327282,178.91528497997933 104.07991528234561,178.69671530670166 103.96056441191467,178.50634768074815 103.8286502918927,178.47814503058908 103.6841729223961,178.47109436650499 103.11254506913247,178.29482756000652 102.98691257392056,178.16791521658888 102.92409632631461,178.0057491486732 102.75449245775235,177.73077114467014 102.72936595871579,177.59680715603463 102.68539458539453,177.49104595242534 102.61001508822665,177.34298003020376 102.47810096829198,177.27952312171692 102.23311760259094,177.24426926171873 101.98185261213803,177.23721848782588 101.86250174167799,177.27247235096002 101.27202901412966,177.540401198341 101.12755164463306,177.61090863918798 101.00820077417302,177.65321307357226 100.86372340467642,177.68141601731622 100.71296441036975,177.69551748538652 100.55592379136942,177.6673145467139 100.17902630570461,177.55450269150606 99.83353694382822,177.49104595242534 99.71418607336818,177.51219820441474 99.60111682766001,177.56155343718274 99.30588046391495,177.7519233326966 99.08602359725046,177.8435827489011 98.70284448683378,177.96344490246702 98.45786112113274,178.09035757335369 98.09352688500076,178.22432072764786 97.98045763932168,178.25957415167068 97.69150290029938,178.2736755168953 97.55958878027741,178.29482756000652 97.4528011593502,178.2313714137199 97.40882978605805,178.11150966538116 97.3271686641383,177.9845970283859 97.17640966988984,177.64616233608103 97.09474854797008,177.49104595242534 96.82463868326158,177.1032536648563 96.64247156516649,176.80006928183866 96.37864332520985,176.22190049906203 96.1525048338226,175.83410200056824 96.07084371193196,175.67898206977407 96.02059071382973,175.53091276166379 96.03943558811443,175.38284317684156 96.07084371193196,175.26297711979714 96.01430908907787,175.1008051069657 95.92636634240625,174.9527347184121 95.82586034623091,174.80466405313928 95.7002278509899,174.69184812246385 95.5557504814933,174.60018506050255 95.44268123581423,174.50147087519872 95.27935899203294,174.3251952383871 95.19769787014229,174.22648071048752 95.09719187393785,173.98674491640122 95.02809400158003,173.8739278211142 94.93386963015655,173.77521273097955 94.74542088730959,173.61303767304344 94.47531102260109,173.24637979667023 94.28686227975413,173.10535708470707 94.19263790833065,173.02074333703786 94.11097678644,172.92907834177458 93.94765454265871,172.70344097850466 93.89111991980462,172.5906220558827 93.8597117960162,172.47780297261488 93.8597117960162,172.35088131190423 93.92252804362215,172.21690822722303 94.01047079026466,172.08998614858137 94.07956866265158,171.96306386656943 94.08585028737434,171.76562880149868 94.06700541311875,171.61755217982136 94.12354003594373,171.4412701264664 94.38736827592948,170.9406269560277 94.4564661483164,170.77844609558815 94.53812727020704,170.61626490315393 94.55697214449174,170.43292924230627 94.45018452353543,169.88291971399303 94.40621315021417,169.5021416496529 94.34967852736008,169.3963696403007 94.34339690260822,169.2764945256058 94.31827040354256,169.17777370670228 94.31827040354256,168.98738320854318 94.36852340164478,168.7758376738857 94.44390289878356,168.59249775353965 94.61350676734583,168.43736364330107 94.68888626448461,168.31043550898175 94.72029438827303,168.20466190832667 94.68888626448461,168.08478499018383 94.64491489113425,167.9790110881877 94.53184564542607,167.77451447716157 94.48159264735295,167.51360424144514 94.4376212740317,167.38667462683952 94.35596015211195,167.2879514526212 94.31827040354256,167.1469181331122 94.38108665117761,167.0552463408021 94.48159264735295,166.9353676830433 94.55069051973987,166.86485074079974 94.64491489113425,166.80138543907378 94.71401276349206,166.70971324681886 94.78311063587898,166.47700643612916 94.92758800540469,166.16672962499433 94.92758800540469,166.04684962242027 94.8710533825506,165.8211926547665 94.77682901112712,165.6237422806371 94.7077311387693,165.41218776212918 94.65747814066708,165.31346212676 94.51928239592235,164.91150648366602 94.34339690260822,164.50954880048812 94.24917253118474,164.32619900431018 94.13610328547657,164.030017667661 94.07956866265158,163.64921146429697 94.03559728930122,163.45175567499246 94.03559728930122,163.25429939333844 93.96021779219154,162.95811404773121 93.93509129315498,162.81002095949225 94.0041891655128,162.6619275943376 94.02931566454936,162.37279213078727 94.06072378836689,162.20354161346768 94.04187891408219,162.05544711408584 94.0041891655128,161.78041373754968 93.95393616743968,161.64642277216626 93.89740154458559,161.35023141255806 93.85343017126434,161.21623971922236 93.73407930077519,160.9341512026731 93.63357330459985,160.50396428009117 93.48281431032228,160.22187322602986 93.41999806271633,160.0737750203043 93.36974506461411,159.93272885256738 93.29436556750443,159.79168243357708 93.20014119608095,159.6788451174798 93.08079032562091,159.580112333977 92.94887620565714,159.4954841358558 92.54685222092667,159.2627561245754 92.20764448380214,159.0441322181141 92.15739148572902,158.93834624020383 92.30186885525472,158.70561659126543 92.37096672761254,158.62803988959058 92.44006459997036,158.59277772735368 92.67876634091954,158.67740689035418 93.35718181511038,158.78319321692106 93.6963895522058,158.79729804976523 94.06700541311875,158.79024563366693 94.73913926255773,158.75498354365845 94.92758800540469,158.72677386035502 95.07206537490129,158.71972143794846 95.32961199010606,158.68445931653696 95.68766460148618,158.57867285804969 96.30326382807107,158.34594215184916 96.78694893469219,158.11321076154854 97.35229516320396,157.78879616689665 97.70406614980311,157.5490106120851 97.96161276503699,157.3303819732755 98.63374661447597,156.7168080523843 99.04833384868107,156.36417721032922 99.3498518372071,156.0820714057336 99.55714545436786,155.9128074404507 99.9466061895364,155.5249094882529 100.72552765990258,154.79142452893575 100.90769477799768,154.55868268870836 101.1024251455965,154.34004579119937 101.54842050361913,153.9521401320526 101.63636325029074,153.84634734963765 101.76199574550265,153.62065560791234 101.84365686739329,153.53602103886806 101.84993849217426,153.41612191112654 101.84365686739329,153.27506388126494 101.47304100650945,153.0" stroke="#4dd2ff" stroke-linecap="round" stroke-linejoin="round" stroke-width="0.5"><title>2024-05-20 12.0km</title><desc>11568200050</desc></polyline><polyline fill="none" points="159.97404138883576,153.0 159.9509670678235,153.23965689379838 160.11825589532964,153.36272364025353 160.25670182149042,153.38215521276288 160.4009163279552,153.4663586335446 160.45283355025458,153.59590216731158 160.33169336488936,153.93919141506922 160.274007562286,154.0622569769548 160.19901601894526,154.17884521178348 160.14133021634188,154.3019103678671 160.0028842901229,154.50917752814712 159.58177793127834,154.9496182811199 159.50101780766272,155.02086579919705 159.41448910380132,155.0791591711095 159.3337289801857,155.1892687460786 158.8433996582462,155.6361823671541 158.81455675695906,155.7527680772473 158.86070539901266,155.86935360034113 158.94723410290317,155.9665080600389 159.40295194328064,156.34864767499676 159.70291811673087,156.5688628118005 159.80675256135873,156.63363184271293 159.89328126522014,156.71783149662224 160.07787583349273,156.8603229964283 160.21632175971172,156.87975363384612 160.4009163279552,157.02224481623125 160.58551089619868,157.1841662753286 160.66050243959762,157.26188844757417 160.7989483657584,157.44323985966184 160.90278281041537,157.6245908192941 161.0700716379215,158.0002449392632 161.2085175641114,158.27226912463084 161.2431290456443,158.3629436268966 161.30081484824768,158.4471412776984 161.41041787312133,158.71268707609124 161.5546323795861,159.1077656151101 161.6873097255302,159.41216892658122 162.11995324489544,160.3512774940391 162.16033330670325,160.48728531536472 162.4083822577668,161.063696591169 162.41415083804168,161.18675009182334 162.33339071445516,161.29037393083127 162.21801910927752,161.38752114577073 162.1430275659077,161.49114469862252 162.02188738051336,161.6012445617016 161.94689583714353,161.7113442580594 161.90651577533572,161.84734953513544 161.05853447740083,162.8188084015128 160.441296389763,163.5635847425874 160.3605362661474,163.67368146754598 160.27977614253177,163.76434923352645 160.11248731505475,163.92625567729556 159.70868669697666,164.40549663804995 159.22989453555783,164.94949606334558 159.1606715724629,165.04663838959823 159.1087543501344,165.143780586106 159.01068848575233,165.49996752973675 159.02799422651879,165.62301352299255 159.12029151062598,165.85615272876748 159.1145229304093,165.96624598279595 159.00491990547744,166.1410996319173 158.91839120161603,166.19290803981858 158.82609391747974,166.2641445404006 158.58381354663288,166.5361378098678 158.46844194148434,166.74337009431474 158.3992189783603,166.82108204873657 158.24923589164973,167.07364532710926 158.174244348309,167.22259249040508 158.11078996548895,167.30677988253592 157.83389811308007,167.8378058022936 157.79928663154715,167.9219924822828 157.76467514998512,168.09684142937476 157.70122076713596,168.20693129152642 157.60892348299967,168.49186898444168 157.5512376804254,168.61490991585742 157.47624613705557,168.89984601050674 157.4185603344813,169.2106841134082 157.39548601343995,169.54094814223936 157.44163465549354,169.77407478914392 157.52239477913827,170.08490915606671 157.53970051990473,170.25327721688518 157.52816335938405,170.57058519524435 157.5108576186176,170.66772001395293 157.52239477913827,170.77133034425788 157.51662619889248,170.9655993158085 157.53393193965894,171.06920922183053 157.52239477913827,171.20519699953002 157.57431200143765,171.48364737019438 157.75890656971023,171.85275435817312 157.78774947102647,171.96931407055672 157.9954183603113,172.3448940955568 158.05310416288557,172.4938304650932 158.33576459554024,173.25793400077964 158.43383045992232,173.7241627242256 158.51459058353794,174.37817298165464 158.58381354663288,174.7861169966418 158.58958212687867,175.12283096845204 158.58958212687867,175.22643495396915 158.56073922559153,175.59552295342291 158.50305342301726,176.029360839726 158.49728484274237,176.1977151437095 158.46844194148434,176.3660690581455 158.46267336120945,176.50852206612763 158.47421052173013,176.70277571846236 158.49728484274237,176.83875296655606 158.5318963243044,176.9812050491455 158.55497064534575,177.1430820772075 158.6184250281949,177.3891344701551 158.68187941101496,177.47331009779737 158.77417669515125,177.55101059073058 158.8433996582462,177.6351860311188 158.8837797200831,177.72583639650838 158.9356969424116,177.95893681748566 158.97030842394452,178.20498645179032 158.94146552262828,178.3021110784175 158.97030842394452,178.67765841504297 158.97030842394452,178.83305674607254 158.96453984366963,178.96255510177434 158.94146552262828,179.07262852293206 158.94146552262828,179.21507623258367 158.98761416471098,179.51939540542662 159.0222256462439,179.68126678739645 159.13759725139244,180.04385737649864 159.23566311580362,180.38702180585096 159.30488607889856,180.52299216988467 159.49524922741693,180.7496088787957 159.63369515360682,180.93737647448143 159.52986070897896,181.0539216350444 159.36257188147283,181.17046660898632 159.25873743684497,181.2740619847027 159.18374589347513,181.4100306915716 159.154902992188,181.59132190557284 159.20682021451648,182.53014418263774 159.2010516342707,182.70495802791993 159.22412595528294,183.4754288614713 159.23566311580362,183.57902095661848 159.2875803381321,183.70203637810482 159.62215799311525,184.15524929504318 159.69714953645598,184.3041614947142 159.7836782403465,184.74442186857777 159.82982688240008,184.8674353206443 159.85290120344143,184.97749981207016 159.8702069442079,185.09403850398667 159.85866978368722,185.3012179400248 159.864438363933,185.40480743694206 159.83559546267497,185.49544812581735 159.83559546267497,185.70262641948648 159.8240583021252,185.81268964816263 159.81252114160452,186.12992978804687 159.8182897218794,186.4018488076399 159.84136404292076,186.53780793657643 159.88751268500346,186.6543441307149 159.88751268500346,186.79677700356842 159.9105870059866,186.94568379996053 159.92212416653638,187.09459029178834 159.9163555862615,187.21112559468747 159.88174410472857,187.39887652367906 159.87597552445368,187.67726494099043 159.85290120344143,187.8196958126282 159.8182897218794,187.96860051689873 159.79521540083806,188.23403858222446 159.80675256135873,188.40236465883936 159.82982688240008,188.56421628856333 159.8702069442079,188.80375604031724 159.8702069442079,188.90086652598984 159.9567356480693,189.2180932098854 160.1759416979039,189.63890198442823 160.23362750047818,189.78132901879144 160.25670182149042,189.93022971136816 160.29131330305245,190.03381262230687 160.3605362661474,190.31219096526183 160.406684908201,190.42872111840552 160.51628793313284,190.91426141591364 160.59704805671936,191.19263639299606 160.61435379751492,191.3091651371942 160.64319669880206,191.59401239354338 160.66050243959762,191.9241748646673 160.70665108165122,192.24786210869934 160.6720396000892,192.4679686128511 160.6662710198434,192.62981120619224 160.63742811852717,192.73986396422697 160.6258909580356,192.8499165559333 160.5797423159529,192.95996898136946 160.54513083441998,193.34838797705743 160.46437071080436,193.65912168207433 160.4874450318166,193.8339088085413 160.64319669880206,194.22879669798567 160.66050243959762,194.32589994940645 160.70665108165122,194.59131484266982 160.712419661897,194.73373219151836 160.7527997237048,195.04445998607116 160.82779126707464,195.34871300041414 160.8854770696489,195.84069390894 160.983542934031,196.5139255566537 161.0296915760846,196.68223249635048 161.08737737868796,196.8570123682439 161.13352602074156,196.95411211587634 161.19698040359071,197.04473843019514 161.2431290456443,197.18067769028858 161.27197194693144,197.31661669667665 161.26620336668566,197.452555449403 161.2431290456443,197.54965440317756 161.26043478641077,197.7050124599773 161.26043478641077,198.0092543614519 161.22582330487785,198.1322454077672 161.1566003417829,198.24876304959616 161.08160879841307,198.488270950249 161.0643030576466,198.6112611878052 161.1104516997002,198.7601438291822 161.1623689220287,198.88313360776374 161.2431290456443,199.2262092610763 161.35273207054706,199.53691789253935 161.39888071262976,199.62754099375888 161.5142523178074,200.00945139605756 161.7334583675838,200.63733363828942 161.84882997276145,200.90919849744387 161.9180529358564,201.0192387472489 162.0045816397178,201.2004811493607 162.06803602256696,201.2911021813561 162.21801910927752,201.4464522596536 162.3160849736596,201.56296460100566 162.43722515908303,201.80246160646493 162.4891423814115,201.9254462492754 162.59297682603938,202.3591272804406 162.68527411017567,202.831642480538 162.6737369496841,202.94815260687756 162.6737369496841,203.06466254693078 162.65066262864275,203.17469954148692 162.59874540631426,203.2912091192993 162.55836534450646,203.53070044423657 162.5006795419322,203.614845858021 162.51221670245286,203.75724556766363 162.50644812217797,203.8931723036585 162.47183664064505,204.15855234316405 162.4487623196037,204.2750603478853 162.39684509727522,204.37215020955773 162.39684509727522,204.47571258607059 162.3622336157132,204.5792748153981 162.34492787494673,204.7346178834414 162.3160849736596,204.8964332271862 162.18917620799039,205.20064510069642 162.14879614618258,205.34304171151598 162.06803602256696,205.3754045388123 161.96997015818488,205.30420629979926 161.84882997276145,205.25242571863782 161.6988468860509,205.1941725208526 161.53155805857386,205.1618096130769 161.37003781131352,205.1618096130769 161.08737737868796,205.09708375440096 160.87393990912824,205.08413857578125 160.83355984732043,205.1876999404558 160.7643368842255,205.30420629979926 160.54513083441998,205.4530752656865 160.25670182149042,205.93204291880102 160.1759416979039,206.01618555979803 160.02019003094756,206.14563558701775 159.9105870059866,206.20388802423986 159.6452323141566,206.4174798957465 159.54716644974542,206.46278718194662 159.27027459733654,206.65048849617597 159.08568002909306,206.75404763501865 158.751102374139,206.90291363928554 158.5261277440586,206.98705515937036 158.3934503981145,207.0 158.30115311397822,207.0 158.0877156444185,206.95469304776634 157.84543527360074,206.92880334812799 157.5916177422332,206.94822062371532 157.31472588982433,206.98058273819333" stroke="#4dd2ff" stroke-linecap="round" stroke-linejoin="round" stroke-width="0.5"><title>2024-05-20 11.4km</title><desc>11568200045</desc></polyline><polyline fill="none" points="64.90134529146599,237.26464685687097 65.25448430492543,237.29863413549174 66.05156950670062,237.23065956916253 66.56614349776646,237.26464685687097 66.81838565022917,237.19667227233003 67.0,237.52521576084837 66.97982062777737,237.80844222458109 66.74775784753729,238.34090626797843 66.42488789238269,238.91868387698923 65.99103139014915,239.53044554187363 64.52802690584213,240.94654921200708 63.93273542600218,241.42235650464863 63.76121076231357,241.4450139503606 63.60986547084758,241.3203979489699 63.438340807158966,241.36571287271363 63.478699551546015,241.61494466441218 63.458520179381594,241.8415185965423 63.25672645738814,242.06809212484222 62.03587443946162,243.29158220020327 61.632286995474715,243.5634672846645 61.44058295962168,243.59745287933038 61.29932735429611,243.77870923083537 61.208520179381594,244.0845787379876 60.75448430492543,244.4697467002843 60.1692825112259,245.09281005119556 59.94730941706803,245.2400791243781 59.46300448430702,245.7725120426403 58.63565022422699,246.78072997101117 58.43385650223354,246.86002767120226 58.211883408075664,247.0639358160406 58.10089686099673,247.26784363385377 57.90919282514369,247.449094752963 57.72757847531466,247.52839203635813 57.404708520218264,247.89089327336114 56.44618834083667,248.72917342591245 55.9114349775482,249.28424778298358 55.00336322869407,250.05455103963322 54.18609865469625,250.65493122449698 53.75224215246271,250.91547268694558 53.44955156953074,251.01742354863381 52.78363228699891,251.3685870023255 52.561659192841034,251.44788184149365 52.41031390137505,251.57248791748134 52.24887892382685,251.65178262952395 51.62331838562386,251.86701088447444 50.87668161431793,252.03692767053144 49.201793721993454,252.2861385460492 48.081838565005455,252.27481078958226 47.59753363224445,252.22949975358642 46.8307174887741,252.1275498635805 43.75336322869407,251.52717663123622 42.64349775784649,251.28929211368086 41.705156950687524,251.04007928459032 40.99887892376864,250.91547268694558 40.25224215246271,250.70024282152735 38.769058295933064,250.41704507523536 37.941704035853036,250.17915848091798 37.37668161431793,249.89595957413258 37.05381165922154,249.68072798317735 36.47869955160422,249.510808048748 36.065022421535105,249.6354160228584 35.298206278064754,250.1225187500313 35.13677130045835,250.3037658001267 34.36995515692979,250.79086596713023 33.64349775784649,250.45102883810614 33.1692825112259,250.29243786705047 31.958520179381594,249.9979112532601 31.4035874439287,249.79400781329605 30.878923766838852,249.53346405312914 30.404708520160057,249.19362356367492 29.51681614352856,248.37800268326828 28.558295964088757,247.4037819974037 27.468609865463804,245.64790028288553 27.317264573997818,245.52328840101836 27.176008968614042,245.52328840101836 26.88340807176428,245.26273588972253 25.42040358739905,244.12989267647936 24.532511210767552,243.38221062630328 23.735426008992363,242.8610962940802 22.35313901345944,241.61494466441218 21.98991031391779,241.10515184074757 21.717488789232448,240.85591904957982 21.535874439461622,240.78794638536783 21.384529147995636,240.66332973994577 20.688340807158966,240.4820689466651 20.52690582961077,240.35745200142264 20.355381165922154,240.3347943618428 20.204035874456167,240.21017727221624 19.911434977606405,239.6550632978615 19.628923766838852,239.31519640290935 19.497757847537287,238.9413417689284 19.43721973092761,238.53349909609096 19.275784753379412,238.40888024060405 19.04372197308112,238.3635642628724 18.50896860990906,238.3635642628724 18.34753363224445,238.31824826897355 17.87331838568207,238.0010358594227 17.4192825112259,237.93306166866387 17.247757847537287,237.84242935779912 16.491031390149146,237.11736854443006 16.158071748912334,236.85679880440875 15.94618834083667,236.7774948644801 15.794843049312476,236.6415451380235 15.714125560538378,236.448949443351 15.774663677148055,236.2563534568544 15.966367713001091,235.973123534779 15.815022421476897,235.58792982797604 15.088565022451803,234.90817338010675 14.74551569513278,234.40968300784152 14.573991031385958,234.2963894687855 14.160313901375048,234.1264489708483 13.877802690549288,233.71859084864263 13.918161434936337,233.49200243745872 13.827354260080028,233.2654136223282 13.776905829610769,232.9935065109603 13.645739910309203,232.8462232493839 13.585201793757733,232.63096279088495 13.585201793757733,232.4043724406656 13.676008968614042,232.24575895514135 13.887892376631498,232.07581571530318 13.867713004467078,231.95119052829978 13.928251121076755,231.91720181972778 14.039237668155693,231.70193978771567 14.130044843070209,231.6566214187551 13.968609865463804,231.76991731088492 13.978699551546015,231.92853139027284 13.887892376631498,231.9965087922683 13.8071748878574,232.21177032535343 13.75672645738814,232.06448615787667 13.837443946162239,232.0078383557193 13.897982062771916,231.05615150405356 13.867713004467078,230.8182286776282 13.726457399083301,230.7049319370417 13.565022421535105,230.72759129320912 13.433856502233539,230.87487701000646 13.221973094157875,230.90886599734222 13.030269058304839,230.8182286776282 13.121076233161148,230.63695384420862 13.010089686140418,230.22908452369302 13.191704035853036,230.1611061763324 13.474215246678796,229.90052217464108 13.655829596391413,229.84387340792455 13.676008968614042,229.5153100629177 13.655829596391413,229.86653291764378 14.533632286998909,229.651267412155 15.128923766780645,229.6625971846879 15.30044843046926,229.62860786405508 15.562780269072391,229.39068236506137 15.845291479781736,229.2207353073245 16.057174887915608,228.92615986889723 16.137892376689706,228.54094480367348 16.460762331844307,228.32567705277324 17.19730941700982,228.33700694348227 17.399103139003273,228.31434716106014 17.621076233161148,228.23503789066308 17.81278026907239,228.24636778947024 17.974215246678796,228.32567705277324 18.64013452915242,228.7562121899391 20.082959641236812,229.4926504906034 20.758968609850854,230.28573311870423 20.90022421523463,230.18376562948833 20.769058295933064,229.93451142257254 20.48654708522372,229.71924603223306 20.19394618831575,229.46999091421458 20.022421524685342,229.43600154204614 19.699551569472533,229.23206511825992 19.124439461855218,228.98280904466083 18.619955156988,228.7108927704976 17.832959641236812,228.1783883815151 17.45964125561295,228.08774911436922 17.247757847537287,228.1670584766689 17.12668161431793,228.28035747982358 16.975336322851945,228.29168737457076 16.561659192782827,228.12173884711228 16.35986547084758,228.20104818823893 16.04708520177519,228.46163567471376 16.087443946220446,228.7562121899391 16.04708520177519,228.90350019146717 15.94618834083667,228.99413887680566 15.835201793699525,228.91483003067697 15.966367713001091,229.016798538054 15.825112107617315,229.1867458685083 15.471973094157875,229.39068236506137 15.330717488774098,229.52663984758692 15.118834080698434,229.62860786405508 14.89686098654056,229.5832887557117 14.695067264547106,229.60594831193885 13.968609865463804,229.75323532862967 13.726457399083301,229.68525672675605 13.35313901345944,229.85520316327165 13.050448430527467,230.13844671914558 13.0,230.38770052610926 13.020179372222628,230.69360225745186 13.262331838544924,230.85221768006886 13.464125560538378,230.82955834610766 13.665919282531831,230.682272576807 13.8071748878574,230.69360225745186 13.867713004467078,231.02216255609528 13.867713004467078,231.61130303356913 13.70627802691888,232.16645213815355 13.585201793757733,232.3363952568252 13.524663677148055,232.5969742640882 13.585201793757733,232.83489376067882 13.75672645738814,233.0048359855282 13.79708520177519,233.2654136223282 13.887892376631498,233.42402583533112 13.857623318384867,233.85454370147636 13.988789237686433,234.02448456297134 14.50336322869407,234.31904818467592 14.755605381156784,234.7042457368516 14.917040358763188,234.8628561543228 15.108744394616224,234.93083198693057 15.734304932702798,235.44064957276714 15.895739910309203,236.07508637942374 15.69394618831575,236.31299936552386 15.6535874439287,236.5395827477696 15.815022421476897,236.75483658682788 15.956278026860673,236.86812793463469 16.147982062830124,236.93610269487544 16.43049327353947,237.16268496643897 17.318385650229175,237.98970683016523 17.81278026907239,238.0576809906488 18.418161434994545,238.4428672132999 19.073991031385958,238.4315382234272 19.30605381168425,238.48818316277175 19.457399103150237,238.65811782939272 19.447309417068027,238.9073549295208 19.568385650229175,239.34918313327944 20.0728699551546,240.14220426273096 20.274663677089848,240.3347943618428 20.48654708522372,240.3687808196555 20.880044843012,240.55004177444061 21.414798206300475,240.64067215492105 21.62668161431793,240.85591904957982 21.929372197308112,241.11648059239087 22.4035874439287,241.7395603770492 23.51345291477628,242.77046749650617 23.705156950687524,242.94039643894212 24.350896861054935,243.32556786757777 26.933856502291746,245.34203453664668 27.438340807158966,245.78384037839714 28.36659192823572,247.29050003787415 29.4764573990833,248.43464319124178 30.535874439461622,249.37487193773995 31.03026905824663,249.70338395726867 31.686098654696252,249.9412714416103 31.82735426008003,250.04322308437258 32.98766816139687,250.40571715225087 33.381165919301566,250.49634050776513 34.35986547084758,250.8361775157682 34.571748878923245,250.84750540037203 36.821748878923245,249.45416802015097 36.922645739861764,249.30690382773173 37.164798206300475,249.22760765349085 37.43721973092761,249.0576871135636 37.588565022393595,248.87643828737782 37.881165919301566,248.76315763981984 38.022421524627134,248.54792413145333 38.62780269054929,248.0381591057303 38.80941704037832,247.9701902812376 38.89013452915242,247.80026806100796 40.15134529146599,246.6787757123966 40.31278026907239,246.5994778991444 41.49327354267007,245.50063168211636 42.108744394616224,244.85491349575022 42.3307174887741,244.73030083666526 42.59304932731902,244.3677905885561 42.66367713006912,244.12989267647936 42.75448430492543,243.98262231735134 42.83520179375773,243.54081021648744 43.03699551569298,242.88375348334375 43.29932735429611,241.50165754695627 43.228699551546015,240.82193272203585 43.29932735429611,240.28947907067777 43.79372197308112,239.2245650774421 43.88452914793743,238.56748603549204 44.07623318390688,238.1596421631475 45.08520179375773,236.788824001771 45.61995515692979,235.58792982797604 45.64013452915242,235.406661797344 45.61995515692979,235.044124960521 45.53923766815569,234.8855147692666 44.56053811660968,233.75257907550258 43.581838565005455,232.08714527168195 43.521300448453985,231.91720181972778 43.521300448453985,231.7359285538696 43.59192825114587,231.5886438349553 43.75336322869407,231.41869971642882 44.338565022393595,231.09014044289506 44.48991031385958,230.94285497556848 45.630044843012,230.35371139938798 45.831838565005455,230.13844671914558 47.10313901345944,229.4020121608337 47.294843049370684,229.35669297166896 49.2421524663805,228.3030172682993 49.897982062771916,227.88381052685872 50.352017937228084,227.7138614539581 51.0078475336195,227.73652134346776 51.18946188339032,227.79317104959773 51.108744394616224,227.98577986154123 50.987668161455076,229.3453631718803 50.90695067262277,231.44135894536157 51.0885650224518,231.61130303356913 51.784753363230266,231.54332542555494 52.29932735429611,231.5886438349553 53.10650224215351,231.5319958206819 53.368834080698434,231.49800700000196 53.52017937216442,231.43002933140815 54.5493273542379,231.44135894536157 55.144618834077846,231.40737010042358 56.05269058293197,231.46401817025617 56.48654708516551,231.6679510124959 57.74775784747908,232.52899718328263 57.94955156947253,232.63096279088495 58.37331838568207,232.94818860249507 58.73654708522372,233.1521190632775 58.948430493241176,233.1974368989977 59.55381165916333,233.53732015202695 59.78587443946162,233.59396727250714 61.168161434994545,234.22841329688526 61.65246636769734,234.35303625097004" stroke="#4dd2ff" stroke-linecap="round" stroke-linejoin="round" stroke-width="0.5"><title>2024-05-13 18.3km</title><desc>11568200111</desc></polyline></svg>