<?xml version="1.0" encoding="utf-8" ?>
<svg baseProfile="full" height="200mm" version="1.1" viewBox="0,0,200,200" width="200mm" xmlns="http://www.w3.org/2000/svg" xmlns:ev="http://www.w3.org/2001/xml-events" xmlns:xlink="http://www.w3.org/1999/xlink"><defs /><rect fill="#1a1a1a" height="200" width="200" x="0" y="0" /><text alignment-baseline="middle" fill="#e1ed5e" style="dominant-baseline: central; font-size:9.0px; font-family:Arial;" text-anchor="middle" x="100.0" y="100.0">2024</text><line stroke="#e1ed5e" stroke-width="0.3" x1="100.0" x2="100.0" y1="15.0" y2="10.0" /><path d="M 100.0 14.0 a86.0,86.0 0 0,1 42.35913384403234,11.155469271406648" fill="none" id="id1" stroke="none" /><text fill="#e1ed5e" style="font-size:6.75px; font-family:Arial;" text-anchor="middle"><textPath startOffset="22.145653131862478" xlink:href="#id1">January</textPath></text><line stroke="#e1ed5e" stroke-width="0.3" x1="143.13028292997686" x2="145.6673583964461" y1="26.7553504044142" y2="22.446841604673864" /><path d="M 143.63769802327073 25.89364864446614 a86.0,86.0 0 0,1 29.32050498858742,28.57503671076993" fill="none" id="id2" stroke="none" /><text fill="#e1ed5e" style="font-size:6.75px; font-family:Arial;" text-anchor="middle"><textPath startOffset="20.669276256404974" xlink:href="#id2">February</textPath></text><line stroke="#e1ed5e" stroke-width="0.3" x1="172.87174338648825" x2="177.1583165268699" y1="56.24261187166439" y2="53.66864786411523" /><path d="M 173.72905801456457 55.72781907015455 a86.0,86.0 0 0,1 12.242430191666344,42.057860355516425" fill="none" id="id3" stroke="none" /><text fill="#e1ed5e" style="font-size:6.75px; font-family:Arial;" text-anchor="middle"><textPath startOffset="22.145653131862474" xlink:href="#id3">March</textPath></text><path d="M 120.26092885502905 94.47779374421319 l 7.965813790399299 -2.171117970973833 a29.25638798671678,29.25638798671678 0 0,0 0.12790686527803427,0.48568320113347235 l -8.001910136482064 2.034054265467562" fill="#ff0500" stroke="none" /><path d="M 120.65975698304385 96.23510406497455 l 8.720780242099945 -1.5892166645851333 a29.86440170784221,29.86440170784221 0 0,0 0.08758117284108055,0.5051449311563668 l -8.746776232433259 1.4392787005081737" fill="#ff0f01" stroke="none" /><line stroke="#e1ed5e" stroke-width="0.3" x1="184.99686870605535" x2="189.99668451229388" y1="99.2704041080226" y2="99.22748670261217" /><path d="M 185.99683186730306 99.26182062694052 a86.0,86.0 0 0,1 -10.086455211305974,41.156179273409016" fill="none" id="id4" stroke="none" /><text fill="#e1ed5e" style="font-size:6.75px; font-family:Arial;" text-anchor="middle"><textPath startOffset="21.40746469413373" xlink:href="#id4">April</textPath></text><line stroke="#e1ed5e" stroke-width="0.3" x1="174.33088141563837" x2="178.70328620479359" y1="141.23008692659167" y2="143.65538615756765" /><path d="M 175.20536237346943 141.71514677278685 a86.0,86.0 0 0,1 -30.301960400862466,31.631185727798858" fill="none" id="id5" stroke="none" /><text fill="#e1ed5e" style="font-size:6.75px; font-family:Arial;" text-anchor="middle"><textPath startOffset="22.145653131862474" xlink:href="#id5">May</textPath></text><path d="M 118.00360718960297 110.81064883170644 l 6.819992146567628 4.09520932972346 a28.95506331423567,28.95506331423567 0 0,0 -0.259536690807677,0.4239336794948067 l -6.748687491304547 -4.2116801253428235" fill="#ff0000" stroke="none" /><path d="M 115.89218393027572 113.72728997021213 l 21.25306302434143 18.357889650051806 a49.083888625332996,49.083888625332996 0 0,0 -0.556258210986585,0.632919733191338 l -20.93479374939626 -18.720021661054435" fill="#d4ff1c" stroke="none" /><path d="M 114.13192950727249 115.5334660781643 l 24.1401596120689 26.534264147197582 a56.872196474838525,56.872196474838525 0 0,0 -0.7277880092457768,0.6507925256311419 l -23.681106575999745 -26.94475220271211" fill="#73ff27" stroke="none" /><path d="M 113.03279911837588 116.46651593811092 l 10.663181984215525 13.47258209838374 a38.18179031492902,38.18179031492902 0 0,0 -0.5174360866500791,0.4023614306632941 l -10.430335952930216 -13.653644580667827" fill="#ff910d" stroke="none" /><path d="M 112.45986205192187 116.90419585922612 l 14.713758931510847 19.962039849817792 a45.7987446629931,45.7987446629931 0 0,0 -0.6368620544108513,0.4610390139922927 l -14.368915866726027 -20.211679635183163" fill="#fffe18" stroke="none" /><line stroke="#e1ed5e" stroke-width="0.3" x1="143.1302829299769" x2="145.66735839644613" y1="173.24464959558577" y2="177.55315839532614" /><path d="M 143.63769802327073 174.10635135553383 a86.0,86.0 0 0,1 -40.68552437913181,11.842963189579606" fill="none" id="id6" stroke="none" /><text fill="#e1ed5e" style="font-size:6.75px; font-family:Arial;" text-anchor="middle"><textPath startOffset="21.407464694133747" xlink:href="#id6">June</textPath></text><path d="M 110.65571695917076 118.09573695890943 l 29.86929323438101 50.72458996320361 a79.86559865708134,79.86559865708134 0 0,0 -1.1873638790275824,0.6855248551826156 l -28.99413688749303 -51.2298617156624" fill="#47fdff" stroke="none" /><path d="M 110.34350942703117 118.27599006163325 l 10.962844181177521 19.37029522869992 a43.25740977265263,43.25740977265263 0 0,0 -0.649388087435338,0.3602046253741716 l -10.628711905586089 -19.555632769507238" fill="#ffdb14" stroke="none" /><path d="M 109.3889696526874 118.78422872680471 l 7.124762556646104 14.25429780251845 a36.935722366164285,36.935722366164285 0 0,0 -0.5695835773516215,0.2786118698797234 l -6.879018730032413 -14.374503422495396" fill="#ff7e0b" stroke="none" /><path d="M 108.73861861582097 119.09545874513695 l 22.368031888691274 48.878186463832144 a74.75319490566727,74.75319490566727 0 0,0 -1.1714416446274345,0.523970947505672 l -21.525676841208213 -49.25496116224767" fill="#40ffc7" stroke="none" /><path d="M 108.4095320186766 119.2426549942271 l 7.616790234541813 17.42870665349479 a40.020391927891104,40.020391927891104 0 0,0 -0.6318742019629094,0.2697095232553692 l -7.316480957408472 -17.556890826409564" fill="#ffac0f" stroke="none" /><path d="M 106.0420521117495 120.11202640906438 l 11.119554314070864 37.013379872498994 a59.64757143378463,59.64757143378463 0 0,0 -0.9831623636932112,0.28618423530927534 l -10.482531937996047 -37.198807802110785" fill="#52ff2b" stroke="none" /><path d="M 104.29559338865022 120.5559693870025 l 6.377379997365698 30.518071924941722 a52.177294456811296,52.177294456811296 0 0,0 -0.8783265221889915,0.1756899034066981 l -5.852556989645747 -30.62305122501128" fill="#acff20" stroke="none" /><path d="M 103.58742460773223 120.69131181640829 l 10.762273823196699 62.07393544922487 a84.0,84.0 0 0,0 -1.4228899877877108,0.2341360060173172 l -9.695106332355914 -62.24953745373786" fill="#4dd2ff" stroke="none" /><path d="M 103.2317021107853 120.74984581791261 l 7.150195463856832 45.909384082097404 a67.4628544319965,67.4628544319965 0 0,0 -1.1458241180922115,0.16839668673899955 l -6.361046240156935 -46.02536184213528" fill="#36ff6d" stroke="none" /><line stroke="#e1ed5e" stroke-width="0.3" x1="101.45913802915013" x2="101.54496967792366" y1="184.9874750549273" y2="189.98673829345242" /><path d="M 101.47630435890484 185.9873277026323 a86.0,86.0 0 0,1 -42.54439059252881,-10.42667462771756" fill="none" id="id7" stroke="none" /><text fill="#e1ed5e" style="font-size:6.75px; font-family:Arial;" text-anchor="middle"><textPath startOffset="22.145653131862474" xlink:href="#id7">July</textPath></text><line stroke="#e1ed5e" stroke-width="0.3" x1="58.13341422392154" x2="55.67067388415222" y1="173.97424548756322" y2="178.32567169271397" /><path d="M 57.64086615596768 174.84453072859336 a86.0,86.0 0 0,1 -31.369924170532247,-30.572349798747897" fill="none" id="id8" stroke="none" /><text fill="#e1ed5e" style="font-size:6.75px; font-family:Arial;" text-anchor="middle"><textPath startOffset="22.145653131862474" xlink:href="#id8">August</textPath></text><line stroke="#e1ed5e" stroke-width="0.3" x1="26.387840678322732" x2="22.057713659400548" y1="142.50000000000003" y2="145.00000000000006" /><path d="M 25.521815274538298 143.00000000000003 a86.0,86.0 0 0,1 -11.493303480769221,-40.785679425670985" fill="none" id="id9" stroke="none" /><text fill="#e1ed5e" style="font-size:6.75px; font-family:Arial;" text-anchor="middle"><textPath startOffset="21.40746469413373" xlink:href="#id9">September</textPath></text><line stroke="#e1ed5e" stroke-width="0.3" x1="15.003131293944662" x2="10.003315487706104" y1="100.72959589197737" y2="100.7725132973878" /><path d="M 14.003168132696942 100.73817937305945 a86.0,86.0 0 0,1 10.791469493833604,-42.45332614584628" fill="none" id="id10" stroke="none" /><text fill="#e1ed5e" style="font-size:6.75px; font-family:Arial;" text-anchor="middle"><textPath startOffset="22.145653131862435" xlink:href="#id10">October</textPath></text><line stroke="#e1ed5e" stroke-width="0.3" x1="26.387840678322718" x2="22.05771365940052" y1="57.49999999999999" y2="54.99999999999999" /><path d="M 25.521815274538284 56.99999999999999 a86.0,86.0 0 0,1 29.574782752854787,-30.34633250058573" fill="none" id="id11" stroke="none" /><text fill="#e1ed5e" style="font-size:6.75px; font-family:Arial;" text-anchor="middle"><textPath startOffset="21.40746469413373" xlink:href="#id11">November</textPath></text><line stroke="#e1ed5e" stroke-width="0.3" x1="56.869717070023135" x2="54.33264160355391" y1="26.7553504044142" y2="22.446841604673864" /><path d="M 56.362301976729285 25.89364864446614 a86.0,86.0 0 0,1 42.16139366436587,-11.88097634709845" fill="none" id="id12" stroke="none" /><text fill="#e1ed5e" style="font-size:6.75px; font-family:Arial;" text-anchor="middle"><textPath startOffset="22.145653131862474" xlink:href="#id12">December</textPath></text></svg>