<?xml version="1.0" encoding="utf-8" ?>
<svg baseProfile="full" height="200mm" version="1.1" viewBox="0,0,200,200" width="200mm" xmlns="http://www.w3.org/2000/svg" xmlns:ev="http://www.w3.org/2001/xml-events" xmlns:xlink="http://www.w3.org/1999/xlink"><defs /><rect fill="#1a1a1a" height="200" width="200" x="0" y="0" /><text alignment-baseline="middle" fill="#e1ed5e" style="dominant-baseline: central; font-size:9.0px; font-family:Arial;" text-anchor="middle" x="100.0" y="100.0">2024</text><line stroke="#e1ed5e" stroke-width="0.3" x1="100.0" x2="100.0" y1="15.0" y2="10.0" /><path d="M 100.0 14.0 a86.0,86.0 0 0,1 42.35913384403234,11.155469271406648" fill="none" id="id1" stroke="none" /><text fill="#e1ed5e" style="font-size:6.75px; font-family:Arial;" text-anchor="middle"><textPath startOffset="22.145653131862478" xlink:href="#id1">January</textPath></text><line stroke="#e1ed5e" stroke-width="0.3" x1="143.13028292997686" x2="145.6673583964461" y1="26.7553504044142" y2="22.446841604673864" /><path d="M 143.63769802327073 25.89364864446614 a86.0,86.0 0 0,1 29.32050498858742,28.57503671076993" fill="none" id="id2" stroke="none" /><text fill="#e1ed5e" style="font-size:6.75px; font-family:Arial;" text-anchor="middle"><textPath startOffset="20.669276256404974" xlink:href="#id2">February</textPath></text><line stroke="#e1ed5e" stroke-width="0.3" x1="172.87174338648825" x2="177.1583165268699" y1="56.24261187166439" y2="53.66864786411523" /><path d="M 173.72905801456457 55.72781907015455 a86.0,86.0 0 0,1 12.242430191666344,42.057860355516425" fill="none" id="id3" stroke="none" /><text fill="#e1ed5e" style="font-size:6.75px; font-family:Arial;" text-anchor="middle"><textPath startOffset="22.145653131862474" xlink:href="#id3">March</textPath></text><path d="M 120.26092885502905 94.47779374421319 l 4.935505207831974 -1.345193891611394 a26.11554085728627,26.11554085728627 0 0,0 0.11417530310346342,0.43354222293803385 l -4.957869991740168 1.2602711643005615" fill="#ff3004" stroke="none" /><path d="M 120.65975698304385 96.23510406497455 l 5.403271710056498 -0.9846560980231138 a26.492257532569916,26.492257532569916 0 0,0 0.07769192929457373,0.4481064023443211 l -5.419378456843306 0.8917566627582001" fill="#ff3505" stroke="none" /><line stroke="#e1ed5e" stroke-width="0.3" x1="184.99686870605535" x2="189.99668451229388" y1="99.2704041080226" y2="99.22748670261217" /><path d="M 185.99683186730306 99.26182062694052 a86.0,86.0 0 0,1 -10.086455211305974,41.156179273409016" fill="none" id="id4" stroke="none" /><text fill="#e1ed5e" style="font-size:6.75px; font-family:Arial;" text-anchor="middle"><textPath startOffset="21.40746469413373" xlink:href="#id4">April</textPath></text><line stroke="#e1ed5e" stroke-width="0.3" x1="174.33088141563837" x2="178.70328620479359" y1="141.23008692659167" y2="143.65538615756765" /><path d="M 175.20536237346943 141.71514677278685 a86.0,86.0 0 0,1 -30.301960400862466,31.631185727798858" fill="none" id="id5" stroke="none" /><text fill="#e1ed5e" style="font-size:6.75px; font-family:Arial;" text-anchor="middle"><textPath startOffset="22.145653131862474" xlink:href="#id5">May</textPath></text><path d="M 118.00360718960297 110.81064883170644 l 4.225570373905315 2.5373335990319528 a25.928844365325684,25.928844365325684 0 0,0 -0.23241138829544117,0.3796265363866935 l -4.181391021154469 -2.6094972515432033" fill="#ff2d04" stroke="none" /><path d="M 115.89218393027572 113.72728997021213 l 13.168096317471196 11.374287970657374 a38.400378946035616,38.400378946035616 0 0,0 -0.4351840632835309,0.49515957838000757 l -12.97090119022908 -11.598659826848674" fill="#ffd714" stroke="none" /><path d="M 114.13192950727249 115.5334660781643 l 14.956900401922256 16.44025360501407 a43.22590399129359,43.22590399129359 0 0,0 -0.5531577214112154,0.4946370454256855 l -14.672477653687663 -16.694586180323146" fill="#ecff1a" stroke="none" /><path d="M 113.03279911837588 116.46651593811092 l 6.606756271228094 8.347420722997299 a31.64559350877801,31.64559350877801 0 0,0 -0.42885815279591044,0.3334826935394489 l -6.462488173796953 -8.45960446815754" fill="#ff7d0b" stroke="none" /><path d="M 112.45986205192187 116.90419585922612 l 9.116436279339114 12.368196675205796 a36.364950355657584,36.364950355657584 0 0,0 -0.5056788600314259,0.36607249782106477 l -8.90277640893372 -12.522869944399938" fill="#ffbc11" stroke="none" /><line stroke="#e1ed5e" stroke-width="0.3" x1="143.1302829299769" x2="145.66735839644613" y1="173.24464959558577" y2="177.55315839532614" /><path d="M 143.63769802327073 174.10635135553383 a86.0,86.0 0 0,1 -40.68552437913181,11.842963189579606" fill="none" id="id6" stroke="none" /><text fill="#e1ed5e" style="font-size:6.75px; font-family:Arial;" text-anchor="middle"><textPath startOffset="21.407464694133747" xlink:href="#id6">June</textPath></text><path d="M 110.65571695917076 118.09573695890943 l 18.506590310989196 31.428236275151942 a57.47228975956371,57.47228975956371 0 0,0 -0.8544419882021654,0.49331231189544117 l -17.964355854926634 -31.741295484323558" fill="#4dff2c" stroke="none" /><path d="M 110.34350942703117 118.27599006163325 l 6.792422716943761 12.001560103465469 a34.79037531333893,34.79037531333893 0 0,0 -0.5222794292267063,0.28969959533477657 l -6.585399099560961 -12.116392614233389" fill="#ffa80f" stroke="none" /><path d="M 109.3889696526874 118.78422872680471 l 4.414401795994081 8.831760682519185 a30.873547486580875,30.873547486580875 0 0,0 -0.47609913916428637,0.2328839465973604 l -4.262142407567725 -8.90623837921377" fill="#ff730a" stroke="none" /><path d="M 108.73861861582097 119.09545874513695 l 13.858915206961369 30.284230863188846 a54.30471692851727,54.30471692851727 0 0,0 -0.8509978334711514,0.3806405066561952 l -13.33700397063459 -30.51767512075489" fill="#6eff28" stroke="none" /><path d="M 108.4095320186766 119.2426549942271 l 4.7192551644695735 10.798579368974611 a32.7847649826128,32.7847649826128 0 0,0 -0.517632292238814,0.22094644523801826 l -4.533187797060329 -10.878000463872032" fill="#ff8d0d" stroke="none" /><path d="M 106.0420521117495 120.11202640906438 l 6.889518091925703 22.932965033698686 a44.94548693962639,44.94548693962639 0 0,0 -0.7408300139421397,0.21564482008624616 l -6.494828065601957 -23.04785354808745" fill="#d7ff1c" stroke="none" /><path d="M 104.29559338865022 120.5559693870025 l 3.95133416591503 18.908564382973157 a40.31700931085784,40.31700931085784 0 0,0 -0.6786764040128243,0.13575428824379948 l -3.626161276371247 -18.97360806787982" fill="#ffef16" stroke="none" /><path d="M 103.58742460773223 120.69131181640829 l 6.668152168774012 38.460129717006346 a60.033906173926276,60.033906173926276 0 0,0 -1.016924333603173,0.16733451210930309 l -6.006950332117767 -38.56893022761132" fill="#33ff2f" stroke="none" /><path d="M 103.2317021107853 120.74984581791261 l 4.430159664466998 28.444803027989437 a49.78772540430708,49.78772540430708 0 0,0 -0.8456205571721325,0.12427710136113061 l -3.9412140016871793 -28.51666120264945" fill="#9fff22" stroke="none" /><path d="M 101.80034050326958 120.92268563240118 l 2.451378065408875 28.48872895742083 a49.594001679180124,49.594001679180124 0 0,0 -0.8488391369841122,0.06570551763646905 l -1.9619699336495269 -28.52661224205235" fill="#a1ff22" stroke="none" /><line stroke="#e1ed5e" stroke-width="0.3" x1="101.45913802915013" x2="101.54496967792366" y1="184.9874750549273" y2="189.98673829345242" /><path d="M 101.47630435890484 185.9873277026323 a86.0,86.0 0 0,1 -42.54439059252881,-10.42667462771756" fill="none" id="id7" stroke="none" /><text fill="#e1ed5e" style="font-size:6.75px; font-family:Arial;" text-anchor="middle"><textPath startOffset="22.145653131862474" xlink:href="#id7">July</textPath></text><path d="M 100.0 121.0 l 7.796460832648492e-16 6.36629339828977 a27.36629339828977,27.36629339828977 0 0,0 -0.46977881663911014,-0.0040324861371449465 l 0.1092858917902572 -6.36535531034706" fill="#ff4206" stroke="none" /><path d="M 99.27912038922189 120.98762331915562 l -1.6979358073914284 49.4335484217304 a70.46270004326074,70.46270004326074 0 0,0 -1.2085166378139374,-0.051898904354785724 l 2.546278205806204 -49.39711694894979" fill="#3cffa4" stroke="none" /><path d="M 98.55909050195518 120.95050786540614 l -1.4032957566730173 20.403612320941615 a41.451812504616235,41.451812504616235 0 0,0 -0.7094793636629834,-0.05491818980860865 l 1.7533441151112368 -20.376516364137952" fill="#fffd17" stroke="none" /><path d="M 93.95794788825049 120.11202640906438 l -9.103747463657413 30.30341447311926 a52.64135184551543,52.64135184551543 0 0,0 -0.863216314585874,-0.26742662082620666 l 9.62260441111492 -30.142671264486406" fill="#80ff26" stroke="none" /><path d="M 93.61358852112213 120.00534299687104 l -11.727980514150051 36.73773192068358 a59.564316065714124,59.564316065714124 0 0,0 -0.9714011380985857,-0.31931884857127907 l 12.35690438989638 -36.53099215071028" fill="#38ff2e" stroke="none" /><path d="M 92.93061703081489 119.77432235084164 l -7.627426252107746 21.335268731923925 a43.65769898058391,43.65769898058391 0 0,0 -0.7035351880404053,-0.258347866026193 l 7.992550591802271 -21.20119001688901" fill="#e6ff1a" stroke="none" /><path d="M 92.59220618246901 119.65005319985036 l -18.486282186167493 49.037059801255424 a73.40587622603513,73.40587622603513 0 0,0 -1.1752900801504713,-0.4546274511087275 l 19.325344528811492 -48.712492462008655" fill="#40ffc4" stroke="none" /><path d="M 91.92203290615298 119.3841803445677 l -0.7031429093354038 1.687287012216641 a22.8279352867494,22.8279352867494 0 0,0 -0.3604258403507299,-0.15384435900046026 l 0.7320038248565649 -1.6749680035567769" fill="#ff0000" stroke="none" /><path d="M 91.26138138417905 119.09545874513695 l -4.743851265604727 10.366171144191838 a32.40007144805922,32.40007144805922 0 0,0 -0.5037613809124493,-0.23578576267031412 l 4.921101360388666 -10.283209149950999" fill="#ff880c" stroke="none" /><path d="M 90.6110303473126 118.78422872680471 l -1.8858211706180383 3.7729056027570125 a25.217954264198042,25.217954264198042 0 0,0 -0.3855618399193276,-0.19687062269968383 l 1.9503102322509482 -3.739977028384492" fill="#ff2303" stroke="none" /><line stroke="#e1ed5e" stroke-width="0.3" x1="58.13341422392154" x2="55.67067388415222" y1="173.97424548756322" y2="178.32567169271397" /><path d="M 57.64086615596768 174.84453072859336 a86.0,86.0 0 0,1 -31.369924170532247,-30.572349798747897" fill="none" id="id8" stroke="none" /><text fill="#e1ed5e" style="font-size:6.75px; font-family:Arial;" text-anchor="middle"><textPath startOffset="22.145653131862474" xlink:href="#id8">August</textPath></text><path d="M 89.34428304082925 118.09573695890944 l -19.46369813859138 33.053614610177725 a59.358532089071915,59.358532089071915 0 0,0 -0.8736084708365217,-0.5245767859271977 l 20.02823936598533 -32.714623823714604" fill="#3aff2e" stroke="none" /><path d="M 89.03521579738668 117.91015095944536 l -20.833071804505263 34.029257126531 a60.8999651803762,60.8999651803762 0 0,0 -0.8869235194103107,-0.5535058726919045 l 21.414159452705285 -33.66661545699755" fill="#30ff35" stroke="none" /><path d="M 87.2517909369889 116.68781488649013 l -31.754064550318926 41.56708981553347 a73.30815969997843,73.30815969997843 0 0,0 -0.9934653917955422,-0.7725246975819132 l 32.462939886749695 -41.01586406633077" fill="#40ffc3" stroke="none" /><path d="M 86.96720088162412 116.46651593811092 l -22.64895743709432 28.616217838703683 a57.4947009356078,57.4947009356078 0 0,0 -0.7686472855393569,-0.6191678435440618 l 23.13685549298894 -28.22320170136621" fill="#4dff2c" stroke="none" /><path d="M 86.13680546590413 115.77377054828092 l -38.32852452890048 43.61082504368561 a79.06013997187297,79.06013997187297 0 0,0 -1.0117249806991344,-0.9046907163469792 l 39.07151453642298 -42.94643879745525" fill="#47fffd" stroke="none" /><path d="M 85.60350026404147 115.28858382429668 l -8.454392042782558 8.978271371526692 a33.33231939392752,33.33231939392752 0 0,0 -0.41320570705545334,-0.39584172026788106 l 8.607270235703327 -8.831817520953228" fill="#ff940d" stroke="none" /><path d="M 85.34317274990678 115.03919595460226 l -20.35468792628018 20.885702962498772 a50.16377734131822,50.16377734131822 0 0,0 -0.6115396341037606,-0.6063128310316761 l 20.710219480513906 -20.533210121238437" fill="#9bff22" stroke="none" /><path d="M 84.83555147118756 114.52719865689866 l -41.81105479992002 40.0540446939999 a78.90069774908466,78.90069774908466 0 0,0 -0.9285641506107347,-0.9861029495517053 l 42.49247478426701 -39.3304002845037" fill="#47fffc" stroke="none" /><path d="M 84.3458050057657 113.99807769240083 l -38.65574049985686 34.56620151809657 a72.85642256251327,72.85642256251327 0 0,0 -0.8256677375921775,-0.939458319643827 l 39.243419301407634 -33.89753092064144" fill="#3fffbe" stroke="none" /><path d="M 84.1078160697243 113.72728997021213 l -29.502992095335568 25.483981890619944 a59.985380280034185,59.985380280034185 0 0,0 -0.6664245394964401,-0.7850464318261356 l 29.93611119833912 -24.973768676344257" fill="#34ff2f" stroke="none" /><path d="M 83.64595745247003 113.17365903436017 l -49.06212764258991 39.520977103080526 a84.0,84.0 0 0,0 -0.8949342774337534,-1.1307202243412777 l 49.733328350665225 -38.67293693482457" fill="#4dd2ff" stroke="none" /><line stroke="#e1ed5e" stroke-width="0.3" x1="26.387840678322732" x2="22.057713659400548" y1="142.50000000000003" y2="145.00000000000006" /><path d="M 25.521815274538298 143.00000000000003 a86.0,86.0 0 0,1 -11.493303480769221,-40.785679425670985" fill="none" id="id9" stroke="none" /><text fill="#e1ed5e" style="font-size:6.75px; font-family:Arial;" text-anchor="middle"><textPath startOffset="21.40746469413373" xlink:href="#id9">September</textPath></text><line stroke="#e1ed5e" stroke-width="0.3" x1="15.003131293944662" x2="10.003315487706104" y1="100.72959589197737" y2="100.7725132973878" /><path d="M 14.003168132696942 100.73817937305945 a86.0,86.0 0 0,1 10.791469493833604,-42.45332614584628" fill="none" id="id10" stroke="none" /><text fill="#e1ed5e" style="font-size:6.75px; font-family:Arial;" text-anchor="middle"><textPath startOffset="22.145653131862435" xlink:href="#id10">October</textPath></text><line stroke="#e1ed5e" stroke-width="0.3" x1="26.387840678322718" x2="22.05771365940052" y1="57.49999999999999" y2="54.99999999999999" /><path d="M 25.521815274538284 56.99999999999999 a86.0,86.0 0 0,1 29.574782752854787,-30.34633250058573" fill="none" id="id11" stroke="none" /><text fill="#e1ed5e" style="font-size:6.75px; font-family:Arial;" text-anchor="middle"><textPath startOffset="21.40746469413373" xlink:href="#id11">November</textPath></text><line stroke="#e1ed5e" stroke-width="0.3" x1="56.869717070023135" x2="54.33264160355391" y1="26.7553504044142" y2="22.446841604673864" /><path d="M 56.362301976729285 25.89364864446614 a86.0,86.0 0 0,1 42.16139366436587,-11.88097634709845" fill="none" id="id12" stroke="none" /><text fill="#e1ed5e" style="font-size:6.75px; font-family:Arial;" text-anchor="middle"><textPath startOffset="22.145653131862474" xlink:href="#id12">December</textPath></text></svg>