<?xml version="1.0" encoding="utf-8" ?>
<svg baseProfile="full" height="200mm" version="1.1" viewBox="0,0,200,200" width="200mm" xmlns="http://www.w3.org/2000/svg" xmlns:ev="http://www.w3.org/2001/xml-events" xmlns:xlink="http://www.w3.org/1999/xlink"><defs /><rect fill="#1a1a1a" height="200" width="200" x="0" y="0" /><text alignment-baseline="middle" fill="#e1ed5e" style="dominant-baseline: central; font-size:9.0px; font-family:Arial;" text-anchor="middle" x="100.0" y="100.0">2024</text><line stroke="#e1ed5e" stroke-width="0.3" x1="100.0" x2="100.0" y1="15.0" y2="10.0" /><path d="M 100.0 14.0 a86.0,86.0 0 0,1 42.35913384403234,11.155469271406648" fill="none" id="id1" stroke="none" /><text fill="#e1ed5e" style="font-size:6.75px; font-family:Arial;" text-anchor="middle"><textPath startOffset="22.145653131862478" xlink:href="#id1">January</textPath></text><line stroke="#e1ed5e" stroke-width="0.3" x1="143.13028292997686" x2="145.6673583964461" y1="26.7553504044142" y2="22.446841604673864" /><path d="M 143.63769802327073 25.89364864446614 a86.0,86.0 0 0,1 29.32050498858742,28.57503671076993" fill="none" id="id2" stroke="none" /><text fill="#e1ed5e" style="font-size:6.75px; font-family:Arial;" text-anchor="middle"><textPath startOffset="20.669276256404974" xlink:href="#id2">February</textPath></text><line stroke="#e1ed5e" stroke-width="0.3" x1="172.87174338648825" x2="177.1583165268699" y1="56.24261187166439" y2="53.66864786411523" /><path d="M 173.72905801456457 55.72781907015455 a86.0,86.0 0 0,1 12.242430191666344,42.057860355516425" fill="none" id="id3" stroke="none" /><text fill="#e1ed5e" style="font-size:6.75px; font-family:Arial;" text-anchor="middle"><textPath startOffset="22.145653131862474" xlink:href="#id3">March</textPath></text><path d="M 120.26092885502905 94.47779374421319 l 5.933243568951942 -1.617131918680058 a27.14967437275531,27.14967437275531 0 0,0 0.11869646191167495,0.45070979934631966 l -5.960129511668347 1.5150416149609396" fill="#ff3a05" stroke="none" /><path d="M 120.65975698304385 96.23510406497455 l 6.495571532194827 -1.1837095120382348 a27.602546307202218,27.602546307202218 0 0,0 0.08094799295276676,0.4668865122595331 l -6.514934342639828 1.0720299668581093" fill="#ff4006" stroke="none" /><line stroke="#e1ed5e" stroke-width="0.3" x1="184.99686870605535" x2="189.99668451229388" y1="99.2704041080226" y2="99.22748670261217" /><path d="M 185.99683186730306 99.26182062694052 a86.0,86.0 0 0,1 -10.086455211305974,41.156179273409016" fill="none" id="id4" stroke="none" /><text fill="#e1ed5e" style="font-size:6.75px; font-family:Arial;" text-anchor="middle"><textPath startOffset="21.40746469413373" xlink:href="#id4">April</textPath></text><line stroke="#e1ed5e" stroke-width="0.3" x1="174.33088141563837" x2="178.70328620479359" y1="141.23008692659167" y2="143.65538615756765" /><path d="M 175.20536237346943 141.71514677278685 a86.0,86.0 0 0,1 -30.301960400862466,31.631185727798858" fill="none" id="id5" stroke="none" /><text fill="#e1ed5e" style="font-size:6.75px; font-family:Arial;" text-anchor="middle"><textPath startOffset="22.145653131862474" xlink:href="#id5">May</textPath></text><path d="M 118.00360718960297 110.81064883170644 l 5.079791670839037 3.0502689440692685 a26.925236202066472,26.925236202066472 0 0,0 -0.24134247703971434,0.39421479865308745 l -5.026681229343918 -3.1370208588469133" fill="#ff3705" stroke="none" /><path d="M 115.89218393027572 113.72728997021213 l 15.830096312530438 13.673660164762572 a41.91795715564511,41.91795715564511 0 0,0 -0.475048096404837,0.5405175303324259 l -15.593037152167016 -13.94338997290629" fill="#ffff18" stroke="none" /><path d="M 114.13192950727249 115.5334660781643 l 17.980516559953575 19.76373742228042 a47.718987493159474,47.718987493159474 0 0,0 -0.6106552773328465,0.546051714478332 l -17.638596255797353 -20.069484666642143" fill="#b9ff1f" stroke="none" /><path d="M 113.03279911837588 116.46651593811092 l 7.942346833246723 10.034895767806471 a33.79765628114478,33.79765628114478 0 0,0 -0.45802270820240176,0.35616122822377305 l -7.768914180409091 -10.169758047651037" fill="#ff960d" stroke="none" /><path d="M 112.45986205192187 116.90419585922612 l 10.959371867405883 14.868492746446288 a39.47105596004769,39.47105596004769 0 0,0 -0.5488713276631286,0.39734051347829485 l -10.702519529368788 -15.054434031297658" fill="#ffe115" stroke="none" /><line stroke="#e1ed5e" stroke-width="0.3" x1="143.1302829299769" x2="145.66735839644613" y1="173.24464959558577" y2="177.55315839532614" /><path d="M 143.63769802327073 174.10635135553383 a86.0,86.0 0 0,1 -40.68552437913181,11.842963189579606" fill="none" id="id6" stroke="none" /><text fill="#e1ed5e" style="font-size:6.75px; font-family:Arial;" text-anchor="middle"><textPath startOffset="21.407464694133747" xlink:href="#id6">June</textPath></text><path d="M 110.65571695917076 118.09573695890943 l 22.247794971761113 37.781619694604466 a64.84535514570777,64.84535514570777 0 0,0 -0.9640575381313061,0.5565988791543997 l -21.595944965769405 -38.157965471035034" fill="#35ff63" stroke="none" /><path d="M 110.34350942703117 118.27599006163325 l 8.165546728419477 14.427738661541484 a37.57817228344973,37.57817228344973 0 0,0 -0.5641303433728141,0.31291359193132856 l -7.916672196890568 -14.565785168905958" fill="#ffc812" stroke="none" /><path d="M 109.3889696526874 118.78422872680471 l 5.306796359020976 10.61714759999166 a32.86953709106328,32.86953709106328 0 0,0 -0.5068791761162427,0.2479400050778834 l -5.123756933642664 -10.706681355166765" fill="#ff8a0c" stroke="none" /><path d="M 108.73861861582097 119.09545874513695 l 16.660567877401622 36.40634756590623 a61.0374407909281,61.0374407909281 0 0,0 -0.9565049375375085,0.42783249230889137 l -16.033149537008487 -36.686983809124975" fill="#30ff35" stroke="none" /><path d="M 108.4095320186766 119.2426549942271 l 5.673277440858407 12.98156903838626 a35.16711726567341,35.16711726567341 0 0,0 -0.5552467901269351,0.23700183769015504 l -5.449595575561041 -13.077045525735818" fill="#ffa90f" stroke="none" /><path d="M 106.0420521117495 120.11202640906438 l 8.282270444620279 27.568984647665424 a49.78619318737791,49.78619318737791 0 0,0 -0.820618680640282,0.23887013810958718 l -7.80779175159839 -27.70709848007753" fill="#a2ff22" stroke="none" /><path d="M 104.29559338865022 120.5559693870025 l 4.750117169665356 22.731030218620862 a44.222044438968,44.222044438968 0 0,0 -0.7444118155324434,0.1489032115752942 l -4.359208868601954 -22.80922282685902" fill="#e3ff1b" stroke="none" /><path d="M 103.58742460773223 120.69131181640829 l 8.016154234705098 46.23504741568779 a67.92481580406553,67.92481580406553 0 0,0 -1.150589765832492,0.1893291081169744 l -7.221286965819534 -46.36584252230043" fill="#39ff87" stroke="none" /><path d="M 103.2317021107853 120.74984581791261 l 5.325739763564234 34.19506971000823 a55.607315650040405,55.607315650040405 0 0,0 -0.9444634969961075,0.13880360967168462 l -4.73795116096044 -34.281454392978794" fill="#62ff29" stroke="none" /><path d="M 101.80034050326958 120.92268563240118 l 2.946937046804595 34.2478754973257 a55.37442965400519,55.37442965400519 0 0,0 -0.9477755673470036,0.07336382306427348 l -2.3585924846823554 -34.29341708738502" fill="#64ff29" stroke="none" /><line stroke="#e1ed5e" stroke-width="0.3" x1="101.45913802915013" x2="101.54496967792366" y1="184.9874750549273" y2="189.98673829345242" /><path d="M 101.47630435890484 185.9873277026323 a86.0,86.0 0 0,1 -42.54439059252881,-10.42667462771756" fill="none" id="id7" stroke="none" /><text fill="#e1ed5e" style="font-size:6.75px; font-family:Arial;" text-anchor="middle"><textPath startOffset="22.145653131862474" xlink:href="#id7">July</textPath></text><path d="M 100.0 121.0 l 9.372556435051823e-16 7.653273124608141 a28.65327312460814,28.65327312460814 0 0,0 -0.49187153500871417,-0.004222125553401799 l 0.1313786101598611 -7.652145397249174" fill="#ff4f07" stroke="none" /><path d="M 99.27912038922189 120.98762331915562 l -2.0411824697726844 59.426800482000736 a80.46184525729444,80.46184525729444 0 0,0 -1.3800135198190018,-0.059263718373750954 l 3.0610217501925248 -59.38300419520115" fill="#49f3ff" stroke="none" /><path d="M 98.55909050195518 120.95050786540614 l -1.6869793816457435 24.52830996804752 a45.586254072605634,45.586254072605634 0 0,0 -0.7802434821784824,-0.06039578012527231 l 2.107791858599462 -24.495736420927194" fill="#d2ff1c" stroke="none" /><path d="M 93.95794788825049 120.11202640906438 l -10.944117940832855 36.42940924357771 a59.03781769948067,59.03781769948067 0 0,0 -0.9681059780777632,-0.299921706696648 l 11.567864551782252 -36.23617094907441" fill="#3fff2d" stroke="none" /><path d="M 93.61358852112213 120.00534299687104 l -14.098853517964612 44.16445783713924 a67.36029558328411,67.36029558328411 0 0,0 -1.0985414106000921,-0.36111238146921915 l 14.854917666212447 -43.915924534268" fill="#38ff80" stroke="none" /><path d="M 92.93061703081489 119.77432235084164 l -9.169350624158877 25.648305627288615 a48.23807211275364,48.23807211275364 0 0,0 -0.7773469955355595,-0.2854525841384789 l 9.608286771348556 -25.487122194141417" fill="#b3ff20" stroke="none" /><path d="M 92.59220618246901 119.65005319985036 l -22.223381452592967 58.9501595995511 a84.0,84.0 0 0,0 -1.3449109500258871,-0.5202404474478377 l 23.232064665112382 -58.55997926396522" fill="#4dd2ff" stroke="none" /><path d="M 91.92203290615298 119.3841803445677 l -0.8452869502089011 2.028380964591889 a23.19746202827539,23.19746202827539 0 0,0 -0.3662602263639003,-0.15633471145544522 l 0.8799822517432325 -2.0135716034770397" fill="#ff0000" stroke="none" /><path d="M 91.26138138417905 119.09545874513695 l -5.702845773326149 12.461747214516425 a34.70465590786036,34.70465590786036 0 0,0 -0.5395934207201372,-0.2525569665660671 l 5.9159279079177765 -12.362014016379831" fill="#ffa30f" stroke="none" /><path d="M 90.6110303473126 118.78422872680471 l -2.2670498483128774 4.535618333113687 a26.070635924458827,26.070635924458827 0 0,0 -0.39859864323617544,-0.20352730736416763 l 2.344575713262635 -4.496033074076683" fill="#ff2a04" stroke="none" /><line stroke="#e1ed5e" stroke-width="0.3" x1="58.13341422392154" x2="55.67067388415222" y1="173.97424548756322" y2="178.32567169271397" /><path d="M 57.64086615596768 174.84453072859336 a86.0,86.0 0 0,1 -31.369924170532247,-30.572349798747897" fill="none" id="id8" stroke="none" /><text fill="#e1ed5e" style="font-size:6.75px; font-family:Arial;" text-anchor="middle"><textPath startOffset="22.145653131862474" xlink:href="#id8">August</textPath></text><path d="M 89.34428304082925 118.09573695890944 l -23.398387185482775 39.735576816988235 a67.11291129239768,67.11291129239768 0 0,0 -0.9877334520260602,-0.5931055580544691 l 24.077053394066265 -39.32805725839785" fill="#38ff7d" stroke="none" /><path d="M 89.03521579738668 117.91015095944536 l -25.044586947136906 40.90845060436937 a68.96595319810531,68.96595319810531 0 0,0 -1.0043934466757356,-0.6268157953437851 l 25.743144522602353 -40.47249901218404" fill="#3aff92" stroke="none" /><line stroke="#e1ed5e" stroke-width="0.3" x1="26.387840678322732" x2="22.057713659400548" y1="142.50000000000003" y2="145.00000000000006" /><path d="M 25.521815274538298 143.00000000000003 a86.0,86.0 0 0,1 -11.493303480769221,-40.785679425670985" fill="none" id="id9" stroke="none" /><text fill="#e1ed5e" style="font-size:6.75px; font-family:Arial;" text-anchor="middle"><textPath startOffset="21.40746469413373" xlink:href="#id9">September</textPath></text><line stroke="#e1ed5e" stroke-width="0.3" x1="15.003131293944662" x2="10.003315487706104" y1="100.72959589197737" y2="100.7725132973878" /><path d="M 14.003168132696942 100.73817937305945 a86.0,86.0 0 0,1 10.791469493833604,-42.45332614584628" fill="none" id="id10" stroke="none" /><text fill="#e1ed5e" style="font-size:6.75px; font-family:Arial;" text-anchor="middle"><textPath startOffset="22.145653131862435" xlink:href="#id10">October</textPath></text><line stroke="#e1ed5e" stroke-width="0.3" x1="26.387840678322718" x2="22.05771365940052" y1="57.49999999999999" y2="54.99999999999999" /><path d="M 25.521815274538284 56.99999999999999 a86.0,86.0 0 0,1 29.574782752854787,-30.34633250058573" fill="none" id="id11" stroke="none" /><text fill="#e1ed5e" style="font-size:6.75px; font-family:Arial;" text-anchor="middle"><textPath startOffset="21.40746469413373" xlink:href="#id11">November</textPath></text><line stroke="#e1ed5e" stroke-width="0.3" x1="56.869717070023135" x2="54.33264160355391" y1="26.7553504044142" y2="22.446841604673864" /><path d="M 56.362301976729285 25.89364864446614 a86.0,86.0 0 0,1 42.16139366436587,-11.88097634709845" fill="none" id="id12" stroke="none" /><text fill="#e1ed5e" style="font-size:6.75px; font-family:Arial;" text-anchor="middle"><textPath startOffset="22.145653131862474" xlink:href="#id12">December</textPath></text></svg>