<?xml version="1.0" encoding="utf-8" ?>
<svg baseProfile="full" height="200mm" version="1.1" viewBox="0,0,200,200" width="200mm" xmlns="http://www.w3.org/2000/svg" xmlns:ev="http://www.w3.org/2001/xml-events" xmlns:xlink="http://www.w3.org/1999/xlink"><defs /><rect fill="#1a1a1a" height="200" width="200" x="0" y="0" /><text alignment-baseline="middle" fill="#e1ed5e" style="dominant-baseline: central; font-size:9.0px; font-family:Arial;" text-anchor="middle" x="100.0" y="100.0">2025</text><line stroke="#e1ed5e" stroke-width="0.3" x1="100.0" x2="100.0" y1="15.0" y2="10.0" /><path d="M 100.0 14.0 a86.0,86.0 0 0,1 42.46469731375804,11.215312516191453" fill="none" id="id49" stroke="none" /><text fill="#e1ed5e" style="font-size:6.75px; font-family:Arial;" text-anchor="middle"><textPath startOffset="22.20632615414155" xlink:href="#id49">January</textPath></text><path d="M 100.72285384407766 79.0124445844662 l 0.10483266003199755 -3.04374290848066 a24.045547697793566,24.045547697793566 0 0,0 0.4135366662513214,0.01780775874626688 l -0.1572101586726505 3.041487423210198" fill="#ff1402" stroke="none" /><path d="M 101.44485096284872 79.0497635885617 l 1.1967918952243664 -17.353397537147256 a38.394617469859554,38.394617469859554 0 0,0 0.6589427053246395,0.05114663605207241 l -1.4953247899113469 17.330225638906718" fill="#ffd814" stroke="none" /><path d="M 103.2404852339499 79.25152402106235 l 2.928968926426186 -18.753870801914598 a39.981215162019396,39.981215162019396 0 0,0 0.6790538929223761,0.11204971069046576 l -3.251352025487437 18.700674828284505" fill="#ffec16" stroke="none" /><path d="M 103.59715602781102 79.31037775812273 l 4.0144801998903015 -23.089929430658998 a44.43631567435726,44.43631567435726 0 0,0 0.7524652692387181,0.13750821831641616 l -4.41134059023192 23.017405730991843" fill="#dcff1b" stroke="none" /><path d="M 103.95276090670814 79.375362276772 l 4.2604840126686945 -22.230269262624283 a43.634853556208036,43.634853556208036 0 0,0 0.7364598961096661,0.1477269269046071 l -4.642510318245486 22.15363837964247" fill="#e5ff1a" stroke="none" /><path d="M 105.71112130821622 79.79150937346287 l 8.366410213697892 -29.604085302486 a51.763593523201024,51.763593523201024 0 0,0 0.8553558723018574,0.24970183452729716 l -8.874756303723176 29.45568513904" fill="#88ff25" stroke="none" /><path d="M 107.4271985657038 80.35727306442388 l 7.997166658078022 -21.150122692059043 a43.61155378221996,43.61155378221996 0 0,0 0.6998965631014558,0.2715489929378609 l -8.360046386179144 21.009330995230634" fill="#e6ff1a" stroke="none" /><line stroke="#e1ed5e" stroke-width="0.3" x1="143.23703022742887" x2="145.7803849466894" y1="26.81831364943548" y2="22.513508569990506" /><path d="M 143.74570117128098 25.957352633546492 a86.0,86.0 0 0,1 28.547481713284135,27.462654790039103" fill="none" id="id50" stroke="none" /><text fill="#e1ed5e" style="font-size:6.75px; font-family:Arial;" text-anchor="middle"><textPath startOffset="19.985693538727396" xlink:href="#id50">February</textPath></text><path d="M 113.89432698308785 84.25364557470407 l 1.956166379960864 -2.2169112020470396 a23.95656594444481,23.95656594444481 0 0,0 0.3068596673327499,0.2755016391460531 l -1.994037034889604 2.182910554131689" fill="#ff1302" stroke="none" /><path d="M 114.16331599549186 84.49514656593476 l 5.6271575302860155 -6.160157182488343 a29.343406881101828,29.343406881101828 0 0,0 0.3699953716531337,0.3438703743992855 l -5.732360785733996 6.062382222014417" fill="#ff6008" stroke="none" /><path d="M 114.68862486808459 84.99185889309783 l 8.03344928055451 -8.20819793959555 a32.48524360903252,32.48524360903252 0 0,0 0.39626459216559123,0.39456290607435945 l -8.173549672887424 8.068699182871072" fill="#ff8b0c" stroke="none" /><path d="M 116.15771136456269 86.58626213691792 l 4.343103114581438 -3.605538270667544 a26.644683417618324,26.644683417618324 0 0,0 0.2899214447177377,0.35540941052644864 l -4.404523051375584 3.5302446905329945" fill="#ff3a05" stroke="none" /><path d="M 116.38621287248628 86.86637796730983 l 9.541357562792136 -7.647440252584005 a33.22787171006847,33.22787171006847 0 0,0 0.3538703770716226,0.4493794427815289 l -9.671582020457722 7.4820684158494375" fill="#ff950d" stroke="none" /><path d="M 117.65298651832404 88.62581576622439 l 4.481698943469445 -2.8876512997064574 a26.33143090066743,26.33143090066743 0 0,0 0.24221456196978322,0.38312526908332245 l -4.530741101685185 2.810078382908929" fill="#ff3505" stroke="none" /><line stroke="#e1ed5e" stroke-width="0.3" x1="172.23445277983987" x2="176.4835382374775" y1="55.19839476539836" y2="52.563006222186495" /><path d="M 173.08426987136738 54.67131705675599 a86.0,86.0 0 0,1 12.851231095245387,41.99856678651699" fill="none" id="id51" stroke="none" /><text fill="#e1ed5e" style="font-size:6.75px; font-family:Arial;" text-anchor="middle"><textPath startOffset="22.20632615414155" xlink:href="#id51">March</textPath></text><path d="M 117.84615892207809 88.93136811851018 l 23.728222243884833 -14.716833934209788 a48.9215639229306,48.9215639229306 0 0,0 0.4376947135356802,0.7194550249767031 l -23.97803275570674 14.306211136026004" fill="#a8ff21" stroke="none" /><path d="M 118.89224826269711 90.83032412892265 l 22.598723629550854 -10.968677094520357 a46.11999575813411,46.11999575813411 0 0,0 0.34050130677865026,0.7171825907354666 l -22.78418313017126 10.57805208814435" fill="#c8ff1d" stroke="none" /><path d="M 120.08093135843002 93.85539295169968 l 12.071877009176376 -3.6938994129702087 a33.6243854265395,33.6243854265395 0 0,0 0.1645899302424514,0.5549154227403256 l -12.13367283653053 3.485554603483353" fill="#ff9a0e" stroke="none" /><path d="M 120.37134235888165 94.90015583598534 l 26.357406432349087 -6.598419633057356 a48.17079342775904,48.17079342775904 0 0,0 0.19444301276598366,0.8060918196761211 l -26.467082245375888 6.1437425817218285" fill="#b0ff20" stroke="none" /><path d="M 120.6074358757038 95.95851677861258 l 11.279845259928107 -2.212177469958477 a32.49472219092373,32.49472219092373 0 0,0 0.10292204396569157,0.5498136743428069 l -11.316253027803658 2.0176857181531074" fill="#ff8b0c" stroke="none" /><path d="M 120.73433829027371 96.67025291283417 l 13.404669929193341 -2.152668680634404 a34.57641920239665,34.57641920239665 0 0,0 0.08931271274772579,0.5884591863447628 l -13.439738535380368 1.9216103818975594" fill="#ffa70f" stroke="none" /><path d="M 120.83666639777658 97.38593545837742 l 4.569850216417526 -0.5733106814311729 a25.6056721700458,25.6056721700458 0 0,0 0.051101175321545095,0.4378036631931429 l -4.579041744742661 0.49456327991317733" fill="#ff2b04" stroke="none" /><path d="M 120.96714384426684 98.82574320788733 l 24.539633754812108 -1.3743327096229505 a45.57808811150805,45.57808811150805 0 0,0 0.03712745862874636,0.7837019713535168 l -24.559654821674354 0.9517196316464339" fill="#ceff1d" stroke="none" /><line stroke="#e1ed5e" stroke-width="0.3" x1="184.98032266829074" x2="189.97916517819016" y1="98.17113171792111" y2="98.06355123074" /><path d="M 185.9800911702706 98.14961562048488 a86.0,86.0 0 0,1 -9.607161424134198,41.387399972396054" fill="none" id="id52" stroke="none" /><text fill="#e1ed5e" style="font-size:6.75px; font-family:Arial;" text-anchor="middle"><textPath startOffset="21.466115282336823" xlink:href="#id52">April</textPath></text><path d="M 120.99824983174949 100.27111621757518 l 7.255354106019356 0.09367657676966835 a28.255958827389197,28.255958827389197 0 0,0 -0.010465384596878258,0.48628529927779335 l -7.25266665873747 -0.21855169183757653" fill="#ff5107" stroke="none" /><path d="M 120.9764740272857 100.99374915477107 l 41.738285276957 1.9773287761144587 a62.78509646930944,62.78509646930944 0 0,0 -0.06043409092967828,1.079091290875368 l -41.698064835139796 -2.69549178332525" fill="#32ff4d" stroke="none" /><path d="M 120.76222939487914 103.15116336523771 l 17.806470216087888 2.702556432738955 a39.01039124584926,39.01039124584926 0 0,0 -0.1064765327567539,0.663029471116094 l -17.75731192896985 -3.008665133548254" fill="#ffe015" stroke="none" /><path d="M 120.70491114924044 103.5080841355445 l 14.546779261176153 2.4646966693828043 a35.7541016854789,35.7541016854789 0 0,0 -0.10803452156714502,0.605914970201894 l -14.502198297269821 -2.714730390317917" fill="#ffb610" stroke="none" /><path d="M 120.64145759157962 103.86396538481128 l 16.533701229612888 3.0950163742359504 a37.82089185230353,37.82089185230353 0 0,0 -0.12529533243261504,0.6388782006977373 l -16.47797596420461 -3.379158302001633" fill="#ffd113" stroke="none" /><path d="M 120.5718875245553 104.21870165774334 l 27.269105410630473 5.592108165266251 a48.83659073284862,48.83659073284862 0 0,0 -0.17596512301056882,0.8220504728995416 l -27.16880624889546 -6.060672457581961" fill="#a9ff21" stroke="none" /><path d="M 120.32669344350535 105.2749913415812 l 20.653977498611873 5.359925005864716 a42.33812509527628,42.33812509527628 0 0,0 -0.18913433139382593,0.703839206814705 l -20.55865509087627 -5.7146551458549695" fill="#f5ff19" stroke="none" /><path d="M 120.23288151984713 105.62410040840565 l 14.667816575449825 4.07718856612125 a36.22393870503788,36.22393870503788 0 0,0 -0.1721626573213997,0.5993207957545545 l -14.595461281242326 -4.3290668373803864" fill="#ffbc11" stroke="none" /><path d="M 120.13307415673323 105.97154293290107 l 7.141645506100121 2.1182380007761674 a28.449163225673892,28.449163225673892 0 0,0 -0.14329332447044613,0.4682908752656847 l -7.104125409123543 -2.240855848593909" fill="#ff5307" stroke="none" /><path d="M 120.02730092923936 106.31721596034902 l 19.990771085620207 6.305693343699112 a41.96169595100645,41.96169595100645 0 0,0 -0.22321174277274256,0.686975106035872 l -19.879267091831217 -6.648867349712779" fill="#f9ff18" stroke="none" /><path d="M 119.41010516605496 108.01547362559984 l 16.89253050565877 6.975831999846317 a39.27620909747675,39.27620909747675 0 0,0 -0.2634293101840624,0.6226690735148759 l -16.7699502142824 -7.265575599027357" fill="#ffe315" stroke="none" /><path d="M 119.12269723197855 108.67885076344098 l 17.908265208957328 8.127679861016237 a40.66634543369765,40.66634543369765 0 0,0 -0.2947833340651619,0.634937076419839 l -17.765707258052334 -8.434737004714906" fill="#fff517" stroke="none" /><path d="M 118.97047184881838 109.00673069616215 l 23.85396923719799 11.325299584857774 a47.40595120528643,47.40595120528643 0 0,0 -0.35632738165886774,0.734139946901448 l -23.655488598924407 -11.734228487724499" fill="#b9ff1f" stroke="none" /><line stroke="#e1ed5e" stroke-width="0.3" x1="174.80103733775053" x2="179.2010983576182" y1="140.37084112569926" y2="142.7455964860345" /><path d="M 175.68104954172406 140.8457921977663 a86.0,86.0 0 0,1 -30.038265399797805,32.042727171017184" fill="none" id="id53" stroke="none" /><text fill="#e1ed5e" style="font-size:6.75px; font-family:Arial;" text-anchor="middle"><textPath startOffset="22.206326154141568" xlink:href="#id53">May</textPath></text><path d="M 118.30583269289576 110.29060199501025 l 33.0245341150743 18.564702428464543 a58.88493143421463,58.88493143421463 0 0,0 -0.5043017797689285,0.8792926607506462 l -32.700080339153 -19.130414935073503" fill="#3eff2d" stroke="none" /><path d="M 117.94076556474637 110.91462005526583 l 11.389128597523976 6.928801948496678 a34.331186993378715,34.331186993378715 0 0,0 -0.31149071830523617,0.5022222187119403 l -11.268173239550777 -7.123820498573892" fill="#ffa40f" stroke="none" /><path d="M 116.71984013943494 112.70617746262583 l 17.130375342153375 13.018162092675757 a42.51562928743281,42.51562928743281 0 0,0 -0.44781749333637944,0.5788644765428633 l -16.90375103159893 -13.311104563331874" fill="#f3ff19" stroke="none" /><path d="M 114.81725581225074 114.88116024355365 l 1.4400266687474828 1.446237271202713 a23.040901529060097,23.040901529060097 0 0,0 -0.2834580003493958,0.27742331334257136 l -1.4149187160222927 -1.4708106874678564" fill="#ff0600" stroke="none" /><path d="M 113.48314897796784 116.09983520530334 l 26.8505700588641 32.061483101799716 a62.81975383922003,62.81975383922003 0 0,0 -0.8349938006664587,0.6871430518599689 l -26.294706129652948 -32.51892127251686" fill="#32ff4d" stroke="none" /><path d="M 113.20401910651253 116.32954008644616 l 5.90440901041784 7.302040601776869 a30.390518766942606,30.390518766942606 0 0,0 -0.4096099347340872,0.3254189050702928 l -5.777841582966402 -7.402593420852288" fill="#ff6e0a" stroke="none" /><path d="M 111.45004920935366 117.60387380957326 l 8.048357727152482 12.373944531815143 a35.761116671195744,35.761116671195744 0 0,0 -0.5189077632779162,0.3311914857950436 l -7.834168161827635 -12.510650446433996" fill="#ffb610" stroke="none" /><path d="M 111.1453310114006 117.79835938074945 l 18.23864643062043 29.12591680395609 a55.36520410665642,55.36520410665642 0 0,0 -0.8120778316592066,0.4988445311133446 l -17.734589399028916 -29.435549801897814" fill="#62ff29" stroke="none" /><line stroke="#e1ed5e" stroke-width="0.3" x1="143.8653032363475" x2="146.44561519142675" y1="172.8068346515853" y2="177.08958963109032" /><path d="M 144.38136562736335 173.6633856474863 a86.0,86.0 0 0,1 -40.68145358897372,12.25698825130547" fill="none" id="id54" stroke="none" /><text fill="#e1ed5e" style="font-size:6.75px; font-family:Arial;" text-anchor="middle"><textPath startOffset="21.466115282336833" xlink:href="#id54">June</textPath></text><path d="M 110.21172684928248 118.3499491758327 l 8.980603166611216 16.137683088068197 a39.468244331475304,39.468244331475304 0 0,0 -0.596491447924037,0.32525469715196426 l -8.701488906818529 -16.289878436979933" fill="#ffe615" stroke="none" /><path d="M 109.89434966115114 118.52300852407294 l 5.99269944100481 11.21880938408485 a33.719045977849504,33.719045977849504 0 0,0 -0.5143103421348845,0.2690628631970501 l -5.798698196343429 -11.320301666226616" fill="#ff9b0e" stroke="none" /><path d="M 109.2508944713604 118.85261126421891 l 7.520486630730393 15.326173204748045 a38.071886371017456,38.071886371017456 0 0,0 -0.5908164511261514,0.28362780039716023 l -7.255557511604009 -15.453355281644765" fill="#ffd413" stroke="none" /><path d="M 108.92500713936063 119.00905698771935 l 10.768109815350623 22.934616178322052 a46.3367087097437,46.3367087097437 0 0,0 -0.7249091324739699,0.3327702281710981 l -10.371732687109235 -23.116573476827224" fill="#c5ff1e" stroke="none" /><path d="M 107.59598834532513 119.57807347666477 l 4.531146480038524 11.67868020417929 a33.526885476248864,33.526885476248864 0 0,0 -0.5398303992704561,0.20411766555299996 l -4.329445860007793 -11.754946119838921" fill="#ff990e" stroke="none" /><path d="M 105.18746579009965 120.34920634021253 l 3.3947804567329056 13.316924060611825 a34.742816333834845,34.742816333834845 0 0,0 -0.5807786453696493,0.14274126075762084 l -3.165048526620045 -13.373386579683476" fill="#ffa90f" stroke="none" /><path d="M 104.48393922423573 120.51570834832081 l 3.268220105669687 14.953336152201292 a36.30632303134341,36.30632303134341 0 0,0 -0.6116898615520251,0.1281855578373499 l -3.010338782688284 -15.007377690765184" fill="#ffbd11" stroke="none" /><path d="M 104.13013068566511 120.58985236759428 l 5.954445792515451 29.684571537714586 a51.27588499241104,51.27588499241104 0 0,0 -0.8668857030382207,0.16614070819263732 l -5.442592474905527 -29.78266944425569" fill="#8eff24" stroke="none" /><path d="M 101.62511606390274 120.93702456842531 l 4.8753481917081976 62.81107370527595 a84.0,84.0 0 0,0 -1.4425489568842786,0.09948662193485935 l -3.7934364740449884 -62.885688671727095" fill="#4dd2ff" stroke="none" /><path d="M 100.90346689309514 120.98055641714683 l 0.9303426933137949 21.60467363389583 a42.62469561298276,42.62469561298276 0 0,0 -0.7333064305254001,0.02525655616851145 l -0.5583159111137425 -21.617486988490434" fill="#f1ff19" stroke="none" /><line stroke="#e1ed5e" stroke-width="0.3" x1="102.19456741930631" x2="102.32365962044197" y1="184.97166512339345" y2="189.96999836594603" /><path d="M 102.22038585953345 185.97133177190398 a86.0,86.0 0 0,1 -42.740103519485714,-10.115201625700543" fill="none" id="id55" stroke="none" /><text fill="#e1ed5e" style="font-size:6.75px; font-family:Arial;" text-anchor="middle"><textPath startOffset="22.20632615414155" xlink:href="#id55">July</textPath></text><path d="M 100.54218724476979 120.99299961872073 l 0.34942988138220477 13.529608889528275 a34.53412050875879,34.53412050875879 0 0,0 -0.5943820583795121,0.010232826167142377 l -0.1164881331100248 -13.533619192974577" fill="#ffa60f" stroke="none" /><path d="M 100.18074693466247 120.99922214144158 l 0.19014996338691462 22.091668269813624 a43.092486595040995,43.092486595040995 0 0,0 -0.7417937960987249,0.0 l 0.19014996338689938 -22.091668269813624" fill="#ecff1a" stroke="none" /><path d="M 99.45781275523022 120.99299961872073 l -0.4404449783534579 17.053631105924833 a38.05931785494144,38.05931785494144 0 0,0 -0.6547646176255344,-0.022551417325447822 l 0.7339299476536354 -17.043522890173293" fill="#ffd413" stroke="none" /><path d="M 99.09653310690486 120.98055641714683 l -1.734346011525486 40.27545958768447 a61.31278458611982,61.31278458611982 0 0,0 -1.0540307997325133,-0.054481352777356426 l 2.4273648796714884 -40.239638428144914" fill="#31ff3b" stroke="none" /><path d="M 98.73552117531835 120.96189622390904 l -1.0072618889770382 16.697882775815604 a37.72823558262691,37.72823558262691 0 0,0 -0.6479146057714621,-0.044683984639025134 l 1.2945392555274302 -16.678070446660293" fill="#ffd013" stroke="none" /><path d="M 98.37488393609728 120.93702456842531 l -2.6205129823188282 33.76112384301135 a54.86267224295287,54.86267224295287 0 0,0 -0.9409096739134701,-0.0811856458066847 l 3.20126697397384 -33.711013944925995" fill="#67ff28" stroke="none" /><path d="M 97.65516085044442 120.86867818915974 l -1.3769334623865508 12.254478657897073 a33.33159328459606,33.33159328459606 0 0,0 -0.5696092750402855,-0.0689717506154211 l 1.5876701604782255 -12.228961378556303" fill="#ff960d" stroke="none" /><path d="M 96.58105272829116 120.7198165907248 l -1.7709787472025553 10.732647189895996 a31.87777925064788,31.87777925064788 0 0,0 -0.5406335174907232,-0.09399606689493767 l 1.9554612361653283 -10.700572544480053" fill="#ff830c" stroke="none" /><path d="M 95.86986931433489 120.58985236759428 l -4.52092415099484 22.538066690518086 a43.98702254154046,43.98702254154046 0 0,0 -0.7410944838807167,-0.15530355462390683 l 4.908210096304943 -22.456907155167638" fill="#e1ff1b" stroke="none" /><path d="M 95.51606077576429 120.51570834832081 l -0.9402640187579073 4.3020615165775995 a25.403615527880326,25.403615527880326 0 0,0 -0.42639345743563867,-0.09704576269443607 l 1.0141776255864088 -4.285239020305476" fill="#ff2803" stroke="none" /><path d="M 95.16358092515715 120.4354850818985 l -2.5718189027100182 10.86679338708523 a32.16698038799817,32.16698038799817 0 0,0 -0.5377196573779203,-0.13215840912922663 l 2.7584918448311493 -10.820913719641972" fill="#ff870c" stroke="none" /><path d="M 94.81253420990036 120.34920634021253 l -7.409872170617251 29.067183063118126 a50.99678877496238,50.99678877496238 0 0,0 -0.8487554791796722,-0.22416403626985865 l 7.909118092608413 -28.935327677544684" fill="#91ff24" stroke="none" /><path d="M 94.46302465271185 120.25689768951611 l -6.951912061962377 25.433411303638263 a47.366408398894464,47.366408398894464 0 0,0 -0.7846331981334868,-0.2217451792817005 l 7.388676428200477 -25.309977331018043" fill="#b9ff1f" stroke="none" /><path d="M 94.11515582081647 120.15858648285463 l -5.65950882792404 19.386698217388407 a41.19589334358451,41.19589334358451 0 0,0 -0.6789966493573855,-0.20457612055693367 l 5.992380451721671 -19.286406727725748" fill="#fffb17" stroke="none" /><path d="M 93.76903079525671 120.05430185196036 l -2.8704987369351795 9.238666769905933 a30.67433339740318,30.67433339740318 0 0,0 -0.5028818210614292,-0.16100687861937354 l 3.029101903087549 -9.187887044626853" fill="#ff720a" stroke="none" /><path d="M 93.42475214034765 119.94407469862007 l -0.8556315995975824 2.595306047942079 a23.732712739516295,23.732712739516295 0 0,0 -0.3868774233448913,-0.13124982716058506 l 0.9001787558796994 -2.5801932338833713" fill="#ff1001" stroke="none" /><path d="M 93.08242187328487 119.8279376855182 l -17.15559558821843 49.17329071680089 a73.08000556744898,73.08000556744898 0 0,0 -1.1841760192225506,-0.4246033895284773 l 17.999491168070705 -48.87069978623246" fill="#3fffc0" stroke="none" /><path d="M 92.7421414339146 119.70592522655815 l -14.196991325710492 38.546473034599195 a62.077793832061886,62.077793832061886 0 0,0 -0.9995405106725597,-0.377940693854703 l 14.858402057143334 -38.29638409063786" fill="#31ff44" stroke="none" /><path d="M 92.40401165467489 119.57807347666478 l -1.0739615990827382 2.768053101463561 a23.96909270465346,23.96909270465346 0 0,0 -0.3833672888519978,-0.15254975603335538 l 1.121449963976594 -2.749156501024139" fill="#ff1302" stroke="none" /><path d="M 92.06813273071674 119.44442032107085 l -0.6230225005902089 1.5272962796382383 a22.649482028407245,22.649482028407245 0 0,0 -0.359726127813006,-0.15036555060048984 l 0.6492200879006772 -1.5163456860177753" fill="#ff0000" stroke="none" /><path d="M 91.7346041902142 119.30500536409082 l -20.04151269654516 46.8097982256612 a71.91973528105675,71.91973528105675 0 0,0 -1.1338636874117125,-0.49705251937909123 l 20.844297058614615 -46.45788115298765" fill="#3effb4" stroke="none" /><path d="M 91.07499286063937 119.00905698771935 l -9.519678323645039 20.275626106881603 a43.39922519668339,43.39922519668339 0 0,0 -0.6734884623906581,-0.3233153897739788 l 9.86727945403594 -20.10875644060806" fill="#e8ff1a" stroke="none" /><path d="M 90.7491055286396 118.85261126421891 l -10.145382028011756 20.675508092026885 a44.03053215533183,44.03053215533183 0 0,0 -0.6775378289830496,-0.33973153290670555 l 10.499773764677567 -20.49780871821088" fill="#e1ff1b" stroke="none" /><path d="M 90.42595943632237 118.69057910512821 l -12.564978780453133 24.52953152729344 a48.56041742611531,48.56041742611531 0 0,0 -0.74068302279503,-0.38749035068482107 l 12.985352705774659 -24.3096117576639" fill="#acff21" stroke="none" /><line stroke="#e1ed5e" stroke-width="0.3" x1="58.666819895761336" x2="56.23545636021788" y1="174.27360380694188" y2="178.64263932499728" /><path d="M 58.180547188652646 175.14741091055294 a86.0,86.0 0 0,1 -31.652253787137756,-30.449443065178592" fill="none" id="id56" stroke="none" /><text fill="#e1ed5e" style="font-size:6.75px; font-family:Arial;" text-anchor="middle"><textPath startOffset="22.20632615414155" xlink:href="#id56">August</textPath></text><path d="M 89.7882731507175 118.34994917583269 l -8.23978477660597 14.806470453245943 a37.944781510767044,37.944781510767044 0 0,0 -0.5679994693721427,-0.32252492258505977 l 8.493433012899322 -14.66244236486625" fill="#ffd213" stroke="none" /><path d="M 89.4739219176387 118.17145234162733 l -7.4205302881805055 12.810261469296023 a35.80429223804821,35.80429223804821 0 0,0 -0.5306402904557009,-0.3135116368925775 l 7.639938449664588 -12.680631260109696" fill="#ffb711" stroke="none" /><path d="M 89.1626897886671 117.98757091392108 l -10.641619894453886 17.66276767553559 a41.620801049861804,41.620801049861804 0 0,0 -0.6104796399446019,-0.37500645611787625 l 10.944078734330796 -17.476972752589337" fill="#feff18" stroke="none" /><path d="M 88.8546689885994 117.79835938074946 l -11.4618062005881 18.303749408778963 a42.5963016231765,42.5963016231765 0 0,0 -0.6180889652419073,-0.394493621484619 l 11.77517696787693 -18.103741358470536" fill="#f2ff19" stroke="none" /><path d="M 88.54995079064634 117.60387380957326 l -0.9806424496665973 1.5076883619101962 a22.798550474890142,22.798550474890142 0 0,0 -0.3271323852446885,-0.2168055069564297 l 1.0064495336512476 -1.490584833862448" fill="#ff0200" stroke="none" /><path d="M 88.24862548938628 117.40417183066458 l -2.740403681103058 4.058627908439669 a25.89716988010101,25.89716988010101 0 0,0 -0.36729970269235884,-0.25263208472930343 l 2.809860268418307 -4.010855034345264" fill="#ff2f04" stroke="none" /><path d="M 87.95078237400918 117.19931262002967 l -17.270215170977888 24.65187690693755 a51.09942469693857,51.09942469693857 0 0,0 -0.7160554405215569,-0.5108865443610223 l 17.69199793934833 -24.35094610073231" fill="#90ff24" stroke="none" /><path d="M 87.65650970185807 116.9893568818739 l -19.80197663213973 27.255082626069797 a54.68913485819574,54.68913485819574 0 0,0 -0.7568325973617944,-0.559886662216253 l 20.268194199920092 -26.910186015113776" fill="#69ff28" stroke="none" /><path d="M 87.36589467227662 116.77436683061367 l -10.18602289854911 13.524035158260208 a37.93087680693546,37.93087680693546 0 0,0 -0.5181561361410709,-0.3973000298818377 l 10.417307763183667 -13.346695786551003" fill="#ffd213" stroke="none" /><path d="M 87.07902340077011 116.55440617244103 l -23.201287429376777 29.72558094814177 a58.708220603537974,58.708220603537974 0 0,0 -0.7912819979870402,-0.6286422753733777 l 23.709526920081174 -29.32180475876326" fill="#40ff2d" stroke="none" /><path d="M 86.24171649860922 115.8653595955263 l -6.2205949092925 7.1732767480804815 a30.494824923613276,30.494824923613276 0 0,0 -0.39361216630096,-0.34731697225875835 l 6.343149428500047 -7.065136634049434" fill="#ff700a" stroke="none" /><path d="M 85.70375840098266 115.38237550388516 l -10.355496346356615 11.142238484534099 a36.21137018896187,36.21137018896187 0 0,0 -0.4529252064880436,-0.42826905290043277 l 10.545757387235476 -10.962334794887736" fill="#ffbc11" stroke="none" /><path d="M 85.18274418774928 114.88116024355367 l -14.758704489549025 14.822356398453298 a41.91701717292894,41.91701717292894 0 0,0 -0.5069152133701672,-0.5135024348434141 l 15.011660327974726 -14.56611346962922" fill="#faff18" stroke="none" /><line stroke="#e1ed5e" stroke-width="0.3" x1="26.63291911575756" x2="22.317208475507996" y1="142.92168965132927" y2="145.44649492493687" /><path d="M 25.769776987707644 143.4266507060508 a86.0,86.0 0 0,1 -11.730757126820373,-40.83630448921669" fill="none" id="id57" stroke="none" /><text fill="#e1ed5e" style="font-size:6.75px; font-family:Arial;" text-anchor="middle"><textPath startOffset="21.46611528233685" xlink:href="#id57">September</textPath></text><line stroke="#e1ed5e" stroke-width="0.3" x1="15.007084014347285" x2="10.007500721073583" y1="101.09737516637583" y2="101.16192664675087" /><path d="M 14.007167355692545 101.11028546245083 a86.0,86.0 0 0,1 10.666146001902534,-42.60595125391555" fill="none" id="id58" stroke="none" /><text fill="#e1ed5e" style="font-size:6.75px; font-family:Arial;" text-anchor="middle"><textPath startOffset="22.20632615414155" xlink:href="#id58">October</textPath></text><line stroke="#e1ed5e" stroke-width="0.3" x1="26.266209847984243" x2="21.928928074336255" y1="57.711370442889674" y2="55.22380399835377" /><path d="M 25.398753493254645 57.213857153982495 a86.0,86.0 0 0,1 29.58750427330803,-30.492523968695096" fill="none" id="id59" stroke="none" /><text fill="#e1ed5e" style="font-size:6.75px; font-family:Arial;" text-anchor="middle"><textPath startOffset="21.46611528233685" xlink:href="#id59">November</textPath></text><line stroke="#e1ed5e" stroke-width="0.3" x1="56.762969772571076" x2="54.21961505331055" y1="26.818313649435495" y2="22.513508569990535" /><path d="M 56.25429882871897 25.957352633546506 a86.0,86.0 0 0,1 42.265352541879196,-11.944610805530505" fill="none" id="id60" stroke="none" /><text fill="#e1ed5e" style="font-size:6.75px; font-family:Arial;" text-anchor="middle"><textPath startOffset="22.20632615414155" xlink:href="#id60">December</textPath></text></svg>