<?xml version="1.0" encoding="utf-8" ?>
<svg baseProfile="full" height="200mm" version="1.1" viewBox="0,0,200,200" width="200mm" xmlns="http://www.w3.org/2000/svg" xmlns:ev="http://www.w3.org/2001/xml-events" xmlns:xlink="http://www.w3.org/1999/xlink"><defs /><rect fill="#1a1a1a" height="200" width="200" x="0" y="0" /><text alignment-baseline="middle" fill="#e1ed5e" style="dominant-baseline: central; font-size:9.0px; font-family:Arial;" text-anchor="middle" x="100.0" y="100.0">2024</text><line stroke="#e1ed5e" stroke-width="0.3" x1="100.0" x2="100.0" y1="15.0" y2="10.0" /><path d="M 100.0 14.0 a86.0,86.0 0 0,1 42.35913384403234,11.155469271406648" fill="none" id="id1" stroke="none" /><text fill="#e1ed5e" style="font-size:6.75px; font-family:Arial;" text-anchor="middle"><textPath startOffset="22.145653131862478" xlink:href="#id1">January</textPath></text><line stroke="#e1ed5e" stroke-width="0.3" x1="143.13028292997686" x2="145.6673583964461" y1="26.7553504044142" y2="22.446841604673864" /><path d="M 143.63769802327073 25.89364864446614 a86.0,86.0 0 0,1 29.32050498858742,28.57503671076993" fill="none" id="id2" stroke="none" /><text fill="#e1ed5e" style="font-size:6.75px; font-family:Arial;" text-anchor="middle"><textPath startOffset="20.669276256404974" xlink:href="#id2">February</textPath></text><line stroke="#e1ed5e" stroke-width="0.3" x1="172.87174338648825" x2="177.1583165268699" y1="56.24261187166439" y2="53.66864786411523" /><path d="M 173.72905801456457 55.72781907015455 a86.0,86.0 0 0,1 12.242430191666344,42.057860355516425" fill="none" id="id3" stroke="none" /><text fill="#e1ed5e" style="font-size:6.75px; font-family:Arial;" text-anchor="middle"><textPath startOffset="22.145653131862474" xlink:href="#id3">March</textPath></text><path d="M 120.26092885502905 94.47779374421319 l 4.88721641358423 -1.3320325660084413 a26.065490601127806,26.065490601127806 0 0,0 0.11395648691280795,0.4327113422209874 l -4.909362381301769 1.2479407194146555" fill="#ff3004" stroke="none" /><path d="M 120.65975698304385 96.23510406497455 l 5.3504063062357226 -0.9750222604077114 a26.43852149486398,26.43852149486398 0 0,0 0.0775343414998421,0.4471974778216359 l -5.366355465227799 0.8830317496654829" fill="#ff3505" stroke="none" /><line stroke="#e1ed5e" stroke-width="0.3" x1="184.99686870605535" x2="189.99668451229388" y1="99.2704041080226" y2="99.22748670261217" /><path d="M 185.99683186730306 99.26182062694052 a86.0,86.0 0 0,1 -10.086455211305974,41.156179273409016" fill="none" id="id4" stroke="none" /><text fill="#e1ed5e" style="font-size:6.75px; font-family:Arial;" text-anchor="middle"><textPath startOffset="21.40746469413373" xlink:href="#id4">April</textPath></text><line stroke="#e1ed5e" stroke-width="0.3" x1="174.33088141563837" x2="178.70328620479359" y1="141.23008692659167" y2="143.65538615756765" /><path d="M 175.20536237346943 141.71514677278685 a86.0,86.0 0 0,1 -30.301960400862466,31.631185727798858" fill="none" id="id5" stroke="none" /><text fill="#e1ed5e" style="font-size:6.75px; font-family:Arial;" text-anchor="middle"><textPath startOffset="22.145653131862474" xlink:href="#id5">May</textPath></text><path d="M 118.00360718960297 110.81064883170644 l 4.1842275549288335 2.5125084241122475 a25.880620740506348,25.880620740506348 0 0,0 -0.23197913919729438,0.3789204899696516 l -4.140480451276134 -2.583966030206456" fill="#ff2d04" stroke="none" /><path d="M 115.89218393027572 113.72728997021213 l 13.039260166574262 11.263002372040624 a38.230134303719254,38.230134303719254 0 0,0 -0.43325471369821555,0.49296433271773715 l -12.84399438891746 -11.485178982569655" fill="#ffd513" stroke="none" /><path d="M 114.13192950727249 115.5334660781643 l 14.81056266025676 16.279402792324525 a43.00844659643509,43.00844659643509 0 0,0 -0.5503749401171985,0.49214866523309453 l -14.528922693316185 -16.53124698744101" fill="#eeff19" stroke="none" /><path d="M 113.03279911837588 116.46651593811092 l 6.54211602047523 8.265749877801447 a31.541437428915152,31.541437428915152 0 0,0 -0.42744663924663673,0.3323850920660703 l -6.399259436593363 -8.376836021488309" fill="#ff7c0b" stroke="none" /><path d="M 112.45986205192187 116.90419585922612 l 9.027241415342798 12.247186711825169 a36.214620268846254,36.214620268846254 0 0,0 -0.5035884200285193,0.3645591804690965 l -8.815671984940312 -12.400346663667342" fill="#ffbb11" stroke="none" /><line stroke="#e1ed5e" stroke-width="0.3" x1="143.1302829299769" x2="145.66735839644613" y1="173.24464959558577" y2="177.55315839532614" /><path d="M 143.63769802327073 174.10635135553383 a86.0,86.0 0 0,1 -40.68552437913181,11.842963189579606" fill="none" id="id6" stroke="none" /><text fill="#e1ed5e" style="font-size:6.75px; font-family:Arial;" text-anchor="middle"><textPath startOffset="21.407464694133747" xlink:href="#id6">June</textPath></text><path d="M 110.65571695917076 118.09573695890943 l 18.32552253897337 31.120743613073095 a57.11544627104933,57.11544627104933 0 0,0 -0.8491367870160149,0.490249352562512 l -17.788593284096958 -31.43073986291178" fill="#51ff2b" stroke="none" /><path d="M 110.34350942703117 118.27599006163325 l 6.7259659127848455 11.884137298284648 a34.65545080853884,34.65545080853884 0 0,0 -0.5202539180696402,0.28857607843996613 l -6.520967806559111 -11.997846292157758" fill="#ffa60f" stroke="none" /><path d="M 109.3889696526874 118.78422872680471 l 4.371211457603725 8.74535107367778 a30.77694507548054,30.77694507548054 0 0,0 -0.4746094391294571,0.23215525966050465 l -4.220441769212199 -8.819100083435508" fill="#ff720a" stroke="none" /><path d="M 108.73861861582097 119.09545874513695 l 13.723320110462653 29.98793110632037 a53.978864851471855,53.978864851471855 0 0,0 -0.8458914738898513,0.37835649696575135 l -13.206515233717175 -30.219091354195974" fill="#71ff27" stroke="none" /><path d="M 108.4095320186766 119.2426549942271 l 4.673082152377913 10.692926481304896 a32.669463292605386,32.669463292605386 0 0,0 -0.5158118162302411,0.2201693922821534 l -4.4888352609772415 -10.771570523246455" fill="#ff8c0c" stroke="none" /><path d="M 106.0420521117495 120.11202640906438 l 6.822111310330341 22.708589780635297 a44.71120521094849,44.71120521094849 0 0,0 -0.7369683818152928,0.21452075525415068 l -6.431282916133441 -22.822354230191966" fill="#daff1c" stroke="none" /><path d="M 104.29559338865022 120.5559693870025 l 3.9126744635122916 18.72356371200625 a40.12801243033312,40.12801243033312 0 0,0 -0.6754949248942922,0.13511790331757378 l -3.590683053087041 -18.787971011986684" fill="#ffec16" stroke="none" /><path d="M 103.58742460773223 120.69131181640829 l 6.602911222906989 38.08383727835205 a59.65199992835543,59.65199992835543 0 0,0 -1.0104551601139309,0.16627001207345754 l -5.948178559739985 -38.19157328892118" fill="#37ff2e" stroke="none" /><path d="M 103.2317021107853 120.74984581791261 l 4.386815151693994 28.166500162731282 a49.50606739963044,49.50606739963044 0 0,0 -0.8408367315019996,0.12357404372770547 l -3.9026533145843083 -28.237655279757867" fill="#a2ff22" stroke="none" /><path d="M 101.80034050326958 120.92268563240118 l 2.427393876143687 28.20999632254859 a49.314239060023226,49.314239060023226 0 0,0 -0.8440507865351656,0.06533486902807584 l -1.9427740948332854 -28.24750895857172" fill="#a4ff21" stroke="none" /><line stroke="#e1ed5e" stroke-width="0.3" x1="101.45913802915013" x2="101.54496967792366" y1="184.9874750549273" y2="189.98673829345242" /><path d="M 101.47630435890484 185.9873277026323 a86.0,86.0 0 0,1 -42.54439059252881,-10.42667462771756" fill="none" id="id7" stroke="none" /><text fill="#e1ed5e" style="font-size:6.75px; font-family:Arial;" text-anchor="middle"><textPath startOffset="22.145653131862474" xlink:href="#id7">July</textPath></text><path d="M 100.0 121.0 l 7.720180557954236e-16 6.3040058270918 a27.3040058270918,27.3040058270918 0 0,0 -0.468709567652306,-0.004023307920580626 l 0.10821664280345306 -6.303076917365654" fill="#ff4106" stroke="none" /><path d="M 99.27912038922189 120.98762331915562 l -1.6813232683713313 48.94989247403029 a69.97875887721017,69.97875887721017 0 0,0 -1.2002164882236417,-0.05154246021803278 l 2.521365517195812 -48.91381744538643" fill="#3bff9f" stroke="none" /><path d="M 98.55909050195518 120.95050786540614 l -1.3895659646437872 20.203984158111762 a41.25171275303221,41.25171275303221 0 0,0 -0.7060545039078847,-0.054653084003237096 l 1.7361894633269082 -20.17715330711347" fill="#fffa17" stroke="none" /><path d="M 93.95794788825049 120.11202640906438 l -9.014676746548579 30.006927024544698 a52.33177406884447,52.33177406884447 0 0,0 -0.8581398380500921,-0.26585391541885 l 9.528457217470304 -29.847756521319198" fill="#83ff25" stroke="none" /><path d="M 93.61358852112213 120.00534299687104 l -11.613234401210963 36.3782913562138 a59.18700427180757,59.18700427180757 0 0,0 -0.9652477709447601,-0.31729611456641477 l 12.236004909803468 -36.173574320245365" fill="#3cff2e" stroke="none" /><path d="M 92.93061703081489 119.77432235084164 l -7.552799805286579 21.126525278390268 a43.436016920059586,43.436016920059586 0 0,0 -0.6999628254611149,-0.25703604500469984 l 7.9143517824018135 -20.99375838437685" fill="#e9ff1a" stroke="none" /><path d="M 92.59220618246901 119.65005319985036 l -18.305413108068453 48.557283083058564 a72.89313913674263,72.89313913674263 0 0,0 -1.1670807262710203,-0.45145189667114854 l 19.136266096833 -48.23589129824938" fill="#3fffbe" stroke="none" /><path d="M 91.92203290615298 119.3841803445677 l -0.6962633859946569 1.6707786606013841 a22.810050837793707,22.810050837793707 0 0,0 -0.3601434662567483,-0.15372383029074105 l 0.7248419274218363 -1.6585801806512392" fill="#ff0000" stroke="none" /><path d="M 91.26138138417905 119.09545874513695 l -4.697437606199975 10.264748922060566 a32.288533584885386,32.288533584885386 0 0,0 -0.50202717276212,-0.23497406569065712 l 4.872953492833585 -10.182598624799382" fill="#ff860c" stroke="none" /><path d="M 90.6110303473126 118.78422872680471 l -1.8673703683877994 3.7359916385941134 a25.176685960947736,25.176685960947736 0 0,0 -0.3849308814060065,-0.1965484507870247 l 1.9312284715073882 -3.7033852361342525" fill="#ff2303" stroke="none" /><line stroke="#e1ed5e" stroke-width="0.3" x1="58.13341422392154" x2="55.67067388415222" y1="173.97424548756322" y2="178.32567169271397" /><path d="M 57.64086615596768 174.84453072859336 a86.0,86.0 0 0,1 -31.369924170532247,-30.572349798747897" fill="none" id="id8" stroke="none" /><text fill="#e1ed5e" style="font-size:6.75px; font-family:Arial;" text-anchor="middle"><textPath startOffset="22.145653131862474" xlink:href="#id8">August</textPath></text><path d="M 89.34428304082925 118.09573695890944 l -19.27326606018466 32.73021930861422 a58.98323367772482,58.98323367772482 0 0,0 -0.8680850210525491,-0.5212601130335247 l 19.832283837794638 -32.39454519504477" fill="#3eff2e" stroke="none" /><path d="M 89.03521579738668 117.91015095944536 l -20.629241826508313 33.696316175890516 a60.509585446599424,60.509585446599424 0 0,0 -0.8812381800778126,-0.5499578004625467 l 21.204644135375837 -33.33722257858642" fill="#2fff30" stroke="none" /><path d="M 87.2517909369889 116.68781488649013 l -31.44338399685367 41.160398998067706 a72.79637866544076,72.79637866544076 0 0,0 -0.9865297826072699,-0.7671315259274556 l 32.145323724096166 -40.61456642051946" fill="#3fffbd" stroke="none" /><path d="M 86.96720088162412 116.46651593811092 l -22.427360903497274 28.336237857491433 a57.137638177003886,57.137638177003886 0 0,0 -0.7638737096149344,-0.6153225886830567 l 22.91048538346747 -27.947066975014966" fill="#50ff2b" stroke="none" /><path d="M 86.13680546590413 115.77377054828092 l -37.95351971037478 43.184138398888415 a78.49208178227812,78.49208178227812 0 0,0 -1.0044555948732519,-0.8981903867162174 l 38.6892403320714 -42.52625248228882" fill="#46fff8" stroke="none" /><path d="M 85.60350026404147 115.28858382429668 l -8.3716745942839 8.890428307705772 a33.211660452495174,33.211660452495174 0 0,0 -0.41170995266111027,-0.3944088213934336 l 8.523057032810325 -8.745407356006757" fill="#ff930d" stroke="none" /><path d="M 85.34317274990678 115.03919595460226 l -20.155538437857107 20.681358043264332 a49.87844005886796,49.87844005886796 0 0,0 -0.6080611269706451,-0.602864054550109 l 20.507591484957715 -20.332313978485566" fill="#9eff22" stroke="none" /><path d="M 84.83555147118756 114.52719865689866 l -41.401977038374845 39.66215745215296 a78.33419953610141,78.33419953610141 0 0,0 -0.9218971635375134,-0.9790228403172463 l 42.07673003564861 -38.945593151891224" fill="#46fff6" stroke="none" /><path d="M 84.3458050057657 113.99807769240083 l -38.27753421278221 34.228007124058706 a72.34906130685668,72.34906130685668 0 0,0 -0.819917910667304,-0.9329160720844915 l 38.8594631874081 -33.56587877416292" fill="#3effb8" stroke="none" /><path d="M 84.1078160697243 113.72728997021213 l -29.21433594870164 25.234647586164833 a59.60394880995383,59.60394880995383 0 0,0 -0.6621869187526676,-0.7800545252453175 l 29.643217430961418 -24.729426278469962" fill="#37ff2e" stroke="none" /><path d="M 83.64595745247003 113.17365903436017 l -48.58210566159188 39.134305374161656 a83.38361040876214,83.38361040876214 0 0,0 -0.888367275368847,-1.1224230317593002 l 49.24673936760229 -38.29456239848768" fill="#4cd8ff" stroke="none" /><path d="M 83.20337586046588 112.60449989151573 l -50.38987241860234 37.813499674547174 a84.0,84.0 0 0,0 -0.8555919216646783,-1.1607747629244813 l 51.03156635985085 -36.942918602353814" fill="#4dd2ff" stroke="none" /><path d="M 82.576782715395 111.72311816256416 l -39.01854684367017 26.25341965884003 a68.02859812470335,68.02859812470335 0 0,0 -0.6436009477077066,-0.9744938649664946 l 39.463472230298606 -25.579745915534478" fill="#39ff89" stroke="none" /><line stroke="#e1ed5e" stroke-width="0.3" x1="26.387840678322732" x2="22.057713659400548" y1="142.50000000000003" y2="145.00000000000006" /><path d="M 25.521815274538298 143.00000000000003 a86.0,86.0 0 0,1 -11.493303480769221,-40.785679425670985" fill="none" id="id9" stroke="none" /><text fill="#e1ed5e" style="font-size:6.75px; font-family:Arial;" text-anchor="middle"><textPath startOffset="21.40746469413373" xlink:href="#id9">September</textPath></text><line stroke="#e1ed5e" stroke-width="0.3" x1="15.003131293944662" x2="10.003315487706104" y1="100.72959589197737" y2="100.7725132973878" /><path d="M 14.003168132696942 100.73817937305945 a86.0,86.0 0 0,1 10.791469493833604,-42.45332614584628" fill="none" id="id10" stroke="none" /><text fill="#e1ed5e" style="font-size:6.75px; font-family:Arial;" text-anchor="middle"><textPath startOffset="22.145653131862435" xlink:href="#id10">October</textPath></text><line stroke="#e1ed5e" stroke-width="0.3" x1="26.387840678322718" x2="22.05771365940052" y1="57.49999999999999" y2="54.99999999999999" /><path d="M 25.521815274538284 56.99999999999999 a86.0,86.0 0 0,1 29.574782752854787,-30.34633250058573" fill="none" id="id11" stroke="none" /><text fill="#e1ed5e" style="font-size:6.75px; font-family:Arial;" text-anchor="middle"><textPath startOffset="21.40746469413373" xlink:href="#id11">November</textPath></text><line stroke="#e1ed5e" stroke-width="0.3" x1="56.869717070023135" x2="54.33264160355391" y1="26.7553504044142" y2="22.446841604673864" /><path d="M 56.362301976729285 25.89364864446614 a86.0,86.0 0 0,1 42.16139366436587,-11.88097634709845" fill="none" id="id12" stroke="none" /><text fill="#e1ed5e" style="font-size:6.75px; font-family:Arial;" text-anchor="middle"><textPath startOffset="22.145653131862474" xlink:href="#id12">December</textPath></text></svg>