<?xml version="1.0" encoding="utf-8" ?>
<svg baseProfile="full" height="200mm" version="1.1" viewBox="0,0,200,200" width="200mm" xmlns="http://www.w3.org/2000/svg" xmlns:ev="http://www.w3.org/2001/xml-events" xmlns:xlink="http://www.w3.org/1999/xlink"><defs /><rect fill="#1a1a1a" height="200" width="200" x="0" y="0" /><text alignment-baseline="middle" fill="#e1ed5e" style="dominant-baseline: central; font-size:9.0px; font-family:Arial;" text-anchor="middle" x="100.0" y="100.0">2024</text><line stroke="#e1ed5e" stroke-width="0.3" x1="100.0" x2="100.0" y1="15.0" y2="10.0" /><path d="M 100.0 14.0 a86.0,86.0 0 0,1 42.35913384403234,11.155469271406648" fill="none" id="id37" stroke="none" /><text fill="#e1ed5e" style="font-size:6.75px; font-family:Arial;" text-anchor="middle"><textPath startOffset="22.145653131862478" xlink:href="#id37">January</textPath></text><line stroke="#e1ed5e" stroke-width="0.3" x1="143.13028292997686" x2="145.6673583964461" y1="26.7553504044142" y2="22.446841604673864" /><path d="M 143.63769802327073 25.89364864446614 a86.0,86.0 0 0,1 29.32050498858742,28.57503671076993" fill="none" id="id38" stroke="none" /><text fill="#e1ed5e" style="font-size:6.75px; font-family:Arial;" text-anchor="middle"><textPath startOffset="20.669276256404974" xlink:href="#id38">February</textPath></text><line stroke="#e1ed5e" stroke-width="0.3" x1="172.87174338648825" x2="177.1583165268699" y1="56.24261187166439" y2="53.66864786411523" /><path d="M 173.72905801456457 55.72781907015455 a86.0,86.0 0 0,1 12.242430191666344,42.057860355516425" fill="none" id="id39" stroke="none" /><text fill="#e1ed5e" style="font-size:6.75px; font-family:Arial;" text-anchor="middle"><textPath startOffset="22.145653131862474" xlink:href="#id39">March</textPath></text><path d="M 120.26092885502905 94.47779374421319 l 3.0533378679697125 -0.8322008135055432 a24.164716469129125,24.164716469129125 0 0,0 0.1056464364398681,0.4011567270210535 l -3.067173785214311 0.7796635821116912" fill="#ff1e03" stroke="none" /><path d="M 120.65975698304385 96.23510406497455 l 3.342720436616065 -0.6091550154278801 a24.39777129162509,24.39777129162509 0 0,0 0.07154958084654559,0.41267896876167537 l -3.3526848349548453 0.551683013745612" fill="#ff2103" stroke="none" /><line stroke="#e1ed5e" stroke-width="0.3" x1="184.99686870605535" x2="189.99668451229388" y1="99.2704041080226" y2="99.22748670261217" /><path d="M 185.99683186730306 99.26182062694052 a86.0,86.0 0 0,1 -10.086455211305974,41.156179273409016" fill="none" id="id40" stroke="none" /><text fill="#e1ed5e" style="font-size:6.75px; font-family:Arial;" text-anchor="middle"><textPath startOffset="21.40746469413373" xlink:href="#id40">April</textPath></text><line stroke="#e1ed5e" stroke-width="0.3" x1="174.33088141563837" x2="178.70328620479359" y1="141.23008692659167" y2="143.65538615756765" /><path d="M 175.20536237346943 141.71514677278685 a86.0,86.0 0 0,1 -30.301960400862466,31.631185727798858" fill="none" id="id41" stroke="none" /><text fill="#e1ed5e" style="font-size:6.75px; font-family:Arial;" text-anchor="middle"><textPath startOffset="22.145653131862474" xlink:href="#id41">May</textPath></text><path d="M 118.00360718960297 110.81064883170644 l 2.6141384707571924 1.569715041390732 a24.04921715452689,24.04921715452689 0 0,0 -0.21556348086907606,0.35210674577512435 l -2.586807025432712 -1.6143589032904133" fill="#ff1c02" stroke="none" /><path d="M 115.89218393027572 113.72728997021213 l 8.146409626192847 7.03667460970145 a31.764700616391732,31.764700616391732 0 0,0 -0.35998320492233954,0.40959480599613945 l -8.024415357311922 -7.175481693508883" fill="#ff870c" stroke="none" /><path d="M 114.13192950727249 115.5334660781643 l 9.253048768375526 10.170721492008198 a34.74999953374302,34.74999953374302 0 0,0 -0.444692390123241,0.3976466773575556 l -9.077091351428907 -10.32806369924914" fill="#ffae10" stroke="none" /><path d="M 113.03279911837588 116.46651593811092 l 4.087253129705112 5.1641108093569805 a27.585869615897497,27.585869615897497 0 0,0 -0.373841150536837,0.29070113981543 l -3.998002034533045 -5.233513000793204" fill="#ff4e07" stroke="none" /><path d="M 112.45986205192187 116.90419585922612 l 5.639860346711374 7.6515537268558 a30.505487844680474,30.505487844680474 0 0,0 -0.4241991304025141,0.307087457107306 l -5.507680205934892 -7.747241955336183" fill="#ff760a" stroke="none" /><line stroke="#e1ed5e" stroke-width="0.3" x1="143.1302829299769" x2="145.66735839644613" y1="173.24464959558577" y2="177.55315839532614" /><path d="M 143.63769802327073 174.10635135553383 a86.0,86.0 0 0,1 -40.68552437913181,11.842963189579606" fill="none" id="id42" stroke="none" /><text fill="#e1ed5e" style="font-size:6.75px; font-family:Arial;" text-anchor="middle"><textPath startOffset="21.407464694133747" xlink:href="#id42">June</textPath></text><path d="M 110.65571695917076 118.09573695890943 l 11.449055491599117 19.44299922734227 a43.56349021326594,43.56349021326594 0 0,0 -0.64765951289864,0.37392639411525314 l -11.113603510840077 -19.636672518733697" fill="#e2ff1b" stroke="none" /><path d="M 110.34350942703117 118.27599006163325 l 4.202115208791849 7.424734935032648 a29.531380959929876,29.531380959929876 0 0,0 -0.4433304513997309,0.24590792817600512 l -4.074040569236024 -7.4957757786417964" fill="#ff6909" stroke="none" /><path d="M 109.3889696526874 118.78422872680471 l 2.7309585545069304 5.463746505624173 a27.108245288473192,27.108245288473192 0 0,0 -0.4180346379600876,0.20448168940912612 l -2.6367636672847734 -5.509821945130523" fill="#ff4706" stroke="none" /><path d="M 108.73861861582097 119.09545874513695 l 8.573782992518538 18.73526316012746 a41.603879258091894,41.603879258091894 0 0,0 -0.6519656691928964,0.2916159511614575 l -8.250903920470016 -18.879682862198766" fill="#faff18" stroke="none" /><path d="M 108.4095320186766 119.2426549942271 l 2.919555323216092 6.680513933050876 a28.290615179462314,28.290615179462314 0 0,0 -0.4466750331124134,0.19065901069639954 l -2.8044452149332475 -6.72964759340668" fill="#ff5808" stroke="none" /><path d="M 106.0420521117495 120.11202640906438 l 4.262183018013612 14.187421067067659 a35.813815194382535,35.813815194382535 0 0,0 -0.5903139784738568,0.17183179580563443 l -4.018009027158149 -14.258496557175812" fill="#ffbc11" stroke="none" /><path d="M 104.29559338865022 120.5559693870025 l 2.44448293128042 11.697735738959198 a32.950419165027,32.950419165027 0 0,0 -0.5546709037173857,0.1109497152081272 l -2.243315542032076 -11.737974850830186" fill="#ff970d" stroke="none" /><path d="M 103.58742460773223 120.69131181640829 l 4.125235547111433 23.793262397051983 a45.14822775721066,45.14822775721066 0 0,0 -0.7647733481201698,0.12584316340277957 l -3.71618469593819 -23.860571558950433" fill="#cfff1d" stroke="none" /><path d="M 103.2317021107853 120.74984581791261 l 2.740707120155385 17.597305762027773 a38.80945382657105,38.80945382657105 0 0,0 -0.6591598973816969,0.09687380549740168 l -2.438222117166003 -17.641760640824057" fill="#ffe215" stroke="none" /><path d="M 101.80034050326958 120.92268563240118 l 1.5165388669726771 17.624480427653854 a38.689607131866794,38.689607131866794 0 0,0 -0.6622021134837184,0.05125863164250628 l -1.213767758713723 -17.647916826291414" fill="#ffe115" stroke="none" /><line stroke="#e1ed5e" stroke-width="0.3" x1="101.45913802915013" x2="101.54496967792366" y1="184.9874750549273" y2="189.98673829345242" /><path d="M 101.47630435890484 185.9873277026323 a86.0,86.0 0 0,1 -42.54439059252881,-10.42667462771756" fill="none" id="id43" stroke="none" /><text fill="#e1ed5e" style="font-size:6.75px; font-family:Arial;" text-anchor="middle"><textPath startOffset="22.145653131862474" xlink:href="#id43">July</textPath></text><path d="M 100.0 121.0 l 4.823260860649616e-16 3.938491378908399 a24.9384913789084,24.9384913789084 0 0,0 -0.42810236659526535,-0.003674743937848797 l 0.06760944174641274 -3.937911033164985" fill="#ff2903" stroke="none" /><path d="M 99.27912038922189 120.98762331915562 l -1.0504237114091348 30.581940244874403 a51.59997482212296,51.59997482212296 0 0,0 -0.8849991278368575,-0.03800567046619783 l 1.575248599846831 -30.559402005982374" fill="#87ff25" stroke="none" /><path d="M 98.55909050195518 120.95050786540614 l -0.8681453860106647 12.622643380872988 a33.65246230312299,33.65246230312299 0 0,0 -0.5759875406619033,-0.04458507844703149 l 1.0847019214478042 -12.605880535430902" fill="#ffa00e" stroke="none" /><path d="M 93.95794788825049 120.11202640906438 l -5.632010442843549 18.747131052101704 a40.57484263826851,40.57484263826851 0 0,0 -0.6653489110593903,-0.2061267934218453 l 5.952999986774573 -18.64768767087321" fill="#fff817" stroke="none" /><path d="M 93.61358852112213 120.00534299687104 l -7.255485611045546 22.727705337791974 a44.85771701931236,44.85771701931236 0 0,0 -0.7315594342926819,-0.24047811666871627 l 7.6445677829859715 -22.599806299721234" fill="#d3ff1c" stroke="none" /><path d="M 92.93061703081489 119.77432235084164 l -4.718688043070089 13.19901027337975 a35.01712841649804,35.01712841649804 0 0,0 -0.5642941016220839,-0.20721661040337389 l 4.944571296346291 -13.116062813967657" fill="#ffb210" stroke="none" /><path d="M 92.59220618246901 119.65005319985036 l -11.436491921319181 30.336653558276595 a53.42076335593126,53.42076335593126 0 0,0 -0.8553115428111143,-0.33085287894398485 l 11.955575726623824 -30.13586079119457" fill="#74ff27" stroke="none" /><path d="M 91.92203290615298 119.3841803445677 l -0.43499759016793055 1.043835861090622 a22.13084756194224,22.13084756194224 0 0,0 -0.3494196575376203,-0.1491464740256287 l 0.452852322875982 -1.0362147374055894" fill="#ff0000" stroke="none" /><path d="M 91.26138138417905 119.09545874513695 l -2.9347716392441248 6.413005673702738 a28.05262549306676,28.05262549306676 0 0,0 -0.43616661090584086,-0.20414799724719893 l 3.0444269640214556 -6.361681444885012" fill="#ff5407" stroke="none" /><path d="M 90.6110303473126 118.78422872680471 l -1.1666585182262161 2.334098550011146 a23.609426783666084,23.609426783666084 0 0,0 -0.36096877386578247,-0.18431322794021043 l 1.2065545138055809 -2.313727370398099" fill="#ff1602" stroke="none" /><line stroke="#e1ed5e" stroke-width="0.3" x1="58.13341422392154" x2="55.67067388415222" y1="173.97424548756322" y2="178.32567169271397" /><path d="M 57.64086615596768 174.84453072859336 a86.0,86.0 0 0,1 -31.369924170532247,-30.572349798747897" fill="none" id="id44" stroke="none" /><text fill="#e1ed5e" style="font-size:6.75px; font-family:Arial;" text-anchor="middle"><textPath startOffset="22.145653131862474" xlink:href="#id44">August</textPath></text><path d="M 89.34428304082925 118.09573695890944 l -12.041167838904629 20.44853544119054 a44.73040928037898,44.73040928037898 0 0,0 -0.6583192521116574,-0.39530179584459757 l 12.390419847573712 -20.23881964481002" fill="#d4ff1c" stroke="none" /><path d="M 89.03521579738668 117.91015095944536 l -12.888327408891596 21.052114227016865 a45.68401298059439,45.68401298059439 0 0,0 -0.6653242814429602,-0.4152115587915019 l 13.247815819124268 -20.827766871383815" fill="#c9ff1d" stroke="none" /><path d="M 87.2517909369889 116.68781488649013 l -19.64457206925598 25.715375437891222 a53.360311273161315,53.360311273161315 0 0,0 -0.7231339971195442,-0.562313369997035 l 20.083116011010752 -25.374361016273394" fill="#74ff27" stroke="none" /><path d="M 86.96720088162412 116.46651593811092 l -14.011720482631633 17.703351103010124 a43.577354830888595,43.577354830888595 0 0,0 -0.5825861332727325,-0.4692901498559723 l 14.313557386259626 -17.460212659360742" fill="#e2ff1b" stroke="none" /><path d="M 86.13680546590413 115.77377054828092 l -23.711845178845575 26.979727090143204 a56.918759383421765,56.918759383421765 0 0,0 -0.7283838702928978,-0.6513253482537348 l 24.171494075961842 -26.568706212006084" fill="#4fff2b" stroke="none" /><path d="M 85.60350026404147 115.28858382429668 l -5.2302883469611805 5.554384974427545 a28.6293583371411,28.6293583371411 0 0,0 -0.3549052231990037,-0.3399911755437014 l 5.324866056025499 -5.46378166857826" fill="#ff5c08" stroke="none" /><path d="M 85.34317274990678 115.03919595460226 l -12.592376427319742 12.920887542245653 a39.042097410408715,39.042097410408715 0 0,0 -0.4759567805779856,-0.4718887983505534 l 12.81232512802769 -12.702818733666442" fill="#ffe515" stroke="none" /><path d="M 84.83555147118756 114.52719865689866 l -25.86630376111617 24.77933388368635 a56.82012085380979,56.82012085380979 0 0,0 -0.6687029235914365,-0.7101393316699308 l 26.28786251844386 -24.331653092071928" fill="#50ff2b" stroke="none" /><path d="M 84.3458050057657 113.99807769240083 l -23.914276515264827 21.384293522696556 a53.080845230657324,53.080845230657324 0 0,0 -0.6015549466963217,-0.6844591034219337 l 24.27784252591974 -20.970622141463323" fill="#77ff27" stroke="none" /><path d="M 84.1078160697243 113.72728997021213 l -18.251951763752654 15.765601221493698 a45.11820733515485,45.11820733515485 0 0,0 -0.5012534788621388,-0.5904753377156536 l 18.519899806121902 -15.44995910132849" fill="#d0ff1d" stroke="none" /><path d="M 83.64595745247003 113.17365903436017 l -30.352161715190988 24.449552960963643 a59.97479135000047,59.97479135000047 0 0,0 -0.6389701971553905,-0.8073179705963555 l 30.767398342987942 -23.924915046452607" fill="#31ff2f" stroke="none" /><path d="M 83.20337586046588 112.60449989151573 l -31.481582274570048 23.62436624575013 a60.35988697930751,60.35988697930751 0 0,0 -0.614802758239149,-0.8340980178399305 l 31.882487052393024 -23.08046191864132" fill="#30ff32" stroke="none" /><path d="M 82.576782715395 111.72311816256416 l -24.377231648629746 16.402089374480536 a50.38159217434281,50.38159217434281 0 0,0 -0.47664719491927066,-0.7217046041598865 l 24.655203282469742 -15.981204891981587" fill="#94ff23" stroke="none" /><path d="M 82.37810715431573 111.42229804090323 l -39.76045050451321 25.772243644890665 a68.3825069705419,68.3825069705419 0 0,0 -0.630038347669958,-0.990524929125202 l 40.19700654380905 -25.08590504108679" fill="#3aff8f" stroke="none" /><path d="M 81.99639281039703 110.81064883170644 l -11.715045260575538 7.034548078385509 a34.66481438309539,34.66481438309539 0 0,0 -0.30195742305427736,-0.5127897185442487 l 11.834076393759586 -6.832407191547701" fill="#ffad10" stroke="none" /><line stroke="#e1ed5e" stroke-width="0.3" x1="26.387840678322732" x2="22.057713659400548" y1="142.50000000000003" y2="145.00000000000006" /><path d="M 25.521815274538298 143.00000000000003 a86.0,86.0 0 0,1 -11.493303480769221,-40.785679425670985" fill="none" id="id45" stroke="none" /><text fill="#e1ed5e" style="font-size:6.75px; font-family:Arial;" text-anchor="middle"><textPath startOffset="21.40746469413373" xlink:href="#id45">September</textPath></text><path d="M 81.4637452351635 109.86951160357371 l -21.385704605352146 11.386683147747762 a45.22818430205992,45.22818430205992 0 0,0 -0.3590082560984408,-0.6884456680816858 l 21.578020930425538 -11.017891236561573" fill="#cfff1d" stroke="none" /><path d="M 81.29705330413844 109.54985784667822 l -20.50750714489257 10.471279269955728 a44.02619245223197,44.02619245223197 0 0,0 -0.33791169144797706,-0.676049740964221 l 20.684238749552286 -10.117697672827754" fill="#ddff1b" stroke="none" /><path d="M 80.9802524753101 108.90220220490708 l -28.625130617229143 13.398006496440342 a52.60545334166379,52.60545334166379 0 0,0 -0.3757921540281939,-0.8211736762375478 l 28.85090723611239 -12.904643837988104" fill="#7cff26" stroke="none" /><path d="M 80.83023694016515 108.57439118712176 l -26.206499942509097 11.72183409106221 a49.70857073584677,49.70857073584677 0 0,0 -0.34172539941043556,-0.7819345891085908 l 26.4038592239365 -11.270237432177769" fill="#9cff22" stroke="none" /><path d="M 80.68587082218212 108.24405325689762 l -23.461001686883478 10.014106542735894 a46.50884023238248,46.50884023238248 0 0,0 -0.3071225781339602,-0.7369823834726806 l 23.629450109553922 -9.60989164982193" fill="#c0ff1e" stroke="none" /><path d="M 80.28708602549918 107.23885506374661 l -28.69384603399541 10.536777714864089 a51.56731072297808,51.56731072297808 0 0,0 -0.29800952669675057,-0.833585684947349 l 28.870495730736103 -10.042657073535818" fill="#87ff25" stroke="none" /><path d="M 80.16572619554312 106.89939002012753 l -19.27093063788551 6.703430023826772 a41.40354728312057,41.40354728312057 0 0,0 -0.2277482528484871,-0.6732972413340738 l 19.383164312306366 -6.371631108018536" fill="#fcff18" stroke="none" /><path d="M 80.05021161711548 106.5578916946017 l -12.122793440136928 3.985002993046837 a33.76097056053415,33.76097056053415 0 0,0 -0.1762568382399949,-0.5521220353867009 l 12.189414994154177 -3.776311923968744" fill="#ffa20e" stroke="none" /><path d="M 79.94057633289273 106.21446072829308 l -10.448214296047166 3.2368834968098024 a31.938125833434356,31.938125833434356 0 0,0 -0.1577495211252835,-0.5250968505748842 l 10.502240137176079 -3.0570490426441945" fill="#ff890c" stroke="none" /><path d="M 79.83685265289637 105.86919833188381 l -56.75415398590501 16.520307081394176 a80.10968229249232,80.10968229249232 0 0,0 -0.3730116920946006,-1.3236869035306351 l 57.02938417007419 -15.543612253960546" fill="#48f6ff" stroke="none" /><path d="M 79.407916724674 104.11899336999214 l -34.763880773412154 6.953749773946314 a56.45253224167032,56.45253224167032 0 0,0 -0.18192153175499573,-0.9518903268642652 l 34.878128597449304 -6.355956882048734" fill="#54ff2b" stroke="none" /><path d="M 79.06263194458094 101.62068470465958 l -18.823247788711832 1.4570384253854034 a39.87955556384457,39.87955556384457 0 0,0 -0.04697439214986496,-0.6829973523970926 l 18.845486142026765 -1.1336976488339676" fill="#ffef16" stroke="none" /><path d="M 79.03789590574601 101.26102812881392 l -41.7742987577156 2.513038078529322 a62.849819558547885,62.849819558547885 0 0,0 -0.05554251209275525,-1.0775098962980982 l 41.81128285926493 -1.795556388854493" fill="#33ff4f" stroke="none" /><line stroke="#e1ed5e" stroke-width="0.3" x1="15.003131293944662" x2="10.003315487706104" y1="100.72959589197737" y2="100.7725132973878" /><path d="M 14.003168132696942 100.73817937305945 a86.0,86.0 0 0,1 10.791469493833604,-42.45332614584628" fill="none" id="id46" stroke="none" /><text fill="#e1ed5e" style="font-size:6.75px; font-family:Arial;" text-anchor="middle"><textPath startOffset="22.145653131862435" xlink:href="#id46">October</textPath></text><path d="M 79.00077361379809 99.81974689727619 l -49.01355377282284 -0.42072241046350967 a70.01535943750757,70.01535943750757 0 0,0 0.020633087667761885,-1.201773916132615 l 48.99910925355641 1.262043242565177" fill="#3cffa1" stroke="none" /><path d="M 79.03789590574601 98.7389718711861 l -6.535984721201859 -0.393188610545673 a27.54780066581497,27.54780066581497 0 0,0 0.03244873652793723,-0.47179750759743905 l 6.528272023508858 0.505329542297437" fill="#ff4d07" stroke="none" /><path d="M 79.0935383218832 98.0201363427161 l -31.556558757396044 -2.9884389235558295 a52.697747046262016,52.697747046262016 0 0,0 0.09301806688625737,-0.8998654179365977 l 31.50060829802812 3.52970886377534" fill="#7bff26" stroke="none" /><path d="M 79.17382384314186 97.30363454192245 l -24.513720428085183 -3.173791891196155 a45.71832203437246,45.71832203437246 0 0,0 0.10744999458529263,-0.7774546346642336 l 24.45562591694468 3.5941348340604558" fill="#c9ff1d" stroke="none" /><path d="M 79.83685265289637 94.1308016681162 l -14.390955910955629 -4.188997529640478 a35.98823913388103,35.98823913388103 0 0,0 0.177753933312168,-0.5916850326625653 l 14.316925657639832 4.435420165893766" fill="#ffbe11" stroke="none" /><path d="M 80.83023694016515 91.42560881287825 l -34.59851120471784 -15.475473986574208 a58.90181094211886,58.90181094211886 0 0,0 0.420770794737563,-0.9194601235397614 l 34.327755945125226 16.06712309232864" fill="#3cff2e" stroke="none" /><line stroke="#e1ed5e" stroke-width="0.3" x1="26.387840678322718" x2="22.05771365940052" y1="57.49999999999999" y2="54.99999999999999" /><path d="M 25.521815274538284 56.99999999999999 a86.0,86.0 0 0,1 29.574782752854787,-30.34633250058573" fill="none" id="id47" stroke="none" /><text fill="#e1ed5e" style="font-size:6.75px; font-family:Arial;" text-anchor="middle"><textPath startOffset="21.40746469413373" xlink:href="#id47">November</textPath></text><path d="M 81.99639281039701 89.18935116829357 l -27.249131110011756 -16.362320300433076 a52.78428340964406,52.78428340964406 0 0,0 0.4731282433790824,-0.7728194285918382 l 26.964234902177278 16.82767684514946" fill="#7aff26" stroke="none" /><path d="M 83.2033758604659 87.39550010848427 l -23.55294351853618 -17.67456791067422 a50.44709661777185,50.44709661777185 0 0,0 0.5257260639531243,-0.6881922937480073 l 23.246065477228747 18.07628111766311" fill="#94ff23" stroke="none" /><path d="M 83.42222388311158 87.10902102172516 l -24.676008233027645 -19.188213253503772 a52.25848541081903,52.25848541081903 0 0,0 0.556760831915639,-0.7034491231840023 l 24.342980970470446 19.608982320602458" fill="#80ff25" stroke="none" /><path d="M 84.83555147118756 85.47280134310135 l -14.537278376065396 -13.926383837729793 a41.131483536465964,41.131483536465964 0 0,0 0.4928201974296812,-0.5056769376526311 l 14.296071377484914 14.173883467450153" fill="#ffff18" stroke="none" /><path d="M 85.08716467003674 85.21462403516908 l -41.78311208263406 -41.42599361243912 a79.83826477801506,79.83826477801506 0 0,0 0.9732971840940078,-0.9649784547293451 l 41.06582297841008 42.13715207739714" fill="#48f9ff" stroke="none" /><path d="M 86.13680546590413 84.22622945171909 l -15.53036658619177 -17.670706305013574 a44.52543618340685,44.52543618340685 0 0,0 0.5784501268258639,-0.49965144243751924 l 15.224736979603058 17.934701879915806" fill="#d7ff1c" stroke="none" /><path d="M 86.68645165197937 83.75963576809568 l -4.534827697515596 -5.531752438299492 a28.152967725691692,28.152967725691692 0 0,0 0.3763773333905513,-0.30318293742593094 l 4.439199593769799 5.608783669518822" fill="#ff5607" stroke="none" /><path d="M 88.72937992617638 82.28071324371311 l -25.29376988538153 -39.76600744332951 a68.12865522161195,68.12865522161195 0 0,0 0.9921993630518068,-0.6192057852919377 l 24.607406393540025 40.194349025462984" fill="#39ff8c" stroke="none" /><path d="M 89.03521579738668 82.08984904055464 l -12.432903951345601 -20.308214235517056 a44.81177578634241,44.81177578634241 0 0,0 0.659516762669103,-0.3960208665270697 l 12.082454432119064 20.51864910258005" fill="#d3ff1c" stroke="none" /><line stroke="#e1ed5e" stroke-width="0.3" x1="56.869717070023135" x2="54.33264160355391" y1="26.7553504044142" y2="22.446841604673864" /><path d="M 56.362301976729285 25.89364864446614 a86.0,86.0 0 0,1 42.16139366436587,-11.88097634709845" fill="none" id="id48" stroke="none" /><text fill="#e1ed5e" style="font-size:6.75px; font-family:Arial;" text-anchor="middle"><textPath startOffset="22.145653131862474" xlink:href="#id48">December</textPath></text><path d="M 89.34428304082924 81.90426304109057 l -24.279974748575803 -41.23270523257057 a68.85032031854678,68.85032031854678 0 0,0 1.0235994568416413,-0.5909754219498732 l 23.56858282387376 41.64342755179661" fill="#3aff94" stroke="none" /><path d="M 90.28995756902619 81.37971332152246 l -12.57120766083969 -24.106948265521865 a48.187868925837165,48.187868925837165 0 0,0 0.7367529978914416,-0.376191330296321 l 12.155527441234666 24.31919754749102" fill="#adff20" stroke="none" /><path d="M 91.5904679813234 80.7573450057729 l -12.426113409038065 -28.433379255613737 a52.03007171032386,52.03007171032386 0 0,0 0.8214927055005051,-0.35064638700237727 l 11.936185628367127 28.642500292275518" fill="#82ff25" stroke="none" /><path d="M 93.61358852112211 79.99465700312896 l -19.15923443663367 -60.01602899061309 a84.0,84.0 0 0,0 1.3774374685135353,-0.4267336487734319 l 18.126156335248517 60.33607922719316" fill="#4dd2ff" stroke="none" /><path d="M 93.95794788825049 79.88797359093562 l -4.797565279511663 -15.96953449195097 a37.67461137480534,37.67461137480534 0 0,0 0.6209852149905827,-0.18075974574826767 l 4.522720052139456 16.04953793200176" fill="#ffd413" stroke="none" /><path d="M 95.70440661134978 79.44403061299748 l -3.556401387778715 -17.018668072315883 a38.38628924718148,38.38628924718148 0 0,0 0.6461756264906252,-0.12925322250199697 l 3.263729275757113 17.077210691480747" fill="#ffdd14" stroke="none" /><path d="M 96.41257539226777 79.30868818359171 l -2.367565759096843 -13.655490142353608 a34.859212771711256,34.859212771711256 0 0,0 0.5904860099408258,-0.09716424822948395 l 2.1328022461029446 13.694120389078762" fill="#ffb010" stroke="none" /><path d="M 97.48249496171623 79.15144685158666 l -3.819486422253065 -31.63082673640712 a52.860597554948384,52.860597554948384 0 0,0 0.9018121106603132,-0.10104992799954661 l 3.2759384099919524 31.69173242491364" fill="#7aff26" stroke="none" /><path d="M 98.5590905019552 79.04949213459386 l -1.2636393486774722 -18.37303879905494 a39.41644208622024,39.41644208622024 0 0,0 0.6754394906461533,-0.04063276249305512 l 0.9480555058988351 18.39202353937269" fill="#ffea16" stroke="none" /></svg>