<?xml version="1.0" encoding="utf-8" ?>
<svg baseProfile="full" height="200mm" version="1.1" viewBox="0,0,200,200" width="200mm" xmlns="http://www.w3.org/2000/svg" xmlns:ev="http://www.w3.org/2001/xml-events" xmlns:xlink="http://www.w3.org/1999/xlink"><defs /><rect fill="#1a1a1a" height="200" width="200" x="0" y="0" /><text alignment-baseline="middle" fill="#e1ed5e" style="dominant-baseline: central; font-size:9.0px; font-family:Arial;" text-anchor="middle" x="100.0" y="100.0">2025</text><line stroke="#e1ed5e" stroke-width="0.3" x1="100.0" x2="100.0" y1="15.0" y2="10.0" /><path d="M 100.0 14.0 a86.0,86.0 0 0,1 42.46469731375804,11.215312516191453" fill="none" id="id49" stroke="none" /><text fill="#e1ed5e" style="font-size:6.75px; font-family:Arial;" text-anchor="middle"><textPath startOffset="22.20632615414155" xlink:href="#id49">January</textPath></text><path d="M 100.72285384407766 79.0124445844662 l 0.15792674455730424 -4.585292490517872 a25.58801134264575,25.58801134264575 0 0,0 0.44006404177725156,0.01895008333823014 l -0.2368316187238873 4.581894680655447" fill="#ff1702" stroke="none" /><path d="M 101.44485096284872 79.0497635885617 l 1.802925232152474 -26.14228790163217 a47.20438429203319,47.20438429203319 0 0,0 0.8101392001885218,0.06288239400593296 l -2.252654621703337 26.10738024543777" fill="#c5ff1e" stroke="none" /><path d="M 103.2404852339499 79.25152402106235 l 4.412389491202497 -28.252052010229036 a49.59453835631484,49.59453835631484 0 0,0 0.842329684129658,0.13899161524063108 l -4.898048381471029 28.17191413204878" fill="#a9ff21" stroke="none" /><path d="M 103.59715602781102 79.31037775812273 l 6.047674349433856 -34.78417304234059 a56.30599183249628,56.30599183249628 0 0,0 0.9534612098464711,0.17423894172876278 l -6.645530680383228 34.67491861926109" fill="#5fff29" stroke="none" /><path d="M 103.95276090670814 79.375362276772 l 6.418270509913978 -33.48912499412863 a55.09861711581281,55.09861711581281 0 0,0 0.9299428903692207,0.18653779535956708 l -6.9937798097503245 33.373683242691854" fill="#6cff28" stroke="none" /><path d="M 105.71112130821622 79.79150937346287 l 12.60370506936484 -44.597521573823855 a67.34428025121565,67.34428025121565 0 0,0 1.1128154298831832,0.32486133939120476 l -13.369510716971451 44.373961905513944" fill="#38ff7d" stroke="none" /><path d="M 107.4271985657038 80.35727306442388 l 12.047452536327794 -31.861921873631264 a55.063516819266525,55.063516819266525 0 0,0 0.8836824839246098,0.34285507493165185 l -12.594118185252071 31.649824094809066" fill="#6cff28" stroke="none" /><line stroke="#e1ed5e" stroke-width="0.3" x1="143.23703022742887" x2="145.7803849466894" y1="26.81831364943548" y2="22.513508569990506" /><path d="M 143.74570117128098 25.957352633546492 a86.0,86.0 0 0,1 28.547481713284135,27.462654790039103" fill="none" id="id50" stroke="none" /><text fill="#e1ed5e" style="font-size:6.75px; font-family:Arial;" text-anchor="middle"><textPath startOffset="19.985693538727396" xlink:href="#id50">February</textPath></text><path d="M 113.89432698308785 84.25364557470407 l 2.9468963976052196 -3.3396993742698817 a25.45396343594301,25.45396343594301 0 0,0 0.3260398326858138,0.2927217809776332 l -3.0039472178870232 3.2884785845229514" fill="#ff1502" stroke="none" /><path d="M 114.16331599549186 84.49514656593476 l 8.477116478757129 -9.280061857580835 a33.56905135143231,33.56905135143231 0 0,0 0.42327714982596276,0.39338998035297057 l -8.635601512377939 9.132767291153224" fill="#ff890c" stroke="none" /><path d="M 114.68862486808459 84.99185889309783 l 12.102111041129298 -12.365363798711547 a38.3021187582998,38.3021187582998 0 0,0 0.46722055255314543,0.4652141590182795 l -12.313167393849767 12.155213789043149" fill="#ffc912" stroke="none" /><path d="M 116.15771136456269 86.58626213691792 l 6.542733304231561 -5.431617601704462 a29.50351861651673,29.50351861651673 0 0,0 0.32102849966313407,0.39354298174992564 l -6.635260295971104 5.318190450346436" fill="#ff5007" stroke="none" /><path d="M 116.38621287248628 86.86637796730983 l 14.373722254963793 -11.520601908970441 a39.42086208101605,39.42086208101605 0 0,0 0.41982452113749397,0.5331345079969911 l -14.56990085669525 11.271475007020413" fill="#ffd814" stroke="none" /><path d="M 117.65298651832404 88.62581576622439 l 6.7515230846189285 -4.350145928187984 a29.031614629616687,29.031614629616687 0 0,0 0.2670527039459112,0.4224132447968592 l -6.825403384810795 4.233285035676919" fill="#ff4906" stroke="none" /><line stroke="#e1ed5e" stroke-width="0.3" x1="172.23445277983987" x2="176.4835382374775" y1="55.19839476539836" y2="52.563006222186495" /><path d="M 173.08426987136738 54.67131705675599 a86.0,86.0 0 0,1 12.851231095245387,41.99856678651699" fill="none" id="id51" stroke="none" /><text fill="#e1ed5e" style="font-size:6.75px; font-family:Arial;" text-anchor="middle"><textPath startOffset="22.20632615414155" xlink:href="#id51">March</textPath></text><path d="M 117.84615892207809 88.93136811851018 l 35.7457388943977 -22.170396827771214 a63.06286182141324,63.06286182141324 0 0,0 0.5642150214810664,0.9274211449638656 l -36.12206971416499 21.551807909600264" fill="#32ff4a" stroke="none" /><path d="M 118.89224826269711 90.83032412892265 l 34.04418864193528 -16.5239293280276 a58.84239713238745,58.84239713238745 0 0,0 0.43443007286123886,0.915020526927259 l -34.32357690863827 15.935466385459797" fill="#44ff2d" stroke="none" /><path d="M 120.08093135843002 93.85539295169968 l 18.185861507029287 -5.564730579520395 a40.01819615987539,40.01819615987539 0 0,0 0.19588736064106244,0.6604347992583655 l -18.27895476478205 5.2508663935154996" fill="#ffdf14" stroke="none" /><path d="M 120.37134235888165 94.90015583598534 l 39.70651313783444 -9.940288947677999 a61.93185226603297,61.93185226603297 0 0,0 0.24998998529772568,1.0363698817605647 l -39.87173592339299 9.255333834258028" fill="#31ff3c" stroke="none" /><path d="M 120.6074358757038 95.95851677861258 l 16.99269331205429 -3.332568172046021 a38.31639791119587,38.31639791119587 0 0,0 0.12136130806880824,0.648316960500741 l -17.047540344032956 3.0395731340827177" fill="#ffc912" stroke="none" /><path d="M 120.73433829027371 96.67025291283417 l 20.193667537736307 -3.2429202572871216 a41.45240182520743,41.45240182520743 0 0,0 0.10707373818111961,0.7054821526575814 l -20.246497169356726 2.894838992237458" fill="#fff216" stroke="none" /><path d="M 120.83666639777658 97.38593545837742 l 6.884319901574859 -0.8636725378400153 a27.93828442483001,27.93828442483001 0 0,0 0.05575636371095027,0.47768647443792644 l -6.898166618289398 0.7450423250772361" fill="#ff3905" stroke="none" /><path d="M 120.96714384426684 98.82574320788733 l 36.968102024150916 -2.070384274358051 a58.02603217077871,58.02603217077871 0 0,0 0.04726743042709894,0.9977407496954619 l -36.99826306281151 1.4337324180395896" fill="#4dff2c" stroke="none" /><line stroke="#e1ed5e" stroke-width="0.3" x1="184.98032266829074" x2="189.97916517819016" y1="98.17113171792111" y2="98.06355123074" /><path d="M 185.9800911702706 98.14961562048488 a86.0,86.0 0 0,1 -9.607161424134198,41.387399972396054" fill="none" id="id52" stroke="none" /><text fill="#e1ed5e" style="font-size:6.75px; font-family:Arial;" text-anchor="middle"><textPath startOffset="21.466115282336823" xlink:href="#id52">April</textPath></text><path d="M 120.99824983174949 100.27111621757518 l 10.92993780969 0.14112049437637667 a31.93084880133396,31.93084880133396 0 0,0 -0.011826482875775255,0.5495301879651474 l -10.925889264129216 -0.32924049813163897" fill="#ff730a" stroke="none" /><path d="M 120.9764740272857 100.99374915477107 l 62.877270453520524 2.9787768090204105 a83.94778988148133,83.94778988148133 0 0,0 -0.08080434135388961,1.4428157961598844 l -62.816679761279104 -4.060664321515718" fill="#4dd2ff" stroke="none" /><path d="M 120.76222939487914 103.15116336523771 l 26.82482608401838 4.071306969360433 a48.13202600021966,48.13202600021966 0 0,0 -0.13137348996997344,0.8180628474488137 l -26.75077083968712 -4.532449046502451" fill="#baff1f" stroke="none" /><path d="M 120.70491114924044 103.5080841355445 l 21.914215396328355 3.712979535175873 a43.22653939472606,43.22653939472606 0 0,0 -0.13061322428383718,0.7325483257749934 l -21.84705572970533 -4.089646611684085" fill="#f6ff19" stroke="none" /><path d="M 120.64145759157962 103.86396538481128 l 24.9074440148603 4.662534177664149 a46.34008666739888,46.34008666739888 0 0,0 -0.15351823501735587,0.7827861729400711 l -24.823495846867278 -5.0905840776721645" fill="#d0ff1d" stroke="none" /><path d="M 120.5718875245553 104.21870165774334 l 41.07995583796485 8.424315833283837 a62.93485267540664,62.93485267540664 0 0,0 -0.22676314882953325,1.0593619379921708 l -40.928858650410874 -9.130191590692176" fill="#32ff48" stroke="none" /><path d="M 120.32669344350535 105.2749913415812 l 31.11449645101059 8.074540004891025 a53.14514093437041,53.14514093437041 0 0,0 -0.23741180495907843,0.8834976456120012 l -30.970896569709733 -8.608928583678574" fill="#81ff25" stroke="none" /><path d="M 120.23288151984713 105.62410040840565 l 22.096553887094174 6.1421423151645556 a43.93433247131888,43.93433247131888 0 0,0 -0.2088080892443694,0.7268883517074309 l -21.987553160963706 -6.521588142376569" fill="#edff1a" stroke="none" /><path d="M 120.13307415673323 105.97154293290107 l 10.758639771388456 3.1910516394227413 a32.22190448613621,32.22190448613621 0 0,0 -0.16229594445227377,0.5303925368505312 l -10.70211705443005 -3.3757711488253297" fill="#ff770a" stroke="none" /><path d="M 120.02730092923936 106.31721596034902 l 30.11539913018202 9.499307006453035 a52.578063562748994,52.578063562748994 0 0,0 -0.2796846250723512,0.8607807661862146 l -29.94742225409342 -10.016286672617046" fill="#88ff25" stroke="none" /><path d="M 119.41010516605496 108.01547362559984 l 25.448007799090167 10.508847509718256 a48.5324713188821,48.5324713188821 0 0,0 -0.32551195074175965,0.769414096877721 l -25.2633448671561 -10.945336132262142" fill="#b6ff1f" stroke="none" /><path d="M 119.12269723197855 108.67885076344098 l 26.9781766889844 12.244066122737676 a50.6266632052959,50.6266632052959 0 0,0 -0.36698396212128476,0.7904508059833201 l -26.763418110023284 -12.706636995999828" fill="#9eff22" stroke="none" /><path d="M 118.97047184881838 109.00673069616215 l 35.93517235230818 17.061168666585985 a60.77964414445898,60.77964414445898 0 0,0 -0.4568508996342571,0.9412481680132637 l -35.6361681960592 -17.677205790564525" fill="#31ff2f" stroke="none" /><line stroke="#e1ed5e" stroke-width="0.3" x1="174.80103733775053" x2="179.2010983576182" y1="140.37084112569926" y2="142.7455964860345" /><path d="M 175.68104954172406 140.8457921977663 a86.0,86.0 0 0,1 -30.038265399797805,32.042727171017184" fill="none" id="id53" stroke="none" /><text fill="#e1ed5e" style="font-size:6.75px; font-family:Arial;" text-anchor="middle"><textPath startOffset="22.206326154141568" xlink:href="#id53">May</textPath></text><path d="M 118.30583269289576 110.29060199501025 l 49.7503083650022 27.967076456016738 a78.07232733917107,78.07232733917107 0 0,0 -0.6686262965565677,1.1658063067246354 l -49.261530072293255 -28.81930260859969" fill="#45fff2" stroke="none" /><path d="M 117.94076556474637 110.91462005526583 l 17.15732484707023 10.43799837831451 a41.08296805886993,41.08296805886993 0 0,0 -0.3727503867907787,0.6009923098137205 l -16.97510982061149 -10.731787019493504" fill="#ffed16" stroke="none" /><path d="M 116.71984013943494 112.70617746262583 l 25.806312746478635 19.611406967905506 a53.412544806446135,53.412544806446135 0 0,0 -0.5625947993438262,0.7272296166940403 l -25.46491112991674 -20.0527145787128" fill="#7eff26" stroke="none" /><path d="M 114.81725581225074 114.88116024355365 l 2.1693499316107743 2.1787059875116235 a24.07454694317694,24.07454694317694 0 0,0 -0.2961743023476638,0.2898688912746666 l -2.1315256768873163 -2.2157249817088625" fill="#ff0000" stroke="none" /><path d="M 113.48314897796784 116.09983520530334 l 40.449446933903516 48.299505615910014 a84.0,84.0 0 0,0 -1.1165194858212355,0.9188195245712865 l -39.612057319537584 -48.98862025933848" fill="#4dd2ff" stroke="none" /><path d="M 113.20401910651253 116.32954008644616 l 8.894786159823596 11.00026938658142 a35.1464888720258,35.1464888720258 0 0,0 -0.4737119205961858,0.37634539948165885 l -8.70411674651006 -11.151748700068204" fill="#ff9f0e" stroke="none" /><path d="M 111.45004920935366 117.60387380957326 l 12.124570095749352 18.640915690260634 a43.23710722594431,43.23710722594431 0 0,0 -0.6273873046949233,0.40042826165923806 l -11.801900989007498 -18.846858380743683" fill="#f6ff19" stroke="none" /><path d="M 111.1453310114006 117.79835938074945 l 27.4758844718852 43.87717741486009 a72.76998092917836,72.76998092917836 0 0,0 -1.0673651307960075,0.6556628409752153 l -26.716540141156887 -44.34362872266369" fill="#3fffba" stroke="none" /><line stroke="#e1ed5e" stroke-width="0.3" x1="143.8653032363475" x2="146.44561519142675" y1="172.8068346515853" y2="177.08958963109032" /><path d="M 144.38136562736335 173.6633856474863 a86.0,86.0 0 0,1 -40.68145358897372,12.25698825130547" fill="none" id="id54" stroke="none" /><text fill="#e1ed5e" style="font-size:6.75px; font-family:Arial;" text-anchor="middle"><textPath startOffset="21.466115282336833" xlink:href="#id54">June</textPath></text><path d="M 110.21172684928248 118.3499491758327 l 13.528965322744206 24.310856502336083 a48.82176569848132,48.82176569848132 0 0,0 -0.7378530817615077,0.40233633103411287 l -13.10848942911405 -24.540133485129967" fill="#b2ff20" stroke="none" /><path d="M 109.89434966115114 118.52300852407294 l 9.02779261290708 16.900744894736754 a40.160798977564326,40.160798977564326 0 0,0 -0.6125652035389746,0.32046516287213705 l -8.73553650684161 -17.05363947655361" fill="#ffe115" stroke="none" /><path d="M 109.2508944713604 118.85261126421891 l 11.329350707264979 23.088345178005355 a46.71820115223708,46.71820115223708 0 0,0 -0.7249938061586187,0.34804108475718176 l -10.930244233106126 -23.279940539262096" fill="#cbff1d" stroke="none" /><line stroke="#e1ed5e" stroke-width="0.3" x1="102.19456741930631" x2="102.32365962044197" y1="184.97166512339345" y2="189.96999836594603" /><path d="M 102.22038585953345 185.97133177190398 a86.0,86.0 0 0,1 -42.740103519485714,-10.115201625700543" fill="none" id="id55" stroke="none" /><text fill="#e1ed5e" style="font-size:6.75px; font-family:Arial;" text-anchor="middle"><textPath startOffset="22.20632615414155" xlink:href="#id55">July</textPath></text><line stroke="#e1ed5e" stroke-width="0.3" x1="58.666819895761336" x2="56.23545636021788" y1="174.27360380694188" y2="178.64263932499728" /><path d="M 58.180547188652646 175.14741091055294 a86.0,86.0 0 0,1 -31.652253787137756,-30.449443065178592" fill="none" id="id56" stroke="none" /><text fill="#e1ed5e" style="font-size:6.75px; font-family:Arial;" text-anchor="middle"><textPath startOffset="22.20632615414155" xlink:href="#id56">August</textPath></text><line stroke="#e1ed5e" stroke-width="0.3" x1="26.63291911575756" x2="22.317208475507996" y1="142.92168965132927" y2="145.44649492493687" /><path d="M 25.769776987707644 143.4266507060508 a86.0,86.0 0 0,1 -11.730757126820373,-40.83630448921669" fill="none" id="id57" stroke="none" /><text fill="#e1ed5e" style="font-size:6.75px; font-family:Arial;" text-anchor="middle"><textPath startOffset="21.46611528233685" xlink:href="#id57">September</textPath></text><line stroke="#e1ed5e" stroke-width="0.3" x1="15.007084014347285" x2="10.007500721073583" y1="101.09737516637583" y2="101.16192664675087" /><path d="M 14.007167355692545 101.11028546245083 a86.0,86.0 0 0,1 10.666146001902534,-42.60595125391555" fill="none" id="id58" stroke="none" /><text fill="#e1ed5e" style="font-size:6.75px; font-family:Arial;" text-anchor="middle"><textPath startOffset="22.20632615414155" xlink:href="#id58">October</textPath></text><line stroke="#e1ed5e" stroke-width="0.3" x1="26.266209847984243" x2="21.928928074336255" y1="57.711370442889674" y2="55.22380399835377" /><path d="M 25.398753493254645 57.213857153982495 a86.0,86.0 0 0,1 29.58750427330803,-30.492523968695096" fill="none" id="id59" stroke="none" /><text fill="#e1ed5e" style="font-size:6.75px; font-family:Arial;" text-anchor="middle"><textPath startOffset="21.46611528233685" xlink:href="#id59">November</textPath></text><line stroke="#e1ed5e" stroke-width="0.3" x1="56.762969772571076" x2="54.21961505331055" y1="26.818313649435495" y2="22.513508569990535" /><path d="M 56.25429882871897 25.957352633546506 a86.0,86.0 0 0,1 42.265352541879196,-11.944610805530505" fill="none" id="id60" stroke="none" /><text fill="#e1ed5e" style="font-size:6.75px; font-family:Arial;" text-anchor="middle"><textPath startOffset="22.20632615414155" xlink:href="#id60">December</textPath></text></svg>