<?xml version="1.0" encoding="utf-8" ?>
<svg baseProfile="full" height="200mm" version="1.1" viewBox="0,0,200,200" width="200mm" xmlns="http://www.w3.org/2000/svg" xmlns:ev="http://www.w3.org/2001/xml-events" xmlns:xlink="http://www.w3.org/1999/xlink"><defs /><rect fill="#1a1a1a" height="200" width="200" x="0" y="0" /><text alignment-baseline="middle" fill="#e1ed5e" style="dominant-baseline: central; font-size:9.0px; font-family:Arial;" text-anchor="middle" x="100.0" y="100.0">2024</text><line stroke="#e1ed5e" stroke-width="0.3" x1="100.0" x2="100.0" y1="15.0" y2="10.0" /><path d="M 100.0 14.0 a86.0,86.0 0 0,1 42.35913384403234,11.155469271406648" fill="none" id="id1" stroke="none" /><text fill="#e1ed5e" style="font-size:6.75px; font-family:Arial;" text-anchor="middle"><textPath startOffset="22.145653131862478" xlink:href="#id1">January</textPath></text><line stroke="#e1ed5e" stroke-width="0.3" x1="143.13028292997686" x2="145.6673583964461" y1="26.7553504044142" y2="22.446841604673864" /><path d="M 143.63769802327073 25.89364864446614 a86.0,86.0 0 0,1 29.32050498858742,28.57503671076993" fill="none" id="id2" stroke="none" /><text fill="#e1ed5e" style="font-size:6.75px; font-family:Arial;" text-anchor="middle"><textPath startOffset="20.669276256404974" xlink:href="#id2">February</textPath></text><line stroke="#e1ed5e" stroke-width="0.3" x1="172.87174338648825" x2="177.1583165268699" y1="56.24261187166439" y2="53.66864786411523" /><path d="M 173.72905801456457 55.72781907015455 a86.0,86.0 0 0,1 12.242430191666344,42.057860355516425" fill="none" id="id3" stroke="none" /><text fill="#e1ed5e" style="font-size:6.75px; font-family:Arial;" text-anchor="middle"><textPath startOffset="22.145653131862474" xlink:href="#id3">March</textPath></text><path d="M 120.26092885502905 94.47779374421319 l 4.059732124382612 -1.1064980433273524 a25.20782162664144,25.20782162664144 0 0,0 0.11020681863446187,0.4184732410162 l -4.078128423821804 1.0366442979383539" fill="#ff2703" stroke="none" /><path d="M 120.65975698304385 96.23510406497455 l 4.4444965235321705 -0.8099353205565007 a25.51769239448355,25.51769239448355 0 0,0 0.07483389253768065,0.43162200582427435 l -4.457745233562085 0.7335202818116336" fill="#ff2c04" stroke="none" /><line stroke="#e1ed5e" stroke-width="0.3" x1="184.99686870605535" x2="189.99668451229388" y1="99.2704041080226" y2="99.22748670261217" /><path d="M 185.99683186730306 99.26182062694052 a86.0,86.0 0 0,1 -10.086455211305974,41.156179273409016" fill="none" id="id4" stroke="none" /><text fill="#e1ed5e" style="font-size:6.75px; font-family:Arial;" text-anchor="middle"><textPath startOffset="21.40746469413373" xlink:href="#id4">April</textPath></text><line stroke="#e1ed5e" stroke-width="0.3" x1="174.33088141563837" x2="178.70328620479359" y1="141.23008692659167" y2="143.65538615756765" /><path d="M 175.20536237346943 141.71514677278685 a86.0,86.0 0 0,1 -30.301960400862466,31.631185727798858" fill="none" id="id5" stroke="none" /><text fill="#e1ed5e" style="font-size:6.75px; font-family:Arial;" text-anchor="middle"><textPath startOffset="22.145653131862474" xlink:href="#id5">May</textPath></text><path d="M 118.00360718960297 110.81064883170644 l 3.475770578371734 2.0871003653119944 a25.054253204766574,25.054253204766574 0 0,0 -0.22457205141823397,0.3668215687468138 l -3.4394305624980954 -2.146459050183365" fill="#ff2503" stroke="none" /><path d="M 115.89218393027572 113.72728997021213 l 10.831503845274058 9.355995044474986 a35.31279563266475,35.31279563266475 0 0,0 -0.40019307910789487,0.4553462615945049 l -10.669299702207578 -9.540553583880783" fill="#ffb210" stroke="none" /><path d="M 114.13192950727249 115.5334660781643 l 12.302896357300767 13.523038246897311 a39.282062854216754,39.282062854216754 0 0,0 -0.5026887670214439,0.4495073952033355 l -12.068942563455947 -13.732241171984034" fill="#ffe515" stroke="none" /><path d="M 113.03279911837588 116.46651593811092 l 5.434430629251216 6.866225571216733 a29.7566026436612,29.7566026436612 0 0,0 -0.40325872351557057,0.31357642249429285 l -5.3157619611004145 -6.958503045331819" fill="#ff6709" stroke="none" /><path d="M 112.45986205192187 116.90419585922612 l 7.498784352286732 10.173541157111183 a33.63854051849087,33.63854051849087 0 0,0 -0.467766314985907,0.3386267389402125 l -7.323037026926857 -10.300768667424473" fill="#ff9c0e" stroke="none" /><line stroke="#e1ed5e" stroke-width="0.3" x1="143.1302829299769" x2="145.66735839644613" y1="173.24464959558577" y2="177.55315839532614" /><path d="M 143.63769802327073 174.10635135553383 a86.0,86.0 0 0,1 -40.68552437913181,11.842963189579606" fill="none" id="id6" stroke="none" /><text fill="#e1ed5e" style="font-size:6.75px; font-family:Arial;" text-anchor="middle"><textPath startOffset="21.407464694133747" xlink:href="#id6">June</textPath></text><path d="M 110.65571695917076 118.09573695890943 l 15.222717033929355 25.85150152743289 a51.00052074744617,51.00052074744617 0 0,0 -0.75822603430451,0.43776200501229295 l -14.776698531764445 -26.109010429721355" fill="#90ff24" stroke="none" /><path d="M 110.34350942703117 118.27599006163325 l 5.587151779842999 9.871961844439046 a32.343363507754795,32.343363507754795 0 0,0 -0.48554444382856127,0.2693233181755777 l -5.416863147858343 -9.966418078047768" fill="#ff8b0c" stroke="none" /><path d="M 109.3889696526874 118.78422872680471 l 3.6310951010021886 7.264622576182496 a29.12155113305965,29.12155113305965 0 0,0 -0.4490817076205684,0.21966836696856817 l -3.5058531441195506 -7.3258846932482875" fill="#ff5f08" stroke="none" /><path d="M 108.73861861582097 119.09545874513695 l 11.399741446025276 24.910492385340564 a48.395012975290534,48.395012975290534 0 0,0 -0.7583881018474353,0.3392173516491378 l -10.970439941322214 -25.102513487899554" fill="#adff20" stroke="none" /><path d="M 108.4095320186766 119.2426549942271 l 3.881854235297551 8.882442164655092 a30.69363559829542,30.69363559829542 0 0,0 -0.48461585618547615,0.20685369196549291 l -3.7288033039416435 -8.947770506279989" fill="#ff740a" stroke="none" /><path d="M 106.0420521117495 120.11202640906438 l 5.667018216275415 18.863660544195152 a40.69651706749755,40.69651706749755 0 0,0 -0.67079485304073,0.19525860545121743 l -5.342363350853078 -18.95816284394889" fill="#fff617" stroke="none" /><path d="M 104.29559338865022 120.5559693870025 l 3.250195789902192 15.553363438802473 a36.88933248856526,36.88933248856526 0 0,0 -0.620976603863086,0.12421271223670262 l -2.982722700508147 -15.606865547702037" fill="#ffc612" stroke="none" /><path d="M 103.58742460773223 120.69131181640829 l 5.484932226772973 31.635631520008026 a53.107595101502355,53.107595101502355 0 0,0 -0.8995983969691831,0.14802857388393573 l -4.941056326750718 -31.725126092387633" fill="#79ff26" stroke="none" /><path d="M 103.2317021107853 120.74984581791261 l 3.6440568388906973 23.39745897567207 a44.679532021628376,44.679532021628376 0 0,0 -0.7588603507291588,0.11152633876580828 l -3.2418713825538528 -23.45656638773676" fill="#d8ff1c" stroke="none" /><path d="M 101.80034050326958 120.92268563240118 l 2.0163970783284633 23.433590536534982 a44.52018330310105,44.52018330310105 0 0,0 -0.7619968684487797,0.05898337682294283 l -1.6138312151044476 -23.46475168035298" fill="#daff1c" stroke="none" /><line stroke="#e1ed5e" stroke-width="0.3" x1="101.45913802915013" x2="101.54496967792366" y1="184.9874750549273" y2="189.98673829345242" /><path d="M 101.47630435890484 185.9873277026323 a86.0,86.0 0 0,1 -42.54439059252881,-10.42667462771756" fill="none" id="id7" stroke="none" /><text fill="#e1ed5e" style="font-size:6.75px; font-family:Arial;" text-anchor="middle"><textPath startOffset="22.145653131862474" xlink:href="#id7">July</textPath></text><path d="M 100.0 121.0 l 6.413029905949077e-16 5.236636318662718 a26.23663631866272,26.23663631866272 0 0,0 -0.4503867507004926,-0.003866028573929301 l 0.0898938258516398 -5.235864688283224" fill="#ff3605" stroke="none" /><path d="M 99.27912038922189 120.98762331915562 l -1.3966482157627946 40.66188892506068 a61.68586778222342,61.68586778222342 0 0,0 -1.057983833816169,-0.045434378048329775 l 2.094457810179802 -40.63192197858652" fill="#31ff40" stroke="none" /><path d="M 98.55909050195518 120.95050786540614 l -1.1542901128611684 16.783124909144163 a37.82277228582092,37.82277228582092 0 0,0 -0.6473655744323787,-0.05011018968710176 l 1.4422246820687834 -16.760836952462007" fill="#ffd213" stroke="none" /><path d="M 93.95794788825049 120.11202640906438 l -7.488347083866547 24.9262719892953 a47.026801135229434,47.026801135229434 0 0,0 -0.771148546523769,-0.23890379093544892 l 7.915136263261949 -24.794051610553204" fill="#bcff1f" stroke="none" /><path d="M 93.61358852112213 120.00534299687104 l -9.646927161959788 30.21886193508261 a52.72133068330744,52.72133068330744 0 0,0 -0.8598027142851025,-0.28263423003743243 l 10.164252613892634 -30.04880678364316" fill="#7dff26" stroke="none" /><path d="M 92.93061703081489 119.77432235084164 l -6.2739894049556195 17.54946499010486 a39.63723864987546,39.63723864987546 0 0,0 -0.638746264647262,-0.23455647593613285 l 6.574324821257001 -17.439177665160006" fill="#ffe915" stroke="none" /><path d="M 92.59220618246901 119.65005319985036 l -15.206012452887917 40.33575461424278 a64.1067966220849,64.1067966220849 0 0,0 -1.026403961287197,-0.39703510189429736 l 15.896188676668642 -40.06877962421044" fill="#34ff5d" stroke="none" /><path d="M 91.92203290615298 119.3841803445677 l -0.5783748039675795 1.387888979567793 a22.503580138692403,22.503580138692403 0 0,0 -0.35530465986103454,-0.15165843157362488 l 0.6021145389990451 -1.377755898334764" fill="#ff0000" stroke="none" /><path d="M 91.26138138417905 119.09545874513695 l -3.9020859193315363 8.526761948126865 a30.377203412631598,30.377203412631598 0 0,0 -0.4723095121545576,-0.22106469999366768 l 4.047884145357584 -8.45852101656267" fill="#ff700a" stroke="none" /><path d="M 90.6110303473126 118.78422872680471 l -1.551194551481772 3.1034282069989123 a24.469505897464828,24.469505897464828 0 0,0 -0.3741186781807102,-0.19102766278019034 l 1.6042404513760644 -3.0763425925458856" fill="#ff1d02" stroke="none" /><line stroke="#e1ed5e" stroke-width="0.3" x1="58.13341422392154" x2="55.67067388415222" y1="173.97424548756322" y2="178.32567169271397" /><path d="M 57.64086615596768 174.84453072859336 a86.0,86.0 0 0,1 -31.369924170532247,-30.572349798747897" fill="none" id="id8" stroke="none" /><text fill="#e1ed5e" style="font-size:6.75px; font-family:Arial;" text-anchor="middle"><textPath startOffset="22.145653131862474" xlink:href="#id8">August</textPath></text><path d="M 89.34428304082925 118.09573695890944 l -16.00999234427625 27.18846711922451 a52.55206172593063,52.55206172593063 0 0,0 -0.7734343264217767,-0.46442509044309177 l 16.474359427255454 -26.909628028245496" fill="#7fff26" stroke="none" /><path d="M 89.03521579738668 117.91015095944536 l -17.136379619275438 27.99098825916121 a53.81997760785981,53.81997760785981 0 0,0 -0.7838133209627604,-0.48915748286332905 l 17.61435706902791 -27.692694979456334" fill="#71ff27" stroke="none" /><path d="M 87.2517909369889 116.68781488649013 l -26.119513708562494 34.19128189216239 a64.0264192537689,64.0264192537689 0 0,0 -0.8676801047732464,-0.6747132975878695 l 26.70260375797097 -33.73786754295372" fill="#34ff5c" stroke="none" /><path d="M 86.96720088162412 116.46651593811092 l -18.630048236042025 23.538457350579534 a51.018955207040506,51.018955207040506 0 0,0 -0.6820729700788583,-0.5494297032833224 l 19.031371976476144 -23.2151793535028" fill="#90ff24" stroke="none" /><path d="M 86.13680546590413 115.77377054828092 l -31.527378810834307 35.872369685625834 a68.75774828804276,68.75774828804276 0 0,0 -0.8798862686605994,-0.7867997270842807 l 32.13853010631828 -35.325874428658175" fill="#3aff92" stroke="none" /><path d="M 85.60350026404147 115.28858382429668 l -6.9542155307107825 7.385135902718009 a31.14403006448589,31.14403006448589 0 0,0 -0.386078472705882,-0.3698544434038585 l 7.079966489281979 -7.264669329008568" fill="#ff7a0b" stroke="none" /><path d="M 85.34317274990678 115.03919595460226 l -16.742881827978366 17.179671722890415 a44.98885600465201,44.98885600465201 0 0,0 -0.5484528876809793,-0.543765284329766 l 17.035326635789307 -16.88972642833199" fill="#d4ff1c" stroke="none" /><path d="M 84.83555147118756 114.52719865689866 l -34.39195688745303 32.94671672064098 a68.62659804372544,68.62659804372544 0 0,0 -0.8076506360492293,-0.8576969872158327 l 34.95246335723851 -32.35147827348066" fill="#3aff90" stroke="none" /><path d="M 84.3458050057657 113.99807769240083 l -31.796532450221555 28.432655384136925 a63.65483991355592,63.65483991355592 0 0,0 -0.7213879821387281,-0.8208071003084829 l 32.27993149631887 -27.882636006017144" fill="#34ff57" stroke="none" /><path d="M 84.1078160697243 113.72728997021213 l -24.267879321609193 20.962016162876402 a53.0676798097536,53.0676798097536 0 0,0 -0.5895703905561607,-0.6945124376214954 l 24.624144275672467 -20.542336942805353" fill="#79ff26" stroke="none" /><path d="M 83.64595745247003 113.17365903436017 l -40.356374331266494 32.50823848342049 a72.82106249837267,72.82106249837267 0 0,0 -0.7758341065349922,-0.9802410491063113 l 40.908474868443044 -31.810677490399502" fill="#3fffbe" stroke="none" /><path d="M 83.20337586046588 112.60449989151573 l -41.85805712076341 31.411066417561422 a73.33308742481708,73.33308742481708 0 0,0 -0.7469428237071798,-1.0133713948816943 l 42.39110196405443 -30.68788871341085" fill="#40ffc3" stroke="none" /><path d="M 82.576782715395 111.72311816256416 l -32.412079732684305 21.80829374930931 a60.06590058931252,60.06590058931252 0 0,0 -0.568267928633977,-0.8604300725214694 l 32.781672100239014 -21.24868379844878" fill="#32ff2f" stroke="none" /><path d="M 82.37810715431573 111.42229804090323 l -52.86567853705281 34.266894122709665 a84.0,84.0 0 0,0 -0.7739292334964403,-1.2167453012853122 l 53.44612546217514 -33.35433514674568" fill="#4dd2ff" stroke="none" /><path d="M 81.99639281039703 110.81064883170644 l -15.576378258649537 9.353167598620598 a39.16880028467527,39.16880028467527 0 0,0 -0.3411906340354121,-0.5794162879893949 l 15.73464260281472 -9.084400142337644" fill="#ffe315" stroke="none" /><line stroke="#e1ed5e" stroke-width="0.3" x1="26.387840678322732" x2="22.057713659400548" y1="142.50000000000003" y2="145.00000000000006" /><path d="M 25.521815274538298 143.00000000000003 a86.0,86.0 0 0,1 -11.493303480769221,-40.785679425670985" fill="none" id="id9" stroke="none" /><text fill="#e1ed5e" style="font-size:6.75px; font-family:Arial;" text-anchor="middle"><textPath startOffset="21.40746469413373" xlink:href="#id9">September</textPath></text><path d="M 81.4637452351635 109.86951160357371 l -28.43453156614978 15.13978647761501 a53.213905692637496,53.213905692637496 0 0,0 -0.42239660463288975,-0.8100011844635361 l 28.69023623975762 -14.649439050046972" fill="#78ff26" stroke="none" /><path d="M 81.29705330413844 109.54985784667822 l -27.266876168697934 13.92266125592186 a51.615731780348725,51.615731780348725 0 0,0 -0.3961632441903006,-0.7925918676170786 l 27.50185932609997 -13.452537532141028" fill="#89ff24" stroke="none" /><path d="M 80.9802524753101 108.90220220490708 l -38.060105810919104 17.81405128691291 a63.02275666339753,63.02275666339753 0 0,0 -0.45020916986519816,-0.9837882859744925 l 38.360299445639356 -17.158074018723728" fill="#33ff50" stroke="none" /><path d="M 80.83023694016515 108.57439118712176 l -34.84428330068141 15.585404719003911 a59.171048177817894,59.171048177817894 0 0,0 -0.4067759296389776,-0.9307829325835173 l 35.106693112337354 -14.984959716644545" fill="#3bff2e" stroke="none" /><path d="M 80.68587082218212 108.24405325689762 l -31.193856145952157 13.314802287362934 a54.91667172948906,54.91667172948906 0 0,0 -0.3626439558549503,-0.8702134781551907 l 31.417825946343594 -12.777356299766462" fill="#66ff29" stroke="none" /><path d="M 80.28708602549918 107.23885506374661 l -38.15147014626265 14.009748290632622 a61.64243744521303,61.64243744521303 0 0,0 -0.3562340822108533,-0.9964501293393124 l 38.386344398517444 -13.352763204912389" fill="#31ff3f" stroke="none" /><path d="M 80.16572619554312 106.89939002012753 l -25.62271833657059 8.912911504738325 a48.12865065657574,48.12865065657574 0 0,0 -0.2647409900421502,-0.7826596956685075 l 25.771944748185106 -8.471750134595656" fill="#b0ff20" stroke="none" /><line stroke="#e1ed5e" stroke-width="0.3" x1="15.003131293944662" x2="10.003315487706104" y1="100.72959589197737" y2="100.7725132973878" /><path d="M 14.003168132696942 100.73817937305945 a86.0,86.0 0 0,1 10.791469493833604,-42.45332614584628" fill="none" id="id10" stroke="none" /><text fill="#e1ed5e" style="font-size:6.75px; font-family:Arial;" text-anchor="middle"><textPath startOffset="22.145653131862435" xlink:href="#id10">October</textPath></text><line stroke="#e1ed5e" stroke-width="0.3" x1="26.387840678322718" x2="22.05771365940052" y1="57.49999999999999" y2="54.99999999999999" /><path d="M 25.521815274538284 56.99999999999999 a86.0,86.0 0 0,1 29.574782752854787,-30.34633250058573" fill="none" id="id11" stroke="none" /><text fill="#e1ed5e" style="font-size:6.75px; font-family:Arial;" text-anchor="middle"><textPath startOffset="21.40746469413373" xlink:href="#id11">November</textPath></text><line stroke="#e1ed5e" stroke-width="0.3" x1="56.869717070023135" x2="54.33264160355391" y1="26.7553504044142" y2="22.446841604673864" /><path d="M 56.362301976729285 25.89364864446614 a86.0,86.0 0 0,1 42.16139366436587,-11.88097634709845" fill="none" id="id12" stroke="none" /><text fill="#e1ed5e" style="font-size:6.75px; font-family:Arial;" text-anchor="middle"><textPath startOffset="22.145653131862474" xlink:href="#id12">December</textPath></text></svg>