<?xml version="1.0" encoding="utf-8" ?>
<svg baseProfile="full" height="200mm" version="1.1" viewBox="0,0,200,200" width="200mm" xmlns="http://www.w3.org/2000/svg" xmlns:ev="http://www.w3.org/2001/xml-events" xmlns:xlink="http://www.w3.org/1999/xlink"><defs /><rect fill="#1a1a1a" height="200" width="200" x="0" y="0" /><text alignment-baseline="middle" fill="#e1ed5e" style="dominant-baseline: central; font-size:9.0px; font-family:Arial;" text-anchor="middle" x="100.0" y="100.0">2025</text><line stroke="#e1ed5e" stroke-width="0.3" x1="100.0" x2="100.0" y1="15.0" y2="10.0" /><path d="M 100.0 14.0 a86.0,86.0 0 0,1 42.46469731375804,11.215312516191453" fill="none" id="id49" stroke="none" /><text fill="#e1ed5e" style="font-size:6.75px; font-family:Arial;" text-anchor="middle"><textPath startOffset="22.20632615414155" xlink:href="#id49">January</textPath></text><path d="M 100.72285384407766 79.0124445844662 l 0.052646278234458194 -1.5285478398155885 a22.529454193239157,22.529454193239157 0 0,0 0.3874628058644256,0.016684963470184874 l -0.07894991648821537 1.527415149821209" fill="#ff1001" stroke="none" /><path d="M 101.44485096284872 79.0497635885617 l 0.6010210852752891 -8.714763078366664 a29.7354634597718,29.7354634597718 0 0,0 0.5103310835599704,0.039611513999600466 l -0.7509423581976007 8.7031263021786" fill="#ff740a" stroke="none" /><path d="M 103.2404852339499 79.25152402106235 l 1.4709090944906855 -9.418071619181685 a30.532242474270728,30.532242474270728 0 0,0 0.5185694838884998,0.08556840811639777 l -1.6328077845180604 9.391356948125662" fill="#ff7f0b" stroke="none" /><path d="M 103.59715602781102 79.31037775812273 l 2.0160457771999654 -11.595611986278398 a32.76956489901343,32.76956489901343 0 0,0 0.5549055789249667,0.10140544768133916 l -2.215346477227833 11.55919105724632" fill="#ff9c0e" stroke="none" /><path d="M 103.95276090670814 79.375362276772 l 2.1395872877398667 -11.163896255897976 a32.36707584976501,32.36707584976501 0 0,0 0.5462847099277194,0.10957957363177251 l -2.3314384071347116 11.125412726188996" fill="#ff970d" stroke="none" /><path d="M 105.71112130821622 79.79150937346287 l 4.201556650375111 -14.866978585066969 a36.44927605213756,36.44927605213756 0 0,0 0.602297873666236,0.17582726541833416 l -4.456844741764774 14.792452990729933" fill="#ffcb12" stroke="none" /><path d="M 107.4271985657038 80.35727306442388 l 4.016124944649901 -10.621453692000266 a32.35537485521043,32.35537485521043 0 0,0 0.5192526680453512,0.201461968127386 l -4.198360777694919 10.550749019982334" fill="#ff970d" stroke="none" /><line stroke="#e1ed5e" stroke-width="0.3" x1="143.23703022742887" x2="145.7803849466894" y1="26.81831364943548" y2="22.513508569990506" /><path d="M 143.74570117128098 25.957352633546492 a86.0,86.0 0 0,1 28.547481713284135,27.462654790039103" fill="none" id="id50" stroke="none" /><text fill="#e1ed5e" style="font-size:6.75px; font-family:Arial;" text-anchor="middle"><textPath startOffset="19.985693538727396" xlink:href="#id50">February</textPath></text><path d="M 113.89432698308785 84.25364557470407 l 0.9823739994852658 -1.1133183487706242 a22.484768136974264,22.484768136974264 0 0,0 0.28800740834751704,0.25857589488913346 l -1.001392395428773 1.0962434451121932" fill="#ff0f01" stroke="none" /><path d="M 114.16331599549186 84.49514656593476 l 2.8259218159506942 -3.093590765495125 a25.19000452675445,25.19000452675445 0 0,0 0.3176245050407952,0.2951973614663484 l -2.878754204786336 3.044488817954136" fill="#ff3605" stroke="none" /><path d="M 114.68862486808459 84.99185889309783 l 4.0343458410517465 -4.122103478053088 a26.76781444300949,26.76781444300949 0 0,0 0.32652170324110064,0.32511951527912775 l -4.10470334446017 4.052048112123842" fill="#ff4b07" stroke="none" /><path d="M 116.15771136456269 86.58626213691792 l 2.18107806194565 -1.810677807131991 a23.834723202279353,23.834723202279353 0 0,0 0.2593461996505827,0.3179277753317879 l -2.2119227536726416 1.772865862192102" fill="#ff2203" stroke="none" /><path d="M 116.38621287248628 86.86637796730983 l 4.791607547036269 -3.8404946244428646 a27.140757432531387,27.140757432531387 0 0,0 0.289043792827366,0.36705626403402475 l -4.857005420457599 3.7574459664558018" fill="#ff5107" stroke="none" /><path d="M 117.65298651832404 88.62581576622439 l 2.250679983403586 -1.4501596517920996 a23.677409831045548,23.677409831045548 0 0,0 0.21780105579679565,0.3445089652338451 l -2.275308635446337 1.4112030388440484" fill="#ff2003" stroke="none" /><line stroke="#e1ed5e" stroke-width="0.3" x1="172.23445277983987" x2="176.4835382374775" y1="55.19839476539836" y2="52.563006222186495" /><path d="M 173.08426987136738 54.67131705675599 a86.0,86.0 0 0,1 12.851231095245387,41.99856678651699" fill="none" id="id51" stroke="none" /><text fill="#e1ed5e" style="font-size:6.75px; font-family:Arial;" text-anchor="middle"><textPath startOffset="22.20632615414155" xlink:href="#id51">March</textPath></text><path d="M 117.84615892207809 88.93136811851018 l 11.916158474652212 -7.390698030501571 a35.022027320294505,35.022027320294505 0 0,0 0.31333741168912327,0.5150443182918563 l -12.041611684627558 7.184485939002633" fill="#ffb911" stroke="none" /><path d="M 118.89224826269711 90.83032412892265 l 11.348931636207858 -5.5083981080494615 a33.61509805748978,33.61509805748978 0 0,0 0.24817835795331852,0.5227269152219156 l -11.442068188002933 5.312228777187006" fill="#ffa70f" stroke="none" /><path d="M 120.08093135843002 93.85539295169968 l 6.0624179110143395 -1.8550521965766624 a27.33988403520217,27.33988403520217 0 0,0 0.13382756440327143,0.45120001792184633 l -6.093451372529313 1.7504227919082862" fill="#ff5307" stroke="none" /><path d="M 120.37134235888165 94.90015583598534 l 13.236517628691415 -3.3136833101785235 a34.6449952735358,34.6449952735358 0 0,0 0.13984567782451313,0.5797506184862168 l -13.291596106776748 3.0853474600329007" fill="#ffb410" stroke="none" /><path d="M 120.6074358757038 95.95851677861258 l 5.664664731530753 -1.1109410993853106 a26.772574525023632,26.772574525023632 0 0,0 0.08479801969529951,0.4529944119765815 l -5.682948475135911 1.0132686099461663" fill="#ff4c07" stroke="none" /><path d="M 120.73433829027371 96.67025291283417 l 6.731737824052058 -1.0810561734548358 a27.817989189045253,27.817989189045253 0 0,0 0.0718553318988083,0.47343685845867794 l -6.749349049390166 0.9650202026040757" fill="#ff5a08" stroke="none" /><path d="M 120.83666639777658 97.38593545837742 l 2.2949489778269805 -0.28791288554730804 a23.312938529337362,23.312938529337362 0 0,0 0.04652557258159809,0.39860269319077996 l -2.2995649034121675 0.24836645403167537" fill="#ff1b02" stroke="none" /><path d="M 120.96714384426684 98.82574320788733 l 12.323644044071907 -0.6901809244890157 a33.34295557123647,33.34295557123647 0 0,0 0.027160840983556783,0.5733224251969649 l -12.33369849328896 0.47794739266905106" fill="#ffa30f" stroke="none" /><line stroke="#e1ed5e" stroke-width="0.3" x1="184.98032266829074" x2="189.97916517819016" y1="98.17113171792111" y2="98.06355123074" /><path d="M 185.9800911702706 98.14961562048488 a86.0,86.0 0 0,1 -9.607161424134198,41.387399972396054" fill="none" id="id52" stroke="none" /><text fill="#e1ed5e" style="font-size:6.75px; font-family:Arial;" text-anchor="middle"><textPath startOffset="21.466115282336823" xlink:href="#id52">April</textPath></text><path d="M 120.99824983174949 100.27111621757518 l 3.6435915185060472 0.04704376597104627 a24.64389520563448,24.64389520563448 0 0,0 -0.009127555814603347,0.4241216526627363 l -3.6422419000064363 -0.10975523442389744" fill="#ff2e04" stroke="none" /><path d="M 120.9764740272857 100.99374915477107 l 20.96069468283243 0.9930016168296117 a41.98420295836718,41.98420295836718 0 0,0 -0.04041209270796135,0.7215850626089861 l -20.940496239236936 -1.3536583957740211" fill="#efff19" stroke="none" /><path d="M 120.76222939487914 103.15116336523771 l 8.94229322315799 1.3572062166396688 a30.044701034496534,30.044701034496534 0 0,0 -0.08200521685890115,0.5106465636604698 l -8.9176062519378 -1.5109320099933434" fill="#ff780b" stroke="none" /><path d="M 120.70491114924044 103.5080841355445 l 7.305297682662777 1.23775459461073 a28.40941365215886,28.40941365215886 0 0,0 -0.0858418270136715,0.4814465534031932 l -7.282909413309917 -1.3633198987471415" fill="#ff6209" stroke="none" /><path d="M 120.64145759157962 103.86396538481128 l 8.303116938117617 1.5542970399539258 a29.44734219600847,29.44734219600847 0 0,0 -0.09755493191737445,0.4974304961127087 l -8.27513207322458 -1.6969912631345796" fill="#ff700a" stroke="none" /><path d="M 120.5718875245553 104.21870165774334 l 13.694366910222787 2.8083202534013094 a34.97935433836158,34.97935433836158 0 0,0 -0.1260355462290691,0.5887961125883758 l -13.643997325269273 -3.0436301854058545" fill="#ffb911" stroke="none" /><path d="M 120.32669344350535 105.2749913415812 l 10.372292811307778 2.6917193848601726 a31.715867272896723,31.715867272896723 0 0,0 -0.14168221520758637,0.5272522298651974 l -10.324422519758416 -2.8698625479009183" fill="#ff8e0d" stroke="none" /><path d="M 120.23288151984713 105.62410040840565 l 7.366081832583789 2.0475375097880275 a28.645362739485282,28.645362739485282 0 0,0 -0.13614372002234312,0.4739341497758928 l -7.329745475675346 -2.174029135068502" fill="#ff6509" stroke="none" /><path d="M 120.13307415673323 105.97154293290107 l 3.5864878011418995 1.0637653105590066 a24.740921194530614,24.740921194530614 0 0,0 -0.1246155755198538,0.4072509110078273 l -3.567645453115913 -1.125343194118891" fill="#ff2f04" stroke="none" /><path d="M 120.02730092923936 106.31721596034902 l 10.039234875597865 3.1666780765863307 a31.526827011410084,31.526827011410084 0 0,0 -0.16770432752594297,0.516140847939645 l -9.983238297055674 -3.339017824503771" fill="#ff8c0c" stroke="none" /><path d="M 119.41010516605496 108.01547362559984 l 8.483318660554252 3.503217339602486 a30.178193026135347,30.178193026135347 0 0,0 -0.20240804176763186,0.47843282036972323 l -8.421759637594311 -3.648724685638373" fill="#ff7a0b" stroke="none" /><path d="M 119.12269723197855 108.67885076344098 l 8.993414004752609 4.081667824064182 a30.876310428843414,30.876310428843414 0 0,0 -0.2238170564572857,0.48208202790891047 l -8.921822331455491 -4.235869919251923" fill="#ff830c" stroke="none" /><path d="M 118.97047184881838 109.00673069616215 l 11.979307794674146 5.687491597094179 a34.2608964970909,34.2608964970909 0 0,0 -0.2575224255964829,0.5305724723516461 l -11.879632112462948 -5.8928530254111005" fill="#ffaf10" stroke="none" /><line stroke="#e1ed5e" stroke-width="0.3" x1="174.80103733775053" x2="179.2010983576182" y1="140.37084112569926" y2="142.7455964860345" /><path d="M 175.68104954172406 140.8457921977663 a86.0,86.0 0 0,1 -30.038265399797805,32.042727171017184" fill="none" id="id53" stroke="none" /><text fill="#e1ed5e" style="font-size:6.75px; font-family:Arial;" text-anchor="middle"><textPath startOffset="22.206326154141568" xlink:href="#id53">May</textPath></text><path d="M 118.30583269289576 110.29060199501025 l 16.58470567335495 9.323072495637824 a40.02556551145669,40.02556551145669 0 0,0 -0.34278657429084036,0.5976772858424141 l -16.42176710291173 -9.607169627338553" fill="#fff717" stroke="none" /><path d="M 117.94076556474637 110.91462005526583 l 5.719546111014076 3.4795991545065617 a27.69483517288208,27.69483517288208 0 0,0 -0.25127835233340295,0.40514071273063973 l -5.658803119012711 -3.5775361986024747" fill="#ff5808" stroke="none" /><path d="M 116.71984013943494 112.70617746262583 l 8.602762786410667 6.537636109043658 a31.80500872065931,31.80500872065931 0 0,0 -0.3350024336823677,0.4330358043169715 l -8.48895353551023 -6.684749907473882" fill="#ff8f0d" stroke="none" /><path d="M 114.81725581225074 114.88116024355365 l 0.7231720023586186 0.7262909264111214 a22.02492743878896,22.02492743878896 0 0,0 -0.27095909774908594,0.2651905064778861 l -0.7105629522337383 -0.7386315358115795" fill="#ff0901" stroke="none" /><path d="M 113.48314897796784 116.09983520530334 l 13.484181185913931 16.101067734726314 a42.001607663529,42.001607663529 0 0,0 -0.5582811118112936,0.45942734743611213 l -13.205029945557946 -16.330790201019607" fill="#efff19" stroke="none" /><path d="M 113.20401910651253 116.32954008644616 l 2.9651557012635394 3.667037172223998 a25.715857287408966,25.715857287408966 0 0,0 -0.3466038439786196,0.275363056010591 l -2.901594364567569 -3.7175341422397152" fill="#ff3d05" stroke="none" /><path d="M 111.45004920935366 117.60387380957326 l 4.0418327657124475 6.21411425104406 a28.41293653223981,28.41293653223981 0 0,0 -0.41228280088852626,0.26313839001264416 l -3.9342681627769904 -6.282767069880513" fill="#ff6209" stroke="none" /><path d="M 111.1453310114006 117.79835938074945 l 9.159329299793363 14.6268454833325 a38.257981400364805,38.257981400364805 0 0,0 -0.5611549542816772,0.3447072055625913 l -8.906195145579378 -14.78234115572347" fill="#ffe215" stroke="none" /><line stroke="#e1ed5e" stroke-width="0.3" x1="143.8653032363475" x2="146.44561519142675" y1="172.8068346515853" y2="177.08958963109032" /><path d="M 144.38136562736335 173.6633856474863 a86.0,86.0 0 0,1 -40.68145358897372,12.25698825130547" fill="none" id="id54" stroke="none" /><text fill="#e1ed5e" style="font-size:6.75px; font-family:Arial;" text-anchor="middle"><textPath startOffset="21.466115282336833" xlink:href="#id54">June</textPath></text><path d="M 110.21172684928248 118.3499491758327 l 4.510000346059728 8.1042392099431 a30.274631868351328,30.274631868351328 0 0,0 -0.4575465492423401,0.2494908599690363 l -4.369830984948739 -8.180670721671907" fill="#ff7b0b" stroke="none" /><path d="M 109.89434966115114 118.52300852407294 l 3.0094945797457124 5.634012912708764 a27.387421946770694,27.387421946770694 0 0,0 -0.41773525742362705,0.21853934329650385 l -2.91206841979559 -5.684981674949984" fill="#ff5407" stroke="none" /><path d="M 109.2508944713604 118.85261126421891 l 3.7767393434365695 7.696704238549208 a29.57339000652385,29.57339000652385 0 0,0 -0.4589330079721256,0.2203157331395859 l -3.6436936674642113 -7.760574248188354" fill="#ff720a" stroke="none" /><path d="M 108.92500713936063 119.00905698771935 l 5.407674528387597 11.51761468378189 a33.723929888561955,33.723929888561955 0 0,0 -0.5275900131851565,0.24219069839725244 l -5.2086165194350205 -11.608992452513217" fill="#ffa80f" stroke="none" /><path d="M 107.59598834532513 119.57807347666477 l 2.275512213811835 5.864957039655565 a27.29092019598184,27.29092019598184 0 0,0 -0.43942251529125226,0.16615199539316983 l -2.174219477760308 -5.903257285155365" fill="#ff5307" stroke="none" /><path d="M 105.18746579009965 120.34920634021253 l 1.7048366073655972 6.6876724210578296 a27.901552743346336,27.901552743346336 0 0,0 -0.4664165924340847,0.11463385056098321 l -1.5894667301883014 -6.716027529932843" fill="#ff5b08" stroke="none" /><path d="M 104.48393922423573 120.51570834832081 l 1.6412788243856442 7.509467902101195 a28.68673561091214,28.68673561091214 0 0,0 -0.483314857278983,0.101283327525147 l -1.5117725056772833 -7.536607210352884" fill="#ff6609" stroke="none" /><path d="M 104.13013068566511 120.58985236759428 l 2.9902838469336346 14.907398247532791 a36.20435200841443,36.20435200841443 0 0,0 -0.6120817836396706,0.11730693060146584 l -2.7332344487222597 -14.956662376482726" fill="#ffc812" stroke="none" /><path d="M 101.62511606390274 120.93702456842531 l 2.4483680688078584 31.54331161189378 a52.638189165080085,52.638189165080085 0 0,0 -0.9039662484805192,0.06234280505716586 l -1.9050390595484088 -31.580782761467233" fill="#78ff26" stroke="none" /><path d="M 100.90346689309514 120.98055641714683 l 0.46721203364145925 10.849726210778007 a31.85978111810835,31.85978111810835 0 0,0 -0.548109072289178,0.0188779846930073 l -0.28038260967762896 -10.856160993897108" fill="#ff900d" stroke="none" /><line stroke="#e1ed5e" stroke-width="0.3" x1="102.19456741930631" x2="102.32365962044197" y1="184.97166512339345" y2="189.96999836594603" /><path d="M 102.22038585953345 185.97133177190398 a86.0,86.0 0 0,1 -42.740103519485714,-10.115201625700543" fill="none" id="id55" stroke="none" /><text fill="#e1ed5e" style="font-size:6.75px; font-family:Arial;" text-anchor="middle"><textPath startOffset="22.20632615414155" xlink:href="#id55">July</textPath></text><path d="M 100.54218724476979 120.99299961872073 l 0.17548140773177284 6.79448135518166 a27.796747060938102,27.796747060938102 0 0,0 -0.4784221370324066,0.00823647095962568 l -0.0584995808066983 -6.796495303420445" fill="#ff5a08" stroke="none" /><path d="M 100.18074693466247 120.99922214144158 l 0.09549207160901993 11.094291741151759 a32.09470269874449,32.09470269874449 0 0,0 -0.5524780125429432,0.0 l 0.0954920716090123 -11.094291741151759" fill="#ff930d" stroke="none" /><path d="M 99.45781275523022 120.99299961872073 l -0.22118859590406845 8.564222331440382 a29.567078179712155,29.567078179712155 0 0,0 -0.5086658860368926,-0.017519481606742972 l 0.368574833615604 -8.559146051407545" fill="#ff720a" stroke="none" /><path d="M 99.09653310690486 120.98055641714683 l -0.8709772569896109 20.22607316104285 a41.244817531853705,41.244817531853705 0 0,0 -0.7090414878622715,-0.03664934596200539 l 1.2190068132653715 -20.208084008318647" fill="#f8ff18" stroke="none" /><path d="M 98.73552117531835 120.96189622390904 l -0.5058403520989115 8.385567839961693 a29.400810821605933,29.400810821605933 0 0,0 -0.5049060593126153,-0.034821277985564655 l 0.6501091721904568 -8.375618217459843" fill="#ff6f0a" stroke="none" /><path d="M 98.37488393609728 120.93702456842531 l -1.3160045308595438 16.954616231283946 a38.00561317551825,38.00561317551825 0 0,0 -0.6518065496609442,-0.056240611763671955 l 1.6076553982620296 -16.92945136724161" fill="#ffdf14" stroke="none" /><path d="M 97.65516085044442 120.86867818915974 l -0.691487005566895 6.154119268221974 a27.192845730871134,27.192845730871134 0 0,0 -0.46470317247636905,-0.05626908255657938 l 0.7973176010946533 -6.141304656940046" fill="#ff5107" stroke="none" /><path d="M 96.58105272829116 120.7198165907248 l -0.8893739779576347 5.389865429142774 a26.462749803618742,26.462749803618742 0 0,0 -0.4487969314398392,-0.07802909924204939 l 0.9820198808695239 -5.373757751379718" fill="#ff4706" stroke="none" /><path d="M 95.86986931433489 120.58985236759428 l -2.2703786268278376 11.318470116980977 a32.543932817638364,32.543932817638364 0 0,0 -0.5483010147404214,-0.11490180866976799 l 2.464871102997646 -11.277712327584668" fill="#ff990e" stroke="none" /><path d="M 95.51606077576429 120.51570834832081 l -0.4721944585806521 2.1604672390681494 a23.211467001291457,23.211467001291457 0 0,0 -0.38959878195179576,-0.08867141434749225 l 0.5093133899253105 -2.15201909114297" fill="#ff1a02" stroke="none" /><path d="M 95.16358092515715 120.4354850818985 l -1.291550681623305 5.457232774578471 a26.60798472886072,26.60798472886072 0 0,0 -0.4447926494604463,-0.10931921148598144 l 1.385296615826962 -5.43419230477846" fill="#ff4906" stroke="none" /><path d="M 94.81253420990036 120.34920634021253 l -3.7211894829055754 14.597349781697517 a36.06419170805097,36.06419170805097 0 0,0 -0.600227603535355,-0.15852556547748306 l 3.9719075292524195 -14.531132866916453" fill="#ffc612" stroke="none" /><path d="M 94.46302465271185 120.25689768951611 l -3.4912049027836125 12.772493300599894 a34.24103835758697,34.24103835758697 0 0,0 -0.56720904839709,-0.1602989427750643 l 3.7105451192853165 -12.71050556448631" fill="#ffaf10" stroke="none" /><path d="M 94.11515582081647 120.15858648285463 l -2.842168426655578 9.735873420445321 a31.14224593590648,31.14224593590648 0 0,0 -0.5132909843120848,-0.15465036298308213 l 3.0093343854079087 -9.685507688356513" fill="#ff870c" stroke="none" /><path d="M 93.76903079525671 120.05430185196036 l -1.4415457466234707 4.63959820475275 a25.85838714401736,25.85838714401736 0 0,0 -0.4239281306695246,-0.13572840023125113 l 1.5211952223839356 -4.6140969578617925" fill="#ff3f05" stroke="none" /><path d="M 93.42475214034765 119.94407469862007 l -0.4296926095823547 1.3033457727947275 a22.372350517248265,22.372350517248265 0 0,0 -0.3647015584472187,-0.12372656976864027 l 0.4520639009667992 -1.295756216127964" fill="#ff0e01" stroke="none" /><path d="M 93.08242187328487 119.8279376855182 l -8.61542822951854 24.694505929644812 a47.154239172402775,47.154239172402775 0 0,0 -0.7640792963693415,-0.2739716510388004 l 9.039227086517608 -24.542546737566056" fill="#b4ff20" stroke="none" /><path d="M 92.7421414339146 119.70592522655815 l -7.12963646250523 19.357787389131865 a41.62900018639577,41.62900018639577 0 0,0 -0.6702859353807686,-0.2534447866734282 l 7.461792618646282 -19.232194352351804" fill="#f3ff19" stroke="none" /><path d="M 92.40401165467489 119.57807347666478 l -0.5393365115525651 1.390098216556998 a22.491058994261675,22.491058994261675 0 0,0 -0.3597272711272238,-0.14314290510630434 l 0.5631848587216471 -1.380608467044627" fill="#ff0f01" stroke="none" /><path d="M 92.06813273071674 119.44442032107085 l -0.31287783694879756 0.7669982318463117 a21.82835911808172,21.82835911808172 0 0,0 -0.34668479801043134,-0.14491427368533044 l 0.3260340944566912 -0.761498915141008" fill="#ff0600" stroke="none" /><path d="M 91.7346041902142 119.30500536409082 l -10.064716981708731 23.507575413376177 a46.57155900091866,46.57155900091866 0 0,0 -0.7342323968648216,-0.32186590568438594 l 10.467870053231296 -23.33084495439734" fill="#baff1f" stroke="none" /><path d="M 91.07499286063937 119.00905698771935 l -4.78072037451102 10.182287209681851 a32.24874482418885,32.24874482418885 0 0,0 -0.5004503529093289,-0.24024658171434368 l 4.955283395420591 -10.098486351467944" fill="#ff950d" stroke="none" /><path d="M 90.7491055286396 118.85261126421891 l -5.094944694511742 10.383105334915722 a32.565783061949965,32.565783061949965 0 0,0 -0.5011193114152418,-0.2512716258098587 l 5.272917913609744 -10.293865868196562" fill="#ff990e" stroke="none" /><path d="M 90.42595943632237 118.69057910512821 l -6.310050404939581 12.31857077129057 a34.84066190469851,34.84066190469851 0 0,0 -0.5314181414320708,-0.2780128552248095 l 6.521159448898147 -12.208128497121043" fill="#ffb711" stroke="none" /><line stroke="#e1ed5e" stroke-width="0.3" x1="58.666819895761336" x2="56.23545636021788" y1="174.27360380694188" y2="178.64263932499728" /><path d="M 58.180547188652646 175.14741091055294 a86.0,86.0 0 0,1 -31.652253787137756,-30.449443065178592" fill="none" id="id56" stroke="none" /><text fill="#e1ed5e" style="font-size:6.75px; font-family:Arial;" text-anchor="middle"><textPath startOffset="22.20632615414155" xlink:href="#id56">August</textPath></text><path d="M 89.7882731507175 118.34994917583269 l -4.137966181615983 7.43571290582483 a29.509558774580942,29.509558774580942 0 0,0 -0.44173172325717275,-0.2508268009552335 l 4.265346671794363 -7.363382939074963" fill="#ff710a" stroke="none" /><path d="M 89.4739219176387 118.17145234162733 l -3.7265419200422394 6.433229771741656 a28.434619020357083,28.434619020357083 0 0,0 -0.4214174768667902,-0.24898087341650316 l 3.836727267937412 -6.3681303260314035" fill="#ff6209" stroke="none" /><path d="M 89.1626897886671 117.98757091392108 l -5.344152114977962 8.870126744404077 a31.355631815095393,31.355631815095393 0 0,0 -0.45991365706255416,-0.282516531871385 l 5.496044971972825 -8.776821745704314" fill="#ff890c" stroke="none" /><path d="M 88.8546689885994 117.79835938074946 l -5.756044329328477 9.192023590875737 a31.845521841590223,31.845521841590223 0 0,0 -0.4620909537354625,-0.2949283097507473 l 5.913417085110863 -9.091580852301185" fill="#ff900d" stroke="none" /><path d="M 88.54995079064634 117.60387380957326 l -0.49247224326760913 0.7571512634302314 a21.90322031980189,21.90322031980189 0 0,0 -0.3142854505442521,-0.20829125915891822 l 0.505432392551823 -0.7485619831799948" fill="#ff0701" stroke="none" /><path d="M 88.24862548938628 117.40417183066458 l -1.3762128579590531 2.038216468537898 a23.45932677841537,23.45932677841537 0 0,0 -0.3327237605872804,-0.22885043646915798 l 1.4110935031692238 -2.0142252427036387" fill="#ff1d02" stroke="none" /><path d="M 87.95078237400918 117.19931262002967 l -8.672989436524352 12.380011823110467 a36.115734798759135,36.115734798759135 0 0,0 -0.5060892279015139,-0.36108122660532815 l 8.884805992274751 -12.228886334660919" fill="#ffc712" stroke="none" /><path d="M 87.65650970185807 116.9893568818739 l -9.944423532224324 13.68732475926165 a37.91846383256334,37.91846383256334 0 0,0 -0.5247464518277617,-0.3881948801462902 l 10.178554954470648 -13.514119930375593" fill="#ffdd14" stroke="none" /><path d="M 87.36589467227662 116.77436683061367 l -5.115354274668793 6.791682263686192 a29.50257592299192,29.50257592299192 0 0,0 -0.4030210222736255,-0.30901933418139926 l 5.231504025435905 -6.702623587677426" fill="#ff710a" stroke="none" /><path d="M 87.07902340077011 116.55440617244103 l -11.651535247047892 14.92799290601921 a39.936822484655636,39.936822484655636 0 0,0 -0.5382770651885105,-0.42763985519982883 l 11.906769804953761 -14.72521913681425" fill="#fff617" stroke="none" /><path d="M 86.24171649860922 115.8653595955263 l -3.1239421977703232 3.6023728045911247 a25.768239159088793,25.768239159088793 0 0,0 -0.33260372743823513,-0.29348411829195886 l 3.185488278115146 -3.548065544526877" fill="#ff3e05" stroke="none" /><path d="M 85.70375840098266 115.38237550388516 l -5.200462734989306 5.5955595062876995 a28.639050912673582,28.639050912673582 0 0,0 -0.35821201961030086,-0.33871182300847413 l 5.296010588990423 -5.505213046533294" fill="#ff6509" stroke="none" /><path d="M 85.18274418774928 114.88116024355367 l -7.411725150347123 7.443690723912708 a31.504389620418323,31.504389620418323 0 0,0 -0.38099214742897064,-0.38594303386616635 l 7.538757922831627 -7.315007196065877" fill="#ff8b0c" stroke="none" /><path d="M 84.9287848128048 114.62390073753433 l -1.9218312604034136 1.8647912087612082 a23.677850191055665,23.677850191055665 0 0,0 -0.28130802381423275,-0.29495033831456435 l 1.9536458355966038 -1.8314337538641436" fill="#ff2003" stroke="none" /><path d="M 84.67929136418377 114.36230785411682 l -45.9621259074487 43.08692356235048 a84.0,84.0 0 0,0 -0.9798143680170841,-1.0633949807946235 l 46.69698668346152 -42.28937732675451" fill="#4dd2ff" stroke="none" /><path d="M 83.95833913139862 113.55231037782056 l -1.4244985881024772 1.2034444037224614 a22.86479882570664,22.86479882570664 0 0,0 -0.25140826240405884,-0.3028374477013712 l 1.4450028504000723 -1.178745698907329" fill="#ff1502" stroke="none" /><path d="M 83.72743513129214 113.27417163493432 l -39.00124910458306 31.81485394392984 a71.33172322890732,71.33172322890732 0 0,0 -0.7679440440150545,-0.9581282717035177 l 39.543111060652976 -31.138797838648063" fill="#3dffb0" stroke="none" /><path d="M 83.50135304334701 112.99209946851258 l -4.756296388242342 3.745414756744852 a27.053964571489434,27.053964571489434 0 0,0 -0.2849596443065411,-0.3683487532128217 l 4.820062849766952 -3.6629880094187777" fill="#ff4f07" stroke="none" /><path d="M 82.85270091963577 112.12312394758628 l -14.21030273533019 10.046670358156078 a38.40311147798533,38.40311147798533 0 0,0 -0.3769705982011114,-0.5430542625044749 l 14.381134240693434 -9.80057483346459" fill="#ffe315" stroke="none" /><path d="M 82.44556493220864 111.52570212397912 l -8.47518187321445 5.564543737237289 a31.13868111677695,31.13868111677695 0 0,0 -0.2903239201675215,-0.4505891713486852 l 8.569710656759016 -5.417832965967156" fill="#ff870c" stroke="none" /><line stroke="#e1ed5e" stroke-width="0.3" x1="26.63291911575756" x2="22.317208475507996" y1="142.92168965132927" y2="145.44649492493687" /><path d="M 25.769776987707644 143.4266507060508 a86.0,86.0 0 0,1 -11.730757126820373,-40.83630448921669" fill="none" id="id57" stroke="none" /><text fill="#e1ed5e" style="font-size:6.75px; font-family:Arial;" text-anchor="middle"><textPath startOffset="21.46611528233685" xlink:href="#id57">September</textPath></text><path d="M 81.87401531095188 110.60418214915194 l -0.3729077033529204 0.218160904304722 a21.432035108974958,21.432035108974958 0 0,0 -0.18354803489244356,-0.3200314701448831 l 0.3766077343977412 -0.21170958830153197" fill="#ff0000" stroke="none" /><path d="M 81.69416730710424 110.29060199501025 l -5.526224505100885 3.106560508396619 a27.339548522813512,27.339548522813512 0 0,0 -0.22707915320588665,-0.4122146226674295 l 5.578880067758289 -3.010975367331367" fill="#ff5307" stroke="none" /><path d="M 81.18737489456691 109.33194174019688 l -7.565845503623225 3.753013152574439 a29.44553881691941,29.44553881691941 0 0,0 -0.22132773378455287,-0.4560006867054807 l 7.6293264940224965 -3.6222235099036735" fill="#ff700a" stroke="none" /><path d="M 81.02952815118164 109.00673069616217 l -0.759176264114581 0.3604389082301302 a21.840395625024964,21.840395625024964 0 0,0 -0.15831726630424753,-0.3410013070541421 l 0.7652681472586552 -0.347317533897161" fill="#ff0601" stroke="none" /><path d="M 80.87730276802145 108.67885076344099 l -9.682054134072072 4.394207673415864 a31.632555352887138,31.632555352887138 0 0,0 -0.22076347617604214,-0.497763358921354 l 9.756258694979394 -4.2268959780018145" fill="#ff8d0d" stroke="none" /><path d="M 80.73074385275274 108.34839909993369 l -5.717434510462436 2.4770766840365632 a27.230968326032833,27.230968326032833 0 0,0 -0.18264072237643342,-0.43170871650068027 l 5.759226214031176 -2.378293441869724" fill="#ff5207" stroke="none" /><path d="M 80.32549172779594 107.34259656027581 l -9.950716081516095 3.7136426822745796 a31.621105992624052,31.621105992624052 0 0,0 -0.1859256871557801,-0.5115876391474806 l 10.0131660296771 -3.5418072461209817" fill="#ff8d0d" stroke="none" /><path d="M 80.20201598880116 107.00284435728193 l -15.971302484593771 5.64928961551918 a37.94098510165227,37.94098510165227 0 0,0 -0.21248608242860342,-0.6175840180679549 l 16.066179397965605 -5.3735328943619285" fill="#ffde14" stroke="none" /><path d="M 79.97269907076064 106.31721596034903 l -6.379977499586379 2.0124377133721687 a27.689844426100734,27.689844426100734 0 0,0 -0.13946877208341957,-0.45579201677776404 l 6.413673044175929 -1.902318724042357" fill="#ff5808" stroke="none" /><path d="M 79.86692584326677 105.97154293290107 l -1.032936149635483 0.30637261435958807 a22.077414158090242,22.077414158090242 0 0,0 -0.10492802340439904,-0.3652682147341642 l 1.0380568099259861 -0.2885469241208279" fill="#ff0901" stroke="none" /><path d="M 79.67330655649465 105.27499134158121 l -4.816524338771472 1.2499388675364018 a25.976068114340492,25.976068114340492 0 0,0 -0.1085907085495233,-0.43376590141029986 l 4.837326361616053 -1.16684512672871" fill="#ff4106" stroke="none" /><path d="M 79.50377843672027 104.57218783832718 l -20.487352756601346 4.570209432214119 a41.990913206140405,41.990913206140405 0 0,0 -0.1512991815514852,-0.7068194061174257 l 20.562985976877272 -4.216876206680529" fill="#efff19" stroke="none" /><path d="M 79.4281124754447 104.21870165774334 l -1.4455223274328959 0.29643499808985063 a22.47560445485894,22.47560445485894 0 0,0 -0.07445853849223552,-0.3796624836291205 l 1.4504107989007977 -0.2715087873927753" fill="#ff0f01" stroke="none" /><path d="M 79.35854240842038 103.8639653848113 l -6.096470123191715 1.1412251010393077 a27.202365894899412,27.202365894899412 0 0,0 -0.08219461394392792,-0.46099104560423926 l 6.115211179474832 -1.0361153047018548" fill="#ff5107" stroke="none" /><path d="M 79.29508885075956 103.50808413554451 l -2.1237633470079573 0.3598344591574275 a23.154031474257412,23.154031474257412 0 0,0 -0.0631975458841853,-0.39353117854759667 l 2.129642647253433 -0.3232240509166171" fill="#ff1902" stroke="none" /><path d="M 79.23777060512086 103.15116336523772 l -11.732460536417673 1.7806806351718327 a32.866821552676775,32.866821552676775 0 0,0 -0.080079148324324,-0.5600733768684545 l 11.761373735758596 -1.5784617863229777" fill="#ff9d0e" stroke="none" /><path d="M 79.18660465613746 102.79330883721812 l -1.0548923971845217 0.1415742221145403 a22.06435014445672,22.06435014445672 0 0,0 -0.04727916456903052,-0.3768614600001275 l 1.0571730710004001 -0.12339500782700422" fill="#ff0901" stroke="none" /><path d="M 79.1416061653843 102.43462659150553 l -0.8724692706648494 0.1018360715342786 a21.878392403040912,21.878392403040912 0 0,0 -0.0404413733306152,-0.3744368905190926 l 0.8740929454965164 -0.08680285913040389" fill="#ff0601" stroke="none" /><path d="M 79.07016306316243 101.71520430193888 l -12.21105467331582 1.0006983604358077 a33.25198977486053,33.25198977486053 0 0,0 -0.04183961910048325,-0.5708683608939169 l 12.226470851080638 -0.7903568630451302" fill="#ffa20f" stroke="none" /><path d="M 79.0235259727143 100.99374915477108 l -2.520352301795236 0.11940033231402172 a23.52317897988257,23.52317897988257 0 0,0 -0.015679730203705743,-0.4046241652426507 l 2.5220341648501425 -0.07599892005737424" fill="#ff1e03" stroke="none" /><path d="M 79.0095281055655 100.63252640178507 l -12.669508612598136 0.38178268384888164 a33.67525962268171,33.67525962268171 0 0,0 -0.012472574210062752,-0.5795515135023158 l 12.674203249493207 -0.16364135455643697" fill="#ffa80f" stroke="none" /><line stroke="#e1ed5e" stroke-width="0.3" x1="15.007084014347285" x2="10.007500721073583" y1="101.09737516637583" y2="101.16192664675087" /><path d="M 14.007167355692545 101.11028546245083 a86.0,86.0 0 0,1 10.666146001902534,-42.60595125391555" fill="none" id="id58" stroke="none" /><text fill="#e1ed5e" style="font-size:6.75px; font-family:Arial;" text-anchor="middle"><textPath startOffset="22.20632615414155" xlink:href="#id58">October</textPath></text><path d="M 79.00175016825051 100.2711162175752 l -10.83964859814074 0.13995473676709913 a31.840552064333167,31.840552064333167 0 0,0 -0.002358782530962073,-0.5480979895247066 l 10.840451677961207 0.04665273096128279" fill="#ff900d" stroke="none" /><path d="M 79.00019446554 99.90962569577889 l -6.392668038075735 -0.027511346479358944 a27.39272723641641,27.39272723641641 0 0,0 0.006087698239938797,-0.47149893756209055 l 6.3912473327180805 0.13754654210192147" fill="#ff5407" stroke="none" /><path d="M 79.00486145842228 99.54816195383935 l -2.339678124171484 -0.05035239896973847 a23.340219880440426,23.340219880440426 0 0,0 0.012101687882412514,-0.4015961051651311 l 2.3384647418334263 0.090618651559864" fill="#ff1b02" stroke="none" /><path d="M 79.05617556472873 98.46500227214037 l -11.717544007897791 -0.8587926948971011 a32.74897282615932,32.74897282615932 0 0,0 0.04604430128921987,-0.5618571016669454 l 11.701025222789074 1.0603637137718247" fill="#ff9c0e" stroke="none" /><path d="M 79.08570108090925 98.10471618934814 l -21.755434714532633 -1.9715087446947335 a42.844582540041806,42.844582540041806 0 0,0 0.0728824589178711,-0.733916415066989 l 21.718275129932533 2.3457006904661526" fill="#e5ff1a" stroke="none" /><path d="M 79.16333360222342 97.38593545837743 l -1.2503622740028342 -0.1568642326107471 a22.260163562289474,22.260163562289474 0 0,0 0.05096941550961426,-0.3797813479528062 l 1.247476859435386 0.1783639226282127" fill="#ff0c01" stroke="none" /><path d="M 79.26566170972629 96.67025291283419 l -10.541940604902965 -1.6929402583692121 a31.67701074438483,31.67701074438483 0 0,0 0.09109122435510925,-0.537625562522427 l 10.511237519027633 1.8741516092074673" fill="#ff8e0d" stroke="none" /><path d="M 79.32604984820605 96.31383870115002 l -16.98051395880343 -3.0276223426074074 a38.24831444966649,38.24831444966649 0 0,0 0.12114566415654981,-0.6471649820986456 l 16.92588257073702 3.3194654021686256" fill="#ffe215" stroke="none" /><path d="M 79.3925641242962 95.95851677861259 l -21.409273622801276 -4.198737807582203 a42.81711246322012,42.81711246322012 0 0,0 0.14806708828409076,-0.7220277074293155 l 21.33382723860219 4.566641171174921" fill="#e5ff1a" stroke="none" /><path d="M 79.46518482838121 95.60439243477599 l -0.5352628998255253 -0.11457642214908446 a21.547388462101747,21.547388462101747 0 0,0 0.08075716273404479,-0.36201852564842035 l 0.5332113500894429 0.12377311734746403" fill="#ff0200" stroke="none" /><path d="M 79.54389044137918 95.25157060432595 l -6.776384176630854 -1.5729863847514436 a27.95655580556258,27.95655580556258 0 0,0 0.11284756904713342,-0.46782602771490095 l 6.748303807322906 1.6893976441257414" fill="#ff5c08" stroke="none" /><path d="M 79.71946130924805 94.55025226153421 l -4.706175025844975 -1.2646343913743385 a25.873128719594188,25.873128719594188 0 0,0 0.11927910223315012,-0.42911039420101826 l 4.683709153045464 1.3454560889942992" fill="#ff3f05" stroke="none" /><line stroke="#e1ed5e" stroke-width="0.3" x1="26.266209847984243" x2="21.928928074336255" y1="57.711370442889674" y2="55.22380399835377" /><path d="M 25.398753493254645 57.213857153982495 a86.0,86.0 0 0,1 29.58750427330803,-30.492523968695096" fill="none" id="id59" stroke="none" /><text fill="#e1ed5e" style="font-size:6.75px; font-family:Arial;" text-anchor="middle"><textPath startOffset="21.46611528233685" xlink:href="#id59">November</textPath></text><path d="M 81.78341655067845 89.55222093294921 l -2.530031180150747 -1.4510518328808386 a23.916609194637125,23.916609194637125 0 0,0 0.2078926489502419,-0.3553559264482376 l 2.50467885673018 1.494387171682968" fill="#ff2403" stroke="none" /><path d="M 81.96595687620814 89.24020034530311 l -3.596496116907559 -2.1458070944594736 a25.18799145242248,25.18799145242248 0 0,0 0.22535360318152328,-0.3704220708901338 l 3.5590267154398187 2.207396938556682" fill="#ff3605" stroke="none" /><path d="M 82.54541684631803 88.32363383020206 l -4.684216222474286 -3.133539389084744 a26.635685470449612,26.635685470449612 0 0,0 0.2582082810441023,-0.3788887912038178 l 4.629583475761444 3.2137062035589774" fill="#ff4a06" stroke="none" /><path d="M 82.95767976084542 87.72973835380427 l -2.7266600566897274 -1.9631618140203155 a24.359862999107964,24.359862999107964 0 0,0 0.24793397509310208,-0.3381816633931888 l 2.692463469082992 2.0098059210850048" fill="#ff2a04" stroke="none" /><path d="M 83.17141714833178 87.43820079747576 l -6.39643659364001 -4.7746594475136535 a28.981965543410244,28.981965543410244 0 0,0 0.3018596744733181,-0.3972119480135707 l 6.313300978942583 4.88405617140825" fill="#ff6a09" stroke="none" /><path d="M 83.39014120810768 87.1503855733568 l -3.9887909473127166 -3.0857833497339446 a26.043065744451397,26.043065744451397 0 0,0 0.27735358964616624,-0.3522108931526205 l 3.9350832770725797 3.153986636839613" fill="#ff4106" stroke="none" /><path d="M 83.84228863543731 86.58626213691792 l -2.3683000486660037 -1.9661049338710042 a24.078053562156335,24.078053562156335 0 0,0 0.2674835401876007,-0.31661614293048845 l 2.3341058949912785 2.0065800264306084" fill="#ff2603" stroke="none" /><path d="M 84.07557802195018 86.31012108654704 l -4.967235963480965 -4.27022462531673 a27.550439028611752,27.550439028611752 0 0,0 0.3122489833720062,-0.3569545656887884 l 4.8929951165311145 4.355094747208462" fill="#ff5608" stroke="none" /><path d="M 84.5562425177563 85.77008943001954 l -2.3171496334513932 -2.135026537368675 a24.15079684192307,24.15079684192307 0 0,0 0.2843269609417189,-0.303300177808577 l 2.2800553505392185 2.174596132055302" fill="#ff2703" stroke="none" /><path d="M 84.80347519578584 85.50635884689758 l -5.884037793297686 -5.6118838620063904 a29.131121769694712,29.131121769694712 0 0,0 0.3492068756118198,-0.3598883814689549 l 5.786566653982748 5.712336439025469" fill="#ff6c09" stroke="none" /><path d="M 86.93701828274178 83.55741782278169 l -2.8487236211810587 -3.585733583288192 a25.579597318563685,25.579597318563685 0 0,0 0.34711202323437623,-0.27092643993410914 l 2.7865790427872565 3.6342384124455225" fill="#ff3b05" stroke="none" /><line stroke="#e1ed5e" stroke-width="0.3" x1="56.762969772571076" x2="54.21961505331055" y1="26.818313649435495" y2="22.513508569990535" /><path d="M 56.25429882871897 25.957352633546506 a86.0,86.0 0 0,1 42.265352541879196,-11.944610805530505" fill="none" id="id60" stroke="none" /><text fill="#e1ed5e" style="font-size:6.75px; font-family:Arial;" text-anchor="middle"><textPath startOffset="22.20632615414155" xlink:href="#id60">December</textPath></text></svg>