<?xml version="1.0" encoding="utf-8" ?>
<svg baseProfile="full" height="200mm" version="1.1" viewBox="0,0,200,200" width="200mm" xmlns="http://www.w3.org/2000/svg" xmlns:ev="http://www.w3.org/2001/xml-events" xmlns:xlink="http://www.w3.org/1999/xlink"><defs /><rect fill="#1a1a1a" height="200" width="200" x="0" y="0" /><text alignment-baseline="middle" fill="#e1ed5e" style="dominant-baseline: central; font-size:9.0px; font-family:Arial;" text-anchor="middle" x="100.0" y="100.0">2026</text><line stroke="#e1ed5e" stroke-width="0.3" x1="100.0" x2="100.0" y1="15.0" y2="10.0" /><path d="M 100.0 14.0 a86.0,86.0 0 0,1 42.46469731375804,11.215312516191453" fill="none" id="id673" stroke="none" /><text fill="#e1ed5e" style="font-size:6.75px; font-family:Arial;" text-anchor="middle"><textPath startOffset="22.20632615414155" xlink:href="#id673">January</textPath></text><path d="M 100.0 79.0 l 0.0 -16.703029073320565 a37.703029073320565,37.703029073320565 0 0,0 0.6489956675928567,0.005586110606216409 l -0.28751518832032824 16.700554339322906" fill="#ff6309" stroke="none" /><path d="M 100.36148047927253 79.00311137660856 l 0.4420657191032083 -25.677748040251977 a46.68155303946143,46.68155303946143 0 0,0 0.8033080902952106,0.020747077982607453 l -0.8840004445932866 25.666334170127012" fill="#ffee16" stroke="none" /><path d="M 100.72285384407766 79.0124445844662 l 1.8854060043563632 -54.74144368381899 a75.77390265801762,75.77390265801762 0 0,0 1.3031637909800695,0.05611697411745405 l -2.8274106277257642 54.70087898317735" fill="#41ffce" stroke="none" /><path d="M 102.16513564639614 79.11191278185805 l 4.942362469149549 -47.681307400348935 a68.93677108632816,68.93677108632816 0 0,0 1.1792563584160536,0.13250319217690903 l -5.762385531075328 47.58916825470142" fill="#37ff75" stroke="none" /><path d="M 102.88285421437855 79.19881850522331 l 5.1515278754818725 -37.170754517810096 a58.52603404138474,58.52603404138474 0 0,0 0.9967012012232201,0.14688784829351778 l -5.7905980571337485 37.07657218535561" fill="#70ff27" stroke="none" /><path d="M 103.2404852339499 79.25152402106235 l 3.444298820500879 -22.05347229875714 a43.320816176765405,43.320816176765405 0 0,0 0.7357747569751798,0.12140913926229549 l -3.823402783614934 21.990916896555216" fill="#ffbb11" stroke="none" /><path d="M 103.59715602781102 79.31037775812273 l 5.986791508534908 -34.43399557728966 a55.95056113975095,55.95056113975095 0 0,0 0.9474425008726609,0.17313906113441857 l -6.578629130510469 34.3258410348045" fill="#91ff24" stroke="none" /><path d="M 104.66035177308747 79.52364482259891 l 10.960558134262298 -48.1577984296712 a70.38934484488922,70.38934484488922 0 0,0 1.1791097241266015,0.279057176193481 l -11.787891545351423 47.96199534133686" fill="#39ff89" stroke="none" /><path d="M 105.36241919743992 79.69619591428918 l 10.443503537920185 -39.54238600063022 a61.89825249041075,61.89825249041075 0 0,0 1.0278119665128536,0.2809398362699302 l -11.12261339365675 39.356759623534" fill="#47ff2c" stroke="none" /><path d="M 105.71112130821622 79.79150937346287 l 2.9516056249760734 -10.444095193662282 a31.853160838192252,31.853160838192252 0 0,0 0.5263504003467501,0.1536561153395327 l -3.1309462430462505 10.391740749404045" fill="#ff0000" stroke="none" /><path d="M 106.0581310904928 79.89281104454417 l 18.174393271478365 -60.321566866367476 a84.0,84.0 0 0,0 1.380858509157127,0.4290394604699177 l -19.21003715334621 59.99978727101504" fill="#4dd2ff" stroke="none" /><path d="M 107.76421540070413 80.48803036053334 l 11.458480777661201 -28.79589469244522 a51.99193980489808,51.99193980489808 0 0,0 0.8286924240042368,0.33804444697892727 l -11.952457071253825 28.594389359282715" fill="#c5ff1e" stroke="none" /><line stroke="#e1ed5e" stroke-width="0.3" x1="143.23703022742887" x2="145.7803849466894" y1="26.81831364943548" y2="22.513508569990506" /><path d="M 143.74570117128098 25.957352633546492 a86.0,86.0 0 0,1 28.547481713284135,27.462654790039103" fill="none" id="id674" stroke="none" /><text fill="#e1ed5e" style="font-size:6.75px; font-family:Arial;" text-anchor="middle"><textPath startOffset="19.985693538727396" xlink:href="#id674">February</textPath></text><line stroke="#e1ed5e" stroke-width="0.3" x1="172.23445277983987" x2="176.4835382374775" y1="55.19839476539836" y2="52.563006222186495" /><path d="M 173.08426987136738 54.67131705675599 a86.0,86.0 0 0,1 12.851231095245387,41.99856678651699" fill="none" id="id675" stroke="none" /><text fill="#e1ed5e" style="font-size:6.75px; font-family:Arial;" text-anchor="middle"><textPath startOffset="22.20632615414155" xlink:href="#id675">March</textPath></text><line stroke="#e1ed5e" stroke-width="0.3" x1="184.98032266829074" x2="189.97916517819016" y1="98.17113171792111" y2="98.06355123074" /><path d="M 185.9800911702706 98.14961562048488 a86.0,86.0 0 0,1 -9.607161424134198,41.387399972396054" fill="none" id="id676" stroke="none" /><text fill="#e1ed5e" style="font-size:6.75px; font-family:Arial;" text-anchor="middle"><textPath startOffset="21.466115282336823" xlink:href="#id676">April</textPath></text><line stroke="#e1ed5e" stroke-width="0.3" x1="174.80103733775053" x2="179.2010983576182" y1="140.37084112569926" y2="142.7455964860345" /><path d="M 175.68104954172406 140.8457921977663 a86.0,86.0 0 0,1 -30.038265399797805,32.042727171017184" fill="none" id="id677" stroke="none" /><text fill="#e1ed5e" style="font-size:6.75px; font-family:Arial;" text-anchor="middle"><textPath startOffset="22.206326154141568" xlink:href="#id677">May</textPath></text><line stroke="#e1ed5e" stroke-width="0.3" x1="143.8653032363475" x2="146.44561519142675" y1="172.8068346515853" y2="177.08958963109032" /><path d="M 144.38136562736335 173.6633856474863 a86.0,86.0 0 0,1 -40.68145358897372,12.25698825130547" fill="none" id="id678" stroke="none" /><text fill="#e1ed5e" style="font-size:6.75px; font-family:Arial;" text-anchor="middle"><textPath startOffset="21.466115282336833" xlink:href="#id678">June</textPath></text><line stroke="#e1ed5e" stroke-width="0.3" x1="102.19456741930631" x2="102.32365962044197" y1="184.97166512339345" y2="189.96999836594603" /><path d="M 102.22038585953345 185.97133177190398 a86.0,86.0 0 0,1 -42.740103519485714,-10.115201625700543" fill="none" id="id679" stroke="none" /><text fill="#e1ed5e" style="font-size:6.75px; font-family:Arial;" text-anchor="middle"><textPath startOffset="22.20632615414155" xlink:href="#id679">July</textPath></text><line stroke="#e1ed5e" stroke-width="0.3" x1="58.666819895761336" x2="56.23545636021788" y1="174.27360380694188" y2="178.64263932499728" /><path d="M 58.180547188652646 175.14741091055294 a86.0,86.0 0 0,1 -31.652253787137756,-30.449443065178592" fill="none" id="id680" stroke="none" /><text fill="#e1ed5e" style="font-size:6.75px; font-family:Arial;" text-anchor="middle"><textPath startOffset="22.20632615414155" xlink:href="#id680">August</textPath></text><line stroke="#e1ed5e" stroke-width="0.3" x1="26.63291911575756" x2="22.317208475507996" y1="142.92168965132927" y2="145.44649492493687" /><path d="M 25.769776987707644 143.4266507060508 a86.0,86.0 0 0,1 -11.730757126820373,-40.83630448921669" fill="none" id="id681" stroke="none" /><text fill="#e1ed5e" style="font-size:6.75px; font-family:Arial;" text-anchor="middle"><textPath startOffset="21.46611528233685" xlink:href="#id681">September</textPath></text><line stroke="#e1ed5e" stroke-width="0.3" x1="15.007084014347285" x2="10.007500721073583" y1="101.09737516637583" y2="101.16192664675087" /><path d="M 14.007167355692545 101.11028546245083 a86.0,86.0 0 0,1 10.666146001902534,-42.60595125391555" fill="none" id="id682" stroke="none" /><text fill="#e1ed5e" style="font-size:6.75px; font-family:Arial;" text-anchor="middle"><textPath startOffset="22.20632615414155" xlink:href="#id682">October</textPath></text><line stroke="#e1ed5e" stroke-width="0.3" x1="26.266209847984243" x2="21.928928074336255" y1="57.711370442889674" y2="55.22380399835377" /><path d="M 25.398753493254645 57.213857153982495 a86.0,86.0 0 0,1 29.58750427330803,-30.492523968695096" fill="none" id="id683" stroke="none" /><text fill="#e1ed5e" style="font-size:6.75px; font-family:Arial;" text-anchor="middle"><textPath startOffset="21.46611528233685" xlink:href="#id683">November</textPath></text><line stroke="#e1ed5e" stroke-width="0.3" x1="56.762969772571076" x2="54.21961505331055" y1="26.818313649435495" y2="22.513508569990535" /><path d="M 56.25429882871897 25.957352633546506 a86.0,86.0 0 0,1 42.265352541879196,-11.944610805530505" fill="none" id="id684" stroke="none" /><text fill="#e1ed5e" style="font-size:6.75px; font-family:Arial;" text-anchor="middle"><textPath startOffset="22.20632615414155" xlink:href="#id684">December</textPath></text></svg>