<?xml version="1.0" encoding="utf-8" ?>
<svg baseProfile="full" height="200mm" version="1.1" viewBox="0,0,200,200" width="200mm" xmlns="http://www.w3.org/2000/svg" xmlns:ev="http://www.w3.org/2001/xml-events" xmlns:xlink="http://www.w3.org/1999/xlink"><defs /><rect fill="#1a1a1a" height="200" width="200" x="0" y="0" /><text alignment-baseline="middle" fill="#e1ed5e" style="dominant-baseline: central; font-size:9.0px; font-family:Arial;" text-anchor="middle" x="100.0" y="100.0">2026</text><line stroke="#e1ed5e" stroke-width="0.3" x1="100.0" x2="100.0" y1="15.0" y2="10.0" /><path d="M 100.0 14.0 a86.0,86.0 0 0,1 42.46469731375804,11.215312516191453" fill="none" id="id673" stroke="none" /><text fill="#e1ed5e" style="font-size:6.75px; font-family:Arial;" text-anchor="middle"><textPath startOffset="22.20632615414155" xlink:href="#id673">January</textPath></text><path d="M 100.0 79.0 l 0.0 -0.9255237716947846 a21.925523771694785,21.925523771694785 0 0,0 0.37741184958540214,0.0032485029425548847 l -0.015931370312873755 0.9253866453607886" fill="#ff0500" stroke="none" /><path d="M 100.36148047927253 79.00311137660856 l 0.024495097858321043 -1.4228177482371958 a22.42302858527784,22.42302858527784 0 0,0 0.3858612042373103,0.009965656504009976 l -0.04898293729049916 1.4221852995908262" fill="#ff0c01" stroke="none" /><path d="M 100.72285384407766 79.0124445844662 l 0.10447135478648792 -3.033252663565753 a24.035051232681198,24.035051232681198 0 0,0 0.41335614746071014,0.017799985227411795 l -0.15666833463652957 3.0310049518141464" fill="#ff2303" stroke="none" /><path d="M 102.16513564639614 79.11191278185805 l 0.2738589469880313 -2.6420467371991667 a23.656202116630087,23.656202116630087 0 0,0 0.4046712127998686,0.04546952585450134 l -0.3192968632976252 2.6369412578740645" fill="#ff1e03" stroke="none" /><path d="M 102.88285421437855 79.19881850522331 l 0.28544891398904526 -2.059651382216349 a23.079337610577763,23.079337610577763 0 0,0 0.39304224003343796,0.05792420923755482 l -0.320860134451139 2.0544326888178253" fill="#ff1502" stroke="none" /><path d="M 103.2404852339499 79.25152402106235 l 0.19085043923474043 -1.2219946915804794 a22.236808358803806,22.236808358803806 0 0,0 0.3776771471558214,0.06231996534338074 l -0.21185679252943704 1.218528463297474" fill="#ff0901" stroke="none" /><path d="M 103.59715602781102 79.31037775812273 l 0.3317313184935984 -1.9080061060373286 a22.936629280049548,22.936629280049548 0 0,0 0.388398917973318,0.07097741967621793 l -0.3645253575698172 1.902013205010372" fill="#ff1302" stroke="none" /><path d="M 103.95276090670814 79.375362276772 l 11.858282720124386 -61.87391316968404 a84.0,84.0 0 0,0 1.4177343621314986,0.2843841756911667 l -12.921583491723009 61.66062503791566" fill="#4dd2ff" stroke="none" /><path d="M 104.66035177308747 79.52364482259891 l 0.6073303865887195 -2.668449359903182 a23.73669000525118,23.73669000525118 0 0,0 0.3976192997028942,0.09410364167534033 l -0.6531733732541373 2.657599806086973" fill="#ff1f03" stroke="none" /><path d="M 105.36241919743992 79.69619591428918 l 0.5786801149476888 -2.191064750738581 a23.266194037889296,23.266194037889296 0 0,0 0.38633195098774814,0.10559911597894724 l -0.6163099551591478 2.18077909393334" fill="#ff1802" stroke="none" /><path d="M 105.71112130821622 79.79150937346287 l 0.16355004583850105 -0.578712898908702 a21.601379444990506,21.601379444990506 0 0,0 0.35694714181332343,0.10420265883041464 l -0.17348740537525162 0.575811911159584" fill="#ff0000" stroke="none" /><path d="M 106.0581310904928 79.89281104454417 l 1.0070528486207686 -3.3424502726798413 a24.490863684713677,24.490863684713677 0 0,0 0.40260020851957323,0.12508984454442687 l -1.06443842985106 3.324620293252894" fill="#ff2904" stroke="none" /><path d="M 107.76421540070413 80.48803036053334 l 0.6349205464877334 -1.595595921439624 a22.717279955297634,22.717279955297634 0 0,0 0.362087620957834,0.14770463206742268 l -0.6622920370339549 1.584430403188622" fill="#ff1001" stroke="none" /><path d="M 108.43124777332544 80.76684994638697 l 1.4060030023934202 -3.2073386345515145 a24.50198023401419,24.50198023401419 0 0,0 0.3848186292453041,0.17265690174856688 l -1.4610037501055044 3.1826614022864166" fill="#ff2a04" stroke="none" /><path d="M 108.76106565485865 80.91482961587045 l 0.4267069188493485 -0.9295415159696291 a22.02280312108686,22.02280312108686 0 0,0 0.34315909664184946,0.1611177971344751 l -0.44264422679079596 0.922058736195151" fill="#ff0601" stroke="none" /><path d="M 109.73455568895987 81.39251694778311 l 2.9604234943665757 -5.6588129709181105 a27.386413039087643,27.386413039087643 0 0,0 0.415823497873083,0.22211851168411303 l -3.05739203876797 5.607015732732243" fill="#ff5207" stroke="none" /><path d="M 110.05341064243156 81.56283822128135 l 4.0965391159349664 -7.512729470590334 a29.557028504490432,29.557028504490432 0 0,0 0.44458825253236856,0.24741288118877527 l -4.22525145753937 7.441101191841379" fill="#ff700a" stroke="none" /><path d="M 110.36928655335952 81.73862282372117 l 3.8769116187600097 -6.827639007269662 a28.85156660248556,28.85156660248556 0 0,0 0.42975544317865183,0.2489420914835465 l -3.99386379440399 6.759892758396066" fill="#ff6609" stroke="none" /><line stroke="#e1ed5e" stroke-width="0.3" x1="143.23703022742887" x2="145.7803849466894" y1="26.81831364943548" y2="22.513508569990506" /><path d="M 143.74570117128098 25.957352633546492 a86.0,86.0 0 0,1 28.547481713284135,27.462654790039103" fill="none" id="id674" stroke="none" /><text fill="#e1ed5e" style="font-size:6.75px; font-family:Arial;" text-anchor="middle"><textPath startOffset="19.985693538727396" xlink:href="#id674">February</textPath></text><path d="M 110.68208982089419 81.91981866633111 l 4.03578296765662 -6.8308438799905105 a28.93397581763589,28.93397581763589 0 0,0 0.42662173753721994,0.25703482336297284 l -4.1527667714114775 6.760362447168923" fill="#ff6709" stroke="none" /><path d="M 110.99172775467656 82.1063720568725 l 2.887265470757093 -4.700230506053554 a26.51620056820477,26.51620056820477 0 0,0 0.38685980980731677,0.24225157741075462 l -2.9677444329366733 4.649834587319855" fill="#ff4606" stroke="none" /><line stroke="#e1ed5e" stroke-width="0.3" x1="172.23445277983987" x2="176.4835382374775" y1="55.19839476539836" y2="52.563006222186495" /><path d="M 173.08426987136738 54.67131705675599 a86.0,86.0 0 0,1 12.851231095245387,41.99856678651699" fill="none" id="id675" stroke="none" /><text fill="#e1ed5e" style="font-size:6.75px; font-family:Arial;" text-anchor="middle"><textPath startOffset="22.20632615414155" xlink:href="#id675">March</textPath></text><line stroke="#e1ed5e" stroke-width="0.3" x1="184.98032266829074" x2="189.97916517819016" y1="98.17113171792111" y2="98.06355123074" /><path d="M 185.9800911702706 98.14961562048488 a86.0,86.0 0 0,1 -9.607161424134198,41.387399972396054" fill="none" id="id676" stroke="none" /><text fill="#e1ed5e" style="font-size:6.75px; font-family:Arial;" text-anchor="middle"><textPath startOffset="21.466115282336823" xlink:href="#id676">April</textPath></text><line stroke="#e1ed5e" stroke-width="0.3" x1="174.80103733775053" x2="179.2010983576182" y1="140.37084112569926" y2="142.7455964860345" /><path d="M 175.68104954172406 140.8457921977663 a86.0,86.0 0 0,1 -30.038265399797805,32.042727171017184" fill="none" id="id677" stroke="none" /><text fill="#e1ed5e" style="font-size:6.75px; font-family:Arial;" text-anchor="middle"><textPath startOffset="22.206326154141568" xlink:href="#id677">May</textPath></text><line stroke="#e1ed5e" stroke-width="0.3" x1="143.8653032363475" x2="146.44561519142675" y1="172.8068346515853" y2="177.08958963109032" /><path d="M 144.38136562736335 173.6633856474863 a86.0,86.0 0 0,1 -40.68145358897372,12.25698825130547" fill="none" id="id678" stroke="none" /><text fill="#e1ed5e" style="font-size:6.75px; font-family:Arial;" text-anchor="middle"><textPath startOffset="21.466115282336833" xlink:href="#id678">June</textPath></text><line stroke="#e1ed5e" stroke-width="0.3" x1="102.19456741930631" x2="102.32365962044197" y1="184.97166512339345" y2="189.96999836594603" /><path d="M 102.22038585953345 185.97133177190398 a86.0,86.0 0 0,1 -42.740103519485714,-10.115201625700543" fill="none" id="id679" stroke="none" /><text fill="#e1ed5e" style="font-size:6.75px; font-family:Arial;" text-anchor="middle"><textPath startOffset="22.20632615414155" xlink:href="#id679">July</textPath></text><line stroke="#e1ed5e" stroke-width="0.3" x1="58.666819895761336" x2="56.23545636021788" y1="174.27360380694188" y2="178.64263932499728" /><path d="M 58.180547188652646 175.14741091055294 a86.0,86.0 0 0,1 -31.652253787137756,-30.449443065178592" fill="none" id="id680" stroke="none" /><text fill="#e1ed5e" style="font-size:6.75px; font-family:Arial;" text-anchor="middle"><textPath startOffset="22.20632615414155" xlink:href="#id680">August</textPath></text><line stroke="#e1ed5e" stroke-width="0.3" x1="26.63291911575756" x2="22.317208475507996" y1="142.92168965132927" y2="145.44649492493687" /><path d="M 25.769776987707644 143.4266507060508 a86.0,86.0 0 0,1 -11.730757126820373,-40.83630448921669" fill="none" id="id681" stroke="none" /><text fill="#e1ed5e" style="font-size:6.75px; font-family:Arial;" text-anchor="middle"><textPath startOffset="21.46611528233685" xlink:href="#id681">September</textPath></text><line stroke="#e1ed5e" stroke-width="0.3" x1="15.007084014347285" x2="10.007500721073583" y1="101.09737516637583" y2="101.16192664675087" /><path d="M 14.007167355692545 101.11028546245083 a86.0,86.0 0 0,1 10.666146001902534,-42.60595125391555" fill="none" id="id682" stroke="none" /><text fill="#e1ed5e" style="font-size:6.75px; font-family:Arial;" text-anchor="middle"><textPath startOffset="22.20632615414155" xlink:href="#id682">October</textPath></text><line stroke="#e1ed5e" stroke-width="0.3" x1="26.266209847984243" x2="21.928928074336255" y1="57.711370442889674" y2="55.22380399835377" /><path d="M 25.398753493254645 57.213857153982495 a86.0,86.0 0 0,1 29.58750427330803,-30.492523968695096" fill="none" id="id683" stroke="none" /><text fill="#e1ed5e" style="font-size:6.75px; font-family:Arial;" text-anchor="middle"><textPath startOffset="21.46611528233685" xlink:href="#id683">November</textPath></text><line stroke="#e1ed5e" stroke-width="0.3" x1="56.762969772571076" x2="54.21961505331055" y1="26.818313649435495" y2="22.513508569990535" /><path d="M 56.25429882871897 25.957352633546506 a86.0,86.0 0 0,1 42.265352541879196,-11.944610805530505" fill="none" id="id684" stroke="none" /><text fill="#e1ed5e" style="font-size:6.75px; font-family:Arial;" text-anchor="middle"><textPath startOffset="22.20632615414155" xlink:href="#id684">December</textPath></text></svg>