<?xml version="1.0" encoding="utf-8" ?>
<svg baseProfile="full" height="200mm" version="1.1" viewBox="0,0,200,200" width="200mm" xmlns="http://www.w3.org/2000/svg" xmlns:ev="http://www.w3.org/2001/xml-events" xmlns:xlink="http://www.w3.org/1999/xlink"><defs /><rect fill="#1a1a1a" height="200" width="200" x="0" y="0" /><text alignment-baseline="middle" fill="#e1ed5e" style="dominant-baseline: central; font-size:9.0px; font-family:Arial;" text-anchor="middle" x="100.0" y="100.0">2025</text><line stroke="#e1ed5e" stroke-width="0.3" x1="100.0" x2="100.0" y1="15.0" y2="10.0" /><path d="M 100.0 14.0 a86.0,86.0 0 0,1 42.46469731375804,11.215312516191453" fill="none" id="id49" stroke="none" /><text fill="#e1ed5e" style="font-size:6.75px; font-family:Arial;" text-anchor="middle"><textPath startOffset="22.20632615414155" xlink:href="#id49">January</textPath></text><path d="M 100.72285384407766 79.0124445844662 l 0.1580577320640322 -4.589095621093602 a25.591816728290198,25.591816728290198 0 0,0 0.4401294870111461,0.01895290154766935 l -0.23702805146450984 4.585694993021738" fill="#ff0200" stroke="none" /><path d="M 101.44485096284872 79.0497635885617 l 1.8044206133283374 -26.163970822545885 a47.22611871689817,47.22611871689817 0 0,0 0.8105122144718507,0.06291134709341308 l -2.254523017162529 26.129034213264006" fill="#d0ff1d" stroke="none" /><path d="M 103.2404852339499 79.25152402106235 l 4.416049212675164 -28.275484810437383 a49.618255221345066,49.618255221345066 0 0,0 0.8427324990381451,0.13905808315198276 l -4.902110917852184 28.195280464345775" fill="#b3ff20" stroke="none" /><path d="M 103.59715602781102 79.31037775812273 l 6.052690407902958 -34.81302371049802 a56.3352753072849,56.3352753072849 0 0,0 0.953957083489609,0.17432955946750167 l -6.651042612495467 34.70367866967978" fill="#66ff29" stroke="none" /><path d="M 103.95276090670814 79.375362276772 l 6.423593948030525 -33.51690152430263 a55.12689917058059,55.12689917058059 0 0,0 0.9304202289510776,0.18663354498851933 l -6.999580586448728 33.4013640232369" fill="#73ff27" stroke="none" /><path d="M 105.71112130821622 79.79150937346287 l 12.614158826942107 -44.634511623695204 a67.38271909663236,67.38271909663236 0 0,0 1.1134506039488505,0.32504676411859273 l -13.380599648614385 44.41076653065791" fill="#37ff79" stroke="none" /><path d="M 107.4271985657038 80.35727306442388 l 12.057444927259295 -31.88834876995895 a55.091769761167185,55.091769761167185 0 0,0 0.8841358990226483,0.34303099294546463 l -12.60456399128161 31.676075073122938" fill="#73ff27" stroke="none" /><line stroke="#e1ed5e" stroke-width="0.3" x1="143.23703022742887" x2="145.7803849466894" y1="26.81831364943548" y2="22.513508569990506" /><path d="M 143.74570117128098 25.957352633546492 a86.0,86.0 0 0,1 28.547481713284135,27.462654790039103" fill="none" id="id50" stroke="none" /><text fill="#e1ed5e" style="font-size:6.75px; font-family:Arial;" text-anchor="middle"><textPath startOffset="19.985693538727396" xlink:href="#id50">February</textPath></text><path d="M 113.89432698308785 84.25364557470407 l 2.9493406106660873 -3.342469385742493 a25.457657639652243,25.457657639652243 0 0,0 0.32608715174330744,0.2927642644946612 l -3.006438750005385 3.2912061124785343" fill="#ff0000" stroke="none" /><path d="M 114.16331599549186 84.49514656593476 l 8.484147563675055 -9.287758920978247 a33.57947636654342,33.57947636654342 0 0,0 0.4234086003884743,0.3935121493248252 l -8.642764047858375 9.140342185578781" fill="#ff790b" stroke="none" /><path d="M 114.68862486808459 84.99185889309783 l 12.11214876688541 -12.375619871413589 a38.31646947137004,38.31646947137004 0 0,0 0.46739560678793907,0.46538846151455693 l -12.32338017384067 12.165295559248914" fill="#ffbb11" stroke="none" /><path d="M 116.15771136456269 86.58626213691792 l 6.54815997420509 -5.436122690751542 a29.51057159988008,29.51057159988008 0 0,0 0.32110524334570006,0.39363706043047636 l -6.6407637096271985 5.322601460712965" fill="#ff3e05" stroke="none" /><path d="M 116.38621287248628 86.86637796730983 l 14.385644099144487 -11.53015731976733 a39.43614070150895,39.43614070150895 0 0,0 0.41998723547689354,0.5333411386841287 l -14.581985415215344 11.280823787130164" fill="#ffca12" stroke="none" /><path d="M 117.65298651832404 88.62581576622439 l 6.7571229288881725 -4.353754023641561 a29.03827620665534,29.03827620665534 0 0,0 0.2671139817006421,0.42251017148895886 l -6.83106450683477 4.236796204438396" fill="#ff3705" stroke="none" /><line stroke="#e1ed5e" stroke-width="0.3" x1="172.23445277983987" x2="176.4835382374775" y1="55.19839476539836" y2="52.563006222186495" /><path d="M 173.08426987136738 54.67131705675599 a86.0,86.0 0 0,1 12.851231095245387,41.99856678651699" fill="none" id="id51" stroke="none" /><text fill="#e1ed5e" style="font-size:6.75px; font-family:Arial;" text-anchor="middle"><textPath startOffset="22.20632615414155" xlink:href="#id51">March</textPath></text><path d="M 117.84615892207809 88.93136811851018 l 35.77538710393337 -22.1887853851481 a63.0977495752973,63.0977495752973 0 0,0 0.5645271575662136,0.9279342146171903 l -36.15203005978581 21.56968339732383" fill="#32ff44" stroke="none" /><path d="M 118.89224826269711 90.83032412892265 l 34.07242555267057 -16.5376345956825 a58.87378435095433,58.87378435095433 0 0,0 0.4346618029115671,0.9155086095117811 l -34.35204554942389 15.94868357053018" fill="#4aff2c" stroke="none" /><path d="M 120.08093135843002 93.85539295169968 l 18.2009452134856 -5.569346075054523 a40.033970220845404,40.033970220845404 0 0,0 0.195964573995649,0.6606951243052167 l -18.294115684592953 5.255221564002777" fill="#ffd213" stroke="none" /><path d="M 120.37134235888165 94.90015583598534 l 39.739446490392055 -9.94853361623658 a61.96580193864295,61.96580193864295 0 0,0 0.25012702428244993,1.0369379968241588 l -39.90480631493532 9.263010387753015" fill="#30ff36" stroke="none" /><path d="M 120.6074358757038 95.95851677861258 l 17.006787381654576 -3.3353322687611193 a38.33076046767263,38.33076046767263 0 0,0 0.12140679926151565,0.6485599762712112 l -17.06167990482595 3.0420942150273453" fill="#ffbb11" stroke="none" /><path d="M 120.73433829027371 96.67025291283417 l 20.21041655747881 -3.2456099982819735 a41.469365444189066,41.469365444189066 0 0,0 0.10711755610281937,0.7057708580138232 l -20.263290007020927 2.897240027876068" fill="#ffe515" stroke="none" /><path d="M 120.83666639777658 97.38593545837742 l 6.890029890101199 -0.8643888846036882 a27.944039172579195,27.944039172579195 0 0,0 0.05576784844650845,0.4777848686385791 l -6.903888091551297 0.7456602776402563" fill="#ff2603" stroke="none" /><path d="M 120.96714384426684 98.82574320788733 l 36.99876408538809 -2.072101491253941 a58.05674228040372,58.05674228040372 0 0,0 0.04729244657788168,0.9982688011002229 l -37.02895014019947 1.4349215835307185" fill="#53ff2b" stroke="none" /><line stroke="#e1ed5e" stroke-width="0.3" x1="184.98032266829074" x2="189.97916517819016" y1="98.17113171792111" y2="98.06355123074" /><path d="M 185.9800911702706 98.14961562048488 a86.0,86.0 0 0,1 -9.607161424134198,41.387399972396054" fill="none" id="id52" stroke="none" /><text fill="#e1ed5e" style="font-size:6.75px; font-family:Arial;" text-anchor="middle"><textPath startOffset="21.466115282336823" xlink:href="#id52">April</textPath></text><path d="M 120.99824983174949 100.27111621757518 l 10.93900331222027 0.1412375424530554 a31.93991505945838,31.93991505945838 0 0,0 -0.011829840818031127,0.549686218346997 l -10.934951408717232 -0.3295135765901673" fill="#ff6109" stroke="none" /><path d="M 120.9764740272857 100.99374915477107 l 62.92942208185712 2.9812474643131925 a84.0,84.0 0 0,0 -0.0808545964498828,1.4437131346583068 l -62.86878113451971 -4.064032315306923" fill="#4dd2ff" stroke="none" /><path d="M 120.76222939487914 103.15116336523771 l 26.847075115346186 4.074683790370294 a48.15452982911961,48.15452982911961 0 0,0 -0.13143491282676864,0.8184453276367101 l -26.77295844815813 -4.536208347700209" fill="#c4ff1e" stroke="none" /><path d="M 120.70491114924044 103.5080841355445 l 21.932391471854437 3.7160591524579716 a43.244974517837505,43.244974517837505 0 0,0 -0.13066892781466272,0.7328607407580071 l -21.865176101700587 -4.093038643949197" fill="#fffc17" stroke="none" /><path d="M 120.64145759157962 103.86396538481128 l 24.92810273229043 4.666401373994178 a46.36110422704107,46.36110422704107 0 0,0 -0.1535878632570223,0.783141205834052 l -24.844084936057744 -5.094806306896175" fill="#daff1b" stroke="none" /><path d="M 120.5718875245553 104.21870165774334 l 41.11402835055155 8.431303124321735 a62.96963425602079,62.96963425602079 0 0,0 -0.22688847176914528,1.0599474050438835 l -40.96280584005796 -9.137764348781786" fill="#31ff43" stroke="none" /><path d="M 120.32669344350535 105.2749913415812 l 31.14030341818791 8.08123718506896 a53.17180273808334,53.17180273808334 0 0,0 -0.23753090948738834,0.8839408778698145 l -30.996584432358745 -8.616068996114324" fill="#89ff24" stroke="none" /><path d="M 120.23288151984713 105.62410040840565 l 22.11488119770304 6.147236727197719 a43.95335465174378,43.95335465174378 0 0,0 -0.2088984965619354,0.727203071440204 l -22.005790064255002 -6.526997274142505" fill="#f9ff18" stroke="none" /><path d="M 120.13307415673323 105.97154293290107 l 10.767563196001475 3.1936983595793516 a32.23121215149395,32.23121215149395 0 0,0 -0.16234282549062237,0.5305457467963732 l -10.71099359800472 -3.378571078927782" fill="#ff6609" stroke="none" /><path d="M 120.02730092923936 106.31721596034902 l 30.14037742665254 9.507185916031686 a52.60425502148496,52.60425502148496 0 0,0 -0.2798239483532082,0.8612095591540533 l -29.972261227283084 -10.024594375163534" fill="#90ff24" stroke="none" /><line stroke="#e1ed5e" stroke-width="0.3" x1="174.80103733775053" x2="179.2010983576182" y1="140.37084112569926" y2="142.7455964860345" /><path d="M 175.68104954172406 140.8457921977663 a86.0,86.0 0 0,1 -30.038265399797805,32.042727171017184" fill="none" id="id53" stroke="none" /><text fill="#e1ed5e" style="font-size:6.75px; font-family:Arial;" text-anchor="middle"><textPath startOffset="22.206326154141568" xlink:href="#id53">May</textPath></text><line stroke="#e1ed5e" stroke-width="0.3" x1="143.8653032363475" x2="146.44561519142675" y1="172.8068346515853" y2="177.08958963109032" /><path d="M 144.38136562736335 173.6633856474863 a86.0,86.0 0 0,1 -40.68145358897372,12.25698825130547" fill="none" id="id54" stroke="none" /><text fill="#e1ed5e" style="font-size:6.75px; font-family:Arial;" text-anchor="middle"><textPath startOffset="21.466115282336833" xlink:href="#id54">June</textPath></text><line stroke="#e1ed5e" stroke-width="0.3" x1="102.19456741930631" x2="102.32365962044197" y1="184.97166512339345" y2="189.96999836594603" /><path d="M 102.22038585953345 185.97133177190398 a86.0,86.0 0 0,1 -42.740103519485714,-10.115201625700543" fill="none" id="id55" stroke="none" /><text fill="#e1ed5e" style="font-size:6.75px; font-family:Arial;" text-anchor="middle"><textPath startOffset="22.20632615414155" xlink:href="#id55">July</textPath></text><line stroke="#e1ed5e" stroke-width="0.3" x1="58.666819895761336" x2="56.23545636021788" y1="174.27360380694188" y2="178.64263932499728" /><path d="M 58.180547188652646 175.14741091055294 a86.0,86.0 0 0,1 -31.652253787137756,-30.449443065178592" fill="none" id="id56" stroke="none" /><text fill="#e1ed5e" style="font-size:6.75px; font-family:Arial;" text-anchor="middle"><textPath startOffset="22.20632615414155" xlink:href="#id56">August</textPath></text><line stroke="#e1ed5e" stroke-width="0.3" x1="26.63291911575756" x2="22.317208475507996" y1="142.92168965132927" y2="145.44649492493687" /><path d="M 25.769776987707644 143.4266507060508 a86.0,86.0 0 0,1 -11.730757126820373,-40.83630448921669" fill="none" id="id57" stroke="none" /><text fill="#e1ed5e" style="font-size:6.75px; font-family:Arial;" text-anchor="middle"><textPath startOffset="21.46611528233685" xlink:href="#id57">September</textPath></text><line stroke="#e1ed5e" stroke-width="0.3" x1="15.007084014347285" x2="10.007500721073583" y1="101.09737516637583" y2="101.16192664675087" /><path d="M 14.007167355692545 101.11028546245083 a86.0,86.0 0 0,1 10.666146001902534,-42.60595125391555" fill="none" id="id58" stroke="none" /><text fill="#e1ed5e" style="font-size:6.75px; font-family:Arial;" text-anchor="middle"><textPath startOffset="22.20632615414155" xlink:href="#id58">October</textPath></text><line stroke="#e1ed5e" stroke-width="0.3" x1="26.266209847984243" x2="21.928928074336255" y1="57.711370442889674" y2="55.22380399835377" /><path d="M 25.398753493254645 57.213857153982495 a86.0,86.0 0 0,1 29.58750427330803,-30.492523968695096" fill="none" id="id59" stroke="none" /><text fill="#e1ed5e" style="font-size:6.75px; font-family:Arial;" text-anchor="middle"><textPath startOffset="21.46611528233685" xlink:href="#id59">November</textPath></text><line stroke="#e1ed5e" stroke-width="0.3" x1="56.762969772571076" x2="54.21961505331055" y1="26.818313649435495" y2="22.513508569990535" /><path d="M 56.25429882871897 25.957352633546506 a86.0,86.0 0 0,1 42.265352541879196,-11.944610805530505" fill="none" id="id60" stroke="none" /><text fill="#e1ed5e" style="font-size:6.75px; font-family:Arial;" text-anchor="middle"><textPath startOffset="22.20632615414155" xlink:href="#id60">December</textPath></text></svg>