<?xml version="1.0" encoding="utf-8" ?>
<svg baseProfile="full" height="200mm" version="1.1" viewBox="0,0,200,200" width="200mm" xmlns="http://www.w3.org/2000/svg" xmlns:ev="http://www.w3.org/2001/xml-events" xmlns:xlink="http://www.w3.org/1999/xlink"><defs /><rect fill="#1a1a1a" height="200" width="200" x="0" y="0" /><text alignment-baseline="middle" fill="#e1ed5e" style="dominant-baseline: central; font-size:9.0px; font-family:Arial;" text-anchor="middle" x="100.0" y="100.0">2024</text><line stroke="#e1ed5e" stroke-width="0.3" x1="100.0" x2="100.0" y1="15.0" y2="10.0" /><path d="M 100.0 14.0 a86.0,86.0 0 0,1 42.35913384403234,11.155469271406648" fill="none" id="id1" stroke="none" /><text fill="#e1ed5e" style="font-size:6.75px; font-family:Arial;" text-anchor="middle"><textPath startOffset="22.145653131862478" xlink:href="#id1">January</textPath></text><line stroke="#e1ed5e" stroke-width="0.3" x1="143.13028292997686" x2="145.6673583964461" y1="26.7553504044142" y2="22.446841604673864" /><path d="M 143.63769802327073 25.89364864446614 a86.0,86.0 0 0,1 29.32050498858742,28.57503671076993" fill="none" id="id2" stroke="none" /><text fill="#e1ed5e" style="font-size:6.75px; font-family:Arial;" text-anchor="middle"><textPath startOffset="20.669276256404974" xlink:href="#id2">February</textPath></text><line stroke="#e1ed5e" stroke-width="0.3" x1="172.87174338648825" x2="177.1583165268699" y1="56.24261187166439" y2="53.66864786411523" /><path d="M 173.72905801456457 55.72781907015455 a86.0,86.0 0 0,1 12.242430191666344,42.057860355516425" fill="none" id="id3" stroke="none" /><text fill="#e1ed5e" style="font-size:6.75px; font-family:Arial;" text-anchor="middle"><textPath startOffset="22.145653131862474" xlink:href="#id3">March</textPath></text><path d="M 120.26092885502905 94.47779374421319 l 5.35542677375643 -1.4596453817123642 a26.55078017664377,26.55078017664377 0 0,0 0.11607813871700665,0.44076759969953566 l -5.379694393278166 1.36749727764003" fill="#ff3405" stroke="none" /><path d="M 120.65975698304385 96.23510406497455 l 5.862991682391188 -1.0684323910605107 a26.959548577036312,26.959548577036312 0 0,0 0.07906231997351218,0.4560104516132867 l -5.880468819856934 0.9676289065266312" fill="#ff3a05" stroke="none" /><line stroke="#e1ed5e" stroke-width="0.3" x1="184.99686870605535" x2="189.99668451229388" y1="99.2704041080226" y2="99.22748670261217" /><path d="M 185.99683186730306 99.26182062694052 a86.0,86.0 0 0,1 -10.086455211305974,41.156179273409016" fill="none" id="id4" stroke="none" /><text fill="#e1ed5e" style="font-size:6.75px; font-family:Arial;" text-anchor="middle"><textPath startOffset="21.40746469413373" xlink:href="#id4">April</textPath></text><line stroke="#e1ed5e" stroke-width="0.3" x1="174.33088141563837" x2="178.70328620479359" y1="141.23008692659167" y2="143.65538615756765" /><path d="M 175.20536237346943 141.71514677278685 a86.0,86.0 0 0,1 -30.301960400862466,31.631185727798858" fill="none" id="id5" stroke="none" /><text fill="#e1ed5e" style="font-size:6.75px; font-family:Arial;" text-anchor="middle"><textPath startOffset="22.145653131862474" xlink:href="#id5">May</textPath></text><path d="M 118.00360718960297 110.81064883170644 l 4.585089420814343 2.7532144568795855 a26.348199214916583,26.348199214916583 0 0,0 -0.2361702462456313,0.3857663483591874 l -4.537151210113307 -2.83151792136333" fill="#ff3104" stroke="none" /><path d="M 115.89218393027572 113.72728997021213 l 14.288461385084108 12.342032632001217 a39.88083415112856,39.88083415112856 0 0,0 -0.4519617756224378,0.5142495351795092 l -14.074488545503085 -12.58549444499202" fill="#ffe815" stroke="none" /><path d="M 114.13192950727249 115.5334660781643 l 16.22946010425721 17.83901963752834 a45.116923454367026,45.116923454367026 0 0,0 -0.5773569149676683,0.516276113523498 l -15.920838162466165 -18.114991280935225" fill="#d6ff1c" stroke="none" /><path d="M 113.03279911837588 116.46651593811092 l 7.168870851655006 9.05763413253213 a32.55133954857703,32.55133954857703 0 0,0 -0.441132739253664,0.3430274862111706 l -7.012328167766111 -9.179362670364094" fill="#ff880c" stroke="none" /><path d="M 112.45986205192187 116.90419585922612 l 9.892078900887922 13.42050485781543 a37.67222767419038,37.67222767419038 0 0,0 -0.5238574220180439,0.3792323748086508 l -9.66024046849591 -13.588338003997158" fill="#ffcc13" stroke="none" /><line stroke="#e1ed5e" stroke-width="0.3" x1="143.1302829299769" x2="145.66735839644613" y1="173.24464959558577" y2="177.55315839532614" /><path d="M 143.63769802327073 174.10635135553383 a86.0,86.0 0 0,1 -40.68552437913181,11.842963189579606" fill="none" id="id6" stroke="none" /><text fill="#e1ed5e" style="font-size:6.75px; font-family:Arial;" text-anchor="middle"><textPath startOffset="21.407464694133747" xlink:href="#id6">June</textPath></text><path d="M 110.65571695917076 118.09573695890943 l 20.081163947540308 34.102206544692564 a60.57541707556428,60.57541707556428 0 0,0 -0.9005762606423332,0.5199479465076396 l -19.49279521903758 -34.441901388476374" fill="#2fff30" stroke="none" /><path d="M 110.34350942703117 118.27599006163325 l 7.370334128969764 13.022674194113442 a35.963684985279684,35.963684985279684 0 0,0 -0.5398933669968011,0.29946974969793727 l -7.145696573816869 -13.147276859244522" fill="#ffb610" stroke="none" /><path d="M 109.3889696526874 118.78422872680471 l 4.789986956324172 9.583182597703955 a31.713606476938175,31.713606476938175 0 0,0 -0.4890536388805943,0.23922064156686573 l -4.624773068181508 -9.663996989368043" fill="#ff7d0b" stroke="none" /><path d="M 108.73861861582097 119.09545874513695 l 15.038056375019798 32.86086711649637 a57.138341511285574,57.138341511285574 0 0,0 -0.8954029702105735,0.4005023595092016 l -14.471740001953597 -33.114173226915426" fill="#51ff2b" stroke="none" /><path d="M 108.4095320186766 119.2426549942271 l 5.120777791882957 11.717341718000927 a33.78743375858685,33.78743375858685 0 0,0 -0.5334632349690421,0.22770373332350893 l -4.918879481743484 -11.80352010098384" fill="#ff990e" stroke="none" /><path d="M 106.0420521117495 120.11202640906438 l 7.475690551238565 24.88414250849092 a46.98281157998038,46.98281157998038 0 0,0 -0.77441094374151,0.22541973933712797 l -7.047419595115449 -25.008805942130568" fill="#c0ff1e" stroke="none" /><path d="M 104.29559338865022 120.5559693870025 l 4.28752070823877 20.517338688890533 a41.96053483807655,41.96053483807655 0 0,0 -0.7063426921076527,0.14128832070235298 l -3.9346815306001584 -20.587916406255747" fill="#fcff18" stroke="none" /><path d="M 103.58742460773223 120.69131181640829 l 7.235490421419508 41.73238599399188 a63.354980372914625,63.354980372914625 0 0,0 -1.0731805624893709,0.17659145316452085 l -6.5180323558770645 -41.850443445652076" fill="#33ff52" stroke="none" /><path d="M 103.2317021107853 120.74984581791261 l 4.807085532288241 30.86493748777514 a52.237036310107946,52.237036310107946 0 0,0 -0.8872209242512024,0.13039092273443648 l -4.276539502429353 -30.94290948380846" fill="#85ff25" stroke="none" /><path d="M 101.80034050326958 120.92268563240118 l 2.6599456734960585 30.912600713449734 a52.02683022571148,52.02683022571148 0 0,0 -0.8904788517469343,0.06892869490707287 l -2.1288978269738887 -30.95370717535186" fill="#87ff25" stroke="none" /><line stroke="#e1ed5e" stroke-width="0.3" x1="101.45913802915013" x2="101.54496967792366" y1="184.9874750549273" y2="189.98673829345242" /><path d="M 101.47630435890484 185.9873277026323 a86.0,86.0 0 0,1 -42.54439059252881,-10.42667462771756" fill="none" id="id7" stroke="none" /><text fill="#e1ed5e" style="font-size:6.75px; font-family:Arial;" text-anchor="middle"><textPath startOffset="22.145653131862474" xlink:href="#id7">July</textPath></text><path d="M 100.0 121.0 l 8.459797594266977e-16 6.907948969578019 a27.90794896957802,27.90794896957802 0 0,0 -0.47907705478931856,-0.004112300328659231 l 0.11858412994046556 -6.906931067443795" fill="#ff4806" stroke="none" /><path d="M 99.27912038922189 120.98762331915562 l -1.842399207399107 53.63944268955833 a74.67107458292443,74.67107458292443 0 0,0 -1.280695118715374,-0.05499855888958255 l 2.7629200867153196 -53.599911562242916" fill="#41ffd1" stroke="none" /><path d="M 98.55909050195518 120.95050786540614 l -1.5226906568470018 22.13958796589266 a43.19188910696762,43.19188910696762 0 0,0 -0.7392621009178049,-0.05722356203132654 l 1.9025217525400429 -22.110186636866278" fill="#edff1a" stroke="none" /><path d="M 93.95794788825049 120.11202640906438 l -9.878310498187993 32.88168290209733 a55.333454367026505,55.333454367026505 0 0,0 -0.9073615869931232,-0.2811029390628317 l 10.44131271805275 -32.70726337522785" fill="#64ff29" stroke="none" /><path d="M 93.61358852112213 120.00534299687104 l -12.72581796649806 39.8634435281125 a62.84543670264966,62.84543670264966 0 0,0 -1.024911100631213,-0.33690863609866073 l 13.408251804777017 -39.63911397061182" fill="#32ff4c" stroke="none" /><path d="M 92.93061703081489 119.77432235084164 l -8.276381250813003 23.150511362224794 a45.58545632973503,45.58545632973503 0 0,0 -0.7346006166085595,-0.2697555216974411 l 8.672571019075681 -23.00502499151863" fill="#d1ff1d" stroke="none" /><path d="M 92.59220618246901 119.65005319985036 l -20.059127971320006 53.20922011169296 a77.86466143277724,77.86466143277724 0 0,0 -1.246678997392863,-0.4822422179066955 l 20.969579231206396 -52.85703800564822" fill="#45fff1" stroke="none" /><path d="M 91.92203290615298 119.3841803445677 l -0.7629675593202223 1.8308443937810777 a22.98345927379784,22.98345927379784 0 0,0 -0.3628813784019161,-0.15489248217919344 l 0.7942840128925696 -1.8174772619424804" fill="#ff0000" stroke="none" /><path d="M 91.26138138417905 119.09545874513695 l -5.147466573072001 11.248143431973508 a33.37000981354269,33.37000981354269 0 0,0 -0.5188421343971822,-0.24284431677305254 l 5.3397974213406725 -11.158122883629929" fill="#ff930d" stroke="none" /><path d="M 90.6110303473126 118.78422872680471 l -2.0462701916752506 4.09391112540964 a25.576825318940138,25.576825318940138 0 0,0 -0.39104868404278575,-0.1996722444044338 l 2.1162460974316186 -4.05818092933237" fill="#ff2603" stroke="none" /><line stroke="#e1ed5e" stroke-width="0.3" x1="58.13341422392154" x2="55.67067388415222" y1="173.97424548756322" y2="178.32567169271397" /><path d="M 57.64086615596768 174.84453072859336 a86.0,86.0 0 0,1 -31.369924170532247,-30.572349798747897" fill="none" id="id8" stroke="none" /><text fill="#e1ed5e" style="font-size:6.75px; font-family:Arial;" text-anchor="middle"><textPath startOffset="22.145653131862474" xlink:href="#id8">August</textPath></text><path d="M 89.34428304082925 118.09573695890944 l -21.119704212309706 35.86587496085949 a62.62214425907753,62.62214425907753 0 0,0 -0.921640643076963,-0.5534187252811801 l 21.732277611944095 -35.4980422350424" fill="#32ff49" stroke="none" /><path d="M 89.03521579738668 117.91015095944536 l -22.605586626550664 36.924526878681824 a64.29472522080471,64.29472522080471 0 0,0 -0.9363634905776594,-0.5843600712647875 l 23.23611424591804 -36.53103101057549" fill="#34ff5d" stroke="none" /><path d="M 87.2517909369889 116.68781488649013 l -34.45575686932947 45.103691786606824 a77.7586310107949,77.7586310107949 0 0,0 -1.0537777668786177,-0.819423965242652 l 35.224944580843314 -44.505566769743375" fill="#45fff0" stroke="none" /><path d="M 86.96720088162412 116.46651593811092 l -24.57597104016958 31.050936575621463 a60.5997350343474,60.5997350343474 0 0,0 -0.8101585203603943,-0.652606355889757 l 25.105380330885236 -30.624481925938298" fill="#2fff31" stroke="none" /><path d="M 86.13680546590413 115.77377054828092 l -41.58958360228758 47.321311644842766 a84.0,84.0 0 0,0 -1.0749398927065164,-0.9612178804664708 l 42.39578852181747 -46.600398234492914" fill="#4dd2ff" stroke="none" /><path d="M 85.60350026404147 115.28858382429668 l -9.173706762562578 9.742158676851266 a34.38157507360157,34.38157507360157 0 0,0 -0.42621285575932216,-0.40830227449258005 l 9.339592104187215 -9.583244272053104" fill="#ffa10e" stroke="none" /><path d="M 85.34317274990678 115.03919595460226 l -22.08650099667137 22.66269573712459 a52.64508341511285,52.64508341511285 0 0,0 -0.6417888914143332,-0.636303549235015 l 22.472281808215662 -22.280212177660914" fill="#81ff25" stroke="none" /><path d="M 84.83555147118756 114.52719865689866 l -45.36841374600612 43.461914093635464 a83.82699214916585,83.82699214916585 0 0,0 -0.9865405754811076,-1.0476719036530835 l 46.10781015522348 -42.67670073003789" fill="#4dd4ff" stroke="none" /><path d="M 84.3458050057657 113.99807769240083 l -41.9446396903411 37.50715545458638 a77.26845927379784,77.26845927379784 0 0,0 -0.875668495815713,-0.9963500039896209 l 42.582319250115404 -36.781593172785456" fill="#45ffeb" stroke="none" /><line stroke="#e1ed5e" stroke-width="0.3" x1="26.387840678322732" x2="22.057713659400548" y1="142.50000000000003" y2="145.00000000000006" /><path d="M 25.521815274538298 143.00000000000003 a86.0,86.0 0 0,1 -11.493303480769221,-40.785679425670985" fill="none" id="id9" stroke="none" /><text fill="#e1ed5e" style="font-size:6.75px; font-family:Arial;" text-anchor="middle"><textPath startOffset="21.40746469413373" xlink:href="#id9">September</textPath></text><line stroke="#e1ed5e" stroke-width="0.3" x1="15.003131293944662" x2="10.003315487706104" y1="100.72959589197737" y2="100.7725132973878" /><path d="M 14.003168132696942 100.73817937305945 a86.0,86.0 0 0,1 10.791469493833604,-42.45332614584628" fill="none" id="id10" stroke="none" /><text fill="#e1ed5e" style="font-size:6.75px; font-family:Arial;" text-anchor="middle"><textPath startOffset="22.145653131862435" xlink:href="#id10">October</textPath></text><line stroke="#e1ed5e" stroke-width="0.3" x1="26.387840678322718" x2="22.05771365940052" y1="57.49999999999999" y2="54.99999999999999" /><path d="M 25.521815274538284 56.99999999999999 a86.0,86.0 0 0,1 29.574782752854787,-30.34633250058573" fill="none" id="id11" stroke="none" /><text fill="#e1ed5e" style="font-size:6.75px; font-family:Arial;" text-anchor="middle"><textPath startOffset="21.40746469413373" xlink:href="#id11">November</textPath></text><line stroke="#e1ed5e" stroke-width="0.3" x1="56.869717070023135" x2="54.33264160355391" y1="26.7553504044142" y2="22.446841604673864" /><path d="M 56.362301976729285 25.89364864446614 a86.0,86.0 0 0,1 42.16139366436587,-11.88097634709845" fill="none" id="id12" stroke="none" /><text fill="#e1ed5e" style="font-size:6.75px; font-family:Arial;" text-anchor="middle"><textPath startOffset="22.145653131862474" xlink:href="#id12">December</textPath></text></svg>