<?xml version="1.0" encoding="utf-8" ?>
<svg baseProfile="full" height="200mm" version="1.1" viewBox="0,0,200,200" width="200mm" xmlns="http://www.w3.org/2000/svg" xmlns:ev="http://www.w3.org/2001/xml-events" xmlns:xlink="http://www.w3.org/1999/xlink"><defs /><rect fill="#1a1a1a" height="200" width="200" x="0" y="0" /><text alignment-baseline="middle" fill="#e1ed5e" style="dominant-baseline: central; font-size:9.0px; font-family:Arial;" text-anchor="middle" x="100.0" y="100.0">2025</text><line stroke="#e1ed5e" stroke-width="0.3" x1="100.0" x2="100.0" y1="15.0" y2="10.0" /><path d="M 100.0 14.0 a86.0,86.0 0 0,1 42.46469731375804,11.215312516191453" fill="none" id="id49" stroke="none" /><text fill="#e1ed5e" style="font-size:6.75px; font-family:Arial;" text-anchor="middle"><textPath startOffset="22.20632615414155" xlink:href="#id49">January</textPath></text><path d="M 100.72285384407766 79.0124445844662 l 0.21468420381497225 -6.233205593802458 a27.23690157706356,27.23690157706356 0 0,0 0.46842174770790374,0.020171225807623015 l -0.3219467839122075 6.228586641470639" fill="#ff0300" stroke="none" /><path d="M 101.44485096284872 79.0497635885617 l 2.4508804324914824 -35.53759231722291 a56.6220055948498,56.6220055948498 0 0,0 0.9717679197316322,0.07542789337520087 l -3.0622385415854554 35.49013916165925" fill="#6bff28" stroke="none" /><path d="M 103.2404852339499 79.25152402106235 l 5.998162803239686 -38.40558677352081 a59.87115964867275,59.87115964867275 0 0,0 1.016871144822774,0.16779245178393998 l -6.658363154201336 38.296648058797246" fill="#47ff2c" stroke="none" /><path d="M 103.59715602781102 79.31037775812273 l 8.221154411052458 -47.285293671379755 a68.99464946677904,68.99464946677904 0 0,0 1.1683254270562744,0.21350400404634096 l -9.033874959211634 47.136774185982674" fill="#39ff87" stroke="none" /><path d="M 103.95276090670814 79.375362276772 l 8.724939516435239 -45.524816939513514 a67.35335507750943,67.35335507750943 0 0,0 1.1367757845027282,0.22802652813990448 l -9.507281710405094 45.3678864552964" fill="#36ff73" stroke="none" /><path d="M 105.71112130821622 79.79150937346287 l 17.13336392464865 -60.62547187961136 a84.0,84.0 0 0,0 1.3880391291062915,0.40520668432518603 l -18.174393271478365 60.321566866367476" fill="#4dd2ff" stroke="none" /><path d="M 107.4271985657038 80.35727306442388 l 16.37719920720405 -43.31281157368102 a67.30564004837468,67.30564004837468 0 0,0 1.0801492279416616,0.4190811193162667 l -17.120331600145377 43.02448775047421" fill="#36ff72" stroke="none" /><line stroke="#e1ed5e" stroke-width="0.3" x1="143.23703022742887" x2="145.7803849466894" y1="26.81831364943548" y2="22.513508569990506" /><path d="M 143.74570117128098 25.957352633546492 a86.0,86.0 0 0,1 28.547481713284135,27.462654790039103" fill="none" id="id50" stroke="none" /><text fill="#e1ed5e" style="font-size:6.75px; font-family:Arial;" text-anchor="middle"><textPath startOffset="19.985693538727396" xlink:href="#id50">February</textPath></text><path d="M 113.89432698308785 84.25364557470407 l 4.005984601395527 -4.539957454048139 a27.054678051819547,27.054678051819547 0 0,0 0.3465433871460659,0.3111300746162835 l -4.083538976137583 4.470328370662558" fill="#ff0000" stroke="none" /><path d="M 114.16331599549186 84.49514656593476 l 11.523716309040978 -12.615233074253153 a38.08625597048656,38.08625597048656 0 0,0 0.48023525317887084,0.4463263299011469 l -11.739159446014694 12.415002158277366" fill="#ffa60f" stroke="none" /><path d="M 114.68862486808459 84.99185889309783 l 16.45150148968268 -16.809364933408222 a44.52034546365179,44.52034546365179 0 0,0 0.5430723177128921,0.5407401925928187 l -16.738409607562897 16.523688890165285" fill="#fffe18" stroke="none" /><path d="M 116.15771136456269 86.58626213691792 l 8.894133125646636 -7.383692379134644 a32.55960713893062,32.55960713893062 0 0,0 0.3542818727926367,0.43430768528359803 l -9.019913490515682 7.229500524242944" fill="#ff5507" stroke="none" /><path d="M 116.38621287248628 86.86637796730983 l 19.53950945303473 -15.6610031773252 a46.041155128815916,46.041155128815916 0 0,0 0.49032935568095065,0.6226684879891332 l -19.806192889309646 15.322342295383029" fill="#ecff1a" stroke="none" /><path d="M 117.65298651832404 88.62581576622439 l 9.177960085372895 -5.913549460478549 a31.918105080563393,31.918105080563393 0 0,0 0.29360462293745737,0.4644120041843472 l -9.278392304556307 5.754689808579996" fill="#ff4c07" stroke="none" /><line stroke="#e1ed5e" stroke-width="0.3" x1="172.23445277983987" x2="176.4835382374775" y1="55.19839476539836" y2="52.563006222186495" /><path d="M 173.08426987136738 54.67131705675599 a86.0,86.0 0 0,1 12.851231095245387,41.99856678651699" fill="none" id="id51" stroke="none" /><text fill="#e1ed5e" style="font-size:6.75px; font-family:Arial;" text-anchor="middle"><textPath startOffset="22.20632615414155" xlink:href="#id51">March</textPath></text><path d="M 117.84615892207809 88.93136811851018 l 48.592437688963436 -30.13823912203166 a78.17987808602388,78.17987808602388 0 0,0 0.6994649516320444,1.1497364685574119 l -49.1040184388817 29.297334880267165" fill="#45fff0" stroke="none" /><path d="M 118.89224826269711 90.83032412892265 l 46.2793654970111 -22.46248171344579 a72.44261614199678,72.44261614199678 0 0,0 0.5348397166420727,1.1265088443814317 l -46.65916340749492 21.66253045342382" fill="#3dffb0" stroke="none" /><path d="M 120.08093135843002 93.85539295169968 l 24.721697450739725 -7.564644970413345 a46.85316573215572,46.85316573215572 0 0,0 0.22934424471017523,0.7732347800314133 l -24.848247592561602 7.1379808036354015" fill="#e1ff1b" stroke="none" /><path d="M 120.37134235888165 94.90015583598534 l 53.976678764321804 -13.512739874459205 a76.64239381390405,76.64239381390405 0 0,0 0.30936957642438767,1.2825366222467456 l -54.20128114100701 12.581618020553053" fill="#43ffe0" stroke="none" /><path d="M 120.6074358757038 95.95851677861258 l 23.099715279995944 -4.53026336153731 a44.53975641636433,44.53975641636433 0 0,0 0.14107284072693682,0.7536167561529394 l -23.17427384463274 4.131968527921808" fill="#ffff18" stroke="none" /><path d="M 120.73433829027371 96.67025291283417 l 27.451091008021784 -4.408396788160921 a48.80281208389831,48.80281208389831 0 0,0 0.1260602351971811,0.8305794455498893 l -27.52290713665826 3.9352182302189496" fill="#c8ff1d" stroke="none" /><line stroke="#e1ed5e" stroke-width="0.3" x1="184.98032266829074" x2="189.97916517819016" y1="98.17113171792111" y2="98.06355123074" /><path d="M 185.9800911702706 98.14961562048488 a86.0,86.0 0 0,1 -9.607161424134198,41.387399972396054" fill="none" id="id52" stroke="none" /><text fill="#e1ed5e" style="font-size:6.75px; font-family:Arial;" text-anchor="middle"><textPath startOffset="21.466115282336823" xlink:href="#id52">April</textPath></text><line stroke="#e1ed5e" stroke-width="0.3" x1="174.80103733775053" x2="179.2010983576182" y1="140.37084112569926" y2="142.7455964860345" /><path d="M 175.68104954172406 140.8457921977663 a86.0,86.0 0 0,1 -30.038265399797805,32.042727171017184" fill="none" id="id53" stroke="none" /><text fill="#e1ed5e" style="font-size:6.75px; font-family:Arial;" text-anchor="middle"><textPath startOffset="22.206326154141568" xlink:href="#id53">May</textPath></text><line stroke="#e1ed5e" stroke-width="0.3" x1="143.8653032363475" x2="146.44561519142675" y1="172.8068346515853" y2="177.08958963109032" /><path d="M 144.38136562736335 173.6633856474863 a86.0,86.0 0 0,1 -40.68145358897372,12.25698825130547" fill="none" id="id54" stroke="none" /><text fill="#e1ed5e" style="font-size:6.75px; font-family:Arial;" text-anchor="middle"><textPath startOffset="21.466115282336833" xlink:href="#id54">June</textPath></text><line stroke="#e1ed5e" stroke-width="0.3" x1="102.19456741930631" x2="102.32365962044197" y1="184.97166512339345" y2="189.96999836594603" /><path d="M 102.22038585953345 185.97133177190398 a86.0,86.0 0 0,1 -42.740103519485714,-10.115201625700543" fill="none" id="id55" stroke="none" /><text fill="#e1ed5e" style="font-size:6.75px; font-family:Arial;" text-anchor="middle"><textPath startOffset="22.20632615414155" xlink:href="#id55">July</textPath></text><line stroke="#e1ed5e" stroke-width="0.3" x1="58.666819895761336" x2="56.23545636021788" y1="174.27360380694188" y2="178.64263932499728" /><path d="M 58.180547188652646 175.14741091055294 a86.0,86.0 0 0,1 -31.652253787137756,-30.449443065178592" fill="none" id="id56" stroke="none" /><text fill="#e1ed5e" style="font-size:6.75px; font-family:Arial;" text-anchor="middle"><textPath startOffset="22.20632615414155" xlink:href="#id56">August</textPath></text><line stroke="#e1ed5e" stroke-width="0.3" x1="26.63291911575756" x2="22.317208475507996" y1="142.92168965132927" y2="145.44649492493687" /><path d="M 25.769776987707644 143.4266507060508 a86.0,86.0 0 0,1 -11.730757126820373,-40.83630448921669" fill="none" id="id57" stroke="none" /><text fill="#e1ed5e" style="font-size:6.75px; font-family:Arial;" text-anchor="middle"><textPath startOffset="21.46611528233685" xlink:href="#id57">September</textPath></text><line stroke="#e1ed5e" stroke-width="0.3" x1="15.007084014347285" x2="10.007500721073583" y1="101.09737516637583" y2="101.16192664675087" /><path d="M 14.007167355692545 101.11028546245083 a86.0,86.0 0 0,1 10.666146001902534,-42.60595125391555" fill="none" id="id58" stroke="none" /><text fill="#e1ed5e" style="font-size:6.75px; font-family:Arial;" text-anchor="middle"><textPath startOffset="22.20632615414155" xlink:href="#id58">October</textPath></text><line stroke="#e1ed5e" stroke-width="0.3" x1="26.266209847984243" x2="21.928928074336255" y1="57.711370442889674" y2="55.22380399835377" /><path d="M 25.398753493254645 57.213857153982495 a86.0,86.0 0 0,1 29.58750427330803,-30.492523968695096" fill="none" id="id59" stroke="none" /><text fill="#e1ed5e" style="font-size:6.75px; font-family:Arial;" text-anchor="middle"><textPath startOffset="21.46611528233685" xlink:href="#id59">November</textPath></text><line stroke="#e1ed5e" stroke-width="0.3" x1="56.762969772571076" x2="54.21961505331055" y1="26.818313649435495" y2="22.513508569990535" /><path d="M 56.25429882871897 25.957352633546506 a86.0,86.0 0 0,1 42.265352541879196,-11.944610805530505" fill="none" id="id60" stroke="none" /><text fill="#e1ed5e" style="font-size:6.75px; font-family:Arial;" text-anchor="middle"><textPath startOffset="22.20632615414155" xlink:href="#id60">December</textPath></text></svg>