<?xml version="1.0" encoding="utf-8" ?>
<svg baseProfile="full" height="200mm" version="1.1" viewBox="0,0,200,200" width="200mm" xmlns="http://www.w3.org/2000/svg" xmlns:ev="http://www.w3.org/2001/xml-events" xmlns:xlink="http://www.w3.org/1999/xlink"><defs /><rect fill="#1a1a1a" height="200" width="200" x="0" y="0" /><text alignment-baseline="middle" fill="#e1ed5e" style="dominant-baseline: central; font-size:9.0px; font-family:Arial;" text-anchor="middle" x="100.0" y="100.0">2024</text><line stroke="#e1ed5e" stroke-width="0.3" x1="100.0" x2="100.0" y1="15.0" y2="10.0" /><path d="M 100.0 14.0 a86.0,86.0 0 0,1 42.35913384403234,11.155469271406648" fill="none" id="id1" stroke="none" /><text fill="#e1ed5e" style="font-size:6.75px; font-family:Arial;" text-anchor="middle"><textPath startOffset="22.145653131862478" xlink:href="#id1">January</textPath></text><line stroke="#e1ed5e" stroke-width="0.3" x1="143.13028292997686" x2="145.6673583964461" y1="26.7553504044142" y2="22.446841604673864" /><path d="M 143.63769802327073 25.89364864446614 a86.0,86.0 0 0,1 29.32050498858742,28.57503671076993" fill="none" id="id2" stroke="none" /><text fill="#e1ed5e" style="font-size:6.75px; font-family:Arial;" text-anchor="middle"><textPath startOffset="20.669276256404974" xlink:href="#id2">February</textPath></text><line stroke="#e1ed5e" stroke-width="0.3" x1="172.87174338648825" x2="177.1583165268699" y1="56.24261187166439" y2="53.66864786411523" /><path d="M 173.72905801456457 55.72781907015455 a86.0,86.0 0 0,1 12.242430191666344,42.057860355516425" fill="none" id="id3" stroke="none" /><text fill="#e1ed5e" style="font-size:6.75px; font-family:Arial;" text-anchor="middle"><textPath startOffset="22.145653131862474" xlink:href="#id3">March</textPath></text><path d="M 120.26092885502905 94.47779374421319 l 3.2542940212440303 -0.8869723066927789 a24.373003031357154,24.373003031357154 0 0,0 0.10655705060270396,0.4046144773196182 l -3.2690405526514645 0.8309773250003621" fill="#ff1f03" stroke="none" /><path d="M 120.65975698304385 96.23510406497455 l 3.5627223720260113 -0.6492466967096318 a24.621396412065796,24.621396412065796 0 0,0 0.07220539007776758,0.4164615021328425 l -3.573342579596013 0.5879921616561966" fill="#ff2303" stroke="none" /><line stroke="#e1ed5e" stroke-width="0.3" x1="184.99686870605535" x2="189.99668451229388" y1="99.2704041080226" y2="99.22748670261217" /><path d="M 185.99683186730306 99.26182062694052 a86.0,86.0 0 0,1 -10.086455211305974,41.156179273409016" fill="none" id="id4" stroke="none" /><text fill="#e1ed5e" style="font-size:6.75px; font-family:Arial;" text-anchor="middle"><textPath startOffset="21.40746469413373" xlink:href="#id4">April</textPath></text><line stroke="#e1ed5e" stroke-width="0.3" x1="174.33088141563837" x2="178.70328620479359" y1="141.23008692659167" y2="143.65538615756765" /><path d="M 175.20536237346943 141.71514677278685 a86.0,86.0 0 0,1 -30.301960400862466,31.631185727798858" fill="none" id="id5" stroke="none" /><text fill="#e1ed5e" style="font-size:6.75px; font-family:Arial;" text-anchor="middle"><textPath startOffset="22.145653131862474" xlink:href="#id5">May</textPath></text><path d="M 118.00360718960297 110.81064883170644 l 2.786188611922566 1.6730262077584641 a24.249902102072255,24.249902102072255 0 0,0 -0.21736230640143914,0.3550449920952525 l -2.757058341065722 -1.7206083159782737" fill="#ff1e03" stroke="none" /><path d="M 115.89218393027572 113.72728997021213 l 8.68256750071105 7.499795011882466 a32.47318193112359,32.47318193112359 0 0,0 -0.36801228655558993,0.41873042701659186 l -8.552544150196875 -7.647737716710352" fill="#ff900d" stroke="none" /><path d="M 114.13192950727249 115.5334660781643 l 9.862040359531742 10.840109930313405 a35.65495900213686,35.65495900213686 0 0,0 -0.4562730690977529,0.40800219190657433 l -9.674502263610611 -11.007807652103367" fill="#ffb911" stroke="none" /><path d="M 113.03279911837588 116.46651593811092 l 4.356256660241386 5.503987982537539 a28.01932018088754,28.01932018088754 0 0,0 -0.37971523245533256,0.295268861444319 l -4.261131483150823 -5.577957895602651" fill="#ff5307" stroke="none" /><path d="M 112.45986205192187 116.90419585922612 l 6.011049088110993 8.155142543426283 a31.13109377329424,31.13109377329424 0 0,0 -0.4328985976014592,0.31338520047556223 l -5.870169480135566 -8.257128515274921" fill="#ff7e0b" stroke="none" /><line stroke="#e1ed5e" stroke-width="0.3" x1="143.1302829299769" x2="145.66735839644613" y1="173.24464959558577" y2="177.55315839532614" /><path d="M 143.63769802327073 174.10635135553383 a86.0,86.0 0 0,1 -40.68552437913181,11.842963189579606" fill="none" id="id6" stroke="none" /><text fill="#e1ed5e" style="font-size:6.75px; font-family:Arial;" text-anchor="middle"><textPath startOffset="21.407464694133747" xlink:href="#id6">June</textPath></text><path d="M 110.65571695917076 118.09573695890943 l 12.202577784153599 20.72264481580781 a45.04851165333201,45.04851165333201 0 0,0 -0.6697373642785173,0.3866730475525539 l -11.845047952014683 -20.92906476063654" fill="#d1ff1c" stroke="none" /><path d="M 110.34350942703117 118.27599006163325 l 4.478678414204755 7.913395619222739 a30.092875813745465,30.092875813745465 0 0,0 -0.45175971406572174,0.25058349808486347 l -4.342174511982939 -7.9891120327407465" fill="#ff700a" stroke="none" /><path d="M 109.3889696526874 118.78422872680471 l 2.9106972370885043 5.82334427295751 a27.51026089549272,27.51026089549272 0 0,0 -0.424234096720562,0.2075141553477143 l -2.810302891105873 -5.8724521784024475" fill="#ff4c07" stroke="none" /><path d="M 108.73861861582097 119.09545874513695 l 9.138068546128416 19.96832893209351 a42.95992844009343,42.95992844009343 0 0,0 -0.6732160316150534,0.30112096797919047 l -8.793939111657735 -20.12225365098255" fill="#eaff1a" stroke="none" /><path d="M 108.4095320186766 119.2426549942271 l 3.111706546695065 7.1201935361385145 a28.770448740247478,28.770448740247478 0 0,0 -0.4542510320891961,0.19389275416284218 l -2.989020439435438 -7.172560939960761" fill="#ff5d08" stroke="none" /><path d="M 106.0420521117495 120.11202640906438 l 4.542699600484279 15.121169537038556 a36.78878994185757,36.78878994185757 0 0,0 -0.6063843473795356,0.17650964598201155 l -4.282455240723136 -15.196922877323086" fill="#ffc812" stroke="none" /><path d="M 104.29559338865022 120.5559693870025 l 2.605367153026073 12.467624980756021 a33.736938826218754,33.736938826218754 0 0,0 -0.5679107829759706,0.11359806186428867 l -2.3909598845191438 -12.510512439283172" fill="#ffa00e" stroke="none" /><path d="M 103.58742460773223 120.69131181640829 l 4.3967388994244265 25.35922158398513 a46.73754907319982,46.73754907319982 0 0,0 -0.7916951265475337,0.13027313179806396 l -3.9607662698238206 -25.430960714278864" fill="#beff1f" stroke="none" /><path d="M 103.2317021107853 120.74984581791261 l 2.921087406888666 18.75547659894223 a39.98158723848333,39.98158723848333 0 0,0 -0.6790680193296739,0.09979961384992361 l -2.5986942819513064 -18.802857286091037" fill="#fff016" stroke="none" /><path d="M 101.80034050326958 120.92268563240118 l 1.6163502308557276 18.784439771607783 a39.853852805247726,39.853852805247726 0 0,0 -0.682129065517618,0.052801103756782715 l -1.2936521705628738 -18.809418642359617" fill="#ffee16" stroke="none" /><line stroke="#e1ed5e" stroke-width="0.3" x1="101.45913802915013" x2="101.54496967792366" y1="184.9874750549273" y2="189.98673829345242" /><path d="M 101.47630435890484 185.9873277026323 a86.0,86.0 0 0,1 -42.54439059252881,-10.42667462771756" fill="none" id="id7" stroke="none" /><text fill="#e1ed5e" style="font-size:6.75px; font-family:Arial;" text-anchor="middle"><textPath startOffset="22.145653131862474" xlink:href="#id7">July</textPath></text><path d="M 100.0 121.0 l 5.140704913914258e-16 4.197704119664067 a25.197704119664067,25.197704119664067 0 0,0 -0.4325520979796986,-0.0037129395300854098 l 0.07205917313084595 -4.197085578328417" fill="#ff2b04" stroke="none" /><path d="M 99.27912038922189 120.98762331915562 l -1.1195575961872624 32.59469786850466 a53.613919395716344,53.613919395716344 0 0,0 -0.919540601883813,-0.03948902998458971 l 1.6789239586719142 -32.57067627009424" fill="#72ff27" stroke="none" /><path d="M 98.55909050195518 120.95050786540614 l -0.9252825797309115 13.453405637675067 a34.485187099339065,34.485187099339065 0 0,0 -0.5902402602133096,-0.04568832908080864 l 1.156091834719457 -13.435539541599203" fill="#ffaa0f" stroke="none" /><path d="M 93.95794788825049 120.11202640906438 l -6.0026825409652025 19.98097791218239 a41.86316553197834,41.86316553197834 0 0,0 -0.6864749137420048,-0.21267168305554898 l 6.344798087578841 -19.87498964132019" fill="#f7ff18" stroke="none" /><path d="M 93.61358852112213 120.00534299687104 l -7.733007110984359 24.223534635082224 a46.42791830243999,46.42791830243999 0 0,0 -0.7571669693778034,-0.24889582208147207 l 8.147696818009905 -24.08721789159873" fill="#c1ff1e" stroke="none" /><path d="M 92.93061703081489 119.77432235084164 l -5.029249611635511 14.067706253405792 a35.93966903543209,35.93966903543209 0 0,0 -0.5791606613119414,-0.21267581704479793 l 5.269999424601571 -13.979299587352275" fill="#ffbd11" stroke="none" /><path d="M 92.59220618246901 119.65005319985036 l -12.189187339526962 32.333267580667965 a55.554543557123694,55.554543557123694 0 0,0 -0.8894751661150685,-0.3440681023561717 l 12.742434768135558 -32.119259590173755" fill="#5eff2a" stroke="none" /><path d="M 91.92203290615298 119.3841803445677 l -0.4636270593533611 1.1125361649433503 a22.2052745614471,22.2052745614471 0 0,0 -0.35059477098981645,-0.14964806008180606 l 0.48265690551360874 -1.1044134552021403" fill="#ff0000" stroke="none" /><path d="M 91.26138138417905 119.09545874513695 l -3.1279243281580498 6.835079157490041 a28.516795706405606,28.516795706405606 0 0,0 -0.44338360201726046,-0.20752591349458727 l 3.2447966440468003 -6.780377012424927" fill="#ff5a08" stroke="none" /><path d="M 90.6110303473126 118.78422872680471 l -1.2434424242809201 2.4877177976200895 a23.7811668240322,23.7811668240322 0 0,0 -0.36359453824213345,-0.18565396194008715 l 1.2859641842366358 -2.466005884007166" fill="#ff1702" stroke="none" /><line stroke="#e1ed5e" stroke-width="0.3" x1="58.13341422392154" x2="55.67067388415222" y1="173.97424548756322" y2="178.32567169271397" /><path d="M 57.64086615596768 174.84453072859336 a86.0,86.0 0 0,1 -31.369924170532247,-30.572349798747897" fill="none" id="id8" stroke="none" /><text fill="#e1ed5e" style="font-size:6.75px; font-family:Arial;" text-anchor="middle"><textPath startOffset="22.145653131862474" xlink:href="#id8">August</textPath></text><path d="M 89.34428304082925 118.09573695890944 l -12.833660145511262 21.79436063317547 a46.2922317745863,46.2922317745863 0 0,0 -0.6813053555893365,-0.4091042905385476 l 13.205898257658024 -21.570842342101002" fill="#c3ff1e" stroke="none" /><path d="M 89.03521579738668 117.91015095944536 l -13.736575722777992 22.43766409941467 a47.30859712766486,47.30859712766486 0 0,0 -0.6889840961083754,-0.4299770330150476 l 14.11972394767608 -22.198551269558074" fill="#b7ff1f" stroke="none" /><path d="M 87.2517909369889 116.68781488649013 l -20.937484221943087 27.407838948796314 a55.49011280624162,55.49011280624162 0 0,0 -0.7519968702726537,-0.5847573147364203 l 21.40489103685097 -27.044380582439103" fill="#5eff29" stroke="none" /><path d="M 86.96720088162412 116.46651593811092 l -14.93390517712039 18.868501339099502 a45.063288774039655,45.063288774039655 0 0,0 -0.6024516004080956,-0.48529236397758646 l 15.255607547883749 -18.609360681328504" fill="#d1ff1c" stroke="none" /><path d="M 86.13680546590413 115.77377054828092 l -25.27244587232384 28.755404203803476 a59.28276101972867,59.28276101972867 0 0,0 -0.7586357710701569,-0.678376784471237 l 25.762346670217365 -28.317331889448855" fill="#38ff2e" stroke="none" /><path d="M 85.60350026404147 115.28858382429668 l -5.574521010416698 5.919948134002747 a29.131486358892808,29.131486358892808 0 0,0 -0.3611298774694794,-0.34595425352744097 l 5.675323373751491 -5.823381750169724" fill="#ff6209" stroke="none" /><path d="M 85.34317274990678 115.03919595460226 l -13.421146657421733 13.771278809002613 a40.2295423147642,40.2295423147642 0 0,0 -0.49043275628824795,-0.4862410485161506 l 13.655571333839944 -13.538857750257803" fill="#fff316" stroke="none" /><path d="M 84.83555147118756 114.52719865689866 l -27.568700655278185 26.410191598517844 a59.17763057198231,59.17763057198231 0 0,0 -0.6964479128179332,-0.7396035487555611 l 28.01800440183237 -25.933046589817792" fill="#39ff2e" stroke="none" /><path d="M 84.3458050057657 113.99807769240083 l -25.488200274983395 22.791705853932424 a55.1922536401133,55.1922536401133 0 0,0 -0.6254831295970507,-0.7116849831270122 l 25.875694468539038 -22.350808592994113" fill="#61ff29" stroke="none" /><path d="M 84.1078160697243 113.72728997021213 l -19.453208281961366 16.803217991247024 a46.70555284997267,46.70555284997267 0 0,0 -0.5188885425859292,-0.6112493984395417 l 19.73879138805441 -16.46680181035793" fill="#beff1f" stroke="none" /><path d="M 83.64595745247003 113.17365903436017 l -32.3497964105942 26.058706066439978 a62.53992645231825,62.53992645231825 0 0,0 -0.6662990939329227,-0.8418471389101464 l 32.79236193516869 -25.49953898361515" fill="#32ff4b" stroke="none" /><path d="M 83.20337586046588 112.60449989151573 l -33.55355005096723 25.179209492575726 a62.95036724146498,62.95036724146498 0 0,0 -0.6411884009240743,-0.8698952096514351 l 33.98084047147513 -24.59950797365541" fill="#33ff50" stroke="none" /><path d="M 82.576782715395 111.72311816256416 l -25.98162490984552 17.481596762422786 a52.31534860607265,52.31534860607265 0 0,0 -0.4949419636842506,-0.7494052158292004 l 26.2778913124505 -17.033011668254524" fill="#80ff26" stroke="none" /><path d="M 82.37810715431573 111.42229804090323 l -42.37729394973396 27.468449950277197 a71.50099786314169,71.50099786314169 0 0,0 -0.6587703865529984,-1.0356964665141524 l 42.84258202791285 -26.736939809084372" fill="#3dffb1" stroke="none" /><path d="M 81.99639281039703 110.81064883170644 l -12.486073732627727 7.497528522405472 a35.564167370670376,35.564167370670376 0 0,0 -0.3097914852114583,-0.5260936687767185 l 12.612938927968955 -7.282083685335194" fill="#ffb811" stroke="none" /><line stroke="#e1ed5e" stroke-width="0.3" x1="26.387840678322732" x2="22.057713659400548" y1="142.50000000000003" y2="145.00000000000006" /><path d="M 25.521815274538298 143.00000000000003 a86.0,86.0 0 0,1 -11.493303480769221,-40.785679425670985" fill="none" id="id9" stroke="none" /><text fill="#e1ed5e" style="font-size:6.75px; font-family:Arial;" text-anchor="middle"><textPath startOffset="21.40746469413373" xlink:href="#id9">September</textPath></text><path d="M 81.4637452351635 109.86951160357371 l -22.793209807326424 12.136100389753285 a46.822767976941805,46.822767976941805 0 0,0 -0.37166560047687325,-0.7127177948607439 l 22.998183476778244 -11.743036351788037" fill="#bdff1f" stroke="none" /><path d="M 81.29705330413844 109.54985784667822 l -21.857213573491478 11.160448989437384 a45.54166674949063,45.54166674949063 0 0,0 -0.3495433237697644,-0.6993207973293897 l 22.04557681047298 -10.783596335944242" fill="#cbff1d" stroke="none" /><path d="M 80.9802524753101 108.90220220490708 l -30.509100352828124 14.279799459909288 a54.68557372161209,54.68557372161209 0 0,0 -0.3906516955502819,-0.8536444561835868 l 30.74973651323346 -13.753966021511012" fill="#67ff28" stroke="none" /><path d="M 80.83023694016515 108.57439118712176 l -27.931286928736746 12.493309371597059 a51.5980321025692,51.5980321025692 0 0,0 -0.3547146471529418,-0.8116565299239042 l 28.14163545790666 -12.011990771897306" fill="#88ff25" stroke="none" /><path d="M 80.68587082218212 108.24405325689762 l -25.005093056664744 10.673187331147133 a48.18771057993341,48.18771057993341 0 0,0 -0.3182090508758346,-0.7635858821644885 l 25.184627952077065 -10.242368939541363" fill="#adff20" stroke="none" /><path d="M 80.28708602549918 107.23885506374661 l -30.58233829098609 11.230258229974458 a53.57910550116782,53.57910550116782 0 0,0 -0.30963576822949296,-0.866106351715483 l 30.77061422925953 -10.703616921878053" fill="#72ff27" stroke="none" /><path d="M 80.16572619554312 106.89939002012753 l -20.5392514914767 7.144617854843825 a42.74641156885156,42.74641156885156 0 0,0 -0.23513493865095092,-0.6951346653810064 l 20.65887185170002 -6.790981514988657" fill="#ecff1a" stroke="none" /><path d="M 80.05021161711548 106.5578916946017 l -12.920657954976528 4.247276906677568 a34.600836853351886,34.600836853351886 0 0,0 -0.18064155156009853,-0.5658570874111021 l 12.991664222313881 -4.024850785575074" fill="#ffac0f" stroke="none" /><path d="M 79.94057633289273 106.21446072829308 l -11.135865988820848 3.44991974901747 a32.65802116980569,32.65802116980569 0 0,0 -0.16130524462531493,-0.5369326976700951 l 11.193447553449793 -3.258249447756651" fill="#ff920d" stroke="none" /><path d="M 79.83685265289637 105.86919833188381 l -60.4894420413109 17.607594995651418 a84.0,84.0 0 0,0 -0.3911260317016998,-1.3879683043880173 l 60.78278656508718 -16.566618767360406" fill="#4dd2ff" stroke="none" /><line stroke="#e1ed5e" stroke-width="0.3" x1="15.003131293944662" x2="10.003315487706104" y1="100.72959589197737" y2="100.7725132973878" /><path d="M 14.003168132696942 100.73817937305945 a86.0,86.0 0 0,1 10.791469493833604,-42.45332614584628" fill="none" id="id10" stroke="none" /><text fill="#e1ed5e" style="font-size:6.75px; font-family:Arial;" text-anchor="middle"><textPath startOffset="22.145653131862435" xlink:href="#id10">October</textPath></text><line stroke="#e1ed5e" stroke-width="0.3" x1="26.387840678322718" x2="22.05771365940052" y1="57.49999999999999" y2="54.99999999999999" /><path d="M 25.521815274538284 56.99999999999999 a86.0,86.0 0 0,1 29.574782752854787,-30.34633250058573" fill="none" id="id11" stroke="none" /><text fill="#e1ed5e" style="font-size:6.75px; font-family:Arial;" text-anchor="middle"><textPath startOffset="21.40746469413373" xlink:href="#id11">November</textPath></text><line stroke="#e1ed5e" stroke-width="0.3" x1="56.869717070023135" x2="54.33264160355391" y1="26.7553504044142" y2="22.446841604673864" /><path d="M 56.362301976729285 25.89364864446614 a86.0,86.0 0 0,1 42.16139366436587,-11.88097634709845" fill="none" id="id12" stroke="none" /><text fill="#e1ed5e" style="font-size:6.75px; font-family:Arial;" text-anchor="middle"><textPath startOffset="22.145653131862474" xlink:href="#id12">December</textPath></text></svg>