<?xml version="1.0" encoding="utf-8" ?>
<svg baseProfile="full" height="200mm" version="1.1" viewBox="0,0,200,200" width="200mm" xmlns="http://www.w3.org/2000/svg" xmlns:ev="http://www.w3.org/2001/xml-events" xmlns:xlink="http://www.w3.org/1999/xlink"><defs /><rect fill="#1a1a1a" height="200" width="200" x="0" y="0" /><text alignment-baseline="middle" fill="#e1ed5e" style="dominant-baseline: central; font-size:9.0px; font-family:Arial;" text-anchor="middle" x="100.0" y="100.0">2024</text><line stroke="#e1ed5e" stroke-width="0.3" x1="100.0" x2="100.0" y1="15.0" y2="10.0" /><path d="M 100.0 14.0 a86.0,86.0 0 0,1 42.35913384403234,11.155469271406648" fill="none" id="id1" stroke="none" /><text fill="#e1ed5e" style="font-size:6.75px; font-family:Arial;" text-anchor="middle"><textPath startOffset="22.145653131862478" xlink:href="#id1">January</textPath></text><line stroke="#e1ed5e" stroke-width="0.3" x1="143.13028292997686" x2="145.6673583964461" y1="26.7553504044142" y2="22.446841604673864" /><path d="M 143.63769802327073 25.89364864446614 a86.0,86.0 0 0,1 29.32050498858742,28.57503671076993" fill="none" id="id2" stroke="none" /><text fill="#e1ed5e" style="font-size:6.75px; font-family:Arial;" text-anchor="middle"><textPath startOffset="20.669276256404974" xlink:href="#id2">February</textPath></text><line stroke="#e1ed5e" stroke-width="0.3" x1="172.87174338648825" x2="177.1583165268699" y1="56.24261187166439" y2="53.66864786411523" /><path d="M 173.72905801456457 55.72781907015455 a86.0,86.0 0 0,1 12.242430191666344,42.057860355516425" fill="none" id="id3" stroke="none" /><text fill="#e1ed5e" style="font-size:6.75px; font-family:Arial;" text-anchor="middle"><textPath startOffset="22.145653131862474" xlink:href="#id3">March</textPath></text><path d="M 120.26092885502905 94.47779374421319 l 6.28628901821908 -1.713356025801195 a27.51559809163603,27.51559809163603 0 0,0 0.12029625460768936,0.45678447278985423 l -6.314774753631499 1.6051910486385423" fill="#ff0400" stroke="none" /><path d="M 120.65975698304385 96.23510406497455 l 6.882077149768119 -1.2541437107396272 a27.99541723863189,27.99541723863189 0 0,0 0.08210013714391402,0.47353177378366623 l -6.902592104404267 1.1358189040353683" fill="#ff0b01" stroke="none" /><line stroke="#e1ed5e" stroke-width="0.3" x1="184.99686870605535" x2="189.99668451229388" y1="99.2704041080226" y2="99.22748670261217" /><path d="M 185.99683186730306 99.26182062694052 a86.0,86.0 0 0,1 -10.086455211305974,41.156179273409016" fill="none" id="id4" stroke="none" /><text fill="#e1ed5e" style="font-size:6.75px; font-family:Arial;" text-anchor="middle"><textPath startOffset="21.40746469413373" xlink:href="#id4">April</textPath></text><line stroke="#e1ed5e" stroke-width="0.3" x1="174.33088141563837" x2="178.70328620479359" y1="141.23008692659167" y2="143.65538615756765" /><path d="M 175.20536237346943 141.71514677278685 a86.0,86.0 0 0,1 -30.301960400862466,31.631185727798858" fill="none" id="id5" stroke="none" /><text fill="#e1ed5e" style="font-size:6.75px; font-family:Arial;" text-anchor="middle"><textPath startOffset="22.145653131862474" xlink:href="#id5">May</textPath></text><path d="M 118.00360718960297 110.81064883170644 l 5.382054221124265 3.231768920807079 a27.277805189444482,27.277805189444482 0 0,0 -0.24450270457133622,0.39937679282567257 l -5.3257835520975245 -3.3236828297573084" fill="#ff0000" stroke="none" /><path d="M 115.89218393027572 113.72728997021213 l 16.772033618769594 14.487283175497577 a43.16263715166119,43.16263715166119 0 0,0 -0.48915381392692736,0.5565672475217136 l -16.520868740884083 -14.773062700830584" fill="#ffea16" stroke="none" /><path d="M 114.13192950727249 115.5334660781643 l 19.050410197926258 20.93973794819162 a49.30884586217158,49.30884586217158 0 0,0 -0.6310005414352796,0.5642445750938518 l -18.688144629667597 -21.26367805316886" fill="#c4ff1e" stroke="none" /><path d="M 113.03279911837588 116.46651593811092 l 8.414939837965447 10.632001590873157 a34.55915448340741,34.55915448340741 0 0,0 -0.46834246132345386,0.36418593066917193 l -8.231187432006763 -10.774888573163121" fill="#ff700a" stroke="none" /><path d="M 112.45986205192187 116.90419585922612 l 11.611486738411827 15.753211811253117 a40.570138135601354,40.570138135601354 0 0,0 -0.5641547974927077,0.4084045670073255 l -11.339350930545152 -15.95021714963352" fill="#ffc712" stroke="none" /><line stroke="#e1ed5e" stroke-width="0.3" x1="143.1302829299769" x2="145.66735839644613" y1="173.24464959558577" y2="177.55315839532614" /><path d="M 143.63769802327073 174.10635135553383 a86.0,86.0 0 0,1 -40.68552437913181,11.842963189579606" fill="none" id="id6" stroke="none" /><text fill="#e1ed5e" style="font-size:6.75px; font-family:Arial;" text-anchor="middle"><textPath startOffset="21.407464694133747" xlink:href="#id6">June</textPath></text><path d="M 110.65571695917076 118.09573695890943 l 23.571604230512982 40.02973722831258 a67.454282779607,67.454282779607 0 0,0 -1.0028445313746628,0.5789925601445078 l -22.880967231277918 -40.42847668573326" fill="#37ff73" stroke="none" /><path d="M 110.34350942703117 118.27599006163325 l 8.651420783604417 15.286231561500502 a38.56462231096349,38.56462231096349 0 0,0 -0.5789391102426852,0.32112776528286313 l -8.387737485205637 -15.43249224221651" fill="#ffaa0f" stroke="none" /><path d="M 109.3889696526874 118.78422872680471 l 5.622566356151013 11.248899120186987 a33.57580947078417,33.57580947078417 0 0,0 -0.5177705604687141,0.2532675269389071 l -5.42863554642023 -11.343760397223118" fill="#ff6209" stroke="none" /><path d="M 108.73861861582097 119.09545874513695 l 17.651920685181583 38.57263236160211 a63.41978631699193,63.41978631699193 0 0,0 -0.9938381747943879,0.44453117447428636 l -16.987169107531567 -38.869967286986245" fill="#31ff40" stroke="none" /><path d="M 108.4095320186766 119.2426549942271 l 6.010854140626152 13.754010590816753 a36.010102425772516,36.010102425772516 0 0,0 -0.5685565192336351,0.2426829696003907 l -5.773862546222086 -13.855168210076547" fill="#ff860c" stroke="none" /><path d="M 106.0420521117495 120.11202640906438 l 8.775089904346151 29.209420348250212 a51.499056377372256,51.499056377372256 0 0,0 -0.8488515588963127,0.2470883174995412 l -8.272378333068232 -29.35575236005227" fill="#a9ff21" stroke="none" /><path d="M 104.29559338865022 120.5559693870025 l 5.032763117155469 24.08359339634583 a45.603824407476026,45.603824407476026 0 0,0 -0.7676720095843724,0.15355590182540732 l -4.618594622040138 -24.1664386948341" fill="#f3ff19" stroke="none" /><path d="M 103.58742460773223 120.69131181640829 l 8.493138996968288 48.98616877065389 a70.71698040759122,70.71698040759122 0 0,0 -1.1978867070064436,0.19711180178855098 l -7.650974786908772 -49.12474657093811" fill="#3bff9b" stroke="none" /><path d="M 103.2317021107853 120.74984581791261 l 5.642636949000281 36.22977696720979 a57.66655275359258,57.66655275359258 0 0,0 -0.9794386482550699,0.14394375247127142 l -5.019873195137525 -36.32130179297994" fill="#60ff29" stroke="none" /><path d="M 101.80034050326958 120.92268563240118 l 3.1222884716298664 36.28572485423894 a57.41980935559118,57.41980935559118 0 0,0 -0.9827837998330693,0.07607368166623124 l -2.4989356770215614 -36.33397630290023" fill="#63ff29" stroke="none" /><line stroke="#e1ed5e" stroke-width="0.3" x1="101.45913802915013" x2="101.54496967792366" y1="184.9874750549273" y2="189.98673829345242" /><path d="M 101.47630435890484 185.9873277026323 a86.0,86.0 0 0,1 -42.54439059252881,-10.42667462771756" fill="none" id="id7" stroke="none" /><text fill="#e1ed5e" style="font-size:6.75px; font-family:Arial;" text-anchor="middle"><textPath startOffset="22.145653131862474" xlink:href="#id7">July</textPath></text><path d="M 100.0 121.0 l 9.930251119070832e-16 8.108665393144097 a29.108665393144097,29.108665393144097 0 0,0 -0.4996889488581466,-0.004289228649283575 l 0.13919602400929346 -8.10747056268925" fill="#ff1d02" stroke="none" /><path d="M 99.27912038922189 120.98762331915562 l -2.1626388323343173 62.962869957466836 a84.0,84.0 0 0,0 -1.440696957596645,-0.061869726296685634 l 3.2431615505318008 -62.916467662744324" fill="#4dd2ff" stroke="none" /><path d="M 98.55909050195518 120.95050786540614 l -1.7873596183200193 25.987816578857807 a47.0492085281215,47.0492085281215 0 0,0 -0.805283062680583,-0.06233400201750977 l 2.2332116757758387 -25.953304809845243" fill="#e0ff1b" stroke="none" /><path d="M 93.95794788825049 120.11202640906438 l -11.59532515832728 38.597066276947594 a61.301179768270096,61.301179768270096 0 0,0 -1.0052207366297004,-0.3114199537693841 l 12.256186527828612 -38.39232973537156" fill="#38ff2e" stroke="none" /><path d="M 93.61358852112213 120.00534299687104 l -14.937776784227992 46.792373020049304 a70.11886957272998,70.11886957272998 0 0,0 -1.143529451928738,-0.37590084422998893 l 15.738828973804473 -46.5290512544173" fill="#3aff94" stroke="none" /><path d="M 92.93061703081489 119.77432235084164 l -9.714953964553327 27.17445527509861 a49.85881754389332,49.85881754389332 0 0,0 -0.8034649877405449,-0.2950434726480372 l 10.18000810394799 -27.00368095344185" fill="#bdff1f" stroke="none" /><line stroke="#e1ed5e" stroke-width="0.3" x1="58.13341422392154" x2="55.67067388415222" y1="173.97424548756322" y2="178.32567169271397" /><path d="M 57.64086615596768 174.84453072859336 a86.0,86.0 0 0,1 -31.369924170532247,-30.572349798747897" fill="none" id="id8" stroke="none" /><text fill="#e1ed5e" style="font-size:6.75px; font-family:Arial;" text-anchor="middle"><textPath startOffset="22.145653131862474" xlink:href="#id8">August</textPath></text><line stroke="#e1ed5e" stroke-width="0.3" x1="26.387840678322732" x2="22.057713659400548" y1="142.50000000000003" y2="145.00000000000006" /><path d="M 25.521815274538298 143.00000000000003 a86.0,86.0 0 0,1 -11.493303480769221,-40.785679425670985" fill="none" id="id9" stroke="none" /><text fill="#e1ed5e" style="font-size:6.75px; font-family:Arial;" text-anchor="middle"><textPath startOffset="21.40746469413373" xlink:href="#id9">September</textPath></text><line stroke="#e1ed5e" stroke-width="0.3" x1="15.003131293944662" x2="10.003315487706104" y1="100.72959589197737" y2="100.7725132973878" /><path d="M 14.003168132696942 100.73817937305945 a86.0,86.0 0 0,1 10.791469493833604,-42.45332614584628" fill="none" id="id10" stroke="none" /><text fill="#e1ed5e" style="font-size:6.75px; font-family:Arial;" text-anchor="middle"><textPath startOffset="22.145653131862435" xlink:href="#id10">October</textPath></text><line stroke="#e1ed5e" stroke-width="0.3" x1="26.387840678322718" x2="22.05771365940052" y1="57.49999999999999" y2="54.99999999999999" /><path d="M 25.521815274538284 56.99999999999999 a86.0,86.0 0 0,1 29.574782752854787,-30.34633250058573" fill="none" id="id11" stroke="none" /><text fill="#e1ed5e" style="font-size:6.75px; font-family:Arial;" text-anchor="middle"><textPath startOffset="21.40746469413373" xlink:href="#id11">November</textPath></text><line stroke="#e1ed5e" stroke-width="0.3" x1="56.869717070023135" x2="54.33264160355391" y1="26.7553504044142" y2="22.446841604673864" /><path d="M 56.362301976729285 25.89364864446614 a86.0,86.0 0 0,1 42.16139366436587,-11.88097634709845" fill="none" id="id12" stroke="none" /><text fill="#e1ed5e" style="font-size:6.75px; font-family:Arial;" text-anchor="middle"><textPath startOffset="22.145653131862474" xlink:href="#id12">December</textPath></text></svg>