<?xml version="1.0" encoding="utf-8" ?>
<svg baseProfile="full" height="200mm" version="1.1" viewBox="0,0,200,200" width="200mm" xmlns="http://www.w3.org/2000/svg" xmlns:ev="http://www.w3.org/2001/xml-events" xmlns:xlink="http://www.w3.org/1999/xlink"><defs /><rect fill="#1a1a1a" height="200" width="200" x="0" y="0" /><text alignment-baseline="middle" fill="#e1ed5e" style="dominant-baseline: central; font-size:9.0px; font-family:Arial;" text-anchor="middle" x="100.0" y="100.0">2026</text><line stroke="#e1ed5e" stroke-width="0.3" x1="100.0" x2="100.0" y1="15.0" y2="10.0" /><path d="M 100.0 14.0 a86.0,86.0 0 0,1 42.46469731375804,11.215312516191453" fill="none" id="id673" stroke="none" /><text fill="#e1ed5e" style="font-size:6.75px; font-family:Arial;" text-anchor="middle"><textPath startOffset="22.20632615414155" xlink:href="#id673">January</textPath></text><path d="M 100.0 79.0 l 0.0 -0.8325309329875203 a21.83253093298752,21.83253093298752 0 0,0 0.3758111307327919,0.003234725050025491 l -0.014330651460263527 0.8324075845460537" fill="#ff0b01" stroke="none" /><path d="M 100.36148047927253 79.00311137660856 l 0.022033930729046358 -1.2798588471066807 a22.280048500104826,22.280048500104826 0 0,0 0.3834007664049724,0.009902110653799362 l -0.044061332328886524 1.2792899443105217" fill="#ff1101" stroke="none" /><path d="M 100.72285384407766 79.0124445844662 l 0.09397450085112177 -2.728483856617841 a23.73010171287342,23.73010171287342 0 0,0 0.4081116086637077,0.01757414435463246 l -0.14092694190416105 2.7264619857390135" fill="#ff2603" stroke="none" /><path d="M 102.16513564639614 79.11191278185805 l 0.2463427214035006 -2.3765846998065276 a23.389317804676256,23.389317804676256 0 0,0 0.40010579703012034,0.04495654819804081 l -0.28721522194334625 2.3719921981378858" fill="#ff2103" stroke="none" /><path d="M 102.88285421437855 79.19881850522331 l 0.25676817597932416 -1.8527060452760444 a22.870414282023678,22.870414282023678 0 0,0 0.38948426560472194,0.05739985629459052 l -0.28862142201270186 1.848011704820485" fill="#ff1a02" stroke="none" /><path d="M 103.2404852339499 79.25152402106235 l 0.1716745686026252 -1.099213668844361 a22.1125389194447,22.1125389194447 0 0,0 0.3755665147944457,0.06197169291915783 l -0.1905702895359461 1.0960957129855786" fill="#ff0f01" stroke="none" /><path d="M 103.59715602781102 79.31037775812273 l 0.29840031399834416 -1.716297465484206 a22.742044700179022,22.742044700179022 0 0,0 0.38510390721331317,0.0703752775210058 l -0.3278993423145582 1.7109067066124617" fill="#ff1802" stroke="none" /><path d="M 103.95276090670814 79.375362276772 l 10.666811030187791 -55.65707573822665 a77.67001797497892,77.67001797497892 0 0,0 1.3108982546487948,0.2629538575920533 l -11.623275694303711 55.46521792455739" fill="#45fff1" stroke="none" /><path d="M 104.66035177308747 79.52364482259891 l 0.546308316265613 -2.400334495095782 a23.4617185998338,23.4617185998338 0 0,0 0.3930131841224914,0.09301352293508475 l -0.587545187350628 2.390575060019829" fill="#ff2203" stroke="none" /><path d="M 105.36241919743992 79.69619591428918 l 0.5205367066007672 -1.9709155366459983 a23.03849614066629,23.03849614066629 0 0,0 0.3825510587315108,0.10456565530128516 l -0.5543856545559889 1.9616633405184196" fill="#ff1c02" stroke="none" /><path d="M 105.71112130821622 79.79150937346287 l 0.14711720694407127 -0.5205661965636244 a21.54095530091103,21.54095530091103 0 0,0 0.35594867661897733,0.10391117946046664 l -0.15605610128647576 0.5179566881844543" fill="#ff0701" stroke="none" /><path d="M 106.0581310904928 79.89281104454417 l 0.905868302112582 -3.00661455608317 a24.14011599620516,24.14011599620516 0 0,0 0.39683434030238063,0.1232983612225368 l -0.9574880151256808 2.9905760599781126" fill="#ff2b04" stroke="none" /><path d="M 107.76421540070413 80.48803036053334 l 0.5711263298752899 -1.4352769769648648 a22.544734697377585,22.544734697377585 0 0,0 0.3593374456696496,0.14658276651458318 l -0.595747645133327 1.4252333242667021" fill="#ff1502" stroke="none" /><path d="M 108.43124777332544 80.76684994638697 l 1.2647335780715783 -2.8850783820933117 a24.15011560015246,24.15011560015246 0 0,0 0.379292379334507,0.17017743449991066 l -1.3142080758728656 2.8628806170768697" fill="#ff2c04" stroke="none" /><path d="M 108.76106565485865 80.91482961587045 l 0.38383315494032455 -0.836144990769651 a21.92003605169614,21.92003605169614 0 0,0 0.3415577812006338,0.1603659580635285 l -0.39816914744055626 0.8294140500661197" fill="#ff0c01" stroke="none" /><path d="M 109.73455568895987 81.39251694778311 l 29.203667066879603 -55.82244915665069 a84.0,84.0 0 0,0 1.2754198138867554,0.6812850939929835 l -30.16023192729467 55.311485336155954" fill="#4dd2ff" stroke="none" /><path d="M 110.05341064243156 81.56283822128135 l 3.6849356402418856 -6.757881176817588 a28.697253320029837,28.697253320029837 0 0,0 0.43165576350452334,0.24021596504648818 l -3.800715492818444 6.69344981421092" fill="#ff6a09" stroke="none" /><path d="M 110.36928655335952 81.73862282372117 l 3.4873754146434033 -6.141625797914906 a28.06267334118414,28.06267334118414 0 0,0 0.418004567470501,0.2421352258068407 l -3.592576714579233 6.0806864147180155" fill="#ff6109" stroke="none" /><line stroke="#e1ed5e" stroke-width="0.3" x1="143.23703022742887" x2="145.7803849466894" y1="26.81831364943548" y2="22.513508569990506" /><path d="M 143.74570117128098 25.957352633546492 a86.0,86.0 0 0,1 28.547481713284135,27.462654790039103" fill="none" id="id674" stroke="none" /><text fill="#e1ed5e" style="font-size:6.75px; font-family:Arial;" text-anchor="middle"><textPath startOffset="19.985693538727396" xlink:href="#id674">February</textPath></text><path d="M 110.68208982089419 81.91981866633111 l 3.6302840209557856 -6.144508658148207 a28.136802415848795,28.136802415848795 0 0,0 0.41486768396600027,0.24995313760331606 l -3.7355137711394235 6.081108911086277" fill="#ff6209" stroke="none" /><path d="M 110.99172775467656 82.1063720568725 l 2.5971648591482603 -4.227970591501573 a25.961955323075447,25.961955323075447 0 0,0 0.37877361323606135,0.23718800185966354 l -2.669557624756585 4.182638248318965" fill="#ff4506" stroke="none" /><path d="M 111.2981086023043 82.29822771554956 l 3.1742074253245267 -4.973318898284136 a26.89995708823509,26.89995708823509 0 0,0 0.3881701906058626,0.2524766896263651 l -3.25934464171467 4.917943284498243" fill="#ff5207" stroke="none" /><path d="M 111.60114157652 82.49532879139004 l 2.6416153272633145 -3.985867033719944 a25.781764062323433,25.781764062323433 0 0,0 0.3678140706185822,0.24834970236829892 l -2.7098340922884385 3.939805419052975" fill="#ff4206" stroke="none" /><path d="M 111.90073688211348 82.69761687909136 l 2.331547004118935 -3.3898169440502985 a25.114239947619303,25.114239947619303 0 0,0 0.354073542929257,0.24805114417141466 l -2.389551686631843 3.3491809571149487" fill="#ff3905" stroke="none" /><path d="M 112.19680574252982 82.90503203632743 l 2.767987574372696 -3.879594371397303 a25.76581658254483,25.76581658254483 0 0,0 0.3588254160730692,0.26070192490630156 l -2.8343583067995537 3.8313732116743267" fill="#ff4206" stroke="none" /><path d="M 112.48926042617603 83.11751280151076 l 3.4321767671911734 -4.639480510280178 a26.77101522840795,26.77101522840795 0 0,0 0.3681063626188427,0.27725008067928847 l -3.5115292835683993 4.5797138400950415" fill="#ff5007" stroke="none" /><path d="M 114.16331599549186 84.49514656593476 l 0.8807534864048386 -0.9641777195817453 a22.305896388980432,22.305896388980432 0 0,0 0.2812583575567149,0.26139899070582484 l -0.8972197277564005 0.94887414280128" fill="#ff1201" stroke="none" /><path d="M 116.15771136456269 86.58626213691792 l 0.06452730587437318 -0.05356899541528502 a21.083865430740012,21.083865430740012 0 0,0 0.22941404970391277,0.2812344987144188 l -0.06543984765469481 0.05245032709276536" fill="#ff0000" stroke="none" /><line stroke="#e1ed5e" stroke-width="0.3" x1="172.23445277983987" x2="176.4835382374775" y1="55.19839476539836" y2="52.563006222186495" /><path d="M 173.08426987136738 54.67131705675599 a86.0,86.0 0 0,1 12.851231095245387,41.99856678651699" fill="none" id="id675" stroke="none" /><text fill="#e1ed5e" style="font-size:6.75px; font-family:Arial;" text-anchor="middle"><textPath startOffset="22.20632615414155" xlink:href="#id675">March</textPath></text><line stroke="#e1ed5e" stroke-width="0.3" x1="184.98032266829074" x2="189.97916517819016" y1="98.17113171792111" y2="98.06355123074" /><path d="M 185.9800911702706 98.14961562048488 a86.0,86.0 0 0,1 -9.607161424134198,41.387399972396054" fill="none" id="id676" stroke="none" /><text fill="#e1ed5e" style="font-size:6.75px; font-family:Arial;" text-anchor="middle"><textPath startOffset="21.466115282336823" xlink:href="#id676">April</textPath></text><line stroke="#e1ed5e" stroke-width="0.3" x1="174.80103733775053" x2="179.2010983576182" y1="140.37084112569926" y2="142.7455964860345" /><path d="M 175.68104954172406 140.8457921977663 a86.0,86.0 0 0,1 -30.038265399797805,32.042727171017184" fill="none" id="id677" stroke="none" /><text fill="#e1ed5e" style="font-size:6.75px; font-family:Arial;" text-anchor="middle"><textPath startOffset="22.206326154141568" xlink:href="#id677">May</textPath></text><line stroke="#e1ed5e" stroke-width="0.3" x1="143.8653032363475" x2="146.44561519142675" y1="172.8068346515853" y2="177.08958963109032" /><path d="M 144.38136562736335 173.6633856474863 a86.0,86.0 0 0,1 -40.68145358897372,12.25698825130547" fill="none" id="id678" stroke="none" /><text fill="#e1ed5e" style="font-size:6.75px; font-family:Arial;" text-anchor="middle"><textPath startOffset="21.466115282336833" xlink:href="#id678">June</textPath></text><line stroke="#e1ed5e" stroke-width="0.3" x1="102.19456741930631" x2="102.32365962044197" y1="184.97166512339345" y2="189.96999836594603" /><path d="M 102.22038585953345 185.97133177190398 a86.0,86.0 0 0,1 -42.740103519485714,-10.115201625700543" fill="none" id="id679" stroke="none" /><text fill="#e1ed5e" style="font-size:6.75px; font-family:Arial;" text-anchor="middle"><textPath startOffset="22.20632615414155" xlink:href="#id679">July</textPath></text><line stroke="#e1ed5e" stroke-width="0.3" x1="58.666819895761336" x2="56.23545636021788" y1="174.27360380694188" y2="178.64263932499728" /><path d="M 58.180547188652646 175.14741091055294 a86.0,86.0 0 0,1 -31.652253787137756,-30.449443065178592" fill="none" id="id680" stroke="none" /><text fill="#e1ed5e" style="font-size:6.75px; font-family:Arial;" text-anchor="middle"><textPath startOffset="22.20632615414155" xlink:href="#id680">August</textPath></text><line stroke="#e1ed5e" stroke-width="0.3" x1="26.63291911575756" x2="22.317208475507996" y1="142.92168965132927" y2="145.44649492493687" /><path d="M 25.769776987707644 143.4266507060508 a86.0,86.0 0 0,1 -11.730757126820373,-40.83630448921669" fill="none" id="id681" stroke="none" /><text fill="#e1ed5e" style="font-size:6.75px; font-family:Arial;" text-anchor="middle"><textPath startOffset="21.46611528233685" xlink:href="#id681">September</textPath></text><line stroke="#e1ed5e" stroke-width="0.3" x1="15.007084014347285" x2="10.007500721073583" y1="101.09737516637583" y2="101.16192664675087" /><path d="M 14.007167355692545 101.11028546245083 a86.0,86.0 0 0,1 10.666146001902534,-42.60595125391555" fill="none" id="id682" stroke="none" /><text fill="#e1ed5e" style="font-size:6.75px; font-family:Arial;" text-anchor="middle"><textPath startOffset="22.20632615414155" xlink:href="#id682">October</textPath></text><line stroke="#e1ed5e" stroke-width="0.3" x1="26.266209847984243" x2="21.928928074336255" y1="57.711370442889674" y2="55.22380399835377" /><path d="M 25.398753493254645 57.213857153982495 a86.0,86.0 0 0,1 29.58750427330803,-30.492523968695096" fill="none" id="id683" stroke="none" /><text fill="#e1ed5e" style="font-size:6.75px; font-family:Arial;" text-anchor="middle"><textPath startOffset="21.46611528233685" xlink:href="#id683">November</textPath></text><line stroke="#e1ed5e" stroke-width="0.3" x1="56.762969772571076" x2="54.21961505331055" y1="26.818313649435495" y2="22.513508569990535" /><path d="M 56.25429882871897 25.957352633546506 a86.0,86.0 0 0,1 42.265352541879196,-11.944610805530505" fill="none" id="id684" stroke="none" /><text fill="#e1ed5e" style="font-size:6.75px; font-family:Arial;" text-anchor="middle"><textPath startOffset="22.20632615414155" xlink:href="#id684">December</textPath></text></svg>